<svg width="69" height="44" viewBox="0 0 69 44" fill="none" xmlns="http://www.w3.org/2000/svg">
<path fill-rule="evenodd" clip-rule="evenodd" d="M28.3674 0.0685057C28.3674 0.106184 28.3069 0.137011 28.2329 0.137011C28.159 0.137011 28.0985 0.167839 28.0985 0.205517C28.0985 0.243195 28.038 0.274023 27.964 0.274023C27.8744 0.274023 27.8296 0.319716 27.8296 0.411034C27.8296 0.486391 27.7993 0.548046 27.7624 0.548046C27.7254 0.548046 27.6951 0.637994 27.6951 0.747877C27.6951 0.85776 27.6574 0.965657 27.6111 0.987647C27.5439 1.01957 27.5439 1.0356 27.6111 1.06752C27.6664 1.0939 27.6951 1.26927 27.6951 1.58132C27.6951 1.85157 27.724 2.05517 27.7624 2.05517C27.7997 2.05517 27.8296 2.23788 27.8296 2.46621C27.8296 2.69453 27.8594 2.87724 27.8968 2.87724C27.9352 2.87724 27.964 3.08276 27.964 3.35678C27.964 3.6308 27.9929 3.83632 28.0312 3.83632C28.0686 3.83632 28.0985 4.01902 28.0985 4.24735C28.0985 4.47568 28.1283 4.65839 28.1657 4.65839C28.2041 4.65839 28.2329 4.8639 28.2329 5.13793C28.2329 5.41195 28.2617 5.61747 28.3001 5.61747C28.3375 5.61747 28.3674 5.80017 28.3674 6.0285C28.3674 6.25683 28.3972 6.43954 28.4346 6.43954C28.473 6.43954 28.5018 6.64505 28.5018 6.91908C28.5018 7.1931 28.5306 7.39862 28.569 7.39862C28.6064 7.39862 28.6362 7.58132 28.6362 7.80965C28.6362 8.03798 28.6661 8.22068 28.7035 8.22068C28.7418 8.22068 28.7707 8.4262 28.7707 8.70022C28.7707 8.97425 28.7995 9.17976 28.8379 9.17976C28.8753 9.17976 28.9051 9.36247 28.9051 9.5908C28.9051 9.81913 28.935 10.0018 28.9723 10.0018C29.077 10.0018 29.0526 10.6149 28.9435 10.726C28.8833 10.7875 28.708 10.8239 28.473 10.8239C28.267 10.8239 28.0985 10.8547 28.0985 10.8924C28.0985 10.9301 27.9472 10.9609 27.7624 10.9609C27.5775 10.9609 27.4263 10.9917 27.4263 11.0294C27.4263 11.0671 27.3053 11.0979 27.1574 11.0979C27.0095 11.0979 26.8885 11.1288 26.8885 11.1664C26.8885 11.2041 26.7675 11.2349 26.6196 11.2349C26.4717 11.2349 26.3507 11.2658 26.3507 11.3034C26.3507 11.3411 26.2297 11.3719 26.0818 11.3719C25.9339 11.3719 25.8129 11.4028 25.8129 11.4405C25.8129 11.4781 25.7222 11.509 25.6113 11.509C25.5004 11.509 25.4096 11.5398 25.4096 11.5775C25.4096 11.6151 25.2886 11.646 25.1407 11.646C24.9928 11.646 24.8719 11.6768 24.8719 11.7145C24.8719 11.7522 24.7811 11.783 24.6702 11.783C24.5593 11.783 24.4685 11.8138 24.4685 11.8515C24.4685 11.8892 24.3778 11.92 24.2669 11.92C24.1559 11.92 24.0652 11.9508 24.0652 11.9885C24.0652 12.0262 23.9744 12.057 23.8635 12.057C23.7526 12.057 23.6619 12.0878 23.6619 12.1255C23.6619 12.1632 23.5711 12.194 23.4602 12.194C23.3493 12.194 23.2585 12.2248 23.2585 12.2625C23.2585 12.3002 23.198 12.331 23.1241 12.331C23.0502 12.331 22.9897 12.3619 22.9897 12.3995C22.9897 12.4372 22.8687 12.468 22.7208 12.468C22.4967 12.468 22.4519 12.4452 22.4519 12.331C22.4519 12.2557 22.4216 12.194 22.3847 12.194C22.3477 12.194 22.3174 12.1015 22.3174 11.9885C22.3174 11.8755 22.2872 11.783 22.2502 11.783C22.2133 11.783 22.183 11.7213 22.183 11.646C22.183 11.5706 22.1528 11.509 22.1158 11.509C22.0788 11.509 22.0486 11.4473 22.0486 11.3719C22.0486 11.2966 22.0183 11.2349 21.9813 11.2349C21.9444 11.2349 21.9141 11.1733 21.9141 11.0979C21.9141 11.0226 21.8839 10.9609 21.8469 10.9609C21.8099 10.9609 21.7797 10.8684 21.7797 10.7554C21.7797 10.6424 21.7494 10.5499 21.7125 10.5499C21.6755 10.5499 21.6452 10.4882 21.6452 10.4129C21.6452 10.3375 21.615 10.2759 21.578 10.2759C21.541 10.2759 21.5108 10.2142 21.5108 10.1388C21.5108 10.0635 21.4805 10.0018 21.4436 10.0018C21.4066 10.0018 21.3763 9.94018 21.3763 9.86482C21.3763 9.78946 21.3461 9.72781 21.3091 9.72781C21.2722 9.72781 21.2419 9.63533 21.2419 9.52229C21.2419 9.40926 21.2117 9.31678 21.1747 9.31678C21.1377 9.31678 21.1075 9.25512 21.1075 9.17976C21.1075 9.10441 21.0772 9.04275 21.0402 9.04275C21.0033 9.04275 20.973 8.9811 20.973 8.90574C20.973 8.83039 20.9428 8.76873 20.9058 8.76873C20.8688 8.76873 20.8386 8.67625 20.8386 8.56321C20.8386 8.45018 20.8083 8.3577 20.7714 8.3577C20.7344 8.3577 20.7041 8.29604 20.7041 8.22068C20.7041 8.14533 20.6739 8.08367 20.6369 8.08367C20.5999 8.08367 20.5697 8.02202 20.5697 7.94666C20.5697 7.87131 20.5394 7.80965 20.5025 7.80965C20.4655 7.80965 20.4352 7.748 20.4352 7.67264C20.4352 7.59728 20.405 7.53563 20.368 7.53563C20.3311 7.53563 20.3008 7.44314 20.3008 7.33011C20.3008 7.21708 20.2706 7.12459 20.2336 7.12459C20.1966 7.12459 20.1664 7.06294 20.1664 6.98758C20.1664 6.91223 20.1361 6.85057 20.0991 6.85057C20.0622 6.85057 20.0319 6.78892 20.0319 6.71356C20.0319 6.6382 20.0017 6.57655 19.9647 6.57655C19.9277 6.57655 19.8975 6.51489 19.8975 6.43954C19.8975 6.36418 19.8672 6.30252 19.8303 6.30252C19.7933 6.30252 19.763 6.21004 19.763 6.09701C19.763 5.98397 19.7328 5.89149 19.6958 5.89149C19.6588 5.89149 19.6286 5.82984 19.6286 5.75448C19.6286 5.67912 19.5983 5.61747 19.5614 5.61747C19.5244 5.61747 19.4942 5.55581 19.4942 5.48046C19.4942 5.4051 19.4639 5.34344 19.4269 5.34344C19.39 5.34344 19.3597 5.25096 19.3597 5.13793C19.3597 5.02489 19.3295 4.93241 19.2925 4.93241C19.2555 4.93241 19.2253 4.87076 19.2253 4.7954C19.2253 4.72004 19.195 4.65839 19.158 4.65839C19.1211 4.65839 19.0908 4.59673 19.0908 4.52138C19.0908 4.44602 19.0606 4.38437 19.0236 4.38437C18.9866 4.38437 18.9564 4.32271 18.9564 4.24735C18.9564 4.172 18.9261 4.11034 18.8892 4.11034C18.8522 4.11034 18.8219 4.01786 18.8219 3.90483C18.8219 3.79179 18.7917 3.69931 18.7547 3.69931C18.7177 3.69931 18.6875 3.65204 18.6875 3.59429C18.6875 3.42165 18.2405 3.01425 18.0511 3.01425C17.9575 3.01425 17.8808 2.98342 17.8808 2.94575C17.8808 2.90807 17.8203 2.87724 17.7464 2.87724C17.6725 2.87724 17.612 2.90807 17.612 2.94575C17.612 2.98342 17.535 3.01425 17.4409 3.01425C17.2522 3.01425 16.9397 3.28999 16.9397 3.45646C16.9397 3.51469 16.9095 3.5623 16.8725 3.5623C16.8356 3.5623 16.8053 3.71643 16.8053 3.90483C16.8053 4.09322 16.8356 4.24735 16.8725 4.24735C16.9095 4.24735 16.9397 4.33984 16.9397 4.45287C16.9397 4.56591 16.97 4.65839 17.007 4.65839C17.0439 4.65839 17.0742 4.72004 17.0742 4.7954C17.0742 4.87076 17.1044 4.93241 17.1414 4.93241C17.1784 4.93241 17.2086 4.99407 17.2086 5.06942C17.2086 5.14478 17.2389 5.20643 17.2759 5.20643C17.3128 5.20643 17.3431 5.26809 17.3431 5.34344C17.3431 5.4188 17.3733 5.48046 17.4103 5.48046C17.4473 5.48046 17.4775 5.57294 17.4775 5.68597C17.4775 5.79901 17.5078 5.89149 17.5447 5.89149C17.5817 5.89149 17.612 5.95315 17.612 6.0285C17.612 6.10386 17.6422 6.16551 17.6792 6.16551C17.7162 6.16551 17.7464 6.22717 17.7464 6.30252C17.7464 6.37788 17.7767 6.43954 17.8136 6.43954C17.8506 6.43954 17.8808 6.50119 17.8808 6.57655C17.8808 6.6519 17.9111 6.71356 17.9481 6.71356C17.985 6.71356 18.0153 6.80604 18.0153 6.91908C18.0153 7.03211 18.0455 7.12459 18.0825 7.12459C18.1195 7.12459 18.1497 7.18625 18.1497 7.2616C18.1497 7.33696 18.18 7.39862 18.2169 7.39862C18.2539 7.39862 18.2842 7.46027 18.2842 7.53563C18.2842 7.61098 18.3144 7.67264 18.3514 7.67264C18.3884 7.67264 18.4186 7.76512 18.4186 7.87816C18.4186 7.99119 18.4489 8.08367 18.4858 8.08367C18.5228 8.08367 18.5531 8.14533 18.5531 8.22068C18.5531 8.29604 18.5833 8.3577 18.6203 8.3577C18.6572 8.3577 18.6875 8.41935 18.6875 8.49471C18.6875 8.57006 18.7177 8.63172 18.7547 8.63172C18.7917 8.63172 18.8219 8.69337 18.8219 8.76873C18.8219 8.84409 18.8522 8.90574 18.8892 8.90574C18.9261 8.90574 18.9564 8.99822 18.9564 9.11126C18.9564 9.22429 18.9866 9.31678 19.0236 9.31678C19.0606 9.31678 19.0908 9.37843 19.0908 9.45379C19.0908 9.52914 19.1211 9.5908 19.158 9.5908C19.195 9.5908 19.2253 9.65245 19.2253 9.72781C19.2253 9.80317 19.2555 9.86482 19.2925 9.86482C19.3295 9.86482 19.3597 9.92648 19.3597 10.0018C19.3597 10.0772 19.39 10.1388 19.4269 10.1388C19.4639 10.1388 19.4942 10.2313 19.4942 10.3444C19.4942 10.4574 19.5244 10.5499 19.5614 10.5499C19.5983 10.5499 19.6286 10.6115 19.6286 10.6869C19.6286 10.7622 19.6588 10.8239 19.6958 10.8239C19.7328 10.8239 19.763 10.8856 19.763 10.9609C19.763 11.0363 19.7933 11.0979 19.8303 11.0979C19.8672 11.0979 19.8975 11.1904 19.8975 11.3034C19.8975 11.4165 19.9277 11.509 19.9647 11.509C20.0017 11.509 20.0319 11.5706 20.0319 11.646C20.0319 11.7213 20.0622 11.783 20.0991 11.783C20.1361 11.783 20.1664 11.8446 20.1664 11.92C20.1664 11.9953 20.1966 12.057 20.2336 12.057C20.2706 12.057 20.3008 12.1187 20.3008 12.194C20.3008 12.2694 20.3311 12.331 20.368 12.331C20.405 12.331 20.4352 12.4235 20.4352 12.5365C20.4352 12.6496 20.4655 12.7421 20.5025 12.7421C20.5394 12.7421 20.5697 12.8037 20.5697 12.8791C20.5697 12.9544 20.5999 13.0161 20.6369 13.0161C20.6739 13.0161 20.7041 13.1086 20.7041 13.2216C20.7041 13.3814 20.6743 13.4271 20.5697 13.4271C20.4957 13.4271 20.4352 13.4579 20.4352 13.4956C20.4352 13.5333 20.3748 13.5641 20.3008 13.5641C20.2269 13.5641 20.1664 13.595 20.1664 13.6326C20.1664 13.6703 20.1059 13.7011 20.0319 13.7011C19.958 13.7011 19.8975 13.732 19.8975 13.7696C19.8975 13.8073 19.837 13.8382 19.763 13.8382C19.6891 13.8382 19.6286 13.869 19.6286 13.9067C19.6286 13.9443 19.5681 13.9752 19.4942 13.9752C19.4202 13.9752 19.3597 14.006 19.3597 14.0437C19.3597 14.0813 19.2992 14.1122 19.2253 14.1122C19.1513 14.1122 19.0908 14.143 19.0908 14.1807C19.0908 14.2184 19.037 14.2492 18.9712 14.2492C18.9054 14.2492 18.808 14.3108 18.7547 14.3862C18.7014 14.4616 18.604 14.5232 18.5382 14.5232C18.4725 14.5232 18.4186 14.554 18.4186 14.5917C18.4186 14.6294 18.3581 14.6602 18.2842 14.6602C18.2102 14.6602 18.1497 14.691 18.1497 14.7287C18.1497 14.7664 18.0959 14.7972 18.0301 14.7972C17.9643 14.7972 17.8669 14.8589 17.8136 14.9342C17.7603 15.0096 17.6696 15.0713 17.612 15.0713C17.5543 15.0713 17.4636 15.1329 17.4103 15.2083C17.357 15.2836 17.2662 15.3453 17.2086 15.3453C17.151 15.3453 17.0603 15.4069 17.007 15.4823C16.9537 15.5576 16.8629 15.6193 16.8053 15.6193C16.7477 15.6193 16.6569 15.681 16.6036 15.7563C16.5503 15.8317 16.4596 15.8933 16.402 15.8933C16.3444 15.8933 16.2536 15.955 16.2003 16.0303C16.147 16.1057 16.0617 16.1673 16.0107 16.1673C15.9599 16.1673 15.8334 16.2598 15.7298 16.3729C15.6262 16.4859 15.506 16.5784 15.4627 16.5784C15.3618 16.5784 15.192 16.4062 15.192 16.3039C15.192 16.2606 15.071 16.1066 14.9231 15.9618C14.7752 15.817 14.6542 15.6629 14.6542 15.6193C14.6542 15.5757 14.5332 15.4216 14.3853 15.2768C14.2375 15.132 14.1165 14.9778 14.1165 14.9342C14.1165 14.8907 13.9955 14.7365 13.8476 14.5917C13.6997 14.4469 13.5787 14.2928 13.5787 14.2492C13.5787 14.2056 13.4577 14.0515 13.3098 13.9067C13.1619 13.7618 13.0409 13.6081 13.0409 13.565C13.0409 13.522 12.8897 13.3366 12.7048 13.1531C12.52 12.9696 12.3687 12.7842 12.3687 12.7412C12.3687 12.6981 12.2477 12.5444 12.0998 12.3995C11.9519 12.2547 11.8309 12.1006 11.8309 12.057C11.8309 12.0134 11.7099 11.8593 11.562 11.7145C11.4142 11.5697 11.2932 11.4155 11.2932 11.3719C11.2932 11.3284 11.1722 11.1742 11.0243 11.0294C10.8764 10.8846 10.7554 10.7309 10.7554 10.6878C10.7554 10.6448 10.6041 10.4594 10.4193 10.2759C10.2344 10.0923 10.0832 9.90695 10.0832 9.86393C10.0832 9.82084 9.96218 9.66711 9.8143 9.52229C9.66641 9.37747 9.54541 9.22512 9.54541 9.18367C9.54541 9.14222 9.37971 8.93938 9.17718 8.73297C8.81203 8.36092 8.80544 8.3577 8.40184 8.3577C8.02709 8.3577 7.9764 8.37647 7.76183 8.59521C7.63364 8.72578 7.52878 8.87992 7.52878 8.93773C7.52878 8.99548 7.49853 9.04275 7.46156 9.04275C7.42458 9.04275 7.39433 9.13524 7.39433 9.24827C7.39433 9.3613 7.42458 9.45379 7.46156 9.45379C7.49853 9.45379 7.52878 9.53387 7.52878 9.63183C7.52878 9.74131 7.60642 9.8838 7.73044 10.0018C7.84135 10.1074 7.9321 10.2297 7.9321 10.2735C7.9321 10.3174 8.08335 10.5034 8.26821 10.6869C8.45307 10.8704 8.60432 11.0558 8.60432 11.0988C8.60432 11.1419 8.72531 11.2956 8.8732 11.4405C9.02109 11.5853 9.14209 11.7394 9.14209 11.783C9.14209 11.8266 9.26308 11.9807 9.41097 12.1255C9.55886 12.2703 9.67986 12.4245 9.67986 12.468C9.67986 12.5116 9.80085 12.6657 9.94874 12.8106C10.0966 12.9554 10.2176 13.1091 10.2176 13.1522C10.2176 13.1952 10.3689 13.3806 10.5537 13.5641C10.7386 13.7477 10.8898 13.933 10.8898 13.9761C10.8898 14.0191 11.0108 14.1729 11.1587 14.3177C11.3066 14.4625 11.4276 14.6167 11.4276 14.6602C11.4276 14.7038 11.5486 14.8579 11.6965 15.0027C11.8444 15.1476 11.9654 15.3013 11.9654 15.3444C11.9654 15.3874 12.1166 15.5728 12.3015 15.7563C12.4863 15.9398 12.6376 16.1252 12.6376 16.1682C12.6376 16.2113 12.7586 16.3651 12.9065 16.5099C13.0544 16.6547 13.1754 16.8088 13.1754 16.8524C13.1754 16.896 13.2964 17.0501 13.4442 17.1949C13.5921 17.3398 13.7131 17.5068 13.7131 17.5664C13.7131 17.6258 13.7434 17.6745 13.7803 17.6745C13.992 17.6745 13.7101 18.0223 12.5031 19.2501C11.7637 20.0023 11.1587 20.6511 11.1587 20.6919C11.1587 20.7328 11.0075 20.9162 10.8226 21.0998C10.6378 21.2833 10.4865 21.4672 10.4865 21.5086C10.4865 21.6308 9.99519 22.0981 9.96467 22.0049C9.94975 21.9592 9.88622 21.9218 9.82351 21.9218C9.76086 21.9218 9.66594 21.8602 9.61263 21.7848C9.55933 21.7095 9.47402 21.6478 9.42307 21.6478C9.37218 21.6478 9.24567 21.5553 9.14209 21.4423C9.0385 21.3293 8.91199 21.2368 8.8611 21.2368C8.81015 21.2368 8.72484 21.1751 8.67154 21.0998C8.61823 21.0244 8.52748 20.9627 8.46987 20.9627C8.41226 20.9627 8.32152 20.9011 8.26821 20.8257C8.2149 20.7504 8.12416 20.6887 8.06655 20.6887C8.00894 20.6887 7.91819 20.6271 7.86488 20.5517C7.81158 20.4764 7.72627 20.4147 7.67532 20.4147C7.62443 20.4147 7.49792 20.3222 7.39433 20.2092C7.29075 20.0961 7.16424 20.0037 7.11335 20.0037C7.0624 20.0037 6.97709 19.942 6.92379 19.8667C6.87048 19.7913 6.77973 19.7296 6.72212 19.7296C6.66451 19.7296 6.57376 19.668 6.52046 19.5926C6.46715 19.5173 6.38185 19.4556 6.33089 19.4556C6.28001 19.4556 6.1535 19.3631 6.04991 19.2501C5.94632 19.1371 5.81981 19.0446 5.76892 19.0446C5.71797 19.0446 5.63267 18.9829 5.57936 18.9076C5.52605 18.8322 5.43531 18.7706 5.3777 18.7706C5.32009 18.7706 5.22934 18.7089 5.17603 18.6336C5.12273 18.5582 5.03742 18.4965 4.98647 18.4965C4.93558 18.4965 4.80907 18.4041 4.70549 18.291C4.6019 18.178 4.47539 18.0855 4.4245 18.0855C4.37355 18.0855 4.28824 18.0239 4.23494 17.9485C4.18163 17.8731 4.09088 17.8115 4.03327 17.8115C3.97566 17.8115 3.88492 17.7498 3.83161 17.6745C3.7783 17.5991 3.68755 17.5375 3.62995 17.5375C3.57234 17.5375 3.48159 17.4758 3.42828 17.4004C3.37498 17.3251 3.28967 17.2634 3.23872 17.2634C3.18783 17.2634 3.06132 17.171 2.95773 17.0579C2.85415 16.9449 2.72764 16.8524 2.67675 16.8524C2.6258 16.8524 2.54049 16.7907 2.48719 16.7154C2.43388 16.64 2.34313 16.5784 2.28552 16.5784C2.22791 16.5784 2.13716 16.5167 2.08386 16.4414C2.03055 16.366 1.9398 16.3044 1.88219 16.3044C1.82459 16.3044 1.73384 16.2427 1.68053 16.1673C1.62722 16.092 1.52982 16.0303 1.46401 16.0303C1.39827 16.0303 1.34442 15.9995 1.34442 15.9618C1.34442 15.9242 1.17704 15.8933 0.972489 15.8933C0.63766 15.8933 0.577229 15.917 0.367498 16.1308C0.239308 16.2614 0.134442 16.4155 0.134442 16.4734C0.134442 16.5311 0.104193 16.5784 0.0672212 16.5784C0.0302495 16.5784 0 16.7017 0 16.8524C0 17.0031 0.0302495 17.1264 0.0672212 17.1264C0.104193 17.1264 0.134442 17.1737 0.134442 17.2314C0.134442 17.3527 0.563247 17.8115 0.676582 17.8115C0.71846 17.8115 0.837509 17.904 0.941097 18.017C1.04468 18.13 1.1712 18.2225 1.22208 18.2225C1.27304 18.2225 1.35834 18.2842 1.41165 18.3595C1.46495 18.4349 1.5557 18.4965 1.61331 18.4965C1.67092 18.4965 1.76167 18.5582 1.81497 18.6336C1.86828 18.7089 1.95358 18.7706 2.00454 18.7706C2.05542 18.7706 2.18193 18.863 2.28552 18.9761C2.38911 19.0891 2.51562 19.1816 2.56651 19.1816C2.61746 19.1816 2.70276 19.2433 2.75607 19.3186C2.80938 19.394 2.90013 19.4556 2.95773 19.4556C3.01534 19.4556 3.10609 19.5173 3.1594 19.5926C3.2127 19.668 3.29801 19.7296 3.34896 19.7296C3.39985 19.7296 3.52636 19.8221 3.62995 19.9352C3.73353 20.0482 3.86004 20.1407 3.91093 20.1407C3.96188 20.1407 4.04719 20.2023 4.10049 20.2777C4.1538 20.353 4.24455 20.4147 4.30216 20.4147C4.35977 20.4147 4.45052 20.4764 4.50382 20.5517C4.55713 20.6271 4.64243 20.6887 4.69339 20.6887C4.74427 20.6887 4.87078 20.7812 4.97437 20.8942C5.07796 21.0073 5.20447 21.0998 5.25535 21.0998C5.30631 21.0998 5.39161 21.1614 5.44492 21.2368C5.49823 21.3121 5.58897 21.3738 5.64658 21.3738C5.70419 21.3738 5.79494 21.4354 5.84825 21.5108C5.90155 21.5861 5.9923 21.6478 6.04991 21.6478C6.10752 21.6478 6.19827 21.7095 6.25157 21.7848C6.30488 21.8602 6.39018 21.9218 6.44114 21.9218C6.49202 21.9218 6.61853 22.0143 6.72212 22.1273C6.82571 22.2404 6.95222 22.3329 7.00311 22.3329C7.05406 22.3329 7.13936 22.3945 7.19267 22.4699C7.24598 22.5452 7.33673 22.6069 7.39433 22.6069C7.45194 22.6069 7.54269 22.6685 7.596 22.7439C7.6493 22.8193 7.73461 22.8809 7.78556 22.8809C7.83645 22.8809 7.96296 22.9734 8.06655 23.0864C8.17013 23.1995 8.29664 23.2919 8.34753 23.2919C8.39848 23.2919 8.48379 23.3536 8.53709 23.429C8.5904 23.5043 8.6878 23.566 8.75361 23.566C8.92436 23.566 8.91347 23.9172 8.73876 24.0455C8.66481 24.0998 8.60432 24.1991 8.60432 24.2662C8.60432 24.3332 8.57407 24.388 8.53709 24.388C8.50012 24.388 8.46987 24.4429 8.46987 24.5099C8.46987 24.577 8.40937 24.6762 8.33543 24.7306C8.26149 24.7849 8.20099 24.8841 8.20099 24.9512C8.20099 25.0182 8.17074 25.0731 8.13377 25.0731C8.0968 25.0731 8.06655 25.1347 8.06655 25.2101C8.06655 25.2855 8.0363 25.3471 7.99932 25.3471C7.96235 25.3471 7.9321 25.4088 7.9321 25.4841C7.9321 25.5595 7.90185 25.6211 7.86488 25.6211C7.82791 25.6211 7.79766 25.6828 7.79766 25.7581C7.79766 25.8335 7.76741 25.8952 7.73044 25.8952C7.69347 25.8952 7.66322 25.9568 7.66322 26.0322C7.66322 26.1075 7.63297 26.1692 7.596 26.1692C7.55903 26.1692 7.52878 26.2617 7.52878 26.3747C7.52878 26.4877 7.55903 26.5802 7.596 26.5802C7.63297 26.5802 7.66322 26.6587 7.66322 26.7546C7.66322 26.9791 7.94407 27.2653 8.16435 27.2653C8.25846 27.2653 8.33543 27.2961 8.33543 27.3338C8.33543 27.3715 8.42618 27.4023 8.53709 27.4023C8.64801 27.4023 8.73876 27.3715 8.73876 27.3338C8.73876 27.2961 8.81653 27.2653 8.91158 27.2653C9.09893 27.2653 9.27653 27.125 9.27653 26.977C9.27653 26.9261 9.33703 26.8401 9.41097 26.7857C9.48491 26.7314 9.54541 26.6321 9.54541 26.5651C9.54541 26.4981 9.57566 26.4432 9.61263 26.4432C9.64961 26.4432 9.67986 26.3815 9.67986 26.3062C9.67986 26.2308 9.7101 26.1692 9.74708 26.1692C9.78405 26.1692 9.8143 26.1075 9.8143 26.0322C9.8143 25.9568 9.84455 25.8952 9.88152 25.8952C9.91849 25.8952 9.94874 25.8403 9.94874 25.7733C9.94874 25.7062 10.0092 25.607 10.0832 25.5526C10.1571 25.4983 10.2176 25.399 10.2176 25.332C10.2176 25.265 10.2479 25.2101 10.2848 25.2101C10.3218 25.2101 10.3521 25.1552 10.3521 25.0882C10.3521 25.0212 10.4126 24.9219 10.4865 24.8676C10.5605 24.8132 10.621 24.7208 10.621 24.6621C10.621 24.6033 10.6815 24.5109 10.7554 24.4565C10.8293 24.4022 10.8898 24.3097 10.8898 24.251C10.8898 24.1923 10.9503 24.0998 11.0243 24.0455C11.0982 23.9912 11.1587 23.9042 11.1587 23.8523C11.1587 23.8005 11.2495 23.6715 11.3604 23.566C11.4713 23.4604 11.562 23.3377 11.562 23.2933C11.562 23.249 11.683 23.0942 11.8309 22.9494C11.9788 22.8046 12.0998 22.6509 12.0998 22.6078C12.0998 22.5648 12.2511 22.3794 12.4359 22.1958C12.6208 22.0123 12.772 21.8291 12.772 21.7888C12.772 21.6923 15.1021 19.3186 15.1968 19.3186C15.2369 19.3186 15.386 19.1953 15.5281 19.0446C15.6702 18.8939 15.8215 18.7706 15.8642 18.7706C15.907 18.7706 16.0582 18.6473 16.2003 18.4965C16.3424 18.3458 16.4943 18.2225 16.5378 18.2225C16.5813 18.2225 16.7017 18.13 16.8053 18.017C16.9089 17.904 17.0354 17.8115 17.0863 17.8115C17.1372 17.8115 17.2225 17.7498 17.2759 17.6745C17.3292 17.5991 17.4145 17.5375 17.4654 17.5375C17.5163 17.5375 17.6428 17.445 17.7464 17.3319C17.85 17.2189 17.9832 17.1264 18.0422 17.1264C18.1014 17.1264 18.1497 17.0956 18.1497 17.0579C18.1497 17.0202 18.2036 16.9894 18.2693 16.9894C18.3351 16.9894 18.4325 16.9278 18.4858 16.8524C18.5391 16.777 18.6365 16.7154 18.7024 16.7154C18.7681 16.7154 18.8219 16.6846 18.8219 16.6469C18.8219 16.6092 18.8758 16.5784 18.9415 16.5784C19.0073 16.5784 19.1047 16.5167 19.158 16.4414C19.2114 16.366 19.3088 16.3044 19.3746 16.3044C19.4403 16.3044 19.4942 16.2735 19.4942 16.2359C19.4942 16.1982 19.548 16.1673 19.6137 16.1673C19.6795 16.1673 19.777 16.1057 19.8303 16.0303C19.8836 15.955 19.981 15.8933 20.0468 15.8933C20.1125 15.8933 20.1664 15.8625 20.1664 15.8248C20.1664 15.7871 20.2269 15.7563 20.3008 15.7563C20.3748 15.7563 20.4352 15.7255 20.4352 15.6878C20.4352 15.6501 20.4957 15.6193 20.5697 15.6193C20.6436 15.6193 20.7041 15.5885 20.7041 15.5508C20.7041 15.5131 20.7646 15.4823 20.8386 15.4823C20.9125 15.4823 20.973 15.4515 20.973 15.4138C20.973 15.3761 21.0335 15.3453 21.1075 15.3453C21.1814 15.3453 21.2419 15.3145 21.2419 15.2768C21.2419 15.2391 21.3024 15.2083 21.3763 15.2083C21.4503 15.2083 21.5108 15.1774 21.5108 15.1398C21.5108 15.1021 21.5713 15.0713 21.6452 15.0713C21.7192 15.0713 21.7797 15.0404 21.7797 15.0027C21.7797 14.9651 21.8704 14.9342 21.9813 14.9342C22.0923 14.9342 22.183 14.9034 22.183 14.8657C22.183 14.8281 22.2435 14.7972 22.3174 14.7972C22.3914 14.7972 22.4519 14.7664 22.4519 14.7287C22.4519 14.691 22.5124 14.6602 22.5863 14.6602C22.6603 14.6602 22.7208 14.6294 22.7208 14.5917C22.7208 14.554 22.8115 14.5232 22.9224 14.5232C23.0333 14.5232 23.1241 14.4924 23.1241 14.4547C23.1241 14.417 23.1846 14.3862 23.2585 14.3862C23.3325 14.3862 23.393 14.3554 23.393 14.3177C23.393 14.28 23.4837 14.2492 23.5946 14.2492C23.7056 14.2492 23.7963 14.2184 23.7963 14.1807C23.7963 14.143 23.8871 14.1122 23.998 14.1122C24.1089 14.1122 24.1996 14.0813 24.1996 14.0437C24.1996 14.006 24.2601 13.9752 24.3341 13.9752C24.408 13.9752 24.4685 13.9443 24.4685 13.9067C24.4685 13.869 24.5593 13.8382 24.6702 13.8382C24.7811 13.8382 24.8719 13.8073 24.8719 13.7696C24.8719 13.732 24.9928 13.7011 25.1407 13.7011C25.2886 13.7011 25.4096 13.6703 25.4096 13.6326C25.4096 13.595 25.5004 13.5641 25.6113 13.5641C25.7222 13.5641 25.8129 13.5333 25.8129 13.4956C25.8129 13.4579 25.9037 13.4271 26.0146 13.4271C26.1255 13.4271 26.2163 13.3963 26.2163 13.3586C26.2163 13.3209 26.3373 13.2901 26.4852 13.2901C26.633 13.2901 26.754 13.2593 26.754 13.2216C26.754 13.1839 26.875 13.1531 27.0229 13.1531C27.1708 13.1531 27.2918 13.1223 27.2918 13.0846C27.2918 13.0469 27.4128 13.0161 27.5607 13.0161C27.7086 13.0161 27.8296 12.9853 27.8296 12.9476C27.8296 12.9099 27.9808 12.8791 28.1657 12.8791C28.3505 12.8791 28.5018 12.8482 28.5018 12.8106C28.5018 12.7725 28.6811 12.7421 28.9051 12.7421C29.1292 12.7421 29.3085 12.7116 29.3085 12.6736C29.3085 12.6355 29.4877 12.605 29.7118 12.605C29.9358 12.605 30.1151 12.5746 30.1151 12.5365C30.1151 12.4966 30.3392 12.468 30.6529 12.468C30.9666 12.468 31.1906 12.4395 31.1906 12.3995C31.1906 12.3574 31.5268 12.331 32.0645 12.331C32.6023 12.331 32.9384 12.3047 32.9384 12.2625C32.9384 12.2188 33.4986 12.194 34.4845 12.194C35.4704 12.194 36.0306 12.2188 36.0306 12.2625C36.0306 12.3047 36.3667 12.331 36.9044 12.331C37.4422 12.331 37.7783 12.3574 37.7783 12.3995C37.7783 12.4395 38.0024 12.468 38.3161 12.468C38.6298 12.468 38.8539 12.4966 38.8539 12.5365C38.8539 12.5746 39.0331 12.605 39.2572 12.605C39.4812 12.605 39.6605 12.6355 39.6605 12.6736C39.6605 12.7116 39.8398 12.7421 40.0638 12.7421C40.2879 12.7421 40.4672 12.7725 40.4672 12.8106C40.4672 12.8482 40.5882 12.8791 40.7361 12.8791C40.8839 12.8791 41.0049 12.9099 41.0049 12.9476C41.0049 12.9853 41.1562 13.0161 41.341 13.0161C41.5259 13.0161 41.6772 13.0469 41.6772 13.0846C41.6772 13.1223 41.7982 13.1531 41.946 13.1531C42.0939 13.1531 42.2149 13.1839 42.2149 13.2216C42.2149 13.2593 42.3057 13.2901 42.4166 13.2901C42.5275 13.2901 42.6183 13.3209 42.6183 13.3586C42.6183 13.3963 42.7393 13.4271 42.8871 13.4271C43.035 13.4271 43.156 13.4579 43.156 13.4956C43.156 13.5333 43.2468 13.5641 43.3577 13.5641C43.4686 13.5641 43.5593 13.595 43.5593 13.6326C43.5593 13.6703 43.6501 13.7011 43.761 13.7011C43.8719 13.7011 43.9627 13.732 43.9627 13.7696C43.9627 13.8073 44.0534 13.8382 44.1643 13.8382C44.2753 13.8382 44.366 13.869 44.366 13.9067C44.366 13.9443 44.4568 13.9752 44.5677 13.9752C44.6786 13.9752 44.7693 14.006 44.7693 14.0437C44.7693 14.0813 44.8601 14.1122 44.971 14.1122C45.0819 14.1122 45.1727 14.143 45.1727 14.1807C45.1727 14.2184 45.2332 14.2492 45.3071 14.2492C45.381 14.2492 45.4415 14.28 45.4415 14.3177C45.4415 14.3554 45.5323 14.3862 45.6432 14.3862C45.7541 14.3862 45.8449 14.417 45.8449 14.4547C45.8449 14.4924 45.9356 14.5232 46.0465 14.5232C46.1574 14.5232 46.2482 14.554 46.2482 14.5917C46.2482 14.6294 46.3087 14.6602 46.3826 14.6602C46.4566 14.6602 46.5171 14.691 46.5171 14.7287C46.5171 14.7664 46.5776 14.7972 46.6515 14.7972C46.7255 14.7972 46.786 14.8281 46.786 14.8657C46.786 14.9034 46.8465 14.9342 46.9204 14.9342C46.9944 14.9342 47.0549 14.9651 47.0549 15.0027C47.0549 15.0404 47.1154 15.0713 47.1893 15.0713C47.2632 15.0713 47.3237 15.1021 47.3237 15.1398C47.3237 15.1774 47.4145 15.2083 47.5254 15.2083C47.6363 15.2083 47.7271 15.2391 47.7271 15.2768C47.7271 15.3145 47.7876 15.3453 47.8615 15.3453C47.9355 15.3453 47.9959 15.3761 47.9959 15.4138C47.9959 15.4515 48.0498 15.4823 48.1155 15.4823C48.1813 15.4823 48.2787 15.5439 48.3321 15.6193C48.3854 15.6947 48.4828 15.7563 48.5486 15.7563C48.6143 15.7563 48.6682 15.7871 48.6682 15.8248C48.6682 15.8625 48.7287 15.8933 48.8026 15.8933C48.8765 15.8933 48.937 15.9242 48.937 15.9618C48.937 15.9995 48.9975 16.0303 49.0715 16.0303C49.1454 16.0303 49.2059 16.0612 49.2059 16.0988C49.2059 16.1365 49.2664 16.1673 49.3404 16.1673C49.4143 16.1673 49.4748 16.1982 49.4748 16.2359C49.4748 16.2735 49.5287 16.3044 49.5944 16.3044C49.6602 16.3044 49.7576 16.366 49.8109 16.4414C49.8642 16.5167 49.955 16.5784 50.0126 16.5784C50.0702 16.5784 50.1609 16.64 50.2142 16.7154C50.2676 16.7907 50.365 16.8524 50.4308 16.8524C50.4965 16.8524 50.5504 16.8832 50.5504 16.9209C50.5504 16.9586 50.6042 16.9894 50.6699 16.9894C50.7358 16.9894 50.8332 17.0511 50.8865 17.1264C50.9398 17.2018 51.0251 17.2634 51.076 17.2634C51.1269 17.2634 51.2534 17.3559 51.357 17.469C51.4606 17.582 51.5871 17.6745 51.638 17.6745C51.6889 17.6745 51.7743 17.7361 51.8276 17.8115C51.8809 17.8868 51.9662 17.9485 52.0171 17.9485C52.068 17.9485 52.1945 18.041 52.2981 18.154C52.4017 18.267 52.5221 18.3595 52.5656 18.3595C52.6091 18.3595 52.761 18.4828 52.9031 18.6336C53.0452 18.7843 53.1954 18.9076 53.2368 18.9076C53.2783 18.9076 53.5516 19.1542 53.8442 19.4556C54.1368 19.757 54.4082 20.0037 54.4473 20.0037C54.54 20.0037 55.6592 21.1442 55.6592 21.2387C55.6592 21.2786 55.9012 21.5551 56.1969 21.8533C56.4927 22.1515 56.7347 22.4307 56.7347 22.4737C56.7347 22.5167 56.8255 22.6383 56.9364 22.7439C57.0473 22.8495 57.138 22.9722 57.138 23.0165C57.138 23.0609 57.259 23.2156 57.4069 23.3604C57.5548 23.5053 57.6758 23.6656 57.6758 23.7167C57.6758 23.7679 57.7363 23.8542 57.8102 23.9085C57.8842 23.9628 57.9447 24.0553 57.9447 24.114C57.9447 24.1727 58.0052 24.2652 58.0791 24.3195C58.1531 24.3738 58.2136 24.4663 58.2136 24.525C58.2136 24.5838 58.2741 24.6762 58.348 24.7306C58.422 24.7849 58.4825 24.8841 58.4825 24.9512C58.4825 25.0182 58.5127 25.0731 58.5497 25.0731C58.5867 25.0731 58.6169 25.128 58.6169 25.195C58.6169 25.262 58.6774 25.3613 58.7513 25.4156C58.8253 25.4699 58.8858 25.5692 58.8858 25.6363C58.8858 25.7033 58.916 25.7581 58.953 25.7581C58.99 25.7581 59.0202 25.8198 59.0202 25.8952C59.0202 25.9705 59.0505 26.0322 59.0874 26.0322C59.1244 26.0322 59.1547 26.087 59.1547 26.154C59.1547 26.2211 59.2152 26.3204 59.2891 26.3747C59.3631 26.429 59.4236 26.5283 59.4236 26.5954C59.4236 26.6624 59.4538 26.7172 59.4908 26.7172C59.5277 26.7172 59.558 26.7648 59.558 26.8231C59.558 26.9601 59.8574 27.2653 59.9919 27.2653C60.049 27.2653 60.0958 27.2961 60.0958 27.3338C60.0958 27.3715 60.2168 27.4023 60.3647 27.4023C60.5125 27.4023 60.6335 27.3715 60.6335 27.3338C60.6335 27.2961 60.6799 27.2653 60.7366 27.2653C60.7933 27.2653 60.9446 27.1584 61.0727 27.0278C61.291 26.8053 61.3057 26.7621 61.3057 26.3427C61.3057 26.09 61.2765 25.8952 61.2385 25.8952C61.2016 25.8952 61.1713 25.8403 61.1713 25.7733C61.1713 25.7062 61.1108 25.607 61.0369 25.5526C60.9629 25.4983 60.9024 25.399 60.9024 25.332C60.9024 25.265 60.8722 25.2101 60.8352 25.2101C60.7982 25.2101 60.768 25.1484 60.768 25.0731C60.768 24.9977 60.7377 24.9361 60.7008 24.9361C60.6638 24.9361 60.6335 24.8744 60.6335 24.7991C60.6335 24.7237 60.6033 24.6621 60.5663 24.6621C60.5293 24.6621 60.4991 24.6072 60.4991 24.5402C60.4991 24.4731 60.4386 24.3738 60.3647 24.3195C60.1994 24.1981 60.1782 23.84 60.3363 23.84C60.3947 23.84 60.5587 23.7167 60.7008 23.566C60.8429 23.4152 60.9947 23.2919 61.0382 23.2919C61.0818 23.2919 61.2022 23.1995 61.3057 23.0864C61.4093 22.9734 61.5297 22.8809 61.5733 22.8809C61.6168 22.8809 61.7686 22.7576 61.9107 22.6069C62.0528 22.4562 62.2047 22.3329 62.2482 22.3329C62.2918 22.3329 62.4121 22.2404 62.5157 22.1273C62.6193 22.0143 62.7403 21.9218 62.7846 21.9218C62.8289 21.9218 62.9499 21.8293 63.0535 21.7163C63.1571 21.6033 63.2775 21.5108 63.321 21.5108C63.3645 21.5108 63.5164 21.3875 63.6585 21.2368C63.8006 21.0861 63.9525 20.9627 63.9959 20.9627C64.0395 20.9627 64.1599 20.8703 64.2635 20.7572C64.3671 20.6442 64.4881 20.5517 64.5324 20.5517C64.5767 20.5517 64.6977 20.4592 64.8013 20.3462C64.9048 20.2332 65.0252 20.1407 65.0688 20.1407C65.1123 20.1407 65.2641 20.0174 65.4062 19.8667C65.5483 19.7159 65.7002 19.5926 65.7437 19.5926C65.7873 19.5926 65.9076 19.5001 66.0112 19.3871C66.1148 19.2741 66.2358 19.1816 66.2801 19.1816C66.3244 19.1816 66.4454 19.0891 66.549 18.9761C66.6526 18.863 66.773 18.7706 66.8165 18.7706C66.86 18.7706 67.0119 18.6473 67.154 18.4965C67.2961 18.3458 67.448 18.2225 67.4914 18.2225C67.535 18.2225 67.6554 18.13 67.759 18.017C67.8626 17.904 67.9814 17.8115 68.023 17.8115C68.1365 17.8115 68.7001 17.2143 68.7001 17.094C68.7001 17.0365 68.7303 16.9894 68.7673 16.9894C68.8043 16.9894 68.8345 16.8661 68.8345 16.7154C68.8345 16.5647 68.8043 16.4414 68.7673 16.4414C68.7303 16.4414 68.7001 16.3941 68.7001 16.3364C68.7001 16.2785 68.5952 16.1244 68.467 15.9938C68.2573 15.78 68.1969 15.7563 67.862 15.7563C67.6575 15.7563 67.4901 15.7871 67.4901 15.8248C67.4901 15.8625 67.4363 15.8933 67.3705 15.8933C67.3047 15.8933 67.2073 15.955 67.154 16.0303C67.1007 16.1057 67.0161 16.1673 66.9658 16.1673C66.9156 16.1673 66.7583 16.2907 66.6162 16.4414C66.4741 16.5921 66.3223 16.7154 66.2788 16.7154C66.2352 16.7154 66.1148 16.8079 66.0112 16.9209C65.9076 17.0339 65.7867 17.1264 65.7423 17.1264C65.6981 17.1264 65.5771 17.2189 65.4735 17.3319C65.3699 17.445 65.2495 17.5375 65.2059 17.5375C65.1624 17.5375 65.0106 17.6608 64.8685 17.8115C64.7264 17.9622 64.5745 18.0855 64.531 18.0855C64.4875 18.0855 64.3671 18.178 64.2635 18.291C64.1599 18.4041 64.0389 18.4965 63.9946 18.4965C63.9503 18.4965 63.8293 18.589 63.7257 18.7021C63.6221 18.8151 63.5017 18.9076 63.4582 18.9076C63.4147 18.9076 63.2628 19.0309 63.1207 19.1816C62.9786 19.3323 62.8268 19.4556 62.7833 19.4556C62.7397 19.4556 62.6193 19.5481 62.5157 19.6611C62.4121 19.7742 62.2911 19.8667 62.2468 19.8667C62.2025 19.8667 62.0816 19.9591 61.978 20.0722C61.8744 20.1852 61.754 20.2777 61.7104 20.2777C61.6669 20.2777 61.5151 20.401 61.373 20.5517C61.2309 20.7024 61.079 20.8257 61.0355 20.8257C60.992 20.8257 60.8716 20.9182 60.768 21.0313C60.6644 21.1443 60.5434 21.2368 60.4991 21.2368C60.4548 21.2368 60.3338 21.3293 60.2302 21.4423C60.1266 21.5553 60.0062 21.6478 59.9627 21.6478C59.9192 21.6478 59.7673 21.7711 59.6252 21.9218C59.4831 22.0725 59.3216 22.1958 59.2664 22.1958C59.2111 22.1958 59.1535 22.2335 59.1385 22.2796C59.1069 22.3759 58.7513 22.044 58.7513 21.9182C58.7513 21.875 58.6606 21.7534 58.5497 21.6478C58.4388 21.5422 58.348 21.4202 58.348 21.3767C58.348 21.3333 58.1665 21.1161 57.9447 20.8942C57.7229 20.6723 57.5414 20.4576 57.5414 20.417C57.5414 20.3765 57.0209 19.8142 56.3849 19.1677C55.7488 18.5211 55.2649 17.9797 55.3093 17.9646C55.3539 17.9495 55.3903 17.8903 55.3903 17.8333C55.3903 17.7761 55.481 17.643 55.5919 17.5375C55.7029 17.4319 55.7936 17.303 55.7936 17.2511C55.7936 17.1992 55.8541 17.1122 55.9281 17.0579C56.002 17.0036 56.0625 16.9167 56.0625 16.8647C56.0625 16.8129 56.1532 16.6839 56.2642 16.5784C56.3751 16.4728 56.4658 16.3495 56.4658 16.3044C56.4658 16.2592 56.5566 16.1359 56.6675 16.0303C56.7784 15.9248 56.8691 15.8015 56.8691 15.7563C56.8691 15.7112 56.9599 15.5879 57.0708 15.4823C57.1817 15.3767 57.2725 15.2478 57.2725 15.1959C57.2725 15.144 57.333 15.0571 57.4069 15.0027C57.4809 14.9484 57.5414 14.8615 57.5414 14.8096C57.5414 14.7577 57.6321 14.6288 57.743 14.5232C57.8539 14.4176 57.9447 14.2943 57.9447 14.2492C57.9447 14.204 58.0354 14.0807 58.1464 13.9752C58.2573 13.8696 58.348 13.7463 58.348 13.7011C58.348 13.656 58.4388 13.5327 58.5497 13.4271C58.6606 13.3216 58.7513 13.1982 58.7513 13.1531C58.7513 13.108 58.8421 12.9846 58.953 12.8791C59.0639 12.7735 59.1547 12.6446 59.1547 12.5927C59.1547 12.5408 59.2152 12.4539 59.2891 12.3995C59.3631 12.3452 59.4236 12.2583 59.4236 12.2063C59.4236 12.1545 59.5143 12.0256 59.6252 11.92C59.7361 11.8144 59.8269 11.6911 59.8269 11.646C59.8269 11.6008 59.9176 11.4775 60.0285 11.3719C60.1395 11.2664 60.2302 11.1431 60.2302 11.0979C60.2302 11.0528 60.321 10.9295 60.4319 10.8239C60.5428 10.7183 60.6335 10.5894 60.6335 10.5375C60.6335 10.4856 60.694 10.3987 60.768 10.3444C60.8419 10.29 60.9024 10.2031 60.9024 10.1512C60.9024 10.0993 60.9932 9.97039 61.1041 9.86482C61.2887 9.68904 61.3057 9.63471 61.3057 9.2208C61.3057 8.96507 61.2766 8.76873 61.2385 8.76873C61.2016 8.76873 61.1713 8.7203 61.1713 8.66111C61.1713 8.52266 61.0094 8.3577 60.8736 8.3577C60.8155 8.3577 60.768 8.32687 60.768 8.28919C60.768 8.25151 60.6167 8.22068 60.4319 8.22068C60.247 8.22068 60.0958 8.25151 60.0958 8.28919C60.0958 8.32687 60.0494 8.3577 59.9927 8.3577C59.8737 8.3577 59.4236 8.79469 59.4236 8.91019C59.4236 8.95287 59.3328 9.0742 59.2219 9.17976C59.111 9.28533 59.0202 9.40864 59.0202 9.45379C59.0202 9.49893 58.9295 9.62224 58.8186 9.72781C58.7076 9.83338 58.6169 9.9623 58.6169 10.0142C58.6169 10.0661 58.5564 10.153 58.4825 10.2073C58.4085 10.2617 58.348 10.3486 58.348 10.4005C58.348 10.4524 58.2573 10.5813 58.1464 10.6869C58.0354 10.7925 57.9447 10.9158 57.9447 10.9609C57.9447 11.0061 57.8539 11.1294 57.743 11.2349C57.6321 11.3405 57.5414 11.4638 57.5414 11.509C57.5414 11.5541 57.4506 11.6774 57.3397 11.783C57.2288 11.8885 57.138 12.0175 57.138 12.0693C57.138 12.1213 57.0775 12.2082 57.0036 12.2625C56.9296 12.3168 56.8691 12.4038 56.8691 12.4557C56.8691 12.5076 56.7784 12.6365 56.6675 12.7421C56.5566 12.8476 56.4658 12.9709 56.4658 13.0161C56.4658 13.0612 56.3751 13.1845 56.2642 13.2901C56.1532 13.3957 56.0625 13.519 56.0625 13.5641C56.0625 13.6093 55.9717 13.7326 55.8608 13.8382C55.7499 13.9437 55.6592 14.067 55.6592 14.1122C55.6592 14.1573 55.5684 14.2806 55.4575 14.3862C55.3466 14.4918 55.2558 14.6207 55.2558 14.6726C55.2558 14.7245 55.1953 14.8114 55.1214 14.8657C55.0475 14.9201 54.987 15.007 54.987 15.0589C54.987 15.1108 54.8962 15.2397 54.7853 15.3453C54.6744 15.4508 54.5836 15.5742 54.5836 15.6193C54.5836 15.6644 54.4929 15.7878 54.382 15.8933C54.271 15.9989 54.1803 16.1202 54.1803 16.1629C54.1803 16.2637 53.7371 16.7154 53.6382 16.7154C53.5963 16.7154 53.4772 16.6229 53.3736 16.5099C53.2701 16.3968 53.1435 16.3044 53.0927 16.3044C53.0417 16.3044 52.9564 16.2427 52.9031 16.1673C52.8498 16.092 52.759 16.0303 52.7014 16.0303C52.6438 16.0303 52.5531 15.9687 52.4998 15.8933C52.4465 15.818 52.3557 15.7563 52.2981 15.7563C52.2405 15.7563 52.1497 15.6947 52.0964 15.6193C52.0431 15.5439 51.9524 15.4823 51.8948 15.4823C51.8372 15.4823 51.7464 15.4206 51.6931 15.3453C51.6398 15.2699 51.5491 15.2083 51.4915 15.2083C51.4338 15.2083 51.3431 15.1466 51.2898 15.0713C51.2365 14.9959 51.1391 14.9342 51.0733 14.9342C51.0075 14.9342 50.9537 14.9034 50.9537 14.8657C50.9537 14.8281 50.8998 14.7972 50.8341 14.7972C50.7683 14.7972 50.6709 14.7356 50.6176 14.6602C50.5643 14.5849 50.4669 14.5232 50.4011 14.5232C50.3353 14.5232 50.2815 14.4924 50.2815 14.4547C50.2815 14.417 50.221 14.3862 50.147 14.3862C50.0731 14.3862 50.0126 14.3554 50.0126 14.3177C50.0126 14.28 49.9521 14.2492 49.8781 14.2492C49.8042 14.2492 49.7437 14.2184 49.7437 14.1807C49.7437 14.143 49.6832 14.1122 49.6093 14.1122C49.5353 14.1122 49.4748 14.0813 49.4748 14.0437C49.4748 14.006 49.421 13.9752 49.3552 13.9752C49.2894 13.9752 49.192 13.9135 49.1387 13.8382C49.0854 13.7628 48.988 13.7011 48.9222 13.7011C48.8564 13.7011 48.8026 13.6703 48.8026 13.6326C48.8026 13.595 48.7551 13.5641 48.697 13.5641C48.5497 13.5641 48.3392 13.3448 48.4503 13.307C48.4962 13.2914 48.5337 13.2196 48.5337 13.1474C48.5337 13.0752 48.564 13.0161 48.6009 13.0161C48.6379 13.0161 48.6682 12.9236 48.6682 12.8106C48.6682 12.6975 48.6984 12.605 48.7354 12.605C48.7724 12.605 48.8026 12.5434 48.8026 12.468C48.8026 12.3927 48.8329 12.331 48.8698 12.331C48.9068 12.331 48.937 12.2385 48.937 12.1255C48.937 12.0125 48.9673 11.92 49.0043 11.92C49.0412 11.92 49.0715 11.8275 49.0715 11.7145C49.0715 11.6014 49.1017 11.509 49.1387 11.509C49.1757 11.509 49.2059 11.4473 49.2059 11.3719C49.2059 11.2966 49.2362 11.2349 49.2732 11.2349C49.3101 11.2349 49.3404 11.1425 49.3404 11.0294C49.3404 10.9164 49.3706 10.8239 49.4076 10.8239C49.4446 10.8239 49.4748 10.7622 49.4748 10.6869C49.4748 10.6115 49.5051 10.5499 49.542 10.5499C49.579 10.5499 49.6093 10.4574 49.6093 10.3444C49.6093 10.2313 49.6395 10.1388 49.6765 10.1388C49.7135 10.1388 49.7437 10.0464 49.7437 9.93333C49.7437 9.82029 49.7739 9.72781 49.8109 9.72781C49.8479 9.72781 49.8781 9.66615 49.8781 9.5908C49.8781 9.51544 49.9084 9.45379 49.9454 9.45379C49.9823 9.45379 50.0126 9.3613 50.0126 9.24827C50.0126 9.13524 50.0428 9.04275 50.0798 9.04275C50.1168 9.04275 50.147 8.9811 50.147 8.90574C50.147 8.83039 50.1773 8.76873 50.2142 8.76873C50.2512 8.76873 50.2815 8.67625 50.2815 8.56321C50.2815 8.45018 50.3117 8.3577 50.3487 8.3577C50.3857 8.3577 50.4159 8.29604 50.4159 8.22068C50.4159 8.14533 50.4462 8.08367 50.4831 8.08367C50.5201 8.08367 50.5504 7.99119 50.5504 7.87816C50.5504 7.76512 50.5806 7.67264 50.6176 7.67264C50.6545 7.67264 50.6848 7.58016 50.6848 7.46712C50.6848 7.35409 50.715 7.2616 50.752 7.2616C50.789 7.2616 50.8192 7.19995 50.8192 7.12459C50.8192 7.04924 50.8495 6.98758 50.8865 6.98758C50.9234 6.98758 50.9537 6.8951 50.9537 6.78206C50.9537 6.66903 50.9839 6.57655 51.0209 6.57655C51.0579 6.57655 51.0881 6.51489 51.0881 6.43954C51.0881 6.36418 51.1184 6.30252 51.1553 6.30252C51.1923 6.30252 51.2226 6.21004 51.2226 6.09701C51.2226 5.98397 51.2528 5.89149 51.2898 5.89149C51.3268 5.89149 51.357 5.79901 51.357 5.68597C51.357 5.57294 51.3873 5.48046 51.4242 5.48046C51.4612 5.48046 51.4915 5.4188 51.4915 5.34344C51.4915 5.26809 51.5217 5.20643 51.5587 5.20643C51.5956 5.20643 51.6259 5.11395 51.6259 5.00092C51.6259 4.88788 51.6561 4.7954 51.6931 4.7954C51.7301 4.7954 51.7603 4.73374 51.7603 4.65839C51.7603 4.58303 51.7906 4.52138 51.8276 4.52138C51.8645 4.52138 51.8948 4.42889 51.8948 4.31586C51.8948 4.20283 51.925 4.11034 51.962 4.11034C51.999 4.11034 52.0292 4.01786 52.0292 3.90483C52.0292 3.79179 51.999 3.69931 51.962 3.69931C51.925 3.69931 51.8948 3.62087 51.8948 3.52496C51.8948 3.33267 51.6242 3.01425 51.4609 3.01425C51.4037 3.01425 51.357 2.98342 51.357 2.94575C51.357 2.90807 51.2058 2.87724 51.0209 2.87724C50.836 2.87724 50.6848 2.90807 50.6848 2.94575C50.6848 2.98342 50.6381 3.01425 50.5809 3.01425C50.4464 3.01425 50.147 3.31938 50.147 3.45646C50.147 3.51469 50.1168 3.5623 50.0798 3.5623C50.0428 3.5623 50.0126 3.65478 50.0126 3.76781C50.0126 3.88085 49.9823 3.97333 49.9454 3.97333C49.9084 3.97333 49.8781 4.06581 49.8781 4.17885C49.8781 4.29188 49.8479 4.38437 49.8109 4.38437C49.7739 4.38437 49.7437 4.44602 49.7437 4.52138C49.7437 4.59673 49.7135 4.65839 49.6765 4.65839C49.6395 4.65839 49.6093 4.75087 49.6093 4.8639C49.6093 4.97694 49.579 5.06942 49.542 5.06942C49.5051 5.06942 49.4748 5.13108 49.4748 5.20643C49.4748 5.28179 49.4446 5.34344 49.4076 5.34344C49.3706 5.34344 49.3404 5.43593 49.3404 5.54896C49.3404 5.662 49.3101 5.75448 49.2732 5.75448C49.2362 5.75448 49.2059 5.84696 49.2059 5.96C49.2059 6.07303 49.1757 6.16551 49.1387 6.16551C49.1017 6.16551 49.0715 6.22717 49.0715 6.30252C49.0715 6.37788 49.0412 6.43954 49.0043 6.43954C48.9673 6.43954 48.937 6.53202 48.937 6.64505C48.937 6.75809 48.9068 6.85057 48.8698 6.85057C48.8329 6.85057 48.8026 6.91223 48.8026 6.98758C48.8026 7.06294 48.7724 7.12459 48.7354 7.12459C48.6984 7.12459 48.6682 7.21708 48.6682 7.33011C48.6682 7.44314 48.6379 7.53563 48.6009 7.53563C48.564 7.53563 48.5337 7.62811 48.5337 7.74114C48.5337 7.85418 48.5035 7.94666 48.4665 7.94666C48.4295 7.94666 48.3993 8.00832 48.3993 8.08367C48.3993 8.15903 48.369 8.22068 48.3321 8.22068C48.2951 8.22068 48.2648 8.31317 48.2648 8.4262C48.2648 8.53924 48.2346 8.63172 48.1976 8.63172C48.1606 8.63172 48.1304 8.69337 48.1304 8.76873C48.1304 8.84409 48.1001 8.90574 48.0632 8.90574C48.0262 8.90574 47.9959 8.99822 47.9959 9.11126C47.9959 9.22429 47.9657 9.31678 47.9287 9.31678C47.8918 9.31678 47.8615 9.40926 47.8615 9.52229C47.8615 9.63533 47.8313 9.72781 47.7943 9.72781C47.7573 9.72781 47.7271 9.78946 47.7271 9.86482C47.7271 9.94018 47.6968 10.0018 47.6598 10.0018C47.6229 10.0018 47.5926 10.0943 47.5926 10.2073C47.5926 10.3204 47.5624 10.4129 47.5254 10.4129C47.4884 10.4129 47.4582 10.4745 47.4582 10.5499C47.4582 10.6252 47.4279 10.6869 47.391 10.6869C47.354 10.6869 47.3237 10.7794 47.3237 10.8924C47.3237 11.0054 47.2935 11.0979 47.2565 11.0979C47.2195 11.0979 47.1893 11.1596 47.1893 11.2349C47.1893 11.3103 47.159 11.3719 47.1221 11.3719C47.0851 11.3719 47.0549 11.4644 47.0549 11.5775C47.0549 11.6905 47.0246 11.783 46.9876 11.783C46.9507 11.783 46.9204 11.8755 46.9204 11.9885C46.9204 12.1015 46.8902 12.194 46.8532 12.194C46.8162 12.194 46.786 12.2424 46.786 12.3016C46.786 12.3609 46.7427 12.4534 46.6899 12.5072C46.5798 12.6194 46.3826 12.6383 46.3826 12.5365C46.3826 12.4989 46.2919 12.468 46.181 12.468C46.0701 12.468 45.9793 12.4372 45.9793 12.3995C45.9793 12.3619 45.8886 12.331 45.7776 12.331C45.6667 12.331 45.576 12.3002 45.576 12.2625C45.576 12.2248 45.5155 12.194 45.4415 12.194C45.3676 12.194 45.3071 12.1632 45.3071 12.1255C45.3071 12.0878 45.2164 12.057 45.1054 12.057C44.9945 12.057 44.9038 12.0262 44.9038 11.9885C44.9038 11.9508 44.7828 11.92 44.6349 11.92C44.487 11.92 44.366 11.8892 44.366 11.8515C44.366 11.8138 44.2753 11.783 44.1643 11.783C44.0534 11.783 43.9627 11.7522 43.9627 11.7145C43.9627 11.6768 43.8719 11.646 43.761 11.646C43.6501 11.646 43.5593 11.6151 43.5593 11.5775C43.5593 11.5398 43.4384 11.509 43.2905 11.509C43.1426 11.509 43.0216 11.4781 43.0216 11.4405C43.0216 11.4028 42.9006 11.3719 42.7527 11.3719C42.6048 11.3719 42.4838 11.3411 42.4838 11.3034C42.4838 11.2658 42.3628 11.2349 42.2149 11.2349C42.067 11.2349 41.946 11.2041 41.946 11.1664C41.946 11.1288 41.825 11.0979 41.6772 11.0979C41.5293 11.0979 41.4083 11.0671 41.4083 11.0294C41.4083 10.9917 41.257 10.9609 41.0722 10.9609C40.8873 10.9609 40.7361 10.9301 40.7361 10.8924C40.7361 10.8547 40.6151 10.8239 40.4672 10.8239H40.1983V10.1388C40.1983 9.72781 40.2252 9.45379 40.2655 9.45379C40.3054 9.45379 40.3327 9.20258 40.3327 8.83724C40.3327 8.4719 40.3601 8.22068 40.4 8.22068C40.4398 8.22068 40.4672 7.96947 40.4672 7.60413C40.4672 7.23879 40.4945 6.98758 40.5344 6.98758C40.5747 6.98758 40.6016 6.71356 40.6016 6.30252C40.6016 5.89149 40.6285 5.61747 40.6688 5.61747C40.7087 5.61747 40.7361 5.36626 40.7361 5.00092C40.7361 4.63558 40.7634 4.38437 40.8033 4.38437C40.8431 4.38437 40.8705 4.13315 40.8705 3.76781C40.8705 3.40247 40.8979 3.15126 40.9377 3.15126C40.9776 3.15126 41.0049 2.90005 41.0049 2.53471C41.0049 2.16937 41.0323 1.91816 41.0722 1.91816C41.112 1.91816 41.1394 1.66695 41.1394 1.30161C41.1394 0.936267 41.112 0.685057 41.0722 0.685057C41.0352 0.685057 41.0049 0.637446 41.0049 0.579216C41.0049 0.442136 40.7055 0.137011 40.571 0.137011C40.5139 0.137011 40.4672 0.106184 40.4672 0.0685057C40.4672 0.0308276 40.3462 0 40.1983 0C40.0504 0 39.9294 0.0308276 39.9294 0.0685057C39.9294 0.106184 39.883 0.137011 39.8264 0.137011C39.7696 0.137011 39.6184 0.24388 39.4902 0.37452C39.2804 0.588258 39.2572 0.649845 39.2572 0.991072C39.2572 1.19953 39.2269 1.37011 39.19 1.37011C39.1496 1.37011 39.1227 1.64414 39.1227 2.05517C39.1227 2.46621 39.0959 2.74023 39.0555 2.74023C39.0157 2.74023 38.9883 2.99144 38.9883 3.35678C38.9883 3.72212 38.9609 3.97333 38.9211 3.97333C38.8812 3.97333 38.8539 4.22454 38.8539 4.58988C38.8539 4.95522 38.8265 5.20643 38.7866 5.20643C38.7463 5.20643 38.7194 5.48046 38.7194 5.89149C38.7194 6.30252 38.6925 6.57655 38.6522 6.57655C38.6123 6.57655 38.585 6.82776 38.585 7.1931C38.585 7.55844 38.5576 7.80965 38.5178 7.80965C38.4779 7.80965 38.4505 8.06086 38.4505 8.4262C38.4505 8.79154 38.4232 9.04275 38.3833 9.04275C38.3437 9.04275 38.3161 9.28417 38.3161 9.62992C38.3161 10.0475 38.2883 10.2454 38.22 10.315C38.1052 10.432 36.7028 10.4592 36.7028 10.3444C36.7028 10.3001 35.9185 10.2759 34.4845 10.2759C33.0505 10.2759 32.2662 10.3001 32.2662 10.3444C32.2662 10.3855 31.9973 10.4129 31.594 10.4129H30.9218V10.0018C30.9218 9.7735 30.8919 9.5908 30.8545 9.5908C30.8162 9.5908 30.7873 9.38528 30.7873 9.11126C30.7873 8.83724 30.7585 8.63172 30.7201 8.63172C30.6827 8.63172 30.6529 8.44901 30.6529 8.22068C30.6529 7.99235 30.623 7.80965 30.5857 7.80965C30.5473 7.80965 30.5184 7.60413 30.5184 7.33011C30.5184 7.05609 30.4896 6.85057 30.4512 6.85057C30.4138 6.85057 30.384 6.66787 30.384 6.43954C30.384 6.21121 30.3541 6.0285 30.3168 6.0285C30.2784 6.0285 30.2495 5.82298 30.2495 5.54896C30.2495 5.27494 30.2207 5.06942 30.1823 5.06942C30.145 5.06942 30.1151 4.88672 30.1151 4.65839C30.1151 4.43006 30.0853 4.24735 30.0479 4.24735C30.0095 4.24735 29.9807 4.04184 29.9807 3.76781C29.9807 3.49379 29.9518 3.28827 29.9134 3.28827C29.8761 3.28827 29.8462 3.10557 29.8462 2.87724C29.8462 2.64891 29.8164 2.46621 29.779 2.46621C29.7416 2.46621 29.7118 2.2835 29.7118 2.05517C29.7118 1.82684 29.6819 1.64414 29.6446 1.64414C29.6072 1.64414 29.5773 1.46143 29.5773 1.2331C29.5773 1.00477 29.5475 0.822068 29.5101 0.822068C29.4731 0.822068 29.4429 0.74363 29.4429 0.647722C29.4429 0.455426 29.1723 0.137011 29.009 0.137011C28.9518 0.137011 28.9051 0.106184 28.9051 0.0685057C28.9051 0.0308276 28.7841 0 28.6362 0C28.4884 0 28.3674 0.0308276 28.3674 0.0685057ZM33.2073 16.7839C33.2073 16.825 32.9384 16.8524 32.5351 16.8524C32.1317 16.8524 31.8629 16.8798 31.8629 16.9209C31.8629 16.96 31.6612 16.9894 31.3923 16.9894C31.1234 16.9894 30.9218 17.0188 30.9218 17.0579C30.9218 17.096 30.7425 17.1264 30.5184 17.1264C30.2944 17.1264 30.1151 17.1568 30.1151 17.1949C30.1151 17.2326 29.9941 17.2634 29.8462 17.2634C29.6983 17.2634 29.5773 17.2943 29.5773 17.3319C29.5773 17.3696 29.4563 17.4004 29.3085 17.4004C29.1606 17.4004 29.0396 17.4313 29.0396 17.469C29.0396 17.5066 28.9186 17.5375 28.7707 17.5375C28.6228 17.5375 28.5018 17.5683 28.5018 17.606C28.5018 17.6436 28.3808 17.6745 28.2329 17.6745C28.085 17.6745 27.964 17.7053 27.964 17.743C27.964 17.7807 27.8733 17.8115 27.7624 17.8115C27.6514 17.8115 27.5607 17.8423 27.5607 17.88C27.5607 17.9177 27.4699 17.9485 27.359 17.9485C27.2481 17.9485 27.1574 17.9793 27.1574 18.017C27.1574 18.0547 27.0666 18.0855 26.9557 18.0855C26.8448 18.0855 26.754 18.1163 26.754 18.154C26.754 18.1917 26.6633 18.2225 26.5524 18.2225C26.4415 18.2225 26.3507 18.2533 26.3507 18.291C26.3507 18.3287 26.2902 18.3595 26.2163 18.3595C26.1423 18.3595 26.0818 18.3904 26.0818 18.428C26.0818 18.4657 25.9911 18.4965 25.8802 18.4965C25.7693 18.4965 25.6785 18.5274 25.6785 18.565C25.6785 18.6027 25.618 18.6336 25.5441 18.6336C25.4701 18.6336 25.4096 18.6644 25.4096 18.7021C25.4096 18.7397 25.3189 18.7706 25.208 18.7706C25.097 18.7706 25.0063 18.8014 25.0063 18.8391C25.0063 18.8767 24.9458 18.9076 24.8719 18.9076C24.7979 18.9076 24.7374 18.9384 24.7374 18.9761C24.7374 19.0138 24.6769 19.0446 24.603 19.0446C24.529 19.0446 24.4685 19.0754 24.4685 19.1131C24.4685 19.1508 24.408 19.1816 24.3341 19.1816C24.2601 19.1816 24.1996 19.2124 24.1996 19.2501C24.1996 19.2878 24.1391 19.3186 24.0652 19.3186C23.9913 19.3186 23.9308 19.3494 23.9308 19.3871C23.9308 19.4248 23.8703 19.4556 23.7963 19.4556C23.7224 19.4556 23.6619 19.4864 23.6619 19.5241C23.6619 19.5618 23.6014 19.5926 23.5274 19.5926C23.4535 19.5926 23.393 19.6235 23.393 19.6611C23.393 19.6988 23.3325 19.7296 23.2585 19.7296C23.1846 19.7296 23.1241 19.7605 23.1241 19.7981C23.1241 19.8358 23.0636 19.8667 22.9897 19.8667C22.9157 19.8667 22.8552 19.8975 22.8552 19.9352C22.8552 19.9728 22.7947 20.0037 22.7208 20.0037C22.6468 20.0037 22.5863 20.0345 22.5863 20.0722C22.5863 20.1098 22.5258 20.1407 22.4519 20.1407C22.3779 20.1407 22.3174 20.1715 22.3174 20.2092C22.3174 20.2469 22.2636 20.2777 22.1979 20.2777C22.132 20.2777 22.0346 20.3393 21.9813 20.4147C21.928 20.4901 21.8306 20.5517 21.7648 20.5517C21.6991 20.5517 21.6452 20.5825 21.6452 20.6202C21.6452 20.6579 21.5914 20.6887 21.5256 20.6887C21.4598 20.6887 21.3624 20.7504 21.3091 20.8257C21.2558 20.9011 21.1651 20.9627 21.1075 20.9627C21.0499 20.9627 20.9591 21.0244 20.9058 21.0998C20.8525 21.1751 20.7551 21.2368 20.6893 21.2368C20.6235 21.2368 20.5697 21.2676 20.5697 21.3053C20.5697 21.343 20.5158 21.3738 20.4501 21.3738C20.3843 21.3738 20.2869 21.4354 20.2336 21.5108C20.1803 21.5861 20.0895 21.6478 20.0319 21.6478C19.9743 21.6478 19.8836 21.7095 19.8303 21.7848C19.777 21.8602 19.6916 21.9218 19.6407 21.9218C19.5898 21.9218 19.4633 22.0143 19.3597 22.1273C19.2561 22.2404 19.1296 22.3329 19.0787 22.3329C19.0278 22.3329 18.9425 22.3945 18.8892 22.4699C18.8359 22.5452 18.7506 22.6069 18.6996 22.6069C18.6487 22.6069 18.5222 22.6994 18.4186 22.8124C18.315 22.9254 18.1946 23.0179 18.1511 23.0179C18.1076 23.0179 17.9557 23.1412 17.8136 23.2919C17.6715 23.4427 17.5203 23.566 17.4775 23.566C17.4348 23.566 17.2835 23.6893 17.1414 23.84C16.9993 23.9907 16.8488 24.114 16.8069 24.114C16.7649 24.114 16.5525 24.299 16.3348 24.525C16.117 24.7511 15.9068 24.9361 15.8676 24.9361C15.7741 24.9361 12.3687 28.4071 12.3687 28.5025C12.3687 28.5428 12.2175 28.7259 12.0326 28.9094C11.8477 29.0929 11.6965 29.2913 11.6965 29.3502C11.6965 29.4092 11.6662 29.4575 11.6293 29.4575C11.5919 29.4575 11.562 29.6402 11.562 29.8685C11.562 30.0968 11.5919 30.2795 11.6293 30.2795C11.6662 30.2795 11.6965 30.3412 11.6965 30.4165C11.6965 30.4919 11.7267 30.5535 11.7637 30.5535C11.8007 30.5535 11.8309 30.6084 11.8309 30.6754C11.8309 30.7425 11.8914 30.8417 11.9654 30.8961C12.0393 30.9504 12.0998 31.0429 12.0998 31.1016C12.0998 31.1603 12.1603 31.2528 12.2343 31.3071C12.3082 31.3614 12.3687 31.4473 12.3687 31.498C12.3687 31.5486 12.52 31.7401 12.7048 31.9237C12.8897 32.1072 13.0409 32.2903 13.0409 32.3307C13.0409 32.4261 15.6394 35.0749 15.7331 35.0749C15.7723 35.0749 15.9826 35.2599 16.2003 35.486C16.418 35.712 16.6311 35.897 16.6738 35.897C16.7164 35.897 16.8362 35.9895 16.9397 36.1025C17.0433 36.2155 17.1637 36.308 17.2073 36.308C17.2508 36.308 17.4026 36.4313 17.5447 36.582C17.6868 36.7328 17.8441 36.8561 17.8944 36.8561C17.9446 36.8561 18.0292 36.9177 18.0825 36.9931C18.1358 37.0684 18.2211 37.1301 18.2721 37.1301C18.323 37.1301 18.4495 37.2226 18.5531 37.3356C18.6566 37.4486 18.7832 37.5411 18.834 37.5411C18.885 37.5411 18.9703 37.6028 19.0236 37.6781C19.0769 37.7535 19.1677 37.8151 19.2253 37.8151C19.2829 37.8151 19.3736 37.8768 19.4269 37.9522C19.4802 38.0275 19.571 38.0892 19.6286 38.0892C19.6862 38.0892 19.777 38.1508 19.8303 38.2262C19.8836 38.3015 19.981 38.3632 20.0468 38.3632C20.1125 38.3632 20.1664 38.394 20.1664 38.4317C20.1664 38.4694 20.2202 38.5002 20.286 38.5002C20.3518 38.5002 20.4492 38.5619 20.5025 38.6372C20.5558 38.7126 20.6532 38.7742 20.719 38.7742C20.7847 38.7742 20.8386 38.8051 20.8386 38.8427C20.8386 38.8804 20.8924 38.9112 20.9582 38.9112C21.024 38.9112 21.1214 38.9729 21.1747 39.0483C21.228 39.1236 21.3254 39.1853 21.3912 39.1853C21.4569 39.1853 21.5108 39.2161 21.5108 39.2538C21.5108 39.2914 21.5713 39.3223 21.6452 39.3223C21.7192 39.3223 21.7797 39.3531 21.7797 39.3908C21.7797 39.4285 21.8335 39.4593 21.8993 39.4593C21.9651 39.4593 22.0625 39.5209 22.1158 39.5963C22.1691 39.6717 22.2665 39.7333 22.3323 39.7333C22.398 39.7333 22.4519 39.7641 22.4519 39.8018C22.4519 39.8395 22.5124 39.8703 22.5863 39.8703C22.6603 39.8703 22.7208 39.9011 22.7208 39.9388C22.7208 39.9765 22.7813 40.0073 22.8552 40.0073C22.9292 40.0073 22.9897 40.0382 22.9897 40.0758C22.9897 40.1135 23.0502 40.1443 23.1241 40.1443C23.198 40.1443 23.2585 40.1752 23.2585 40.2128C23.2585 40.2505 23.319 40.2814 23.393 40.2814C23.4669 40.2814 23.5274 40.3122 23.5274 40.3499C23.5274 40.3875 23.6182 40.4184 23.7291 40.4184C23.84 40.4184 23.9308 40.4492 23.9308 40.4869C23.9308 40.5245 23.9913 40.5554 24.0652 40.5554C24.1391 40.5554 24.1996 40.5862 24.1996 40.6239C24.1996 40.6616 24.2601 40.6924 24.3341 40.6924C24.408 40.6924 24.4685 40.7232 24.4685 40.7609C24.4685 40.7986 24.529 40.8294 24.603 40.8294C24.6769 40.8294 24.7374 40.8602 24.7374 40.8979C24.7374 40.9356 24.8282 40.9664 24.9391 40.9664C25.05 40.9664 25.1407 40.9972 25.1407 41.0349C25.1407 41.0726 25.2012 41.1034 25.2752 41.1034C25.3491 41.1034 25.4096 41.1343 25.4096 41.1719C25.4096 41.2096 25.5004 41.2404 25.6113 41.2404C25.7222 41.2404 25.8129 41.2713 25.8129 41.3089C25.8129 41.3466 25.9037 41.3774 26.0146 41.3774C26.1255 41.3774 26.2163 41.4083 26.2163 41.4459C26.2163 41.4836 26.2768 41.5145 26.3507 41.5145C26.4247 41.5145 26.4852 41.5453 26.4852 41.583C26.4852 41.6206 26.6062 41.6515 26.754 41.6515C26.9019 41.6515 27.0229 41.6823 27.0229 41.72C27.0229 41.7577 27.1137 41.7885 27.2246 41.7885C27.3355 41.7885 27.4263 41.8193 27.4263 41.857C27.4263 41.8947 27.517 41.9255 27.6279 41.9255C27.7388 41.9255 27.8296 41.9563 27.8296 41.994C27.8296 42.0317 27.9506 42.0625 28.0985 42.0625C28.2464 42.0625 28.3674 42.0933 28.3674 42.131C28.3674 42.1687 28.4884 42.1995 28.6362 42.1995C28.7841 42.1995 28.9051 42.2303 28.9051 42.268C28.9051 42.3057 29.0261 42.3365 29.174 42.3365C29.3219 42.3365 29.4429 42.3674 29.4429 42.405C29.4429 42.4427 29.5941 42.4735 29.779 42.4735C29.9639 42.4735 30.1151 42.5044 30.1151 42.542C30.1151 42.5797 30.2664 42.6105 30.4512 42.6105C30.6361 42.6105 30.7873 42.6414 30.7873 42.6791C30.7873 42.719 31.0114 42.7476 31.3251 42.7476C31.6388 42.7476 31.8629 42.7761 31.8629 42.8161C31.8629 42.8579 32.1766 42.8846 32.6695 42.8846C33.1624 42.8846 33.4762 42.9112 33.4762 42.9531C33.4762 42.9957 33.8571 43.0216 34.4845 43.0216C35.1119 43.0216 35.4928 42.9957 35.4928 42.9531C35.4928 42.9112 35.8065 42.8846 36.2995 42.8846C36.7924 42.8846 37.1061 42.8579 37.1061 42.8161C37.1061 42.7761 37.3302 42.7476 37.6439 42.7476C37.9576 42.7476 38.1817 42.719 38.1817 42.6791C38.1817 42.6414 38.3329 42.6105 38.5178 42.6105C38.7026 42.6105 38.8539 42.5797 38.8539 42.542C38.8539 42.5044 39.0051 42.4735 39.19 42.4735C39.3748 42.4735 39.5261 42.4427 39.5261 42.405C39.5261 42.3674 39.6471 42.3365 39.795 42.3365C39.9428 42.3365 40.0638 42.3057 40.0638 42.268C40.0638 42.2303 40.1848 42.1995 40.3327 42.1995C40.4806 42.1995 40.6016 42.1687 40.6016 42.131C40.6016 42.0933 40.7226 42.0625 40.8705 42.0625C41.0184 42.0625 41.1394 42.0317 41.1394 41.994C41.1394 41.9563 41.2301 41.9255 41.341 41.9255C41.452 41.9255 41.5427 41.8947 41.5427 41.857C41.5427 41.8193 41.6335 41.7885 41.7444 41.7885C41.8553 41.7885 41.946 41.7577 41.946 41.72C41.946 41.6823 42.0368 41.6515 42.1477 41.6515C42.2586 41.6515 42.3494 41.6206 42.3494 41.583C42.3494 41.5453 42.4401 41.5145 42.551 41.5145C42.6619 41.5145 42.7527 41.4836 42.7527 41.4459C42.7527 41.4083 42.8434 41.3774 42.9544 41.3774C43.0653 41.3774 43.156 41.3466 43.156 41.3089C43.156 41.2713 43.2165 41.2404 43.2905 41.2404C43.3644 41.2404 43.4249 41.2096 43.4249 41.1719C43.4249 41.1343 43.5157 41.1034 43.6266 41.1034C43.7375 41.1034 43.8282 41.0726 43.8282 41.0349C43.8282 40.9972 43.8887 40.9664 43.9627 40.9664C44.0366 40.9664 44.0971 40.9356 44.0971 40.8979C44.0971 40.8602 44.1576 40.8294 44.2316 40.8294C44.3055 40.8294 44.366 40.7986 44.366 40.7609C44.366 40.7232 44.4568 40.6924 44.5677 40.6924C44.6786 40.6924 44.7693 40.6616 44.7693 40.6239C44.7693 40.5862 44.8298 40.5554 44.9038 40.5554C44.9777 40.5554 45.0382 40.5245 45.0382 40.4869C45.0382 40.4492 45.0987 40.4184 45.1727 40.4184C45.2466 40.4184 45.3071 40.3875 45.3071 40.3499C45.3071 40.3122 45.3676 40.2814 45.4415 40.2814C45.5155 40.2814 45.576 40.2505 45.576 40.2128C45.576 40.1752 45.6365 40.1443 45.7104 40.1443C45.7844 40.1443 45.8449 40.1135 45.8449 40.0758C45.8449 40.0382 45.9054 40.0073 45.9793 40.0073C46.0533 40.0073 46.1138 39.9765 46.1138 39.9388C46.1138 39.9011 46.1676 39.8703 46.2333 39.8703C46.2991 39.8703 46.3966 39.8087 46.4499 39.7333C46.5032 39.658 46.6006 39.5963 46.6664 39.5963C46.7321 39.5963 46.786 39.5655 46.786 39.5278C46.786 39.4901 46.8465 39.4593 46.9204 39.4593C46.9944 39.4593 47.0549 39.4285 47.0549 39.3908C47.0549 39.3531 47.1087 39.3223 47.1744 39.3223C47.2402 39.3223 47.3377 39.2606 47.391 39.1853C47.4443 39.1099 47.5417 39.0483 47.6075 39.0483C47.6732 39.0483 47.7271 39.0174 47.7271 38.9797C47.7271 38.9421 47.7809 38.9112 47.8466 38.9112C47.9125 38.9112 48.0099 38.8496 48.0632 38.7742C48.1165 38.6989 48.2072 38.6372 48.2648 38.6372C48.3224 38.6372 48.4132 38.5756 48.4665 38.5002C48.5198 38.4249 48.6106 38.3632 48.6682 38.3632C48.7258 38.3632 48.8165 38.3015 48.8698 38.2262C48.9231 38.1508 49.0139 38.0892 49.0715 38.0892C49.1291 38.0892 49.2198 38.0275 49.2732 37.9522C49.3265 37.8768 49.4172 37.8151 49.4748 37.8151C49.5324 37.8151 49.6232 37.7535 49.6765 37.6781C49.7298 37.6028 49.8151 37.5411 49.866 37.5411C49.9169 37.5411 50.0434 37.4486 50.147 37.3356C50.2506 37.2226 50.3716 37.1301 50.4159 37.1301C50.4602 37.1301 50.5812 37.0376 50.6848 36.9246C50.7884 36.8115 50.9088 36.7191 50.9523 36.7191C50.9958 36.7191 51.1477 36.5957 51.2898 36.445C51.4319 36.2943 51.5824 36.171 51.6243 36.171C51.6663 36.171 51.8787 35.986 52.0964 35.76C52.3142 35.5339 52.5244 35.3489 52.5636 35.3489C52.6567 35.3489 55.9281 32.0151 55.9281 31.9202C55.9281 31.8802 56.1096 31.666 56.3314 31.4441C56.5532 31.2222 56.7347 31.0051 56.7347 30.9616C56.7347 30.9181 56.8255 30.7961 56.9364 30.6906C57.0473 30.585 57.138 30.4493 57.138 30.3891C57.138 30.3288 57.1683 30.2795 57.2053 30.2795C57.2426 30.2795 57.2725 30.0968 57.2725 29.8685C57.2725 29.6402 57.2426 29.4575 57.2053 29.4575C57.1683 29.4575 57.138 29.4111 57.138 29.3544C57.138 29.2395 53.617 25.6211 53.5051 25.6211C53.4662 25.6211 53.2256 25.4053 52.9703 25.1416C52.7151 24.8778 52.4722 24.6621 52.4305 24.6621C52.3889 24.6621 52.2385 24.5387 52.0964 24.388C51.9543 24.2373 51.8031 24.114 51.7603 24.114C51.7176 24.114 51.5663 23.9907 51.4242 23.84C51.2821 23.6893 51.1303 23.566 51.0868 23.566C51.0432 23.566 50.9228 23.4735 50.8192 23.3604C50.7157 23.2474 50.5947 23.1549 50.5504 23.1549C50.5061 23.1549 50.3851 23.0624 50.2815 22.9494C50.1779 22.8364 50.0514 22.7439 50.0005 22.7439C49.9495 22.7439 49.8642 22.6822 49.8109 22.6069C49.7576 22.5315 49.6723 22.4699 49.6214 22.4699C49.5705 22.4699 49.444 22.3774 49.3404 22.2644C49.2368 22.1513 49.1103 22.0588 49.0594 22.0588C49.0084 22.0588 48.9231 21.9972 48.8698 21.9218C48.8165 21.8465 48.7258 21.7848 48.6682 21.7848C48.6106 21.7848 48.5198 21.7232 48.4665 21.6478C48.4132 21.5724 48.3158 21.5108 48.25 21.5108C48.1842 21.5108 48.1304 21.48 48.1304 21.4423C48.1304 21.4046 48.0765 21.3738 48.0108 21.3738C47.945 21.3738 47.8476 21.3121 47.7943 21.2368C47.741 21.1614 47.6502 21.0998 47.5926 21.0998C47.535 21.0998 47.4443 21.0381 47.391 20.9627C47.3377 20.8874 47.2402 20.8257 47.1744 20.8257C47.1087 20.8257 47.0549 20.7949 47.0549 20.7572C47.0549 20.7196 47.001 20.6887 46.9353 20.6887C46.8695 20.6887 46.7721 20.6271 46.7187 20.5517C46.6654 20.4764 46.568 20.4147 46.5022 20.4147C46.4365 20.4147 46.3826 20.3839 46.3826 20.3462C46.3826 20.3085 46.3221 20.2777 46.2482 20.2777C46.1743 20.2777 46.1138 20.2469 46.1138 20.2092C46.1138 20.1715 46.0533 20.1407 45.9793 20.1407C45.9054 20.1407 45.8449 20.1098 45.8449 20.0722C45.8449 20.0345 45.791 20.0037 45.7253 20.0037C45.6595 20.0037 45.5621 19.942 45.5088 19.8667C45.4555 19.7913 45.3581 19.7296 45.2922 19.7296C45.2265 19.7296 45.1727 19.6988 45.1727 19.6611C45.1727 19.6235 45.1122 19.5926 45.0382 19.5926C44.9643 19.5926 44.9038 19.5618 44.9038 19.5241C44.9038 19.4864 44.8433 19.4556 44.7693 19.4556C44.6954 19.4556 44.6349 19.4248 44.6349 19.3871C44.6349 19.3494 44.5744 19.3186 44.5004 19.3186C44.4265 19.3186 44.366 19.2878 44.366 19.2501C44.366 19.2124 44.3055 19.1816 44.2316 19.1816C44.1576 19.1816 44.0971 19.1508 44.0971 19.1131C44.0971 19.0754 44.0366 19.0446 43.9627 19.0446C43.8887 19.0446 43.8282 19.0138 43.8282 18.9761C43.8282 18.9384 43.7375 18.9076 43.6266 18.9076C43.5157 18.9076 43.4249 18.8767 43.4249 18.8391C43.4249 18.8014 43.3644 18.7706 43.2905 18.7706C43.2165 18.7706 43.156 18.7397 43.156 18.7021C43.156 18.6644 43.0955 18.6336 43.0216 18.6336C42.9476 18.6336 42.8871 18.6027 42.8871 18.565C42.8871 18.5274 42.7964 18.4965 42.6855 18.4965C42.5746 18.4965 42.4838 18.4657 42.4838 18.428C42.4838 18.3904 42.4233 18.3595 42.3494 18.3595C42.2754 18.3595 42.2149 18.3287 42.2149 18.291C42.2149 18.2533 42.1242 18.2225 42.0133 18.2225C41.9023 18.2225 41.8116 18.1917 41.8116 18.154C41.8116 18.1163 41.7208 18.0855 41.6099 18.0855C41.499 18.0855 41.4083 18.0547 41.4083 18.017C41.4083 17.9793 41.3175 17.9485 41.2066 17.9485C41.0957 17.9485 41.0049 17.9177 41.0049 17.88C41.0049 17.8423 40.9142 17.8115 40.8033 17.8115C40.6924 17.8115 40.6016 17.7807 40.6016 17.743C40.6016 17.7053 40.5109 17.6745 40.4 17.6745C40.289 17.6745 40.1983 17.6436 40.1983 17.606C40.1983 17.5683 40.0773 17.5375 39.9294 17.5375C39.7815 17.5375 39.6605 17.5066 39.6605 17.469C39.6605 17.4313 39.5395 17.4004 39.3916 17.4004C39.2437 17.4004 39.1227 17.3696 39.1227 17.3319C39.1227 17.2943 39.0018 17.2634 38.8539 17.2634C38.706 17.2634 38.585 17.2326 38.585 17.1949C38.585 17.1573 38.4337 17.1264 38.2489 17.1264C38.064 17.1264 37.9128 17.0956 37.9128 17.0579C37.9128 17.0188 37.7111 16.9894 37.4422 16.9894C37.1733 16.9894 36.9717 16.96 36.9717 16.9209C36.9717 16.8803 36.7252 16.8524 36.3667 16.8524C36.0082 16.8524 35.7617 16.8245 35.7617 16.7839C35.7617 16.7406 35.2911 16.7154 34.4845 16.7154C33.6778 16.7154 33.2073 16.7406 33.2073 16.7839ZM36.165 18.8391C36.165 18.8767 36.3163 18.9076 36.5011 18.9076C36.686 18.9076 36.8372 18.9384 36.8372 18.9761C36.8372 19.0138 36.9582 19.0446 37.1061 19.0446C37.254 19.0446 37.375 19.0754 37.375 19.1131C37.375 19.1508 37.496 19.1816 37.6439 19.1816C37.7918 19.1816 37.9128 19.2124 37.9128 19.2501C37.9128 19.2878 38.0035 19.3186 38.1144 19.3186C38.2253 19.3186 38.3161 19.3494 38.3161 19.3871C38.3161 19.4248 38.3766 19.4556 38.4505 19.4556C38.5245 19.4556 38.585 19.4864 38.585 19.5241C38.585 19.5618 38.6757 19.5926 38.7866 19.5926C38.8976 19.5926 38.9883 19.6235 38.9883 19.6611C38.9883 19.6988 39.0488 19.7296 39.1227 19.7296C39.1967 19.7296 39.2572 19.7605 39.2572 19.7981C39.2572 19.8358 39.3177 19.8667 39.3916 19.8667C39.4656 19.8667 39.5261 19.8975 39.5261 19.9352C39.5261 19.9728 39.5799 20.0037 39.6457 20.0037C39.7115 20.0037 39.8089 20.0653 39.8622 20.1407C39.9155 20.216 40.0129 20.2777 40.0787 20.2777C40.1444 20.2777 40.1983 20.3085 40.1983 20.3462C40.1983 20.3839 40.2521 20.4147 40.3179 20.4147C40.3837 20.4147 40.4811 20.4764 40.5344 20.5517C40.5877 20.6271 40.673 20.6887 40.724 20.6887C40.7748 20.6887 40.9014 20.7812 41.0049 20.8942C41.1085 21.0073 41.2268 21.0998 41.2678 21.0998C41.365 21.0998 43.156 22.925 43.156 23.0241C43.156 23.0658 43.2468 23.1864 43.3577 23.2919C43.4686 23.3975 43.5593 23.5264 43.5593 23.5783C43.5593 23.6302 43.6198 23.7172 43.6938 23.7715C43.7677 23.8258 43.8282 23.9251 43.8282 23.9921C43.8282 24.0591 43.8585 24.114 43.8955 24.114C43.9324 24.114 43.9627 24.1689 43.9627 24.2359C43.9627 24.3029 44.0232 24.4022 44.0971 24.4565C44.1711 24.5109 44.2316 24.6101 44.2316 24.6772C44.2316 24.7442 44.2618 24.7991 44.2988 24.7991C44.3358 24.7991 44.366 24.8607 44.366 24.9361C44.366 25.0114 44.3963 25.0731 44.4332 25.0731C44.4702 25.0731 44.5004 25.1656 44.5004 25.2786C44.5004 25.3916 44.5307 25.4841 44.5677 25.4841C44.6046 25.4841 44.6349 25.5458 44.6349 25.6211C44.6349 25.6965 44.6651 25.7581 44.7021 25.7581C44.7391 25.7581 44.7693 25.8506 44.7693 25.9637C44.7693 26.0767 44.7996 26.1692 44.8366 26.1692C44.8735 26.1692 44.9038 26.2617 44.9038 26.3747C44.9038 26.4877 44.934 26.5802 44.971 26.5802C45.008 26.5802 45.0382 26.6727 45.0382 26.7857C45.0382 26.8988 45.0685 26.9912 45.1054 26.9912C45.1424 26.9912 45.1727 27.1146 45.1727 27.2653C45.1727 27.416 45.2029 27.5393 45.2399 27.5393C45.2773 27.5393 45.3071 27.722 45.3071 27.9503C45.3071 28.1787 45.3369 28.3614 45.3743 28.3614C45.4171 28.3614 45.4415 28.9094 45.4415 29.8685C45.4415 30.8276 45.4171 31.3756 45.3743 31.3756C45.3369 31.3756 45.3071 31.5583 45.3071 31.7866C45.3071 32.015 45.2773 32.1977 45.2399 32.1977C45.2029 32.1977 45.1727 32.321 45.1727 32.4717C45.1727 32.6224 45.1424 32.7457 45.1054 32.7457C45.0685 32.7457 45.0382 32.8382 45.0382 32.9512C45.0382 33.0643 45.008 33.1568 44.971 33.1568C44.934 33.1568 44.9038 33.2492 44.9038 33.3623C44.9038 33.4753 44.8735 33.5678 44.8366 33.5678C44.7996 33.5678 44.7693 33.6603 44.7693 33.7733C44.7693 33.8863 44.7391 33.9788 44.7021 33.9788C44.6651 33.9788 44.6349 34.0405 44.6349 34.1158C44.6349 34.1912 44.6046 34.2529 44.5677 34.2529C44.5307 34.2529 44.5004 34.3145 44.5004 34.3899C44.5004 34.4652 44.4702 34.5269 44.4332 34.5269C44.3963 34.5269 44.366 34.5885 44.366 34.6639C44.366 34.7392 44.3358 34.8009 44.2988 34.8009C44.2618 34.8009 44.2316 34.8866 44.2316 34.9913C44.2316 35.1031 44.176 35.2224 44.0971 35.2804C44.0232 35.3348 43.9627 35.4272 43.9627 35.486C43.9627 35.5447 43.9022 35.6371 43.8282 35.6915C43.7543 35.7458 43.6938 35.8383 43.6938 35.897C43.6938 35.9557 43.6333 36.0482 43.5593 36.1025C43.4854 36.1568 43.4249 36.2438 43.4249 36.2957C43.4249 36.3476 43.3342 36.4765 43.2232 36.582C43.1123 36.6876 43.0216 36.8083 43.0216 36.85C43.0216 36.9492 41.4997 38.5002 41.4024 38.5002C41.3613 38.5002 41.243 38.5927 41.1394 38.7057C41.0358 38.8188 40.9093 38.9112 40.8584 38.9112C40.8074 38.9112 40.7221 38.9729 40.6688 39.0483C40.6155 39.1236 40.5248 39.1853 40.4672 39.1853C40.4096 39.1853 40.3188 39.2469 40.2655 39.3223C40.2122 39.3976 40.1148 39.4593 40.049 39.4593C39.9832 39.4593 39.9294 39.4901 39.9294 39.5278C39.9294 39.5655 39.8689 39.5963 39.795 39.5963C39.721 39.5963 39.6605 39.6271 39.6605 39.6648C39.6605 39.7025 39.6 39.7333 39.5261 39.7333C39.4521 39.7333 39.3916 39.7641 39.3916 39.8018C39.3916 39.8395 39.3311 39.8703 39.2572 39.8703C39.1832 39.8703 39.1227 39.9011 39.1227 39.9388C39.1227 39.9765 39.0622 40.0073 38.9883 40.0073C38.9144 40.0073 38.8539 40.0382 38.8539 40.0758C38.8539 40.1135 38.7934 40.1443 38.7194 40.1443C38.6455 40.1443 38.585 40.1752 38.585 40.2128C38.585 40.2505 38.4942 40.2814 38.3833 40.2814C38.2724 40.2814 38.1817 40.3122 38.1817 40.3499C38.1817 40.3875 38.0909 40.4184 37.98 40.4184C37.8691 40.4184 37.7783 40.4492 37.7783 40.4869C37.7783 40.5245 37.6876 40.5554 37.5767 40.5554C37.4657 40.5554 37.375 40.5862 37.375 40.6239C37.375 40.6616 37.254 40.6924 37.1061 40.6924C36.9582 40.6924 36.8372 40.7232 36.8372 40.7609C36.8372 40.799 36.6579 40.8294 36.4339 40.8294C36.2099 40.8294 36.0306 40.8598 36.0306 40.8979C36.0306 40.9415 35.4928 40.9664 34.5517 40.9664C33.6106 40.9664 33.0728 40.9415 33.0728 40.8979C33.0728 40.8598 32.8936 40.8294 32.6695 40.8294C32.4455 40.8294 32.2662 40.799 32.2662 40.7609C32.2662 40.7232 32.1452 40.6924 31.9973 40.6924C31.8494 40.6924 31.7284 40.6616 31.7284 40.6239C31.7284 40.5862 31.6074 40.5554 31.4595 40.5554C31.3116 40.5554 31.1906 40.5245 31.1906 40.4869C31.1906 40.4492 31.1301 40.4184 31.0562 40.4184C30.9823 40.4184 30.9218 40.3875 30.9218 40.3499C30.9218 40.3122 30.831 40.2814 30.7201 40.2814C30.6092 40.2814 30.5184 40.2505 30.5184 40.2128C30.5184 40.1752 30.4277 40.1443 30.3168 40.1443C30.2059 40.1443 30.1151 40.1135 30.1151 40.0758C30.1151 40.0382 30.0546 40.0073 29.9807 40.0073C29.9067 40.0073 29.8462 39.9765 29.8462 39.9388C29.8462 39.9011 29.7857 39.8703 29.7118 39.8703C29.6378 39.8703 29.5773 39.8395 29.5773 39.8018C29.5773 39.7641 29.5168 39.7333 29.4429 39.7333C29.3689 39.7333 29.3085 39.7025 29.3085 39.6648C29.3085 39.6271 29.2546 39.5963 29.1889 39.5963C29.1231 39.5963 29.0257 39.5346 28.9723 39.4593C28.919 39.3839 28.8216 39.3223 28.7558 39.3223C28.6901 39.3223 28.6362 39.2914 28.6362 39.2538C28.6362 39.2161 28.5879 39.1853 28.5288 39.1853C28.4697 39.1853 28.3365 39.0928 28.2329 38.9797C28.1293 38.8667 28.0093 38.7742 27.9663 38.7742C27.9233 38.7742 27.7408 38.6201 27.5607 38.4317C27.3806 38.2433 27.2005 38.0892 27.1603 38.0892C27.0651 38.0892 26.3507 37.3612 26.3507 37.2642C26.3507 37.2232 26.1995 37.0396 26.0146 36.8561C25.8298 36.6725 25.6785 36.481 25.6785 36.4304C25.6785 36.3797 25.618 36.2938 25.5441 36.2395C25.4701 36.1852 25.4096 36.0927 25.4096 36.034C25.4096 35.9753 25.3491 35.8828 25.2752 35.8285C25.2012 35.7742 25.1407 35.6749 25.1407 35.6078C25.1407 35.5408 25.1105 35.486 25.0735 35.486C25.0365 35.486 25.0063 35.4311 25.0063 35.3641C25.0063 35.297 24.9458 35.1978 24.8719 35.1434C24.7979 35.0891 24.7374 34.9898 24.7374 34.9228C24.7374 34.8558 24.7072 34.8009 24.6702 34.8009C24.6332 34.8009 24.603 34.7392 24.603 34.6639C24.603 34.5885 24.5727 34.5269 24.5357 34.5269C24.4988 34.5269 24.4685 34.4344 24.4685 34.3214C24.4685 34.2083 24.4383 34.1158 24.4013 34.1158C24.3643 34.1158 24.3341 34.0542 24.3341 33.9788C24.3341 33.9035 24.3038 33.8418 24.2669 33.8418C24.2299 33.8418 24.1996 33.7493 24.1996 33.6363C24.1996 33.5233 24.1694 33.4308 24.1324 33.4308C24.0954 33.4308 24.0652 33.3383 24.0652 33.2253C24.0652 33.1122 24.0349 33.0197 23.998 33.0197C23.961 33.0197 23.9308 32.8964 23.9308 32.7457C23.9308 32.595 23.9005 32.4717 23.8635 32.4717C23.8266 32.4717 23.7963 32.3484 23.7963 32.1977C23.7963 32.047 23.7661 31.9237 23.7291 31.9237C23.6907 31.9237 23.6619 31.7181 23.6619 31.4441C23.6619 31.1701 23.633 30.9646 23.5946 30.9646C23.5526 30.9646 23.5274 30.5535 23.5274 29.8685C23.5274 29.1834 23.5526 28.7724 23.5946 28.7724C23.633 28.7724 23.6619 28.5669 23.6619 28.2929C23.6619 28.0188 23.6907 27.8133 23.7291 27.8133C23.7661 27.8133 23.7963 27.69 23.7963 27.5393C23.7963 27.3886 23.8266 27.2653 23.8635 27.2653C23.9005 27.2653 23.9308 27.142 23.9308 26.9912C23.9308 26.8405 23.961 26.7172 23.998 26.7172C24.0349 26.7172 24.0652 26.6247 24.0652 26.5117C24.0652 26.3987 24.0954 26.3062 24.1324 26.3062C24.1694 26.3062 24.1996 26.2137 24.1996 26.1007C24.1996 25.9876 24.2299 25.8952 24.2669 25.8952C24.3038 25.8952 24.3341 25.8027 24.3341 25.6896C24.3341 25.5766 24.3643 25.4841 24.4013 25.4841C24.4383 25.4841 24.4685 25.4225 24.4685 25.3471C24.4685 25.2718 24.4988 25.2101 24.5357 25.2101C24.5727 25.2101 24.603 25.1484 24.603 25.0731C24.603 24.9977 24.6332 24.9361 24.6702 24.9361C24.7072 24.9361 24.7374 24.8744 24.7374 24.7991C24.7374 24.7237 24.7677 24.6621 24.8046 24.6621C24.8416 24.6621 24.8719 24.6072 24.8719 24.5402C24.8719 24.4731 24.9324 24.3738 25.0063 24.3195C25.0802 24.2652 25.1407 24.1659 25.1407 24.0989C25.1407 24.0319 25.171 23.977 25.208 23.977C25.2449 23.977 25.2752 23.9221 25.2752 23.8551C25.2752 23.7881 25.3357 23.6888 25.4096 23.6345C25.4836 23.5801 25.5441 23.4939 25.5441 23.4427C25.5441 23.3915 25.6651 23.2312 25.8129 23.0864C25.9608 22.9416 26.0818 22.7895 26.0818 22.7484C26.0818 22.6508 27.3349 21.3738 27.4307 21.3738C27.471 21.3738 27.6203 21.2505 27.7624 21.0998C27.9045 20.949 28.0618 20.8257 28.112 20.8257C28.1622 20.8257 28.2468 20.7641 28.3001 20.6887C28.3534 20.6134 28.4442 20.5517 28.5018 20.5517C28.5594 20.5517 28.6502 20.4901 28.7035 20.4147C28.7568 20.3393 28.8542 20.2777 28.92 20.2777C28.9857 20.2777 29.0396 20.2469 29.0396 20.2092C29.0396 20.1715 29.0934 20.1407 29.1592 20.1407C29.225 20.1407 29.3224 20.079 29.3757 20.0037C29.4326 19.9232 29.5497 19.8667 29.6594 19.8667C29.7621 19.8667 29.8462 19.8358 29.8462 19.7981C29.8462 19.7605 29.9067 19.7296 29.9807 19.7296C30.0546 19.7296 30.1151 19.6988 30.1151 19.6611C30.1151 19.6235 30.1756 19.5926 30.2495 19.5926C30.3235 19.5926 30.384 19.5618 30.384 19.5241C30.384 19.4864 30.4747 19.4556 30.5857 19.4556C30.6966 19.4556 30.7873 19.4248 30.7873 19.3871C30.7873 19.3494 30.8781 19.3186 30.989 19.3186C31.0999 19.3186 31.1906 19.2878 31.1906 19.2501C31.1906 19.2124 31.2814 19.1816 31.3923 19.1816C31.5032 19.1816 31.594 19.1508 31.594 19.1131C31.594 19.0754 31.715 19.0446 31.8629 19.0446C32.0107 19.0446 32.1317 19.0138 32.1317 18.9761C32.1317 18.9384 32.283 18.9076 32.4678 18.9076C32.6527 18.9076 32.804 18.8767 32.804 18.8391C32.804 18.7952 33.4089 18.7706 34.4845 18.7706C35.56 18.7706 36.165 18.7952 36.165 18.8391ZM24.8719 21.1531C24.8719 21.1825 24.8114 21.2509 24.7374 21.3053C24.6635 21.3596 24.603 21.4458 24.603 21.497C24.603 21.5482 24.482 21.7085 24.3341 21.8533C24.1862 21.9981 24.0652 22.1584 24.0652 22.2096C24.0652 22.2608 24.0047 22.347 23.9308 22.4014C23.8568 22.4557 23.7963 22.5482 23.7963 22.6069C23.7963 22.6656 23.7358 22.7581 23.6619 22.8124C23.5879 22.8667 23.5274 22.966 23.5274 23.0331C23.5274 23.1001 23.4972 23.1549 23.4602 23.1549C23.4232 23.1549 23.393 23.2166 23.393 23.2919C23.393 23.3673 23.3627 23.429 23.3258 23.429C23.2888 23.429 23.2585 23.4838 23.2585 23.5508C23.2585 23.6179 23.198 23.7172 23.1241 23.7715C23.0502 23.8258 22.9897 23.9251 22.9897 23.9921C22.9897 24.0591 22.9594 24.114 22.9224 24.114C22.8855 24.114 22.8552 24.2065 22.8552 24.3195C22.8552 24.4326 22.825 24.525 22.788 24.525C22.751 24.525 22.7208 24.5867 22.7208 24.6621C22.7208 24.7374 22.6905 24.7991 22.6535 24.7991C22.6166 24.7991 22.5863 24.8607 22.5863 24.9361C22.5863 25.0114 22.5561 25.0731 22.5191 25.0731C22.4821 25.0731 22.4519 25.1656 22.4519 25.2786C22.4519 25.3916 22.4216 25.4841 22.3847 25.4841C22.3477 25.4841 22.3174 25.5766 22.3174 25.6896C22.3174 25.8027 22.2872 25.8952 22.2502 25.8952C22.2133 25.8952 22.183 25.9876 22.183 26.1007C22.183 26.2137 22.1528 26.3062 22.1158 26.3062C22.0788 26.3062 22.0486 26.4295 22.0486 26.5802C22.0486 26.7309 22.0183 26.8542 21.9813 26.8542C21.9444 26.8542 21.9141 27.0084 21.9141 27.1968C21.9141 27.3852 21.8839 27.5393 21.8469 27.5393C21.8085 27.5393 21.7797 27.7448 21.7797 28.0188C21.7797 28.2929 21.7508 28.4984 21.7125 28.4984C21.6699 28.4984 21.6452 29.0007 21.6452 29.8685C21.6452 30.7362 21.6699 31.2386 21.7125 31.2386C21.7508 31.2386 21.7797 31.4441 21.7797 31.7181C21.7797 31.9922 21.8085 32.1977 21.8469 32.1977C21.8839 32.1977 21.9141 32.3518 21.9141 32.5402C21.9141 32.7286 21.9444 32.8827 21.9813 32.8827C22.0183 32.8827 22.0486 33.0061 22.0486 33.1568C22.0486 33.3075 22.0788 33.4308 22.1158 33.4308C22.1528 33.4308 22.183 33.5233 22.183 33.6363C22.183 33.7493 22.2133 33.8418 22.2502 33.8418C22.2872 33.8418 22.3174 33.9343 22.3174 34.0473C22.3174 34.1604 22.3477 34.2529 22.3847 34.2529C22.4216 34.2529 22.4519 34.3453 22.4519 34.4584C22.4519 34.5714 22.4821 34.6639 22.5191 34.6639C22.5561 34.6639 22.5863 34.7255 22.5863 34.8009C22.5863 34.8763 22.6166 34.9379 22.6535 34.9379C22.6905 34.9379 22.7208 34.9996 22.7208 35.0749C22.7208 35.1503 22.751 35.2119 22.788 35.2119C22.825 35.2119 22.8552 35.2736 22.8552 35.3489C22.8552 35.4243 22.8855 35.486 22.9224 35.486C22.9594 35.486 22.9897 35.5717 22.9897 35.6763C22.9897 35.7881 23.0452 35.9075 23.1241 35.9655C23.198 36.0198 23.2585 36.1191 23.2585 36.1862C23.2585 36.2532 23.2888 36.308 23.3258 36.308C23.3627 36.308 23.393 36.3697 23.393 36.445C23.393 36.5204 23.4232 36.582 23.4602 36.582C23.4972 36.582 23.5274 36.6369 23.5274 36.7039C23.5274 36.771 23.5879 36.8703 23.6619 36.9246C23.7358 36.9789 23.7963 37.0658 23.7963 37.1178C23.7963 37.1696 23.8871 37.2985 23.998 37.4041C24.1089 37.5097 24.1996 37.6324 24.1996 37.6768C24.1996 37.7211 24.3206 37.8758 24.4685 38.0207C24.6164 38.1655 24.7374 38.3258 24.7374 38.377C24.7374 38.4281 24.7979 38.5144 24.8719 38.5687C24.9458 38.623 25.0063 38.6915 25.0063 38.7209C25.0063 38.7502 24.9458 38.7742 24.8719 38.7742C24.7979 38.7742 24.7374 38.7434 24.7374 38.7057C24.7374 38.668 24.6769 38.6372 24.603 38.6372C24.529 38.6372 24.4685 38.6064 24.4685 38.5687C24.4685 38.531 24.408 38.5002 24.3341 38.5002C24.2601 38.5002 24.1996 38.4694 24.1996 38.4317C24.1996 38.394 24.1391 38.3632 24.0652 38.3632C23.9913 38.3632 23.9308 38.3324 23.9308 38.2947C23.9308 38.257 23.8703 38.2262 23.7963 38.2262C23.7224 38.2262 23.6619 38.1954 23.6619 38.1577C23.6619 38.12 23.6014 38.0892 23.5274 38.0892C23.4535 38.0892 23.393 38.0583 23.393 38.0207C23.393 37.983 23.3325 37.9522 23.2585 37.9522C23.1846 37.9522 23.1241 37.9213 23.1241 37.8837C23.1241 37.846 23.0636 37.8151 22.9897 37.8151C22.9157 37.8151 22.8552 37.7843 22.8552 37.7466C22.8552 37.709 22.8014 37.6781 22.7356 37.6781C22.6698 37.6781 22.5724 37.6165 22.5191 37.5411C22.4658 37.4658 22.3684 37.4041 22.3026 37.4041C22.2368 37.4041 22.183 37.3733 22.183 37.3356C22.183 37.2979 22.1292 37.2671 22.0634 37.2671C21.9976 37.2671 21.9002 37.2054 21.8469 37.1301C21.7936 37.0547 21.6962 36.9931 21.6304 36.9931C21.5646 36.9931 21.5108 36.9623 21.5108 36.9246C21.5108 36.8869 21.4569 36.8561 21.3912 36.8561C21.3254 36.8561 21.228 36.7944 21.1747 36.7191C21.1214 36.6437 21.0306 36.582 20.973 36.582C20.9154 36.582 20.8247 36.5204 20.7714 36.445C20.7181 36.3697 20.6273 36.308 20.5697 36.308C20.5121 36.308 20.4213 36.2464 20.368 36.171C20.3147 36.0957 20.224 36.034 20.1664 36.034C20.1088 36.034 20.018 35.9723 19.9647 35.897C19.9114 35.8216 19.8261 35.76 19.7751 35.76C19.7243 35.76 19.5977 35.6675 19.4942 35.5545C19.3906 35.4414 19.2702 35.3489 19.2266 35.3489C19.1831 35.3489 19.0313 35.2256 18.8892 35.0749C18.7471 34.9242 18.5952 34.8009 18.5517 34.8009C18.5082 34.8009 18.3878 34.7084 18.2842 34.5954C18.1806 34.4823 18.0606 34.3899 18.0176 34.3899C17.9746 34.3899 17.792 34.2357 17.612 34.0473C17.4319 33.8589 17.2522 33.7048 17.2127 33.7048C17.1095 33.7048 13.982 30.5034 13.982 30.3978C13.982 30.3494 13.9215 30.2653 13.8476 30.211C13.7736 30.1567 13.7131 30.0711 13.7131 30.0208C13.7131 29.9706 13.8946 29.7478 14.1165 29.526C14.3383 29.3041 14.5198 29.0897 14.5198 29.0496C14.5198 28.9549 16.3114 27.1283 16.4043 27.1283C16.4431 27.1283 16.7144 26.8816 17.007 26.5802C17.2996 26.2788 17.5725 26.0322 17.6134 26.0322C17.6544 26.0322 17.8352 25.878 18.0153 25.6896C18.1954 25.5012 18.3773 25.3471 18.4195 25.3471C18.4618 25.3471 18.6126 25.2238 18.7547 25.0731C18.8968 24.9224 19.0487 24.7991 19.0922 24.7991C19.1357 24.7991 19.2561 24.7066 19.3597 24.5935C19.4633 24.4805 19.5898 24.388 19.6407 24.388C19.6916 24.388 19.777 24.3264 19.8303 24.251C19.8836 24.1757 19.9689 24.114 20.0198 24.114C20.0707 24.114 20.1972 24.0215 20.3008 23.9085C20.4044 23.7955 20.5309 23.703 20.5818 23.703C20.6327 23.703 20.7181 23.6413 20.7714 23.566C20.8247 23.4906 20.9154 23.429 20.973 23.429C21.0306 23.429 21.1214 23.3673 21.1747 23.2919C21.228 23.2166 21.3187 23.1549 21.3763 23.1549C21.434 23.1549 21.5247 23.0933 21.578 23.0179C21.6313 22.9426 21.7221 22.8809 21.7797 22.8809C21.8373 22.8809 21.928 22.8193 21.9813 22.7439C22.0346 22.6685 22.132 22.6069 22.1979 22.6069C22.2636 22.6069 22.3174 22.5761 22.3174 22.5384C22.3174 22.5007 22.3713 22.4699 22.437 22.4699C22.5028 22.4699 22.6002 22.4082 22.6535 22.3329C22.7069 22.2575 22.8043 22.1958 22.8701 22.1958C22.9358 22.1958 22.9897 22.165 22.9897 22.1273C22.9897 22.0897 23.0502 22.0588 23.1241 22.0588C23.198 22.0588 23.2585 22.028 23.2585 21.9903C23.2585 21.9527 23.3124 21.9218 23.3781 21.9218C23.4439 21.9218 23.5413 21.8602 23.5946 21.7848C23.648 21.7095 23.7454 21.6478 23.8112 21.6478C23.8769 21.6478 23.9308 21.617 23.9308 21.5793C23.9308 21.5416 23.9913 21.5108 24.0652 21.5108C24.1391 21.5108 24.1996 21.48 24.1996 21.4423C24.1996 21.4046 24.2601 21.3738 24.3341 21.3738C24.408 21.3738 24.4685 21.343 24.4685 21.3053C24.4685 21.2676 24.529 21.2368 24.603 21.2368C24.6769 21.2368 24.7374 21.2059 24.7374 21.1683C24.7374 21.1306 24.7677 21.0998 24.8046 21.0998C24.8416 21.0998 24.8719 21.1238 24.8719 21.1531ZM44.7693 21.7163C44.7693 21.754 44.8298 21.7848 44.9038 21.7848C44.9777 21.7848 45.0382 21.8156 45.0382 21.8533C45.0382 21.891 45.0921 21.9218 45.1578 21.9218C45.2236 21.9218 45.321 21.9835 45.3743 22.0588C45.4276 22.1342 45.525 22.1958 45.5908 22.1958C45.6566 22.1958 45.7104 22.2267 45.7104 22.2644C45.7104 22.302 45.7643 22.3329 45.83 22.3329C45.8958 22.3329 45.9932 22.3945 46.0465 22.4699C46.0998 22.5452 46.1972 22.6069 46.2631 22.6069C46.3288 22.6069 46.3826 22.6377 46.3826 22.6754C46.3826 22.7131 46.4365 22.7439 46.5022 22.7439C46.568 22.7439 46.6654 22.8055 46.7187 22.8809C46.7721 22.9563 46.8628 23.0179 46.9204 23.0179C46.978 23.0179 47.0688 23.0796 47.1221 23.1549C47.1754 23.2303 47.2661 23.2919 47.3237 23.2919C47.3813 23.2919 47.4721 23.3536 47.5254 23.429C47.5787 23.5043 47.6695 23.566 47.7271 23.566C47.7847 23.566 47.8754 23.6276 47.9287 23.703C47.982 23.7783 48.0728 23.84 48.1304 23.84C48.188 23.84 48.2787 23.9016 48.3321 23.977C48.3854 24.0524 48.4707 24.114 48.5216 24.114C48.5725 24.114 48.699 24.2065 48.8026 24.3195C48.9062 24.4326 49.0272 24.525 49.0715 24.525C49.1158 24.525 49.2368 24.6175 49.3404 24.7306C49.444 24.8436 49.565 24.9361 49.6093 24.9361C49.6536 24.9361 49.7746 25.0286 49.8781 25.1416C49.9817 25.2546 50.1021 25.3471 50.1457 25.3471C50.1892 25.3471 50.341 25.4704 50.4831 25.6211C50.6252 25.7718 50.7761 25.8952 50.8184 25.8952C50.8606 25.8952 51.0425 26.0493 51.2226 26.2377C51.4027 26.4261 51.5836 26.5802 51.6247 26.5802C51.666 26.5802 51.9084 26.796 52.1637 27.0598C52.4189 27.3235 52.6596 27.5393 52.6987 27.5393C52.7377 27.5393 53.2996 28.0794 53.9474 28.7396L55.1252 29.9399L54.6527 30.4147C54.3929 30.6758 54.1803 30.922 54.1803 30.9618C54.1803 31.0562 52.2539 33.0197 52.1614 33.0197C52.1225 33.0197 51.8513 33.2664 51.5587 33.5678C51.2661 33.8692 50.9931 34.1158 50.9522 34.1158C50.9113 34.1158 50.7304 34.27 50.5504 34.4584C50.3703 34.6468 50.1884 34.8009 50.1462 34.8009C50.1039 34.8009 49.953 34.9242 49.8109 35.0749C49.6688 35.2256 49.5115 35.3489 49.4613 35.3489C49.4111 35.3489 49.3265 35.4106 49.2732 35.486C49.2198 35.5613 49.1345 35.623 49.0836 35.623C49.0327 35.623 48.9062 35.7155 48.8026 35.8285C48.699 35.9415 48.5725 36.034 48.5216 36.034C48.4707 36.034 48.3854 36.0957 48.3321 36.171C48.2787 36.2464 48.188 36.308 48.1304 36.308C48.0728 36.308 47.982 36.3697 47.9287 36.445C47.8754 36.5204 47.7847 36.582 47.7271 36.582C47.6695 36.582 47.5787 36.6437 47.5254 36.7191C47.4721 36.7944 47.3813 36.8561 47.3237 36.8561C47.2661 36.8561 47.1754 36.9177 47.1221 36.9931C47.0688 37.0684 46.978 37.1301 46.9204 37.1301C46.8628 37.1301 46.7721 37.1917 46.7187 37.2671C46.6654 37.3425 46.568 37.4041 46.5022 37.4041C46.4365 37.4041 46.3826 37.4349 46.3826 37.4726C46.3826 37.5103 46.3221 37.5411 46.2482 37.5411C46.1743 37.5411 46.1138 37.572 46.1138 37.6096C46.1138 37.6473 46.0599 37.6781 45.9942 37.6781C45.9284 37.6781 45.831 37.7398 45.7776 37.8151C45.7243 37.8905 45.6269 37.9522 45.5611 37.9522C45.4954 37.9522 45.4415 37.983 45.4415 38.0207C45.4415 38.0583 45.381 38.0892 45.3071 38.0892C45.2332 38.0892 45.1727 38.12 45.1727 38.1577C45.1727 38.1954 45.1122 38.2262 45.0382 38.2262C44.9643 38.2262 44.9038 38.257 44.9038 38.2947C44.9038 38.3324 44.8433 38.3632 44.7693 38.3632C44.6954 38.3632 44.6349 38.394 44.6349 38.4317C44.6349 38.4694 44.5744 38.5002 44.5004 38.5002C44.4265 38.5002 44.366 38.531 44.366 38.5687C44.366 38.6064 44.3055 38.6372 44.2316 38.6372C44.0499 38.6372 44.0617 38.5889 44.2988 38.3632C44.4097 38.2576 44.5004 38.1343 44.5004 38.0892C44.5004 38.044 44.5912 37.9207 44.7021 37.8151C44.813 37.7096 44.9038 37.5863 44.9038 37.5411C44.9038 37.496 44.9945 37.3727 45.1054 37.2671C45.2164 37.1615 45.3071 37.0258 45.3071 36.9656C45.3071 36.9053 45.3373 36.8561 45.3743 36.8561C45.4113 36.8561 45.4415 36.8012 45.4415 36.7342C45.4415 36.6671 45.502 36.5679 45.576 36.5135C45.6499 36.4592 45.7104 36.36 45.7104 36.2929C45.7104 36.2259 45.7407 36.171 45.7776 36.171C45.8146 36.171 45.8449 36.1094 45.8449 36.034C45.8449 35.9586 45.8751 35.897 45.9121 35.897C45.9491 35.897 45.9793 35.8353 45.9793 35.76C45.9793 35.6846 46.0096 35.623 46.0465 35.623C46.0835 35.623 46.1138 35.5613 46.1138 35.486C46.1138 35.4106 46.144 35.3489 46.181 35.3489C46.2179 35.3489 46.2482 35.2873 46.2482 35.2119C46.2482 35.1366 46.2784 35.0749 46.3154 35.0749C46.3524 35.0749 46.3826 35.0133 46.3826 34.9379C46.3826 34.8626 46.4129 34.8009 46.4499 34.8009C46.4868 34.8009 46.5171 34.7084 46.5171 34.5954C46.5171 34.4823 46.5473 34.3899 46.5843 34.3899C46.6213 34.3899 46.6515 34.2974 46.6515 34.1843C46.6515 34.0713 46.6818 33.9788 46.7187 33.9788C46.7557 33.9788 46.786 33.8863 46.786 33.7733C46.786 33.6603 46.8162 33.5678 46.8532 33.5678C46.8902 33.5678 46.9204 33.4753 46.9204 33.3623C46.9204 33.2492 46.9507 33.1568 46.9876 33.1568C47.0246 33.1568 47.0549 33.0026 47.0549 32.8142C47.0549 32.6258 47.0851 32.4717 47.1221 32.4717C47.159 32.4717 47.1893 32.3176 47.1893 32.1292C47.1893 31.9408 47.2195 31.7866 47.2565 31.7866C47.2968 31.7866 47.3237 31.5126 47.3237 31.1016C47.3237 30.6906 47.3506 30.4165 47.391 30.4165C47.4283 30.4165 47.4582 30.2338 47.4582 30.0055C47.4582 29.7772 47.4283 29.5945 47.391 29.5945C47.3499 29.5945 47.3237 29.2747 47.3237 28.7724C47.3237 28.27 47.2976 27.9503 47.2565 27.9503C47.2191 27.9503 47.1893 27.7676 47.1893 27.5393C47.1893 27.311 47.1594 27.1283 47.1221 27.1283C47.0851 27.1283 47.0549 27.0049 47.0549 26.8542C47.0549 26.7035 47.0246 26.5802 46.9876 26.5802C46.9507 26.5802 46.9204 26.4569 46.9204 26.3062C46.9204 26.1555 46.8902 26.0322 46.8532 26.0322C46.8162 26.0322 46.786 25.9397 46.786 25.8267C46.786 25.7136 46.7557 25.6211 46.7187 25.6211C46.6818 25.6211 46.6515 25.5287 46.6515 25.4156C46.6515 25.3026 46.6213 25.2101 46.5843 25.2101C46.5473 25.2101 46.5171 25.1484 46.5171 25.0731C46.5171 24.9977 46.4868 24.9361 46.4499 24.9361C46.4129 24.9361 46.3826 24.8744 46.3826 24.7991C46.3826 24.7237 46.3524 24.6621 46.3154 24.6621C46.2784 24.6621 46.2482 24.5696 46.2482 24.4565C46.2482 24.3435 46.2179 24.251 46.181 24.251C46.144 24.251 46.1138 24.1894 46.1138 24.114C46.1138 24.0387 46.0835 23.977 46.0465 23.977C46.0096 23.977 45.9793 23.9221 45.9793 23.8551C45.9793 23.7881 45.9188 23.6888 45.8449 23.6345C45.7709 23.5801 45.7104 23.4809 45.7104 23.4138C45.7104 23.3468 45.6802 23.2919 45.6432 23.2919C45.6062 23.2919 45.576 23.2371 45.576 23.1701C45.576 23.103 45.5155 23.0037 45.4415 22.9494C45.3676 22.8951 45.3071 22.7958 45.3071 22.7288C45.3071 22.6618 45.2769 22.6069 45.2399 22.6069C45.2029 22.6069 45.1727 22.5582 45.1727 22.4988C45.1727 22.4392 45.0517 22.2722 44.9038 22.1273C44.6501 21.879 44.5529 21.6478 44.7021 21.6478C44.7391 21.6478 44.7693 21.6786 44.7693 21.7163ZM33.7451 24.3195C33.7451 24.3572 33.5938 24.388 33.4089 24.388C33.2241 24.388 33.0728 24.4189 33.0728 24.4565C33.0728 24.4942 32.9821 24.525 32.8712 24.525C32.7603 24.525 32.6695 24.5559 32.6695 24.5935C32.6695 24.6312 32.5788 24.6621 32.4678 24.6621C32.3569 24.6621 32.2662 24.6929 32.2662 24.7306C32.2662 24.7682 32.2057 24.7991 32.1317 24.7991C32.0578 24.7991 31.9973 24.8299 31.9973 24.8676C31.9973 24.9052 31.9435 24.9361 31.8777 24.9361C31.8119 24.9361 31.7145 24.9977 31.6612 25.0731C31.6079 25.1484 31.5233 25.2101 31.473 25.2101C31.4228 25.2101 31.2655 25.3334 31.1234 25.4841C30.9813 25.6348 30.8311 25.7581 30.7895 25.7581C30.6908 25.7581 30.384 26.0718 30.384 26.1728C30.384 26.216 30.2932 26.3376 30.1823 26.4432C30.0714 26.5488 29.9807 26.6777 29.9807 26.7296C29.9807 26.7815 29.9202 26.8684 29.8462 26.9227C29.7723 26.9771 29.7118 27.0763 29.7118 27.1434C29.7118 27.2104 29.6815 27.2653 29.6446 27.2653C29.6076 27.2653 29.5773 27.3269 29.5773 27.4023C29.5773 27.4776 29.5471 27.5393 29.5101 27.5393C29.4731 27.5393 29.4429 27.6318 29.4429 27.7448C29.4429 27.8578 29.4126 27.9503 29.3757 27.9503C29.3387 27.9503 29.3085 28.0428 29.3085 28.1558C29.3085 28.2689 29.2782 28.3614 29.2412 28.3614C29.2043 28.3614 29.174 28.4847 29.174 28.6354C29.174 28.7861 29.1438 28.9094 29.1068 28.9094C29.0652 28.9094 29.0396 29.2747 29.0396 29.8685C29.0396 30.4622 29.0652 30.8276 29.1068 30.8276C29.1438 30.8276 29.174 30.9509 29.174 31.1016C29.174 31.2523 29.2043 31.3756 29.2412 31.3756C29.2782 31.3756 29.3085 31.4681 29.3085 31.5811C29.3085 31.6942 29.3387 31.7866 29.3757 31.7866C29.4126 31.7866 29.4429 31.8791 29.4429 31.9922C29.4429 32.1052 29.4731 32.1977 29.5101 32.1977C29.5471 32.1977 29.5773 32.2526 29.5773 32.3196C29.5773 32.3866 29.6378 32.4859 29.7118 32.5402C29.7857 32.5945 29.8462 32.6938 29.8462 32.7609C29.8462 32.8279 29.8765 32.8827 29.9134 32.8827C29.9504 32.8827 29.9807 32.9294 29.9807 32.9864C29.9807 33.1124 31.2208 34.3899 31.343 34.3899C31.3908 34.3899 31.4734 34.4515 31.5268 34.5269C31.5801 34.6022 31.6775 34.6639 31.7433 34.6639C31.809 34.6639 31.8629 34.6947 31.8629 34.7324C31.8629 34.7701 31.9234 34.8009 31.9973 34.8009C32.0712 34.8009 32.1317 34.8317 32.1317 34.8694C32.1317 34.9071 32.1922 34.9379 32.2662 34.9379C32.3401 34.9379 32.4006 34.9687 32.4006 35.0064C32.4006 35.0441 32.4914 35.0749 32.6023 35.0749C32.7132 35.0749 32.804 35.1057 32.804 35.1434C32.804 35.1811 32.8947 35.2119 33.0056 35.2119C33.1165 35.2119 33.2073 35.2428 33.2073 35.2804C33.2073 35.3185 33.3866 35.3489 33.6106 35.3489C33.8347 35.3489 34.0139 35.3794 34.0139 35.4174C34.0139 35.4574 34.238 35.486 34.5517 35.486C34.8654 35.486 35.0895 35.4574 35.0895 35.4174C35.0895 35.3798 35.2407 35.3489 35.4256 35.3489C35.6104 35.3489 35.7617 35.3181 35.7617 35.2804C35.7617 35.2428 35.8827 35.2119 36.0306 35.2119C36.1785 35.2119 36.2995 35.1811 36.2995 35.1434C36.2995 35.1057 36.3902 35.0749 36.5011 35.0749C36.612 35.0749 36.7028 35.0441 36.7028 35.0064C36.7028 34.9687 36.7633 34.9379 36.8372 34.9379C36.9112 34.9379 36.9717 34.9071 36.9717 34.8694C36.9717 34.8317 37.0255 34.8009 37.0913 34.8009C37.1571 34.8009 37.2545 34.7392 37.3078 34.6639C37.3611 34.5885 37.4518 34.5269 37.5094 34.5269C37.567 34.5269 37.6578 34.4652 37.7111 34.3899C37.7644 34.3145 37.8474 34.2529 37.8954 34.2529C38.0022 34.2529 38.7194 33.5327 38.7194 33.4255C38.7194 33.3833 38.8102 33.2623 38.9211 33.1568C39.032 33.0512 39.1227 32.9155 39.1227 32.8553C39.1227 32.795 39.153 32.7457 39.19 32.7457C39.2269 32.7457 39.2572 32.6841 39.2572 32.6087C39.2572 32.5334 39.2874 32.4717 39.3244 32.4717C39.3614 32.4717 39.3916 32.41 39.3916 32.3347C39.3916 32.2593 39.4219 32.1977 39.4589 32.1977C39.4958 32.1977 39.5261 32.136 39.5261 32.0607C39.5261 31.9853 39.5563 31.9237 39.5933 31.9237C39.6303 31.9237 39.6605 31.8312 39.6605 31.7181C39.6605 31.6051 39.6908 31.5126 39.7277 31.5126C39.7647 31.5126 39.795 31.4201 39.795 31.3071C39.795 31.1941 39.8252 31.1016 39.8622 31.1016C39.9045 31.1016 39.9294 30.6449 39.9294 29.8685C39.9294 29.0921 39.9045 28.6354 39.8622 28.6354C39.8252 28.6354 39.795 28.5121 39.795 28.3614C39.795 28.2106 39.7647 28.0873 39.7277 28.0873C39.6908 28.0873 39.6605 28.0257 39.6605 27.9503C39.6605 27.875 39.6303 27.8133 39.5933 27.8133C39.5563 27.8133 39.5261 27.7208 39.5261 27.6078C39.5261 27.4948 39.4958 27.4023 39.4589 27.4023C39.4219 27.4023 39.3916 27.3474 39.3916 27.2804C39.3916 27.2133 39.3311 27.1141 39.2572 27.0598C39.1832 27.0054 39.1227 26.9129 39.1227 26.8542C39.1227 26.7955 39.0622 26.703 38.9883 26.6487C38.9144 26.5944 38.8539 26.5099 38.8539 26.4611C38.8539 26.3526 38.0125 25.4841 37.9074 25.4841C37.866 25.4841 37.7475 25.3916 37.6439 25.2786C37.5403 25.1656 37.4071 25.0731 37.348 25.0731C37.2889 25.0731 37.2406 25.0423 37.2406 25.0046C37.2406 24.9669 37.1801 24.9361 37.1061 24.9361C37.0322 24.9361 36.9717 24.9052 36.9717 24.8676C36.9717 24.8299 36.9112 24.7991 36.8372 24.7991C36.7633 24.7991 36.7028 24.7682 36.7028 24.7306C36.7028 24.6929 36.612 24.6621 36.5011 24.6621C36.3902 24.6621 36.2995 24.6312 36.2995 24.5935C36.2995 24.5559 36.2087 24.525 36.0978 24.525C35.9869 24.525 35.8961 24.4942 35.8961 24.4565C35.8961 24.4189 35.7449 24.388 35.56 24.388C35.3752 24.388 35.2239 24.3572 35.2239 24.3195C35.2239 24.278 34.9326 24.251 34.4845 24.251C34.0363 24.251 33.7451 24.278 33.7451 24.3195ZM34.8206 26.2377C34.8206 26.2754 34.9718 26.3062 35.1567 26.3062C35.3416 26.3062 35.4928 26.337 35.4928 26.3747C35.4928 26.4124 35.5835 26.4432 35.6945 26.4432C35.8054 26.4432 35.8961 26.474 35.8961 26.5117C35.8961 26.5494 35.9566 26.5802 36.0306 26.5802C36.1045 26.5802 36.165 26.611 36.165 26.6487C36.165 26.6864 36.2133 26.7172 36.2725 26.7172C36.3316 26.7172 36.4648 26.8097 36.5683 26.9227C36.6719 27.0358 36.7913 27.1283 36.8337 27.1283C36.9396 27.1283 37.2406 27.4441 37.2406 27.5553C37.2406 27.6052 37.3011 27.6905 37.375 27.7448C37.4489 27.7991 37.5094 27.8916 37.5094 27.9503C37.5094 28.009 37.5699 28.1015 37.6439 28.1558C37.7228 28.2139 37.7783 28.3332 37.7783 28.445C37.7783 28.5497 37.8086 28.6354 37.8455 28.6354C37.8825 28.6354 37.9128 28.7279 37.9128 28.8409C37.9128 28.9539 37.943 29.0464 37.98 29.0464C38.0211 29.0464 38.0472 29.3661 38.0472 29.8685C38.0472 30.3708 38.0211 30.6906 37.98 30.6906C37.943 30.6906 37.9128 30.783 37.9128 30.8961C37.9128 31.0091 37.8825 31.1016 37.8455 31.1016C37.8086 31.1016 37.7783 31.1632 37.7783 31.2386C37.7783 31.314 37.7481 31.3756 37.7111 31.3756C37.6741 31.3756 37.6439 31.4373 37.6439 31.5126C37.6439 31.588 37.6136 31.6496 37.5767 31.6496C37.5397 31.6496 37.5094 31.6989 37.5094 31.7592C37.5094 31.8194 37.4187 31.9551 37.3078 32.0607C37.1969 32.1662 37.1061 32.3019 37.1061 32.3622C37.1061 32.4224 37.0578 32.4717 36.9986 32.4717C36.9395 32.4717 36.8064 32.5642 36.7028 32.6772C36.5992 32.7903 36.4727 32.8827 36.4218 32.8827C36.3708 32.8827 36.2855 32.9444 36.2322 33.0197C36.1789 33.0951 36.0815 33.1568 36.0157 33.1568C35.95 33.1568 35.8961 33.1876 35.8961 33.2253C35.8961 33.2629 35.7751 33.2938 35.6272 33.2938C35.4794 33.2938 35.3584 33.3246 35.3584 33.3623C35.3584 33.4044 35.0223 33.4308 34.4845 33.4308C33.9467 33.4308 33.6106 33.4044 33.6106 33.3623C33.6106 33.3246 33.5199 33.2938 33.4089 33.2938C33.298 33.2938 33.2073 33.2629 33.2073 33.2253C33.2073 33.1876 33.1468 33.1568 33.0728 33.1568C32.9989 33.1568 32.9384 33.1259 32.9384 33.0883C32.9384 33.0506 32.8779 33.0197 32.804 33.0197C32.73 33.0197 32.6695 32.9889 32.6695 32.9512C32.6695 32.9136 32.6236 32.8827 32.5674 32.8827C32.4345 32.8827 31.594 32.0261 31.594 31.8907C31.594 31.8334 31.5637 31.7866 31.5268 31.7866C31.4898 31.7866 31.4595 31.7318 31.4595 31.6648C31.4595 31.5977 31.399 31.4984 31.3251 31.4441C31.2462 31.3861 31.1906 31.2668 31.1906 31.155C31.1906 31.0503 31.1604 30.9646 31.1234 30.9646C31.0865 30.9646 31.0562 30.8413 31.0562 30.6906C31.0562 30.5398 31.026 30.4165 30.989 30.4165C30.9498 30.4165 30.9218 30.1882 30.9218 29.8685C30.9218 29.5488 30.9498 29.3204 30.989 29.3204C31.026 29.3204 31.0562 29.1971 31.0562 29.0464C31.0562 28.8957 31.0865 28.7724 31.1234 28.7724C31.1604 28.7724 31.1906 28.6799 31.1906 28.5669C31.1906 28.4538 31.2209 28.3614 31.2579 28.3614C31.2948 28.3614 31.3251 28.3065 31.3251 28.2395C31.3251 28.1724 31.3856 28.0732 31.4595 28.0188C31.5335 27.9645 31.594 27.88 31.594 27.8312C31.594 27.7065 32.4432 26.8542 32.5674 26.8542C32.6236 26.8542 32.6695 26.8234 32.6695 26.7857C32.6695 26.7481 32.7234 26.7172 32.7891 26.7172C32.8549 26.7172 32.9523 26.6556 33.0056 26.5802C33.0626 26.4998 33.1797 26.4432 33.2894 26.4432C33.3921 26.4432 33.4762 26.4124 33.4762 26.3747C33.4762 26.3366 33.6554 26.3062 33.8795 26.3062C34.1035 26.3062 34.2828 26.2758 34.2828 26.2377C34.2828 26.2 34.4038 26.1692 34.5517 26.1692C34.6996 26.1692 34.8206 26.2 34.8206 26.2377Z" fill="#EAAE13"/>
</svg>
