<svg width="70" height="50" viewBox="0 0 70 50" fill="none" xmlns="http://www.w3.org/2000/svg">
<path fill-rule="evenodd" clip-rule="evenodd" d="M44.5273 0.0494748C44.5273 0.076686 44.416 0.0989496 44.28 0.0989496C44.1439 0.0989496 44.0326 0.121213 44.0326 0.148424C44.0326 0.175636 43.9658 0.197899 43.8842 0.197899C43.8025 0.197899 43.7357 0.220163 43.7357 0.247374C43.7357 0.274585 43.6912 0.296849 43.6368 0.296849C43.5824 0.296849 43.5378 0.319113 43.5378 0.346324C43.5378 0.373535 43.4933 0.395799 43.4389 0.395799C43.3845 0.395799 43.3399 0.418062 43.3399 0.445273C43.3399 0.472485 43.3003 0.494748 43.2519 0.494748C43.2035 0.494748 43.1318 0.539276 43.0926 0.593698C43.0533 0.64812 42.9923 0.692647 42.9569 0.692647C42.873 0.692647 42.3504 1.21525 42.3504 1.29911C42.3504 1.33448 42.3059 1.39554 42.2515 1.43477C42.1971 1.474 42.1525 1.54079 42.1525 1.58319C42.1525 1.62559 42.108 1.69239 42.0536 1.73162C41.9955 1.77352 41.9546 1.85971 41.9546 1.94045C41.9546 2.01605 41.9324 2.07794 41.9052 2.07794C41.878 2.07794 41.8557 2.12247 41.8557 2.17689C41.8557 2.23131 41.8334 2.27584 41.8062 2.27584C41.779 2.27584 41.7567 2.38716 41.7567 2.52322C41.7567 2.65927 41.7345 2.77059 41.7073 2.77059C41.6773 2.77059 41.6578 2.98496 41.6578 3.31481C41.6578 3.64466 41.6773 3.85904 41.7073 3.85904C41.7345 3.85904 41.7567 3.94809 41.7567 4.05694C41.7567 4.16578 41.779 4.25483 41.8062 4.25483C41.8334 4.25483 41.8557 4.32163 41.8557 4.40326C41.8557 4.48489 41.878 4.55168 41.9052 4.55168C41.9324 4.55168 41.9546 4.59621 41.9546 4.65063C41.9546 4.70506 41.9769 4.74958 42.0041 4.74958C42.0313 4.74958 42.0536 4.78921 42.0536 4.8376C42.0536 4.88603 42.0981 4.95772 42.1525 4.99696C42.207 5.03619 42.2515 5.09709 42.2515 5.13237C42.2515 5.21593 42.9725 5.93698 43.0561 5.93698C43.0914 5.93698 43.1523 5.98151 43.1915 6.03593C43.2308 6.09035 43.3024 6.13488 43.3509 6.13488C43.3993 6.13488 43.4389 6.15714 43.4389 6.18435C43.4389 6.21156 43.4834 6.23383 43.5378 6.23383C43.5923 6.23383 43.6368 6.25609 43.6368 6.2833C43.6368 6.31051 43.7036 6.33278 43.7852 6.33278C43.8668 6.33278 43.9336 6.35504 43.9336 6.38225C43.9336 6.40946 44.0227 6.43173 44.1315 6.43173C44.2404 6.43173 44.3294 6.45399 44.3294 6.4812C44.3294 6.51301 44.8242 6.53068 45.7147 6.53068H47.1V7.22332V7.91597H46.9516C46.87 7.91597 46.8032 7.93823 46.8032 7.96545C46.8032 7.99513 46.6053 8.01492 46.3084 8.01492C46.0116 8.01492 45.8137 8.03471 45.8137 8.0644C45.8137 8.09265 45.6653 8.11387 45.4674 8.11387C45.2695 8.11387 45.121 8.1351 45.121 8.16335C45.121 8.19085 44.9891 8.21282 44.8242 8.21282C44.6593 8.21282 44.5273 8.23479 44.5273 8.26229C44.5273 8.28951 44.416 8.31177 44.28 8.31177C44.1439 8.31177 44.0326 8.33403 44.0326 8.36124C44.0326 8.38846 43.9213 8.41072 43.7852 8.41072C43.6492 8.41072 43.5378 8.43298 43.5378 8.46019C43.5378 8.48741 43.4488 8.50967 43.3399 8.50967C43.2311 8.50967 43.142 8.53193 43.142 8.55914C43.142 8.58636 43.053 8.60862 42.9441 8.60862C42.8353 8.60862 42.7462 8.63088 42.7462 8.65809C42.7462 8.6853 42.6795 8.70757 42.5978 8.70757C42.5162 8.70757 42.4494 8.72983 42.4494 8.75704C42.4494 8.78425 42.3603 8.80652 42.2515 8.80652C42.1427 8.80652 42.0536 8.82878 42.0536 8.85599C42.0536 8.8832 41.9868 8.90547 41.9052 8.90547C41.8235 8.90547 41.7567 8.92773 41.7567 8.95494C41.7567 8.98215 41.69 9.00442 41.6083 9.00442C41.5267 9.00442 41.4599 9.02668 41.4599 9.05389C41.4599 9.0811 41.3931 9.10337 41.3115 9.10337C41.2298 9.10337 41.1631 9.12563 41.1631 9.15284C41.1631 9.18005 41.1185 9.20232 41.0641 9.20232C41.0097 9.20232 40.9652 9.22458 40.9652 9.25179C40.9652 9.279 40.8984 9.30127 40.8167 9.30127C40.7351 9.30127 40.6683 9.32353 40.6683 9.35074C40.6683 9.37795 40.6238 9.40022 40.5694 9.40022C40.5149 9.40022 40.4704 9.42248 40.4704 9.44969C40.4704 9.4769 40.4036 9.49917 40.322 9.49917C40.2403 9.49917 40.1736 9.52143 40.1736 9.54864C40.1736 9.57585 40.129 9.59811 40.0746 9.59811C40.0202 9.59811 39.9757 9.62038 39.9757 9.64759C39.9757 9.6748 39.9311 9.69706 39.8767 9.69706C39.8223 9.69706 39.7778 9.71933 39.7778 9.74654C39.7778 9.77375 39.7332 9.79601 39.6788 9.79601C39.6244 9.79601 39.5799 9.81828 39.5799 9.84549C39.5799 9.8727 39.5131 9.89496 39.4314 9.89496C39.3498 9.89496 39.283 9.91723 39.283 9.94444C39.283 9.97165 39.2385 9.99391 39.1841 9.99391C39.1296 9.99391 39.0851 10.0162 39.0851 10.0434C39.0851 10.0706 39.0406 10.0929 38.9862 10.0929C38.9317 10.0929 38.8872 10.1151 38.8872 10.1423C38.8872 10.1695 38.8427 10.1918 38.7883 10.1918C38.7338 10.1918 38.6893 10.2141 38.6893 10.2413C38.6893 10.2685 38.6448 10.2908 38.5904 10.2908C38.5359 10.2908 38.4914 10.313 38.4914 10.3402C38.4914 10.3674 38.4518 10.3897 38.4034 10.3897C38.355 10.3897 38.2833 10.4342 38.244 10.4887C38.2048 10.5431 38.1331 10.5876 38.0847 10.5876C38.0363 10.5876 37.9967 10.6099 37.9967 10.6371C37.9967 10.6643 37.957 10.6866 37.9086 10.6866C37.8602 10.6866 37.7885 10.7311 37.7493 10.7855C37.7101 10.8399 37.6384 10.8845 37.5899 10.8845C37.5415 10.8845 37.5019 10.9067 37.5019 10.9339C37.5019 10.9611 37.4574 10.9834 37.403 10.9834C37.3485 10.9834 37.304 11.0057 37.304 11.0329C37.304 11.0601 37.2644 11.0824 37.216 11.0824C37.1676 11.0824 37.0959 11.1269 37.0566 11.1813C37.0174 11.2357 36.9506 11.2803 36.9082 11.2803C36.8658 11.2803 36.799 11.3248 36.7598 11.3792C36.7206 11.4336 36.6578 11.4782 36.6203 11.4782C36.5828 11.4782 36.4897 11.5449 36.4135 11.6266C36.3372 11.7082 36.2441 11.775 36.2067 11.775C36.1692 11.775 36.1064 11.8195 36.0671 11.874C36.0279 11.9284 35.9651 11.9729 35.9276 11.9729C35.8902 11.9729 35.7971 12.0397 35.7208 12.1213C35.6446 12.203 35.556 12.2698 35.5239 12.2698C35.4919 12.2698 35.3801 12.3588 35.2755 12.4677C35.171 12.5765 35.0602 12.6656 35.0293 12.6656C34.9984 12.6656 34.8421 12.7991 34.6819 12.9624C34.5216 13.1257 34.3668 13.2593 34.3379 13.2593C34.2692 13.2593 32.6534 14.8751 32.6534 14.9438C32.6534 14.9727 32.5198 15.1275 32.3565 15.2877C32.1933 15.448 32.0597 15.6048 32.0597 15.6362C32.0597 15.6676 31.9929 15.7557 31.9113 15.8319C31.8296 15.9082 31.7628 15.9968 31.7628 16.0289C31.7628 16.0609 31.6738 16.1726 31.5649 16.2772C31.4561 16.3818 31.367 16.4976 31.367 16.5345C31.367 16.5715 31.3225 16.6338 31.2681 16.673C31.2137 16.7122 31.1691 16.779 31.1691 16.8214C31.1691 16.8638 31.1246 16.9306 31.0702 16.9699C31.0158 17.0091 30.9712 17.0759 30.9712 17.1183C30.9712 17.1607 30.9267 17.2275 30.8723 17.2667C30.8179 17.3059 30.7733 17.3727 30.7733 17.4151C30.7733 17.4575 30.7288 17.5243 30.6744 17.5636C30.62 17.6028 30.5754 17.6696 30.5754 17.712C30.5754 17.7544 30.5309 17.8212 30.4765 17.8604C30.4221 17.8996 30.3775 17.9713 30.3775 18.0198C30.3775 18.0682 30.3553 18.1078 30.3281 18.1078C30.3009 18.1078 30.2786 18.1474 30.2786 18.1958C30.2786 18.2442 30.2341 18.3159 30.1796 18.3552C30.1252 18.3944 30.0807 18.4661 30.0807 18.5145C30.0807 18.5629 30.0584 18.6025 30.0312 18.6025C30.004 18.6025 29.9817 18.6471 29.9817 18.7015C29.9817 18.7559 29.9595 18.8004 29.9323 18.8004C29.9051 18.8004 29.8828 18.845 29.8828 18.8994C29.8828 18.9538 29.8605 18.9983 29.8333 18.9983C29.8061 18.9983 29.7838 19.0429 29.7838 19.0973C29.7838 19.1517 29.7616 19.1962 29.7344 19.1962C29.7072 19.1962 29.6849 19.2408 29.6849 19.2952C29.6849 19.3496 29.6626 19.3941 29.6354 19.3941C29.6082 19.3941 29.5859 19.4387 29.5859 19.4931C29.5859 19.5475 29.5637 19.592 29.5365 19.592C29.5093 19.592 29.487 19.6366 29.487 19.691C29.487 19.7454 29.4647 19.7899 29.4375 19.7899C29.4103 19.7899 29.388 19.8345 29.388 19.8889C29.388 19.9433 29.3658 19.9878 29.3386 19.9878C29.3114 19.9878 29.2891 20.0324 29.2891 20.0868C29.2891 20.1412 29.2668 20.1857 29.2396 20.1857C29.2124 20.1857 29.1901 20.2303 29.1901 20.2847C29.1901 20.3391 29.1679 20.3836 29.1407 20.3836C29.1135 20.3836 29.0912 20.4504 29.0912 20.5321C29.0912 20.6137 29.0689 20.6805 29.0417 20.6805C29.0145 20.6805 28.9922 20.725 28.9922 20.7794C28.9922 20.8338 28.97 20.8784 28.9428 20.8784C28.9156 20.8784 28.8933 20.9452 28.8933 21.0268C28.8933 21.1084 28.871 21.1752 28.8438 21.1752C28.8166 21.1752 28.7943 21.2198 28.7943 21.2742C28.7943 21.3286 28.7721 21.3731 28.7449 21.3731C28.7177 21.3731 28.6954 21.4399 28.6954 21.5215C28.6954 21.6032 28.6731 21.67 28.6459 21.67C28.6187 21.67 28.5964 21.7368 28.5964 21.8184C28.5964 21.9 28.5742 21.9668 28.547 21.9668C28.5198 21.9668 28.4975 22.0336 28.4975 22.1152C28.4975 22.1969 28.4752 22.2637 28.448 22.2637C28.4208 22.2637 28.3985 22.3305 28.3985 22.4121C28.3985 22.4937 28.3763 22.5605 28.3491 22.5605C28.3219 22.5605 28.2996 22.6273 28.2996 22.7089C28.2996 22.7906 28.2773 22.8574 28.2501 22.8574C28.2229 22.8574 28.2006 22.9464 28.2006 23.0553C28.2006 23.1641 28.1784 23.2532 28.1512 23.2532C28.124 23.2532 28.1017 23.3422 28.1017 23.4511C28.1017 23.5599 28.0794 23.649 28.0522 23.649C28.025 23.649 28.0027 23.7158 28.0027 23.7974C28.0027 23.879 27.9805 23.9458 27.9533 23.9458C27.9261 23.9458 27.9038 24.0571 27.9038 24.1932C27.9038 24.3292 27.8815 24.4406 27.8543 24.4406C27.8271 24.4406 27.8048 24.5519 27.8048 24.6879C27.8048 24.824 27.7826 24.9353 27.7554 24.9353C27.7279 24.9353 27.7059 25.0673 27.7059 25.2322C27.7059 25.3971 27.6839 25.529 27.6564 25.529C27.6282 25.529 27.607 25.6774 27.607 25.8753C27.607 26.0732 27.5857 26.2217 27.5575 26.2217C27.5275 26.2217 27.508 26.436 27.508 26.7659C27.508 27.0957 27.4885 27.3101 27.4585 27.3101C27.4268 27.3101 27.409 27.7718 27.409 28.5964C27.409 29.421 27.4268 29.8828 27.4585 29.8828C27.4888 29.8828 27.508 30.1137 27.508 30.4765C27.508 30.8393 27.5272 31.0702 27.5575 31.0702C27.5857 31.0702 27.607 31.2186 27.607 31.4165C27.607 31.6144 27.6282 31.7628 27.6564 31.7628C27.6839 31.7628 27.7059 31.8948 27.7059 32.0597C27.7059 32.2246 27.7279 32.3565 27.7554 32.3565C27.7826 32.3565 27.8048 32.4678 27.8048 32.6039C27.8048 32.74 27.8271 32.8513 27.8543 32.8513C27.8815 32.8513 27.9038 32.9626 27.9038 33.0987C27.9038 33.2347 27.9261 33.346 27.9533 33.346C27.9805 33.346 28.0027 33.4351 28.0027 33.5439C28.0027 33.6528 28.025 33.7418 28.0522 33.7418C28.0794 33.7418 28.1017 33.8309 28.1017 33.9397C28.1017 34.0486 28.124 34.1376 28.1512 34.1376C28.1784 34.1376 28.2006 34.2267 28.2006 34.3355C28.2006 34.4444 28.2229 34.5334 28.2501 34.5334C28.2773 34.5334 28.2996 34.6002 28.2996 34.6819C28.2996 34.7635 28.3219 34.8303 28.3491 34.8303C28.3763 34.8303 28.3985 34.8971 28.3985 34.9787C28.3985 35.0603 28.4208 35.1271 28.448 35.1271C28.4752 35.1271 28.4975 35.1939 28.4975 35.2755C28.4975 35.3572 28.5198 35.424 28.547 35.424C28.5742 35.424 28.5964 35.4908 28.5964 35.5724C28.5964 35.654 28.6187 35.7208 28.6459 35.7208C28.6731 35.7208 28.6954 35.7653 28.6954 35.8198C28.6954 35.8742 28.7177 35.9187 28.7449 35.9187C28.7721 35.9187 28.7943 35.9855 28.7943 36.0671C28.7943 36.1488 28.8166 36.2156 28.8438 36.2156C28.871 36.2156 28.8933 36.2824 28.8933 36.364C28.8933 36.4456 28.9156 36.5124 28.9428 36.5124C28.97 36.5124 28.9922 36.5569 28.9922 36.6114C28.9922 36.6658 29.0145 36.7103 29.0417 36.7103C29.0689 36.7103 29.0912 36.7548 29.0912 36.8093C29.0912 36.8637 29.1135 36.9082 29.1407 36.9082C29.1679 36.9082 29.1901 36.975 29.1901 37.0566C29.1901 37.1383 29.2124 37.2051 29.2396 37.2051C29.2668 37.2051 29.2891 37.2496 29.2891 37.304C29.2891 37.3584 29.3114 37.403 29.3386 37.403C29.3658 37.403 29.388 37.4475 29.388 37.5019C29.388 37.5563 29.4103 37.6009 29.4375 37.6009C29.4647 37.6009 29.487 37.6454 29.487 37.6998C29.487 37.7542 29.5093 37.7988 29.5365 37.7988C29.5637 37.7988 29.5859 37.8433 29.5859 37.8977C29.5859 37.9521 29.6082 37.9967 29.6354 37.9967C29.6626 37.9967 29.6849 38.0412 29.6849 38.0956C29.6849 38.15 29.7072 38.1946 29.7344 38.1946C29.7616 38.1946 29.7838 38.2391 29.7838 38.2935C29.7838 38.3479 29.8061 38.3925 29.8333 38.3925C29.8605 38.3925 29.8828 38.4321 29.8828 38.4805C29.8828 38.5289 29.9273 38.6006 29.9817 38.6398C30.0362 38.6791 30.0807 38.7508 30.0807 38.7992C30.0807 38.8476 30.103 38.8872 30.1302 38.8872C30.1574 38.8872 30.1796 38.9317 30.1796 38.9862C30.1796 39.0406 30.2019 39.0851 30.2291 39.0851C30.2563 39.0851 30.2786 39.1247 30.2786 39.1731C30.2786 39.2216 30.3231 39.2932 30.3775 39.3325C30.432 39.3717 30.4765 39.4434 30.4765 39.4918C30.4765 39.5402 30.4988 39.5799 30.526 39.5799C30.5532 39.5799 30.5754 39.6195 30.5754 39.6679C30.5754 39.7163 30.62 39.788 30.6744 39.8272C30.7288 39.8665 30.7733 39.9333 30.7733 39.9757C30.7733 40.0181 30.8179 40.0848 30.8723 40.1241C30.9267 40.1633 30.9712 40.2301 30.9712 40.2725C30.9712 40.3149 31.0158 40.3817 31.0702 40.4209C31.1246 40.4602 31.1691 40.5229 31.1691 40.5604C31.1691 40.5979 31.2359 40.691 31.3176 40.7673C31.3992 40.8435 31.466 40.9325 31.466 40.9652C31.466 40.9978 31.5328 41.0868 31.6144 41.1631C31.696 41.2393 31.7628 41.3283 31.7628 41.361C31.7628 41.3936 31.8296 41.4826 31.9113 41.5588C31.9929 41.6351 32.0597 41.7232 32.0597 41.7546C32.0597 41.786 32.1933 41.9428 32.3565 42.1031C32.5198 42.2633 32.6534 42.4181 32.6534 42.447C32.6534 42.516 34.3684 44.2305 34.4373 44.2305C34.4665 44.2305 34.5988 44.3418 34.7313 44.4779C34.8639 44.6139 34.9977 44.7252 35.0288 44.7252C35.0599 44.7252 35.171 44.8143 35.2755 44.9231C35.3801 45.032 35.4919 45.121 35.5239 45.121C35.556 45.121 35.6446 45.1878 35.7208 45.2695C35.7971 45.3511 35.8861 45.4179 35.9187 45.4179C35.9513 45.4179 36.0404 45.4847 36.1166 45.5663C36.1929 45.6479 36.286 45.7147 36.3234 45.7147C36.3609 45.7147 36.4237 45.7593 36.4629 45.8137C36.5022 45.8681 36.569 45.9126 36.6114 45.9126C36.6538 45.9126 36.7206 45.9572 36.7598 46.0116C36.799 46.066 36.8658 46.1105 36.9082 46.1105C36.9506 46.1105 37.0174 46.1551 37.0566 46.2095C37.0959 46.2639 37.1676 46.3084 37.216 46.3084C37.2644 46.3084 37.304 46.3307 37.304 46.3579C37.304 46.3851 37.3436 46.4074 37.392 46.4074C37.4405 46.4074 37.5122 46.4519 37.5514 46.5063C37.5906 46.5608 37.6623 46.6053 37.7107 46.6053C37.7591 46.6053 37.7988 46.6275 37.7988 46.6548C37.7988 46.682 37.8433 46.7042 37.8977 46.7042C37.9521 46.7042 37.9967 46.7265 37.9967 46.7537C37.9967 46.7809 38.0363 46.8032 38.0847 46.8032C38.1331 46.8032 38.2048 46.8477 38.244 46.9021C38.2833 46.9566 38.355 47.0011 38.4034 47.0011C38.4518 47.0011 38.4914 47.0233 38.4914 47.0506C38.4914 47.0778 38.5359 47.1 38.5904 47.1C38.6448 47.1 38.6893 47.1223 38.6893 47.1495C38.6893 47.1767 38.7338 47.199 38.7883 47.199C38.8427 47.199 38.8872 47.2212 38.8872 47.2485C38.8872 47.2757 38.9317 47.2979 38.9862 47.2979C39.0406 47.2979 39.0851 47.3202 39.0851 47.3474C39.0851 47.3746 39.1296 47.3969 39.1841 47.3969C39.2385 47.3969 39.283 47.4191 39.283 47.4464C39.283 47.4736 39.3498 47.4958 39.4314 47.4958C39.5131 47.4958 39.5799 47.5181 39.5799 47.5453C39.5799 47.5725 39.6244 47.5948 39.6788 47.5948C39.7332 47.5948 39.7778 47.617 39.7778 47.6443C39.7778 47.6715 39.8223 47.6937 39.8767 47.6937C39.9311 47.6937 39.9757 47.716 39.9757 47.7432C39.9757 47.7704 40.0202 47.7927 40.0746 47.7927C40.129 47.7927 40.1736 47.8149 40.1736 47.8422C40.1736 47.8694 40.2403 47.8916 40.322 47.8916C40.4036 47.8916 40.4704 47.9139 40.4704 47.9411C40.4704 47.9683 40.5149 47.9906 40.5694 47.9906C40.6238 47.9906 40.6683 48.0128 40.6683 48.0401C40.6683 48.0673 40.7351 48.0895 40.8167 48.0895C40.8984 48.0895 40.9652 48.1118 40.9652 48.139C40.9652 48.1662 41.0319 48.1885 41.1136 48.1885C41.1952 48.1885 41.262 48.2107 41.262 48.2379C41.262 48.2652 41.3288 48.2874 41.4104 48.2874C41.4921 48.2874 41.5588 48.3097 41.5588 48.3369C41.5588 48.3641 41.6256 48.3864 41.7073 48.3864C41.7889 48.3864 41.8557 48.4086 41.8557 48.4358C41.8557 48.4631 41.9225 48.4853 42.0041 48.4853C42.0858 48.4853 42.1525 48.5076 42.1525 48.5348C42.1525 48.562 42.2193 48.5843 42.301 48.5843C42.3826 48.5843 42.4494 48.6065 42.4494 48.6337C42.4494 48.661 42.5385 48.6832 42.6473 48.6832C42.7561 48.6832 42.8452 48.7055 42.8452 48.7327C42.8452 48.7599 42.912 48.7822 42.9936 48.7822C43.0753 48.7822 43.142 48.8044 43.142 48.8316C43.142 48.8589 43.2534 48.8811 43.3894 48.8811C43.5255 48.8811 43.6368 48.9034 43.6368 48.9306C43.6368 48.9578 43.7481 48.9801 43.8842 48.9801C44.0202 48.9801 44.1315 49.0023 44.1315 49.0295C44.1315 49.0568 44.2429 49.079 44.3789 49.079C44.515 49.079 44.6263 49.1013 44.6263 49.1285C44.6263 49.156 44.7582 49.178 44.9231 49.178C45.088 49.178 45.22 49.1999 45.22 49.2274C45.22 49.2563 45.3849 49.2769 45.6158 49.2769C45.8467 49.2769 46.0116 49.2976 46.0116 49.3264C46.0116 49.3566 46.2425 49.3759 46.6053 49.3759C46.9681 49.3759 47.199 49.3951 47.199 49.4253C47.199 49.4568 47.5948 49.4748 48.2874 49.4748C48.9801 49.4748 49.3759 49.4568 49.3759 49.4253C49.3759 49.3949 49.6232 49.3759 50.019 49.3759C50.4148 49.3759 50.6622 49.3568 50.6622 49.3264C50.6622 49.2976 50.8271 49.2769 51.058 49.2769C51.2889 49.2769 51.4538 49.2563 51.4538 49.2274C51.4538 49.1999 51.5858 49.178 51.7507 49.178C51.9156 49.178 52.0475 49.156 52.0475 49.1285C52.0475 49.1013 52.1588 49.079 52.2949 49.079C52.4309 49.079 52.5423 49.0568 52.5423 49.0295C52.5423 49.0023 52.6536 48.9801 52.7896 48.9801C52.9257 48.9801 53.037 48.9578 53.037 48.9306C53.037 48.9034 53.1261 48.8811 53.2349 48.8811C53.3438 48.8811 53.4328 48.8589 53.4328 48.8316C53.4328 48.8044 53.4996 48.7822 53.5812 48.7822C53.6629 48.7822 53.7297 48.7599 53.7297 48.7327C53.7297 48.7055 53.8187 48.6832 53.9276 48.6832C54.0364 48.6832 54.1255 48.661 54.1255 48.6337C54.1255 48.6065 54.1922 48.5843 54.2739 48.5843C54.3555 48.5843 54.4223 48.562 54.4223 48.5348C54.4223 48.5076 54.5114 48.4853 54.6202 48.4853C54.729 48.4853 54.8181 48.4631 54.8181 48.4358C54.8181 48.4086 54.8626 48.3864 54.917 48.3864C54.9715 48.3864 55.016 48.3641 55.016 48.3369C55.016 48.3097 55.1051 48.2874 55.2139 48.2874C55.3227 48.2874 55.4118 48.2652 55.4118 48.2379C55.4118 48.2107 55.4563 48.1885 55.5107 48.1885C55.5652 48.1885 55.6097 48.1662 55.6097 48.139C55.6097 48.1118 55.6765 48.0895 55.7581 48.0895C55.8398 48.0895 55.9065 48.0673 55.9065 48.0401C55.9065 48.0128 55.9511 47.9906 56.0055 47.9906C56.0599 47.9906 56.1044 47.9683 56.1044 47.9411C56.1044 47.9139 56.1712 47.8916 56.2529 47.8916C56.3345 47.8916 56.4013 47.8694 56.4013 47.8422C56.4013 47.8149 56.4458 47.7927 56.5002 47.7927C56.5547 47.7927 56.5992 47.7704 56.5992 47.7432C56.5992 47.716 56.6437 47.6937 56.6981 47.6937C56.7526 47.6937 56.7971 47.6715 56.7971 47.6443C56.7971 47.617 56.8639 47.5948 56.9455 47.5948C57.0272 47.5948 57.0939 47.5725 57.0939 47.5453C57.0939 47.5181 57.1385 47.4958 57.1929 47.4958C57.2473 47.4958 57.2918 47.4736 57.2918 47.4464C57.2918 47.4191 57.3364 47.3969 57.3908 47.3969C57.4452 47.3969 57.4897 47.3746 57.4897 47.3474C57.4897 47.3202 57.5343 47.2979 57.5887 47.2979C57.6431 47.2979 57.6876 47.2757 57.6876 47.2485C57.6876 47.2212 57.7322 47.199 57.7866 47.199C57.841 47.199 57.8855 47.1767 57.8855 47.1495C57.8855 47.1223 57.9301 47.1 57.9845 47.1C58.0389 47.1 58.0834 47.0778 58.0834 47.0506C58.0834 47.0233 58.128 47.0011 58.1824 47.0011C58.2368 47.0011 58.2813 46.9788 58.2813 46.9516C58.2813 46.9244 58.321 46.9021 58.3694 46.9021C58.4178 46.9021 58.4895 46.8576 58.5287 46.8032C58.5679 46.7488 58.6396 46.7042 58.6881 46.7042C58.7365 46.7042 58.7761 46.682 58.7761 46.6548C58.7761 46.6275 58.8157 46.6053 58.8641 46.6053C58.9125 46.6053 58.9842 46.5608 59.0235 46.5063C59.0627 46.4519 59.1344 46.4074 59.1828 46.4074C59.2312 46.4074 59.2708 46.3851 59.2708 46.3579C59.2708 46.3307 59.3105 46.3084 59.3589 46.3084C59.4073 46.3084 59.479 46.2639 59.5182 46.2095C59.5574 46.1551 59.6242 46.1105 59.6666 46.1105C59.709 46.1105 59.7758 46.066 59.8151 46.0116C59.8543 45.9572 59.9211 45.9126 59.9635 45.9126C60.0059 45.9126 60.0727 45.8681 60.1119 45.8137C60.1511 45.7593 60.2179 45.7147 60.2603 45.7147C60.3027 45.7147 60.3695 45.6702 60.4088 45.6158C60.448 45.5614 60.5108 45.5168 60.5483 45.5168C60.5857 45.5168 60.6788 45.45 60.7551 45.3684C60.8313 45.2868 60.9199 45.22 60.952 45.22C60.984 45.22 61.0958 45.1309 61.2004 45.0221C61.3049 44.9132 61.416 44.8242 61.4471 44.8242C61.4782 44.8242 61.612 44.7129 61.7446 44.5768C61.8771 44.4408 62.0094 44.3294 62.0385 44.3294C62.1077 44.3294 64.2183 42.2188 64.2183 42.1496C64.2183 42.1205 64.3296 41.9882 64.4657 41.8557C64.6017 41.7232 64.7131 41.5888 64.7131 41.5572C64.7131 41.5255 64.7799 41.4372 64.8615 41.361C64.9431 41.2847 65.0099 41.1957 65.0099 41.1631C65.0099 41.1304 65.0767 41.0414 65.1583 40.9652C65.24 40.8889 65.3068 40.7958 65.3068 40.7583C65.3068 40.7208 65.3513 40.6581 65.4057 40.6188C65.4601 40.5796 65.5047 40.5128 65.5047 40.4704C65.5047 40.428 65.5492 40.3612 65.6036 40.322C65.658 40.2827 65.7026 40.216 65.7026 40.1736C65.7026 40.1312 65.7471 40.0644 65.8015 40.0251C65.8559 39.9859 65.9005 39.9191 65.9005 39.8767C65.9005 39.8343 65.945 39.7675 65.9994 39.7283C66.0538 39.689 66.0984 39.6223 66.0984 39.5799C66.0984 39.5375 66.1429 39.4707 66.1973 39.4314C66.2517 39.3922 66.2963 39.3254 66.2963 39.283C66.2963 39.2406 66.3408 39.1738 66.3952 39.1346C66.4496 39.0953 66.4942 39.0237 66.4942 38.9752C66.4942 38.9268 66.5164 38.8872 66.5436 38.8872C66.5708 38.8872 66.5931 38.8427 66.5931 38.7883C66.5931 38.7338 66.6154 38.6893 66.6426 38.6893C66.6698 38.6893 66.6921 38.6448 66.6921 38.5904C66.6921 38.5359 66.7143 38.4914 66.7415 38.4914C66.7687 38.4914 66.791 38.4469 66.791 38.3925C66.791 38.338 66.8133 38.2935 66.8405 38.2935C66.8677 38.2935 66.89 38.249 66.89 38.1946C66.89 38.1401 66.9122 38.0956 66.9394 38.0956C66.9666 38.0956 66.9889 38.0511 66.9889 37.9967C66.9889 37.9422 67.0112 37.8977 67.0384 37.8977C67.0656 37.8977 67.0879 37.8532 67.0879 37.7988C67.0879 37.7443 67.1101 37.6998 67.1373 37.6998C67.1645 37.6998 67.1868 37.6553 67.1868 37.6009C67.1868 37.5464 67.2091 37.5019 67.2363 37.5019C67.2635 37.5019 67.2858 37.4574 67.2858 37.403C67.2858 37.3485 67.308 37.304 67.3352 37.304C67.3624 37.304 67.3847 37.2595 67.3847 37.2051C67.3847 37.1506 67.407 37.1061 67.4342 37.1061C67.4614 37.1061 67.4837 37.0616 67.4837 37.0072C67.4837 36.9527 67.5059 36.9082 67.5331 36.9082C67.5603 36.9082 67.5826 36.8414 67.5826 36.7598C67.5826 36.6782 67.6049 36.6114 67.6321 36.6114C67.6593 36.6114 67.6816 36.5668 67.6816 36.5124C67.6816 36.458 67.7038 36.4135 67.731 36.4135C67.7582 36.4135 67.7805 36.3467 67.7805 36.265C67.7805 36.1834 67.8028 36.1166 67.83 36.1166C67.8572 36.1166 67.8795 36.0721 67.8795 36.0177C67.8795 35.9632 67.9017 35.9187 67.9289 35.9187C67.9561 35.9187 67.9784 35.8519 67.9784 35.7703C67.9784 35.6887 68.0007 35.6219 68.0279 35.6219C68.0551 35.6219 68.0774 35.5551 68.0774 35.4734C68.0774 35.3918 68.0996 35.325 68.1268 35.325C68.154 35.325 68.1763 35.2582 68.1763 35.1766C68.1763 35.095 68.1986 35.0282 68.2258 35.0282C68.253 35.0282 68.2753 34.9614 68.2753 34.8797C68.2753 34.7981 68.2975 34.7313 68.3247 34.7313C68.3519 34.7313 68.3742 34.6645 68.3742 34.5829C68.3742 34.5013 68.3965 34.4345 68.4237 34.4345C68.4509 34.4345 68.4732 34.3454 68.4732 34.2366C68.4732 34.1277 68.4954 34.0387 68.5226 34.0387C68.5498 34.0387 68.5721 33.9496 68.5721 33.8408C68.5721 33.7319 68.5944 33.6429 68.6216 33.6429C68.6488 33.6429 68.6711 33.5538 68.6711 33.445C68.6711 33.3361 68.6933 33.2471 68.7205 33.2471C68.7477 33.2471 68.77 33.158 68.77 33.0492C68.77 32.9403 68.7923 32.8513 68.8195 32.8513C68.8467 32.8513 68.8689 32.74 68.8689 32.6039C68.8689 32.4678 68.8912 32.3565 68.9184 32.3565C68.9467 32.3565 68.9679 32.2081 68.9679 32.0102C68.9679 31.8123 68.9891 31.6639 69.0174 31.6639C69.0456 31.6639 69.0668 31.5155 69.0668 31.3176C69.0668 31.1197 69.0881 30.9712 69.1163 30.9712C69.1468 30.9712 69.1658 30.7239 69.1658 30.3281C69.1658 29.9323 69.1848 29.6849 69.2153 29.6849C69.2467 29.6849 69.2647 29.3056 69.2647 28.6459C69.2647 27.9863 69.2467 27.607 69.2153 27.607C69.185 27.607 69.1658 27.3761 69.1658 27.0133C69.1658 26.6505 69.1466 26.4196 69.1163 26.4196C69.0875 26.4196 69.0668 26.2547 69.0668 26.0238C69.0668 25.7929 69.0462 25.628 69.0174 25.628C68.9899 25.628 68.9679 25.496 68.9679 25.3311C68.9679 25.1662 68.9459 25.0343 68.9184 25.0343C68.8912 25.0343 68.8689 24.9229 68.8689 24.7869C68.8689 24.6508 68.8467 24.5395 68.8195 24.5395C68.7923 24.5395 68.77 24.4282 68.77 24.2921C68.77 24.1561 68.7477 24.0448 68.7205 24.0448C68.6933 24.0448 68.6711 23.9557 68.6711 23.8469C68.6711 23.738 68.6488 23.649 68.6216 23.649C68.5944 23.649 68.5721 23.5599 68.5721 23.4511C68.5721 23.3422 68.5498 23.2532 68.5226 23.2532C68.4954 23.2532 68.4732 23.1864 68.4732 23.1047C68.4732 23.0231 68.4509 22.9563 68.4237 22.9563C68.3965 22.9563 68.3742 22.8673 68.3742 22.7584C68.3742 22.6496 68.3519 22.5605 68.3247 22.5605C68.2975 22.5605 68.2753 22.4937 68.2753 22.4121C68.2753 22.3305 68.253 22.2637 68.2258 22.2637C68.1986 22.2637 68.1763 22.1969 68.1763 22.1152C68.1763 22.0336 68.154 21.9668 68.1268 21.9668C68.0996 21.9668 68.0774 21.9223 68.0774 21.8679C68.0774 21.8134 68.0551 21.7689 68.0279 21.7689C68.0007 21.7689 67.9784 21.7021 67.9784 21.6205C67.9784 21.5389 67.9561 21.4721 67.9289 21.4721C67.9017 21.4721 67.8795 21.4053 67.8795 21.3236C67.8795 21.242 67.8572 21.1752 67.83 21.1752C67.8028 21.1752 67.7805 21.1307 67.7805 21.0763C67.7805 21.0219 67.7582 20.9773 67.731 20.9773C67.7038 20.9773 67.6816 20.9105 67.6816 20.8289C67.6816 20.7473 67.6593 20.6805 67.6321 20.6805C67.6049 20.6805 67.5826 20.6359 67.5826 20.5815C67.5826 20.5271 67.5603 20.4826 67.5331 20.4826C67.5059 20.4826 67.4837 20.438 67.4837 20.3836C67.4837 20.3292 67.4614 20.2847 67.4342 20.2847C67.407 20.2847 67.3847 20.2179 67.3847 20.1363C67.3847 20.0546 67.3624 19.9878 67.3352 19.9878C67.308 19.9878 67.2858 19.9433 67.2858 19.8889C67.2858 19.8345 67.2635 19.7899 67.2363 19.7899C67.2091 19.7899 67.1868 19.7454 67.1868 19.691C67.1868 19.6366 67.1645 19.592 67.1373 19.592C67.1101 19.592 67.0879 19.5475 67.0879 19.4931C67.0879 19.4387 67.0656 19.3941 67.0384 19.3941C67.0112 19.3941 66.9889 19.3496 66.9889 19.2952C66.9889 19.2408 66.9666 19.1962 66.9394 19.1962C66.9122 19.1962 66.89 19.1517 66.89 19.0973C66.89 19.0429 66.8677 18.9983 66.8405 18.9983C66.8133 18.9983 66.791 18.9587 66.791 18.9103C66.791 18.8619 66.7465 18.7902 66.6921 18.751C66.6376 18.7117 66.5931 18.64 66.5931 18.5916C66.5931 18.5432 66.5708 18.5036 66.5436 18.5036C66.5164 18.5036 66.4942 18.4591 66.4942 18.4046C66.4942 18.3502 66.4719 18.3057 66.4447 18.3057C66.4175 18.3057 66.3952 18.2661 66.3952 18.2177C66.3952 18.1692 66.3507 18.0975 66.2963 18.0583C66.2418 18.0191 66.1973 17.9523 66.1973 17.9099C66.1973 17.8675 66.1528 17.8007 66.0984 17.7615C66.0439 17.7222 65.9994 17.6554 65.9994 17.613C65.9994 17.5706 65.9549 17.5038 65.9005 17.4646C65.846 17.4254 65.8015 17.3586 65.8015 17.3162C65.8015 17.2738 65.757 17.207 65.7026 17.1678C65.6481 17.1285 65.6036 17.0617 65.6036 17.0193C65.6036 16.9769 65.5591 16.9101 65.5047 16.8709C65.4502 16.8317 65.4057 16.7689 65.4057 16.7314C65.4057 16.6939 65.3389 16.6008 65.2573 16.5246C65.1757 16.4483 65.1089 16.3593 65.1089 16.3267C65.1089 16.2941 65.0421 16.205 64.9604 16.1288C64.8788 16.0526 64.812 15.9635 64.812 15.9309C64.812 15.8983 64.7452 15.8092 64.6636 15.733C64.582 15.6568 64.5152 15.5689 64.5152 15.5379C64.5152 15.5068 64.3371 15.3052 64.1194 15.0898C63.9017 14.8745 63.7236 14.6748 63.7236 14.6461C63.7236 14.5779 62.6025 13.4572 62.5343 13.4572C62.5055 13.4572 62.3282 13.3013 62.1404 13.1108C61.9525 12.9203 61.7738 12.7645 61.7431 12.7645C61.7124 12.7645 61.6018 12.6754 61.4972 12.5666C61.3926 12.4578 61.2808 12.3687 61.2488 12.3687C61.2168 12.3687 61.1282 12.3019 61.0519 12.2203C60.9757 12.1386 60.8866 12.0719 60.854 12.0719C60.8214 12.0719 60.7324 12.0051 60.6561 11.9234C60.5799 11.8418 60.4868 11.775 60.4493 11.775C60.4118 11.775 60.349 11.7305 60.3098 11.6761C60.2706 11.6216 60.2038 11.5771 60.1614 11.5771C60.119 11.5771 60.0522 11.5326 60.013 11.4782C59.9737 11.4237 59.9069 11.3792 59.8645 11.3792C59.8221 11.3792 59.7553 11.3347 59.7161 11.2803C59.6769 11.2258 59.6101 11.1813 59.5677 11.1813C59.5253 11.1813 59.4585 11.1368 59.4193 11.0824C59.38 11.0279 59.3083 10.9834 59.2599 10.9834C59.2115 10.9834 59.1719 10.9611 59.1719 10.9339C59.1719 10.9067 59.1323 10.8845 59.0839 10.8845C59.0354 10.8845 58.9637 10.8399 58.9245 10.7855C58.8853 10.7311 58.8136 10.6866 58.7652 10.6866C58.7168 10.6866 58.6771 10.6643 58.6771 10.6371C58.6771 10.6099 58.6375 10.5876 58.5891 10.5876C58.5407 10.5876 58.469 10.5431 58.4298 10.4887C58.3905 10.4342 58.3188 10.3897 58.2704 10.3897C58.222 10.3897 58.1824 10.3674 58.1824 10.3402C58.1824 10.313 58.1379 10.2908 58.0834 10.2908C58.029 10.2908 57.9845 10.2685 57.9845 10.2413C57.9845 10.2141 57.94 10.1918 57.8855 10.1918C57.8311 10.1918 57.7866 10.1695 57.7866 10.1423C57.7866 10.1151 57.7421 10.0929 57.6876 10.0929C57.6332 10.0929 57.5887 10.0706 57.5887 10.0434C57.5887 10.0162 57.5442 9.99391 57.4897 9.99391C57.4353 9.99391 57.3908 9.97165 57.3908 9.94444C57.3908 9.91723 57.3463 9.89496 57.2918 9.89496C57.2374 9.89496 57.1929 9.8727 57.1929 9.84549C57.1929 9.81828 57.1261 9.79601 57.0445 9.79601C56.9628 9.79601 56.896 9.77375 56.896 9.74654C56.896 9.71933 56.8515 9.69706 56.7971 9.69706C56.7427 9.69706 56.6981 9.6748 56.6981 9.64759C56.6981 9.62038 56.6536 9.59811 56.5992 9.59811C56.5448 9.59811 56.5002 9.57585 56.5002 9.54864C56.5002 9.52143 56.4335 9.49917 56.3518 9.49917C56.2702 9.49917 56.2034 9.4769 56.2034 9.44969C56.2034 9.42248 56.1589 9.40022 56.1044 9.40022C56.05 9.40022 56.0055 9.37795 56.0055 9.35074C56.0055 9.32353 55.9387 9.30127 55.8571 9.30127C55.7754 9.30127 55.7086 9.279 55.7086 9.25179C55.7086 9.22458 55.6419 9.20232 55.5602 9.20232C55.4786 9.20232 55.4118 9.18005 55.4118 9.15284C55.4118 9.12563 55.3673 9.10337 55.3129 9.10337C55.2584 9.10337 55.2139 9.0811 55.2139 9.05389C55.2139 9.02668 55.1471 9.00442 55.0655 9.00442C54.9838 9.00442 54.917 8.98215 54.917 8.95494C54.917 8.92773 54.828 8.90547 54.7192 8.90547C54.6103 8.90547 54.5213 8.8832 54.5213 8.85599C54.5213 8.82878 54.4545 8.80652 54.3728 8.80652C54.2912 8.80652 54.2244 8.78425 54.2244 8.75704C54.2244 8.72983 54.1576 8.70757 54.076 8.70757C53.9943 8.70757 53.9276 8.6853 53.9276 8.65809C53.9276 8.63088 53.8385 8.60862 53.7297 8.60862C53.6208 8.60862 53.5318 8.58636 53.5318 8.55914C53.5318 8.53193 53.4427 8.50967 53.3339 8.50967C53.225 8.50967 53.136 8.48741 53.136 8.46019C53.136 8.43298 53.0246 8.41072 52.8886 8.41072C52.7525 8.41072 52.6412 8.38846 52.6412 8.36124C52.6412 8.33403 52.5299 8.31177 52.3938 8.31177C52.2578 8.31177 52.1465 8.28951 52.1465 8.26229C52.1465 8.23479 52.0145 8.21282 51.8496 8.21282C51.6847 8.21282 51.5528 8.19085 51.5528 8.16335C51.5528 8.1351 51.4043 8.11387 51.2064 8.11387C51.0085 8.11387 50.8601 8.09265 50.8601 8.0644C50.8601 8.03471 50.6622 8.01492 50.3654 8.01492C50.0685 8.01492 49.8706 7.99513 49.8706 7.96545C49.8706 7.93823 49.8038 7.91597 49.7222 7.91597H49.5738V7.22332V6.53068H50.9591C51.8496 6.53068 52.3444 6.51301 52.3444 6.4812C52.3444 6.45399 52.4334 6.43173 52.5423 6.43173C52.6511 6.43173 52.7402 6.40946 52.7402 6.38225C52.7402 6.35504 52.8069 6.33278 52.8886 6.33278C52.9702 6.33278 53.037 6.31051 53.037 6.2833C53.037 6.25609 53.0815 6.23383 53.136 6.23383C53.1904 6.23383 53.2349 6.21156 53.2349 6.18435C53.2349 6.15714 53.2745 6.13488 53.3229 6.13488C53.3714 6.13488 53.443 6.09035 53.4823 6.03593C53.5215 5.98151 53.5824 5.93698 53.6177 5.93698C53.7013 5.93698 54.4223 5.21593 54.4223 5.13237C54.4223 5.09709 54.4668 5.03619 54.5213 4.99696C54.5757 4.95772 54.6202 4.88603 54.6202 4.8376C54.6202 4.78921 54.6425 4.74958 54.6697 4.74958C54.6969 4.74958 54.7192 4.70506 54.7192 4.65063C54.7192 4.59621 54.7414 4.55168 54.7686 4.55168C54.7958 4.55168 54.8181 4.48489 54.8181 4.40326C54.8181 4.32163 54.8404 4.25483 54.8676 4.25483C54.8948 4.25483 54.917 4.16578 54.917 4.05694C54.917 3.94809 54.9393 3.85904 54.9665 3.85904C54.9965 3.85904 55.016 3.64466 55.016 3.31481C55.016 2.98496 54.9965 2.77059 54.9665 2.77059C54.9393 2.77059 54.917 2.65927 54.917 2.52322C54.917 2.38716 54.8948 2.27584 54.8676 2.27584C54.8404 2.27584 54.8181 2.23131 54.8181 2.17689C54.8181 2.12247 54.7958 2.07794 54.7686 2.07794C54.7414 2.07794 54.7192 2.01605 54.7192 1.94045C54.7192 1.85971 54.6783 1.77352 54.6202 1.73162C54.5658 1.69239 54.5213 1.62559 54.5213 1.58319C54.5213 1.54079 54.4767 1.474 54.4223 1.43477C54.3679 1.39554 54.3234 1.33448 54.3234 1.29911C54.3234 1.21525 53.8007 0.692647 53.7169 0.692647C53.6815 0.692647 53.6205 0.64812 53.5812 0.593698C53.542 0.539276 53.4703 0.494748 53.4219 0.494748C53.3735 0.494748 53.3339 0.472485 53.3339 0.445273C53.3339 0.418062 53.2893 0.395799 53.2349 0.395799C53.1805 0.395799 53.136 0.373535 53.136 0.346324C53.136 0.319113 53.0914 0.296849 53.037 0.296849C52.9826 0.296849 52.9381 0.274585 52.9381 0.247374C52.9381 0.220163 52.8713 0.197899 52.7896 0.197899C52.708 0.197899 52.6412 0.175636 52.6412 0.148424C52.6412 0.120916 52.5093 0.0989496 52.3444 0.0989496C52.1795 0.0989496 52.0475 0.0769828 52.0475 0.0494748C52.0475 0.0169204 50.7612 0 48.2874 0C45.8137 0 44.5273 0.0169204 44.5273 0.0494748ZM52.0475 2.52322C52.0475 2.55043 52.0819 2.57269 52.124 2.57269C52.2229 2.57269 52.4433 2.79305 52.4433 2.89205C52.4433 2.9341 52.4656 2.96849 52.4928 2.96849C52.5207 2.96849 52.5423 3.1091 52.5423 3.29136C52.5423 3.6078 52.5379 3.61869 52.3209 3.83558C52.1756 3.98089 52.0567 4.05694 51.9746 4.05694C51.9059 4.05694 51.8496 4.0792 51.8496 4.10641C51.8496 4.13892 50.6457 4.15588 48.3369 4.15588C46.0281 4.15588 44.8242 4.13892 44.8242 4.10641C44.8242 4.0792 44.7574 4.05694 44.6758 4.05694C44.5941 4.05694 44.5273 4.03467 44.5273 4.00746C44.5273 3.98025 44.4924 3.95799 44.4496 3.95799C44.3496 3.95799 44.2305 3.83885 44.2305 3.73886C44.2305 3.69612 44.2082 3.66114 44.181 3.66114C44.1524 3.66114 44.1315 3.50391 44.1315 3.28844C44.1315 2.92911 44.1377 2.90957 44.3031 2.74422C44.3974 2.64987 44.5087 2.57269 44.5504 2.57269C44.5921 2.57269 44.6263 2.55043 44.6263 2.52322C44.6263 2.49066 45.8962 2.47374 48.3369 2.47374C50.7776 2.47374 52.0475 2.49066 52.0475 2.52322ZM47.1 13.8035C47.1 16.0463 47.117 17.2172 47.1495 17.2172C47.1767 17.2172 47.199 17.2618 47.199 17.3162C47.199 17.3706 47.2212 17.4151 47.2485 17.4151C47.2757 17.4151 47.2979 17.4491 47.2979 17.4906C47.2979 17.5888 47.7179 18.0088 47.8161 18.0088C47.8576 18.0088 47.8916 18.0311 47.8916 18.0583C47.8916 18.0872 48.0565 18.1078 48.2874 18.1078C48.5183 18.1078 48.6832 18.0872 48.6832 18.0583C48.6832 18.0311 48.7395 18.0088 48.8082 18.0088C48.948 18.0088 49.3759 17.6182 49.3759 17.4906C49.3759 17.4491 49.3981 17.4151 49.4253 17.4151C49.4526 17.4151 49.4748 17.3483 49.4748 17.2667C49.4748 17.1851 49.4971 17.1183 49.5243 17.1183C49.5568 17.1183 49.5738 15.9639 49.5738 13.754V10.3897H49.9201C50.118 10.3897 50.2664 10.4109 50.2664 10.4392C50.2664 10.468 50.4313 10.4887 50.6622 10.4887C50.8931 10.4887 51.058 10.5093 51.058 10.5381C51.058 10.5656 51.19 10.5876 51.3549 10.5876C51.5198 10.5876 51.6517 10.6096 51.6517 10.6371C51.6517 10.6646 51.7837 10.6866 51.9486 10.6866C52.1135 10.6866 52.2454 10.7085 52.2454 10.736C52.2454 10.7632 52.3345 10.7855 52.4433 10.7855C52.5522 10.7855 52.6412 10.8078 52.6412 10.835C52.6412 10.8622 52.7303 10.8845 52.8391 10.8845C52.948 10.8845 53.037 10.9067 53.037 10.9339C53.037 10.9611 53.1038 10.9834 53.1854 10.9834C53.2671 10.9834 53.3339 11.0057 53.3339 11.0329C53.3339 11.0601 53.4229 11.0824 53.5318 11.0824C53.6406 11.0824 53.7297 11.1046 53.7297 11.1318C53.7297 11.159 53.7964 11.1813 53.8781 11.1813C53.9597 11.1813 54.0265 11.2036 54.0265 11.2308C54.0265 11.258 54.0933 11.2803 54.1749 11.2803C54.2566 11.2803 54.3234 11.3025 54.3234 11.3297C54.3234 11.3569 54.3901 11.3792 54.4718 11.3792C54.5534 11.3792 54.6202 11.4015 54.6202 11.4287C54.6202 11.4559 54.687 11.4782 54.7686 11.4782C54.8503 11.4782 54.917 11.5004 54.917 11.5276C54.917 11.5548 54.9616 11.5771 55.016 11.5771C55.0704 11.5771 55.1149 11.5994 55.1149 11.6266C55.1149 11.6538 55.1817 11.6761 55.2634 11.6761C55.345 11.6761 55.4118 11.6983 55.4118 11.7255C55.4118 11.7527 55.4563 11.775 55.5107 11.775C55.5652 11.775 55.6097 11.7973 55.6097 11.8245C55.6097 11.8517 55.6716 11.874 55.7472 11.874C55.8279 11.874 55.9141 11.9148 55.956 11.9729C55.9953 12.0273 56.0797 12.0719 56.1436 12.0719C56.2076 12.0719 56.2918 12.1037 56.3306 12.1426C56.4117 12.2236 56.4253 12.3687 56.3518 12.3687C56.3246 12.3687 56.3023 12.4132 56.3023 12.4677C56.3023 12.5221 56.2801 12.5666 56.2529 12.5666C56.2257 12.5666 56.2034 12.6062 56.2034 12.6546C56.2034 12.7031 56.1589 12.7747 56.1044 12.814C56.05 12.8532 56.0055 12.9249 56.0055 12.9733C56.0055 13.0217 55.9832 13.0614 55.956 13.0614C55.9288 13.0614 55.9065 13.101 55.9065 13.1494C55.9065 13.1978 55.862 13.2695 55.8076 13.3087C55.7532 13.348 55.7086 13.4197 55.7086 13.4681C55.7086 13.5165 55.6864 13.5561 55.6592 13.5561C55.632 13.5561 55.6097 13.6006 55.6097 13.6551C55.6097 13.7095 55.5874 13.754 55.5602 13.754C55.533 13.754 55.5107 13.7936 55.5107 13.842C55.5107 13.8905 55.4662 13.9621 55.4118 14.0014C55.3574 14.0406 55.3129 14.1123 55.3129 14.1607C55.3129 14.2091 55.2906 14.2487 55.2634 14.2487C55.2362 14.2487 55.2139 14.2933 55.2139 14.3477C55.2139 14.4021 55.1916 14.4466 55.1644 14.4466C55.1372 14.4466 55.1149 14.4863 55.1149 14.5347C55.1149 14.5831 55.0704 14.6548 55.016 14.694C54.9579 14.7359 54.917 14.8221 54.917 14.9029C54.917 14.9785 54.8948 15.0403 54.8676 15.0403C54.8401 15.0403 54.8181 15.1723 54.8181 15.3372C54.8181 15.5021 54.8401 15.634 54.8676 15.634C54.8948 15.634 54.917 15.6786 54.917 15.733C54.917 15.7874 54.9393 15.8319 54.9665 15.8319C54.9937 15.8319 55.016 15.8659 55.016 15.9074C55.016 16.0056 55.436 16.4256 55.5342 16.4256C55.5757 16.4256 55.6097 16.4479 55.6097 16.4751C55.6097 16.5045 55.7911 16.5246 56.055 16.5246C56.3188 16.5246 56.5002 16.5045 56.5002 16.4751C56.5002 16.4479 56.5342 16.4256 56.5757 16.4256C56.6678 16.4256 57.0939 16.0085 57.0939 15.9184C57.0939 15.8829 57.1385 15.8217 57.1929 15.7825C57.2473 15.7432 57.2918 15.6715 57.2918 15.6231C57.2918 15.5747 57.3141 15.5351 57.3413 15.5351C57.3685 15.5351 57.3908 15.4955 57.3908 15.4471C57.3908 15.3986 57.4353 15.327 57.4897 15.2877C57.5442 15.2485 57.5887 15.1768 57.5887 15.1284C57.5887 15.08 57.611 15.0403 57.6382 15.0403C57.6654 15.0403 57.6876 14.9958 57.6876 14.9414C57.6876 14.887 57.7099 14.8424 57.7371 14.8424C57.7643 14.8424 57.7866 14.8028 57.7866 14.7544C57.7866 14.706 57.8311 14.6343 57.8855 14.5951C57.94 14.5558 57.9845 14.4841 57.9845 14.4357C57.9845 14.3873 58.0068 14.3477 58.034 14.3477C58.0612 14.3477 58.0834 14.3032 58.0834 14.2487C58.0834 14.1943 58.1057 14.1498 58.1329 14.1498C58.1601 14.1498 58.1824 14.1102 58.1824 14.0618C58.1824 14.0133 58.2269 13.9417 58.2813 13.9024C58.3358 13.8632 58.3803 13.7915 58.3803 13.7431C58.3803 13.6947 58.4026 13.6551 58.4298 13.6551C58.457 13.6551 58.4792 13.6105 58.4792 13.5561C58.4792 13.4902 58.5122 13.4572 58.5782 13.4572C58.6326 13.4572 58.6771 13.4794 58.6771 13.5066C58.6771 13.5338 58.7168 13.5561 58.7652 13.5561C58.8136 13.5561 58.8853 13.6006 58.9245 13.6551C58.9637 13.7095 59.0305 13.754 59.0729 13.754C59.1153 13.754 59.1821 13.7985 59.2214 13.853C59.2606 13.9074 59.3229 13.9519 59.3598 13.9519C59.3968 13.9519 59.5126 14.041 59.6172 14.1498C59.7217 14.2586 59.8328 14.3477 59.8639 14.3477C59.895 14.3477 60.0288 14.459 60.1614 14.5951C60.2939 14.7311 60.4262 14.8424 60.4554 14.8424C60.5246 14.8424 62.3383 16.6561 62.3383 16.7254C62.3383 16.7545 62.4496 16.8868 62.5856 17.0193C62.7217 17.1519 62.833 17.2858 62.833 17.3168C62.833 17.3479 62.9221 17.459 63.0309 17.5636C63.1398 17.6682 63.2288 17.7839 63.2288 17.8209C63.2288 17.8578 63.2733 17.9201 63.3278 17.9594C63.3822 17.9986 63.4267 18.0654 63.4267 18.1078C63.4267 18.1502 63.4712 18.217 63.5257 18.2562C63.5801 18.2954 63.6246 18.3576 63.6246 18.3943C63.6246 18.4805 63.5026 18.6025 63.4164 18.6025C63.3797 18.6025 63.3175 18.6471 63.2783 18.7015C63.2391 18.7559 63.1674 18.8004 63.1189 18.8004C63.0706 18.8004 63.0309 18.8227 63.0309 18.8499C63.0309 18.8771 62.9864 18.8994 62.932 18.8994C62.8775 18.8994 62.833 18.9216 62.833 18.9489C62.833 18.9761 62.7934 18.9983 62.745 18.9983C62.6966 18.9983 62.6249 19.0429 62.5856 19.0973C62.5464 19.1517 62.4747 19.1962 62.4263 19.1962C62.3779 19.1962 62.3383 19.2185 62.3383 19.2457C62.3383 19.2729 62.2937 19.2952 62.2393 19.2952C62.1849 19.2952 62.1404 19.3174 62.1404 19.3447C62.1404 19.3719 62.1007 19.3941 62.0524 19.3941C62.0039 19.3941 61.9322 19.4387 61.893 19.4931C61.8538 19.5475 61.7821 19.592 61.7336 19.592C61.6853 19.592 61.6456 19.6143 61.6456 19.6415C61.6456 19.6687 61.6011 19.691 61.5467 19.691C61.4923 19.691 61.4477 19.7132 61.4477 19.7405C61.4477 19.7677 61.4081 19.7899 61.3597 19.7899C61.3113 19.7899 61.2396 19.8345 61.2004 19.8889C61.1611 19.9433 61.0995 19.9878 61.0635 19.9878C60.9732 19.9878 60.7551 20.2137 60.7551 20.3072C60.7551 20.3492 60.7328 20.3836 60.7056 20.3836C60.6784 20.3836 60.6561 20.4282 60.6561 20.4826C60.6561 20.537 60.6339 20.5815 60.6067 20.5815C60.5778 20.5815 60.5572 20.7464 60.5572 20.9773C60.5572 21.2082 60.5778 21.3731 60.6067 21.3731C60.6339 21.3731 60.6561 21.4177 60.6561 21.4721C60.6561 21.5265 60.6784 21.571 60.7056 21.571C60.7328 21.571 60.7551 21.6054 60.7551 21.6475C60.7551 21.7465 60.9754 21.9668 61.0744 21.9668C61.1165 21.9668 61.1509 21.9891 61.1509 22.0163C61.1509 22.0435 61.1954 22.0658 61.2498 22.0658C61.3042 22.0658 61.3488 22.088 61.3488 22.1152C61.3488 22.1441 61.5137 22.1647 61.7446 22.1647C61.9755 22.1647 62.1404 22.1441 62.1404 22.1152C62.1404 22.088 62.1849 22.0658 62.2393 22.0658C62.2937 22.0658 62.3383 22.0435 62.3383 22.0163C62.3383 21.9891 62.3828 21.9668 62.4372 21.9668C62.4916 21.9668 62.5362 21.9446 62.5362 21.9173C62.5362 21.8901 62.5807 21.8679 62.6351 21.8679C62.6895 21.8679 62.7341 21.8456 62.7341 21.8184C62.7341 21.7912 62.7737 21.7689 62.8221 21.7689C62.8705 21.7689 62.9422 21.7244 62.9814 21.67C63.0207 21.6155 63.0924 21.571 63.1408 21.571C63.1892 21.571 63.2288 21.5488 63.2288 21.5215C63.2288 21.4943 63.2733 21.4721 63.3278 21.4721C63.3822 21.4721 63.4267 21.4498 63.4267 21.4226C63.4267 21.3954 63.4664 21.3731 63.5147 21.3731C63.5632 21.3731 63.6349 21.3286 63.6741 21.2742C63.7133 21.2198 63.785 21.1752 63.8335 21.1752C63.8818 21.1752 63.9215 21.153 63.9215 21.1257C63.9215 21.0985 63.966 21.0763 64.0204 21.0763C64.0748 21.0763 64.1194 21.054 64.1194 21.0268C64.1194 20.9996 64.159 20.9773 64.2074 20.9773C64.2558 20.9773 64.3275 20.9328 64.3667 20.8784C64.406 20.824 64.4777 20.7794 64.5261 20.7794C64.5745 20.7794 64.6141 20.7572 64.6141 20.7299C64.6141 20.7027 64.6568 20.6805 64.709 20.6805C64.7611 20.6805 64.813 20.6529 64.8242 20.6191C64.8515 20.5373 65.0099 20.6923 65.0099 20.8006C65.0099 20.8434 65.0322 20.8784 65.0594 20.8784C65.0866 20.8784 65.1089 20.9229 65.1089 20.9773C65.1089 21.0317 65.1311 21.0763 65.1583 21.0763C65.1855 21.0763 65.2078 21.1431 65.2078 21.2247C65.2078 21.3063 65.2301 21.3731 65.2573 21.3731C65.2845 21.3731 65.3068 21.4177 65.3068 21.4721C65.3068 21.5265 65.329 21.571 65.3562 21.571C65.3834 21.571 65.4057 21.6155 65.4057 21.67C65.4057 21.7244 65.428 21.7689 65.4552 21.7689C65.4824 21.7689 65.5047 21.8357 65.5047 21.9173C65.5047 21.999 65.5269 22.0658 65.5541 22.0658C65.5813 22.0658 65.6036 22.1326 65.6036 22.2142C65.6036 22.2958 65.6259 22.3626 65.6531 22.3626C65.6803 22.3626 65.7026 22.4071 65.7026 22.4616C65.7026 22.516 65.7248 22.5605 65.752 22.5605C65.7793 22.5605 65.8015 22.6273 65.8015 22.7089C65.8015 22.7906 65.8238 22.8574 65.851 22.8574C65.8782 22.8574 65.9005 22.9242 65.9005 23.0058C65.9005 23.0874 65.9227 23.1542 65.9499 23.1542C65.9771 23.1542 65.9994 23.2433 65.9994 23.3521C65.9994 23.461 66.0217 23.55 66.0489 23.55C66.0761 23.55 66.0984 23.6168 66.0984 23.6984C66.0984 23.7801 66.1206 23.8469 66.1478 23.8469C66.175 23.8469 66.1973 23.9359 66.1973 24.0448C66.1973 24.1536 66.2196 24.2427 66.2468 24.2427C66.274 24.2427 66.2963 24.3317 66.2963 24.4406C66.2963 24.5494 66.3185 24.6385 66.3457 24.6385C66.3729 24.6385 66.3952 24.7498 66.3952 24.8858C66.3952 25.0219 66.4175 25.1332 66.4447 25.1332C66.4719 25.1332 66.4942 25.2445 66.4942 25.3806C66.4942 25.5166 66.5164 25.628 66.5436 25.628C66.5719 25.628 66.5931 25.7764 66.5931 25.9743C66.5931 26.1722 66.6143 26.3206 66.6426 26.3206C66.6719 26.3206 66.6921 26.502 66.6921 26.7659C66.6921 27.0297 66.7122 27.2112 66.7415 27.2112C66.8197 27.2112 66.7992 27.3585 66.7084 27.4493C66.6483 27.5093 66.6202 27.5151 66.6053 27.4704C66.5791 27.3916 62.833 27.3798 62.833 27.4585C62.833 27.4857 62.7885 27.508 62.7341 27.508C62.6796 27.508 62.6351 27.4857 62.6351 27.4585C62.6351 27.4274 62.3053 27.409 61.7446 27.409C61.1839 27.409 60.854 27.4274 60.854 27.4585C60.854 27.4857 60.8095 27.508 60.7551 27.508C60.7007 27.508 60.6561 27.4857 60.6561 27.4585C60.6561 27.4313 60.5448 27.409 60.4088 27.409C60.2727 27.409 60.1614 27.4313 60.1614 27.4585C60.1614 27.4857 60.0501 27.508 59.914 27.508C59.778 27.508 59.6666 27.5303 59.6666 27.5575C59.6666 27.5847 59.6325 27.607 59.5908 27.607C59.4923 27.607 59.1719 27.9273 59.1719 28.0259C59.1719 28.0676 59.1496 28.1017 59.1224 28.1017C59.0952 28.1017 59.0729 28.1462 59.0729 28.2006C59.0729 28.2551 59.0507 28.2996 59.0235 28.2996C58.9946 28.2996 58.974 28.4645 58.974 28.6954C58.974 28.9263 58.9946 29.0912 59.0235 29.0912C59.0507 29.0912 59.0729 29.1357 59.0729 29.1901C59.0729 29.2446 59.0952 29.2891 59.1224 29.2891C59.1496 29.2891 59.1719 29.3241 59.1719 29.3668C59.1719 29.4622 59.2895 29.5859 59.3801 29.5859C59.4168 29.5859 59.479 29.6305 59.5182 29.6849C59.5574 29.7393 59.6291 29.7838 59.6776 29.7838C59.726 29.7838 59.7656 29.8061 59.7656 29.8333C59.7656 29.8658 60.9695 29.8828 63.2783 29.8828C66.758 29.8828 66.791 29.8837 66.791 29.9817C66.791 30.0362 66.7687 30.0807 66.7415 30.0807C66.7118 30.0807 66.6921 30.2786 66.6921 30.5754C66.6921 30.8723 66.6723 31.0702 66.6426 31.0702C66.6151 31.0702 66.5931 31.2021 66.5931 31.367C66.5931 31.5319 66.5711 31.6639 66.5436 31.6639C66.5161 31.6639 66.4942 31.7958 66.4942 31.9607C66.4942 32.1256 66.4722 32.2576 66.4447 32.2576C66.4175 32.2576 66.3952 32.3466 66.3952 32.4555C66.3952 32.5643 66.3729 32.6534 66.3457 32.6534C66.3185 32.6534 66.2963 32.7647 66.2963 32.9008C66.2963 33.0368 66.274 33.1481 66.2468 33.1481C66.2196 33.1481 66.1973 33.2149 66.1973 33.2966C66.1973 33.3782 66.175 33.445 66.1478 33.445C66.1206 33.445 66.0984 33.534 66.0984 33.6429C66.0984 33.7517 66.0761 33.8408 66.0489 33.8408C66.0217 33.8408 65.9994 33.9076 65.9994 33.9892C65.9994 34.0708 65.9771 34.1376 65.9499 34.1376C65.9227 34.1376 65.9005 34.2044 65.9005 34.286C65.9005 34.3677 65.8782 34.4345 65.851 34.4345C65.8238 34.4345 65.8015 34.5013 65.8015 34.5829C65.8015 34.6645 65.7793 34.7313 65.752 34.7313C65.7248 34.7313 65.7026 34.7981 65.7026 34.8797C65.7026 34.9614 65.6803 35.0282 65.6531 35.0282C65.6259 35.0282 65.6036 35.0727 65.6036 35.1271C65.6036 35.1815 65.5813 35.2261 65.5541 35.2261C65.5269 35.2261 65.5047 35.2929 65.5047 35.3745C65.5047 35.4561 65.4824 35.5229 65.4552 35.5229C65.428 35.5229 65.4057 35.5897 65.4057 35.6713C65.4057 35.753 65.3834 35.8198 65.3562 35.8198C65.329 35.8198 65.3068 35.8643 65.3068 35.9187C65.3068 35.9731 65.2845 36.0177 65.2573 36.0177C65.2301 36.0177 65.2078 36.0622 65.2078 36.1166C65.2078 36.171 65.1855 36.2156 65.1583 36.2156C65.1311 36.2156 65.1089 36.2601 65.1089 36.3145C65.1089 36.3689 65.0866 36.4135 65.0594 36.4135C65.0322 36.4135 65.0099 36.4484 65.0099 36.4912C65.0099 36.534 64.9781 36.6008 64.9392 36.6396C64.8582 36.7207 64.7131 36.7343 64.7131 36.6608C64.7131 36.6336 64.6685 36.6114 64.6141 36.6114C64.5597 36.6114 64.5152 36.5891 64.5152 36.5619C64.5152 36.5347 64.4755 36.5124 64.4271 36.5124C64.3787 36.5124 64.307 36.4679 64.2678 36.4135C64.2286 36.359 64.1569 36.3145 64.1084 36.3145C64.0601 36.3145 64.0204 36.2923 64.0204 36.265C64.0204 36.2378 63.9808 36.2156 63.9324 36.2156C63.884 36.2156 63.8123 36.171 63.773 36.1166C63.7338 36.0622 63.6621 36.0177 63.6137 36.0177C63.5653 36.0177 63.5257 35.9954 63.5257 35.9682C63.5257 35.941 63.4811 35.9187 63.4267 35.9187C63.3723 35.9187 63.3278 35.8965 63.3278 35.8692C63.3278 35.842 63.2832 35.8198 63.2288 35.8198C63.1744 35.8198 63.1299 35.7975 63.1299 35.7703C63.1299 35.7431 63.0902 35.7208 63.0419 35.7208C62.9934 35.7208 62.9217 35.6763 62.8825 35.6219C62.8433 35.5674 62.7716 35.5229 62.7231 35.5229C62.6748 35.5229 62.6351 35.5007 62.6351 35.4734C62.6351 35.4462 62.5955 35.424 62.5471 35.424C62.4987 35.424 62.427 35.3794 62.3877 35.325C62.3381 35.2561 62.2597 35.2261 62.1294 35.2261C62.0266 35.2261 61.9425 35.2038 61.9425 35.1766C61.9425 35.1494 61.8534 35.1271 61.7446 35.1271C61.6357 35.1271 61.5467 35.1494 61.5467 35.1766C61.5467 35.2038 61.4799 35.2261 61.3983 35.2261C61.3166 35.2261 61.2498 35.2483 61.2498 35.2755C61.2498 35.3028 61.2157 35.325 61.174 35.325C61.0755 35.325 60.7551 35.6454 60.7551 35.7439C60.7551 35.7856 60.7328 35.8198 60.7056 35.8198C60.6784 35.8198 60.6561 35.8643 60.6561 35.9187C60.6561 35.9731 60.6339 36.0177 60.6067 36.0177C60.5784 36.0177 60.5572 36.1661 60.5572 36.364C60.5572 36.5619 60.5784 36.7103 60.6067 36.7103C60.6339 36.7103 60.6561 36.7665 60.6561 36.8351C60.6561 36.975 61.144 37.5019 61.2735 37.5019C61.3149 37.5019 61.3488 37.5242 61.3488 37.5514C61.3488 37.5786 61.3933 37.6009 61.4477 37.6009C61.5021 37.6009 61.5467 37.6231 61.5467 37.6503C61.5467 37.6776 61.5863 37.6998 61.6347 37.6998C61.6831 37.6998 61.7548 37.7443 61.7941 37.7988C61.8333 37.8532 61.905 37.8977 61.9534 37.8977C62.0018 37.8977 62.0414 37.92 62.0414 37.9472C62.0414 37.9744 62.086 37.9967 62.1404 37.9967C62.1948 37.9967 62.2393 38.0189 62.2393 38.0461C62.2393 38.0733 62.279 38.0956 62.3273 38.0956C62.3758 38.0956 62.4475 38.1401 62.4867 38.1946C62.5259 38.249 62.5976 38.2935 62.6461 38.2935C62.6944 38.2935 62.7341 38.3158 62.7341 38.343C62.7341 38.3702 62.7786 38.3925 62.833 38.3925C62.8874 38.3925 62.932 38.4147 62.932 38.4419C62.932 38.4691 62.9716 38.4914 63.02 38.4914C63.0684 38.4914 63.1401 38.5359 63.1793 38.5904C63.2186 38.6448 63.2903 38.6893 63.3387 38.6893C63.3871 38.6893 63.4267 38.7116 63.4267 38.7388C63.4267 38.766 63.4712 38.7883 63.5257 38.7883C63.6825 38.7883 63.6538 39.0182 63.4762 39.1841C63.3946 39.2603 63.3278 39.3494 63.3278 39.382C63.3278 39.4146 63.261 39.5036 63.1793 39.5799C63.0977 39.6561 63.0309 39.7447 63.0309 39.7768C63.0309 39.8088 62.9419 39.9205 62.833 40.0251C62.7242 40.1297 62.6351 40.2403 62.6351 40.271C62.6351 40.3017 62.4793 40.4804 62.2888 40.6683C62.0983 40.8562 61.9425 41.0335 61.9425 41.0624C61.9425 41.1307 61.0198 42.0536 60.9515 42.0536C60.9227 42.0536 60.7231 42.2317 60.5077 42.4494C60.2923 42.6671 60.0912 42.8452 60.0606 42.8452C60.0302 42.8452 59.9196 42.9342 59.8151 43.0431C59.7105 43.1519 59.5947 43.241 59.5577 43.241C59.5208 43.241 59.4585 43.2855 59.4193 43.3399C59.38 43.3944 59.3172 43.4389 59.2797 43.4389C59.2423 43.4389 59.1492 43.5057 59.0729 43.5873C58.9967 43.6689 58.9068 43.7357 58.8734 43.7357C58.8399 43.7357 58.7717 43.7827 58.7219 43.8401C58.6405 43.934 58.6238 43.9369 58.5553 43.8684C58.5135 43.8265 58.4792 43.7573 58.4792 43.7145C58.4792 43.6718 58.457 43.6368 58.4298 43.6368C58.4026 43.6368 58.3803 43.5923 58.3803 43.5378C58.3803 43.4834 58.358 43.4389 58.3308 43.4389C58.3036 43.4389 58.2813 43.3993 58.2813 43.3509C58.2813 43.3024 58.2368 43.2308 58.1824 43.1915C58.128 43.1523 58.0834 43.0806 58.0834 43.0322C58.0834 42.9838 58.0612 42.9441 58.034 42.9441C58.0068 42.9441 57.9845 42.9045 57.9845 42.8561C57.9845 42.8077 57.94 42.736 57.8855 42.6968C57.8311 42.6575 57.7866 42.5858 57.7866 42.5374C57.7866 42.489 57.7643 42.4494 57.7371 42.4494C57.7099 42.4494 57.6876 42.4049 57.6876 42.3504C57.6876 42.296 57.6654 42.2515 57.6382 42.2515C57.611 42.2515 57.5887 42.2119 57.5887 42.1635C57.5887 42.115 57.5442 42.0434 57.4897 42.0041C57.4353 41.9649 57.3908 41.8932 57.3908 41.8448C57.3908 41.7964 57.3685 41.7567 57.3413 41.7567C57.3141 41.7567 57.2918 41.7122 57.2918 41.6578C57.2918 41.6034 57.2696 41.5588 57.2424 41.5588C57.2152 41.5588 57.1929 41.5249 57.1929 41.4833C57.1929 41.3851 56.7729 40.9652 56.6747 40.9652C56.6332 40.9652 56.5992 40.9429 56.5992 40.9157C56.5992 40.8885 56.5324 40.8662 56.4508 40.8662C56.3691 40.8662 56.3023 40.8439 56.3023 40.8167C56.3023 40.7895 56.191 40.7673 56.055 40.7673C55.9189 40.7673 55.8076 40.7895 55.8076 40.8167C55.8076 40.8439 55.7631 40.8662 55.7086 40.8662C55.6542 40.8662 55.6097 40.8885 55.6097 40.9157C55.6097 40.9429 55.5652 40.9652 55.5107 40.9652C55.4563 40.9652 55.4118 40.9874 55.4118 41.0146C55.4118 41.0418 55.3673 41.0641 55.3129 41.0641C55.251 41.0641 55.2139 41.0971 55.2139 41.1521C55.2139 41.2006 55.1694 41.2722 55.1149 41.3115C55.0605 41.3507 55.016 41.4224 55.016 41.4708C55.016 41.5192 54.9937 41.5588 54.9665 41.5588C54.9372 41.5588 54.917 41.7403 54.917 42.0041C54.917 42.268 54.9372 42.4494 54.9665 42.4494C54.9937 42.4494 55.016 42.4939 55.016 42.5483C55.016 42.6028 55.0383 42.6473 55.0655 42.6473C55.0927 42.6473 55.1149 42.6918 55.1149 42.7462C55.1149 42.8007 55.1372 42.8452 55.1644 42.8452C55.1916 42.8452 55.2139 42.8897 55.2139 42.9441C55.2139 42.9986 55.2362 43.0431 55.2634 43.0431C55.2906 43.0431 55.3129 43.0827 55.3129 43.1311C55.3129 43.1795 55.3574 43.2512 55.4118 43.2905C55.4662 43.3297 55.5107 43.4014 55.5107 43.4498C55.5107 43.4982 55.533 43.5378 55.5602 43.5378C55.5874 43.5378 55.6097 43.5775 55.6097 43.6259C55.6097 43.6743 55.6542 43.746 55.7086 43.7852C55.7631 43.8245 55.8076 43.8961 55.8076 43.9446C55.8076 43.993 55.8299 44.0326 55.8571 44.0326C55.8843 44.0326 55.9065 44.0722 55.9065 44.1206C55.9065 44.169 55.9511 44.2407 56.0055 44.28C56.0599 44.3192 56.1044 44.3909 56.1044 44.4393C56.1044 44.4877 56.1267 44.5273 56.1539 44.5273C56.1811 44.5273 56.2034 44.5719 56.2034 44.6263C56.2034 44.6807 56.2257 44.7252 56.2529 44.7252C56.2801 44.7252 56.3023 44.7616 56.3023 44.806C56.3023 44.8505 56.3493 44.9275 56.4067 44.9773C56.5006 45.0587 56.5035 45.0754 56.435 45.1439C56.3931 45.1858 56.3239 45.22 56.2811 45.22C56.2384 45.22 56.2034 45.2422 56.2034 45.2695C56.2034 45.2967 56.1589 45.3189 56.1044 45.3189C56.05 45.3189 56.0055 45.3412 56.0055 45.3684C56.0055 45.3956 55.9387 45.4179 55.8571 45.4179C55.7754 45.4179 55.7086 45.4401 55.7086 45.4674C55.7086 45.4946 55.6641 45.5168 55.6097 45.5168C55.5553 45.5168 55.5107 45.5391 55.5107 45.5663C55.5107 45.5935 55.4662 45.6158 55.4118 45.6158C55.3574 45.6158 55.3129 45.638 55.3129 45.6653C55.3129 45.6925 55.2461 45.7147 55.1644 45.7147C55.0828 45.7147 55.016 45.737 55.016 45.7642C55.016 45.7914 54.9492 45.8137 54.8676 45.8137C54.7859 45.8137 54.7192 45.8359 54.7192 45.8632C54.7192 45.8904 54.6524 45.9126 54.5707 45.9126C54.4891 45.9126 54.4223 45.9349 54.4223 45.9621C54.4223 45.9893 54.3778 46.0116 54.3234 46.0116C54.2689 46.0116 54.2244 46.0338 54.2244 46.0611C54.2244 46.0883 54.1576 46.1105 54.076 46.1105C53.9943 46.1105 53.9276 46.1328 53.9276 46.16C53.9276 46.1872 53.8385 46.2095 53.7297 46.2095C53.6208 46.2095 53.5318 46.2317 53.5318 46.259C53.5318 46.2862 53.465 46.3084 53.3833 46.3084C53.3017 46.3084 53.2349 46.3307 53.2349 46.3579C53.2349 46.3851 53.1459 46.4074 53.037 46.4074C52.9282 46.4074 52.8391 46.4296 52.8391 46.4569C52.8391 46.4841 52.7501 46.5063 52.6412 46.5063C52.5324 46.5063 52.4433 46.5286 52.4433 46.5558C52.4433 46.583 52.332 46.6053 52.1959 46.6053C52.0599 46.6053 51.9486 46.6275 51.9486 46.6548C51.9486 46.682 51.8372 46.7042 51.7012 46.7042C51.5651 46.7042 51.4538 46.7265 51.4538 46.7537C51.4538 46.782 51.3054 46.8032 51.1075 46.8032C50.9096 46.8032 50.7612 46.8244 50.7612 46.8527C50.7612 46.8823 50.5633 46.9021 50.2664 46.9021C49.9696 46.9021 49.7717 46.9219 49.7717 46.9516C49.7717 46.9788 49.7271 47.0011 49.6727 47.0011C49.5747 47.0011 49.5738 46.9681 49.5738 43.5873C49.5738 41.3445 49.5568 40.1736 49.5243 40.1736C49.4971 40.1736 49.4748 40.1068 49.4748 40.0251C49.4748 39.9435 49.4526 39.8767 49.4253 39.8767C49.3981 39.8767 49.3759 39.8423 49.3759 39.8003C49.3759 39.7068 49.1577 39.4809 49.0674 39.4809C49.0314 39.4809 48.9698 39.4364 48.9306 39.382C48.8809 39.313 48.8025 39.283 48.6723 39.283C48.5695 39.283 48.4853 39.2607 48.4853 39.2335C48.4853 39.2063 48.4185 39.1841 48.3369 39.1841C48.2553 39.1841 48.1885 39.2063 48.1885 39.2335C48.1885 39.2607 48.0994 39.283 47.9906 39.283C47.8817 39.283 47.7927 39.3053 47.7927 39.3325C47.7927 39.3597 47.7585 39.382 47.7168 39.382C47.6183 39.382 47.2979 39.7024 47.2979 39.8009C47.2979 39.8426 47.2757 39.8767 47.2485 39.8767C47.2212 39.8767 47.199 39.9435 47.199 40.0251C47.199 40.1068 47.1767 40.1736 47.1495 40.1736C47.117 40.1736 47.1 41.3445 47.1 43.5873V47.0011H46.8527C46.7166 47.0011 46.6053 46.9788 46.6053 46.9516C46.6053 46.9223 46.4239 46.9021 46.16 46.9021C45.8962 46.9021 45.7147 46.882 45.7147 46.8527C45.7147 46.8251 45.5828 46.8032 45.4179 46.8032C45.253 46.8032 45.121 46.7812 45.121 46.7537C45.121 46.7265 45.0097 46.7042 44.8737 46.7042C44.7376 46.7042 44.6263 46.682 44.6263 46.6548C44.6263 46.6275 44.515 46.6053 44.3789 46.6053C44.2429 46.6053 44.1315 46.583 44.1315 46.5558C44.1315 46.5286 44.0425 46.5063 43.9336 46.5063C43.8248 46.5063 43.7357 46.4841 43.7357 46.4569C43.7357 46.4296 43.6467 46.4074 43.5378 46.4074C43.429 46.4074 43.3399 46.3851 43.3399 46.3579C43.3399 46.3307 43.2732 46.3084 43.1915 46.3084C43.1099 46.3084 43.0431 46.2862 43.0431 46.259C43.0431 46.2317 42.9763 46.2095 42.8947 46.2095C42.813 46.2095 42.7462 46.1872 42.7462 46.16C42.7462 46.1328 42.6572 46.1105 42.5483 46.1105C42.4395 46.1105 42.3504 46.0883 42.3504 46.0611C42.3504 46.0338 42.3059 46.0116 42.2515 46.0116C42.1971 46.0116 42.1525 45.9893 42.1525 45.9621C42.1525 45.9349 42.0858 45.9126 42.0041 45.9126C41.9225 45.9126 41.8557 45.8904 41.8557 45.8632C41.8557 45.8359 41.7889 45.8137 41.7073 45.8137C41.6256 45.8137 41.5588 45.7914 41.5588 45.7642C41.5588 45.737 41.5143 45.7147 41.4599 45.7147C41.4055 45.7147 41.361 45.6925 41.361 45.6653C41.361 45.638 41.2942 45.6158 41.2125 45.6158C41.1309 45.6158 41.0641 45.5935 41.0641 45.5663C41.0641 45.5391 41.0196 45.5168 40.9652 45.5168C40.9107 45.5168 40.8662 45.4946 40.8662 45.4674C40.8662 45.4401 40.8217 45.4179 40.7673 45.4179C40.7128 45.4179 40.6683 45.3956 40.6683 45.3684C40.6683 45.3412 40.6238 45.3189 40.5694 45.3189C40.5149 45.3189 40.4704 45.2967 40.4704 45.2695C40.4704 45.2422 40.4259 45.22 40.3715 45.22C40.3055 45.22 40.2725 45.187 40.2725 45.121C40.2725 45.0666 40.2948 45.0221 40.322 45.0221C40.3492 45.0221 40.3715 44.9776 40.3715 44.9231C40.3715 44.8687 40.3937 44.8242 40.4209 44.8242C40.4481 44.8242 40.4704 44.7846 40.4704 44.7362C40.4704 44.6877 40.5149 44.616 40.5694 44.5768C40.6238 44.5376 40.6683 44.4659 40.6683 44.4175C40.6683 44.3691 40.6906 44.3294 40.7178 44.3294C40.745 44.3294 40.7673 44.2849 40.7673 44.2305C40.7673 44.1761 40.7895 44.1315 40.8167 44.1315C40.8439 44.1315 40.8662 44.0919 40.8662 44.0435C40.8662 43.9951 40.9107 43.9234 40.9652 43.8842C41.0196 43.8449 41.0641 43.7732 41.0641 43.7248C41.0641 43.6764 41.0864 43.6368 41.1136 43.6368C41.1408 43.6368 41.1631 43.5972 41.1631 43.5488C41.1631 43.5003 41.2076 43.4286 41.262 43.3894C41.3164 43.3502 41.361 43.2785 41.361 43.2301C41.361 43.1817 41.3832 43.142 41.4104 43.142C41.4376 43.142 41.4599 43.0975 41.4599 43.0431C41.4599 42.9887 41.4822 42.9441 41.5094 42.9441C41.5366 42.9441 41.5588 42.8996 41.5588 42.8452C41.5588 42.7908 41.5811 42.7462 41.6083 42.7462C41.6355 42.7462 41.6578 42.7017 41.6578 42.6473C41.6578 42.5929 41.6801 42.5483 41.7073 42.5483C41.7345 42.5483 41.7567 42.5038 41.7567 42.4494C41.7567 42.395 41.779 42.3504 41.8062 42.3504C41.8345 42.3504 41.8557 42.202 41.8557 42.0041C41.8557 41.8062 41.8345 41.6578 41.8062 41.6578C41.779 41.6578 41.7567 41.6015 41.7567 41.5328C41.7567 41.3931 41.3661 40.9652 41.2385 40.9652C41.197 40.9652 41.1631 40.9429 41.1631 40.9157C41.1631 40.8885 41.0963 40.8662 41.0146 40.8662C40.933 40.8662 40.8662 40.8439 40.8662 40.8167C40.8662 40.7895 40.7771 40.7673 40.6683 40.7673C40.5595 40.7673 40.4704 40.7895 40.4704 40.8167C40.4704 40.8439 40.3903 40.8662 40.2923 40.8662C40.1583 40.8662 40.08 40.9029 39.9757 41.0146C39.8994 41.0963 39.8014 41.1631 39.7579 41.1631C39.7144 41.1631 39.6788 41.2027 39.6788 41.2511C39.6788 41.2995 39.6343 41.3712 39.5799 41.4104C39.5254 41.4497 39.4809 41.5213 39.4809 41.5698C39.4809 41.6182 39.4586 41.6578 39.4314 41.6578C39.4042 41.6578 39.382 41.7023 39.382 41.7567C39.382 41.8112 39.3597 41.8557 39.3325 41.8557C39.3053 41.8557 39.283 41.8953 39.283 41.9437C39.283 41.9922 39.2385 42.0638 39.1841 42.1031C39.1296 42.1423 39.0851 42.214 39.0851 42.2624C39.0851 42.3108 39.0628 42.3504 39.0356 42.3504C39.0084 42.3504 38.9862 42.395 38.9862 42.4494C38.9862 42.5038 38.9639 42.5483 38.9367 42.5483C38.9095 42.5483 38.8872 42.588 38.8872 42.6364C38.8872 42.6848 38.8427 42.7565 38.7883 42.7957C38.7338 42.835 38.6893 42.9066 38.6893 42.9551C38.6893 43.0035 38.667 43.0431 38.6398 43.0431C38.6126 43.0431 38.5904 43.0827 38.5904 43.1311C38.5904 43.1795 38.5458 43.2512 38.4914 43.2905C38.437 43.3297 38.3925 43.4014 38.3925 43.4498C38.3925 43.4982 38.3702 43.5378 38.343 43.5378C38.3158 43.5378 38.2935 43.5824 38.2935 43.6368C38.2935 43.6912 38.2712 43.7357 38.244 43.7357C38.2168 43.7357 38.1946 43.7803 38.1946 43.8347C38.1946 43.9006 38.1616 43.9336 38.0956 43.9336C38.0412 43.9336 37.9967 43.9114 37.9967 43.8842C37.9967 43.857 37.9611 43.8347 37.9176 43.8347C37.8741 43.8347 37.7761 43.7679 37.6998 43.6863C37.6236 43.6046 37.5305 43.5378 37.493 43.5378C37.4555 43.5378 37.3927 43.4933 37.3535 43.4389C37.3143 43.3845 37.252 43.3399 37.215 43.3399C37.1781 43.3399 37.0623 43.2509 36.9577 43.142C36.8531 43.0332 36.7423 42.9441 36.7115 42.9441C36.6806 42.9441 36.5242 42.8106 36.364 42.6473C36.2037 42.484 36.0489 42.3504 36.02 42.3504C35.951 42.3504 34.4345 40.8335 34.4345 40.7644C34.4345 40.7352 34.3232 40.6029 34.1871 40.4704C34.051 40.3379 33.9397 40.204 33.9397 40.1729C33.9397 40.1418 33.8507 40.0308 33.7418 39.9262C33.633 39.8216 33.5439 39.7098 33.5439 39.6778C33.5439 39.6458 33.4771 39.5571 33.3955 39.4809C33.3139 39.4047 33.2471 39.3116 33.2471 39.2741C33.2471 39.2366 33.2026 39.1738 33.1481 39.1346C33.0937 39.0953 33.0492 39.0332 33.0492 38.9964C33.0492 38.9059 33.1729 38.7883 33.2683 38.7883C33.3111 38.7883 33.346 38.766 33.346 38.7388C33.346 38.7116 33.3857 38.6893 33.434 38.6893C33.4825 38.6893 33.5542 38.6448 33.5934 38.5904C33.6326 38.5359 33.7043 38.4914 33.7528 38.4914C33.8011 38.4914 33.8408 38.4691 33.8408 38.4419C33.8408 38.4147 33.8853 38.3925 33.9397 38.3925C33.9941 38.3925 34.0387 38.3702 34.0387 38.343C34.0387 38.3158 34.0783 38.2935 34.1267 38.2935C34.1751 38.2935 34.2468 38.249 34.286 38.1946C34.3253 38.1401 34.397 38.0956 34.4454 38.0956C34.4938 38.0956 34.5334 38.0733 34.5334 38.0461C34.5334 38.0189 34.5731 37.9967 34.6214 37.9967C34.6699 37.9967 34.7416 37.9521 34.7808 37.8977C34.82 37.8433 34.8917 37.7988 34.9402 37.7988C34.9885 37.7988 35.0282 37.7765 35.0282 37.7493C35.0282 37.7221 35.0727 37.6998 35.1271 37.6998C35.1815 37.6998 35.2261 37.6776 35.2261 37.6503C35.2261 37.6231 35.2657 37.6009 35.3141 37.6009C35.3625 37.6009 35.4342 37.5563 35.4734 37.5019C35.5127 37.4475 35.5738 37.403 35.6094 37.403C35.7285 37.403 36.1166 36.9686 36.1166 36.8353C36.1166 36.7666 36.1389 36.7103 36.1661 36.7103C36.1943 36.7103 36.2156 36.5619 36.2156 36.364C36.2156 36.1661 36.1943 36.0177 36.1661 36.0177C36.1389 36.0177 36.1166 35.9614 36.1166 35.8927C36.1166 35.7529 35.726 35.325 35.5984 35.325C35.5569 35.325 35.5229 35.3028 35.5229 35.2755C35.5229 35.2483 35.4561 35.2261 35.3745 35.2261C35.2929 35.2261 35.2261 35.2038 35.2261 35.1766C35.2261 35.1494 35.137 35.1271 35.0282 35.1271C34.9193 35.1271 34.8303 35.1494 34.8303 35.1766C34.8303 35.2038 34.7461 35.2261 34.6433 35.2261C34.5131 35.2261 34.4347 35.2561 34.385 35.325C34.3458 35.3794 34.2741 35.424 34.2256 35.424C34.1773 35.424 34.1376 35.4462 34.1376 35.4734C34.1376 35.5007 34.0931 35.5229 34.0387 35.5229C33.9843 35.5229 33.9397 35.5452 33.9397 35.5724C33.9397 35.5996 33.9001 35.6219 33.8517 35.6219C33.8033 35.6219 33.7316 35.6664 33.6924 35.7208C33.6531 35.7752 33.5814 35.8198 33.533 35.8198C33.4846 35.8198 33.445 35.842 33.445 35.8692C33.445 35.8965 33.4005 35.9187 33.346 35.9187C33.2916 35.9187 33.2471 35.941 33.2471 35.9682C33.2471 35.9954 33.2075 36.0177 33.1591 36.0177C33.1106 36.0177 33.0389 36.0622 32.9997 36.1166C32.9605 36.171 32.8888 36.2156 32.8403 36.2156C32.792 36.2156 32.7523 36.2378 32.7523 36.265C32.7523 36.2923 32.7127 36.3145 32.6643 36.3145C32.6159 36.3145 32.5442 36.359 32.505 36.4135C32.4657 36.4679 32.394 36.5124 32.3456 36.5124C32.2972 36.5124 32.2576 36.5347 32.2576 36.5619C32.2576 36.5891 32.2131 36.6114 32.1586 36.6114C32.1042 36.6114 32.0597 36.6336 32.0597 36.6608C32.0597 36.6881 32.017 36.7103 31.9648 36.7103C31.9127 36.7103 31.8608 36.7379 31.8496 36.7717C31.8223 36.8534 31.6639 36.6985 31.6639 36.5901C31.6639 36.5474 31.6416 36.5124 31.6144 36.5124C31.5872 36.5124 31.5649 36.4679 31.5649 36.4135C31.5649 36.359 31.5427 36.3145 31.5155 36.3145C31.4882 36.3145 31.466 36.2477 31.466 36.1661C31.466 36.0845 31.4437 36.0177 31.4165 36.0177C31.3893 36.0177 31.367 35.9731 31.367 35.9187C31.367 35.8643 31.3448 35.8198 31.3176 35.8198C31.2903 35.8198 31.2681 35.7752 31.2681 35.7208C31.2681 35.6664 31.2458 35.6219 31.2186 35.6219C31.1914 35.6219 31.1691 35.5551 31.1691 35.4734C31.1691 35.3918 31.1469 35.325 31.1197 35.325C31.0925 35.325 31.0702 35.2805 31.0702 35.2261C31.0702 35.1716 31.0479 35.1271 31.0207 35.1271C30.9935 35.1271 30.9712 35.0603 30.9712 34.9787C30.9712 34.8971 30.949 34.8303 30.9218 34.8303C30.8946 34.8303 30.8723 34.7635 30.8723 34.6819C30.8723 34.6002 30.85 34.5334 30.8228 34.5334C30.7956 34.5334 30.7733 34.4666 30.7733 34.385C30.7733 34.3034 30.7511 34.2366 30.7239 34.2366C30.6967 34.2366 30.6744 34.1698 30.6744 34.0882C30.6744 34.0065 30.6521 33.9397 30.6249 33.9397C30.5977 33.9397 30.5754 33.8507 30.5754 33.7418C30.5754 33.633 30.5532 33.5439 30.526 33.5439C30.4988 33.5439 30.4765 33.4549 30.4765 33.346C30.4765 33.2372 30.4542 33.1481 30.427 33.1481C30.3998 33.1481 30.3775 33.0591 30.3775 32.9502C30.3775 32.8414 30.3553 32.7523 30.3281 32.7523C30.3009 32.7523 30.2786 32.641 30.2786 32.505C30.2786 32.3689 30.2563 32.2576 30.2291 32.2576C30.2016 32.2576 30.1796 32.1256 30.1796 31.9607C30.1796 31.7958 30.1577 31.6639 30.1302 31.6639C30.1027 31.6639 30.0807 31.5319 30.0807 31.367C30.0807 31.2021 30.0587 31.0702 30.0312 31.0702C30.0015 31.0702 29.9817 30.8723 29.9817 30.5754C29.9817 30.2786 29.962 30.0807 29.9323 30.0807C29.9051 30.0807 29.8828 30.0362 29.8828 29.9817C29.8828 29.8837 29.9158 29.8828 33.3955 29.8828C35.7043 29.8828 36.9082 29.8658 36.9082 29.8333C36.9082 29.8061 36.9527 29.7838 37.0072 29.7838C37.0616 29.7838 37.1061 29.7616 37.1061 29.7344C37.1061 29.7072 37.1401 29.6849 37.1816 29.6849C37.3092 29.6849 37.6998 29.257 37.6998 29.1172C37.6998 29.0485 37.7221 28.9922 37.7493 28.9922C37.7775 28.9922 37.7988 28.8438 37.7988 28.6459C37.7988 28.448 37.7775 28.2996 37.7493 28.2996C37.7221 28.2996 37.6998 28.2551 37.6998 28.2006C37.6998 28.1462 37.6776 28.1017 37.6503 28.1017C37.6231 28.1017 37.6009 28.0676 37.6009 28.0259C37.6009 27.9273 37.2805 27.607 37.182 27.607C37.1403 27.607 37.1061 27.5847 37.1061 27.5575C37.1061 27.5303 37.0171 27.508 36.9082 27.508C36.7994 27.508 36.7103 27.4857 36.7103 27.4585C36.7103 27.4313 36.6213 27.409 36.5124 27.409C36.4036 27.409 36.3145 27.4313 36.3145 27.4585C36.3145 27.4857 36.27 27.508 36.2156 27.508C36.1611 27.508 36.1166 27.4857 36.1166 27.4585C36.1166 27.3829 35.34 27.3947 35.3044 27.4709C35.2813 27.5204 35.2698 27.5204 35.2467 27.4709C35.2241 27.4226 34.6359 27.409 32.5503 27.409C30.805 27.409 29.8828 27.3919 29.8828 27.3596C29.8828 27.3324 29.9051 27.3101 29.9323 27.3101C29.962 27.3101 29.9817 27.1122 29.9817 26.8154C29.9817 26.5185 30.0015 26.3206 30.0312 26.3206C30.0595 26.3206 30.0807 26.1722 30.0807 25.9743C30.0807 25.7764 30.1019 25.628 30.1302 25.628C30.1574 25.628 30.1796 25.5166 30.1796 25.3806C30.1796 25.2445 30.2019 25.1332 30.2291 25.1332C30.2563 25.1332 30.2786 25.0219 30.2786 24.8858C30.2786 24.7498 30.3009 24.6385 30.3281 24.6385C30.3553 24.6385 30.3775 24.5494 30.3775 24.4406C30.3775 24.3317 30.3998 24.2427 30.427 24.2427C30.4542 24.2427 30.4765 24.1536 30.4765 24.0448C30.4765 23.9359 30.4988 23.8469 30.526 23.8469C30.5532 23.8469 30.5754 23.7801 30.5754 23.6984C30.5754 23.6168 30.5977 23.55 30.6249 23.55C30.6521 23.55 30.6744 23.461 30.6744 23.3521C30.6744 23.2433 30.6967 23.1542 30.7239 23.1542C30.7511 23.1542 30.7733 23.0874 30.7733 23.0058C30.7733 22.9242 30.7956 22.8574 30.8228 22.8574C30.85 22.8574 30.8723 22.7906 30.8723 22.7089C30.8723 22.6273 30.8946 22.5605 30.9218 22.5605C30.949 22.5605 30.9712 22.516 30.9712 22.4616C30.9712 22.4071 30.9935 22.3626 31.0207 22.3626C31.0479 22.3626 31.0702 22.2958 31.0702 22.2142C31.0702 22.1326 31.0925 22.0658 31.1197 22.0658C31.1469 22.0658 31.1691 21.999 31.1691 21.9173C31.1691 21.8357 31.1914 21.7689 31.2186 21.7689C31.2458 21.7689 31.2681 21.7244 31.2681 21.67C31.2681 21.6155 31.2903 21.571 31.3176 21.571C31.3448 21.571 31.367 21.5265 31.367 21.4721C31.367 21.4177 31.3893 21.3731 31.4165 21.3731C31.4437 21.3731 31.466 21.3063 31.466 21.2247C31.466 21.1431 31.4882 21.0763 31.5155 21.0763C31.5427 21.0763 31.5649 21.0317 31.5649 20.9773C31.5649 20.9229 31.5872 20.8784 31.6144 20.8784C31.6416 20.8784 31.6639 20.8434 31.6639 20.8006C31.6639 20.7579 31.6957 20.6911 31.7346 20.6522C31.8156 20.5711 31.9607 20.5575 31.9607 20.631C31.9607 20.6582 32.0053 20.6805 32.0597 20.6805C32.1141 20.6805 32.1586 20.7027 32.1586 20.7299C32.1586 20.7572 32.1983 20.7794 32.2466 20.7794C32.2951 20.7794 32.3668 20.824 32.406 20.8784C32.4452 20.9328 32.5169 20.9773 32.5654 20.9773C32.6138 20.9773 32.6534 20.9996 32.6534 21.0268C32.6534 21.054 32.6979 21.0763 32.7523 21.0763C32.8068 21.0763 32.8513 21.0985 32.8513 21.1257C32.8513 21.153 32.8909 21.1752 32.9393 21.1752C32.9877 21.1752 33.0594 21.2198 33.0987 21.2742C33.1379 21.3286 33.2096 21.3731 33.258 21.3731C33.3064 21.3731 33.346 21.3954 33.346 21.4226C33.346 21.4498 33.3906 21.4721 33.445 21.4721C33.4994 21.4721 33.5439 21.4943 33.5439 21.5215C33.5439 21.5488 33.5836 21.571 33.6319 21.571C33.6804 21.571 33.7521 21.6155 33.7913 21.67C33.8305 21.7244 33.9022 21.7689 33.9507 21.7689C33.999 21.7689 34.0387 21.7912 34.0387 21.8184C34.0387 21.8456 34.0783 21.8679 34.1267 21.8679C34.1751 21.8679 34.2468 21.9124 34.286 21.9668C34.328 22.0249 34.4141 22.0658 34.4949 22.0658C34.5705 22.0658 34.6324 22.088 34.6324 22.1152C34.6324 22.1441 34.7973 22.1647 35.0282 22.1647C35.2591 22.1647 35.424 22.1441 35.424 22.1152C35.424 22.088 35.4636 22.0658 35.512 22.0658C35.5604 22.0658 35.6321 22.0212 35.6713 21.9668C35.7106 21.9124 35.7823 21.8679 35.8307 21.8679C35.8821 21.8679 35.9187 21.8313 35.9187 21.7799C35.9187 21.7314 35.9632 21.6597 36.0177 21.6205C36.0758 21.5786 36.1166 21.4924 36.1166 21.4117C36.1166 21.3361 36.1389 21.2742 36.1661 21.2742C36.1943 21.2742 36.2156 21.1257 36.2156 20.9278C36.2156 20.7299 36.1943 20.5815 36.1661 20.5815C36.1389 20.5815 36.1166 20.537 36.1166 20.4826C36.1166 20.4282 36.0944 20.3836 36.0671 20.3836C36.0399 20.3836 36.0177 20.3492 36.0177 20.3072C36.0177 20.2651 35.963 20.1761 35.8962 20.1093C35.8294 20.0425 35.7404 19.9878 35.6983 19.9878C35.6563 19.9878 35.6219 19.9656 35.6219 19.9384C35.6219 19.9111 35.5822 19.8889 35.5339 19.8889C35.4854 19.8889 35.4137 19.8444 35.3745 19.7899C35.3353 19.7355 35.2636 19.691 35.2151 19.691C35.1668 19.691 35.1271 19.6687 35.1271 19.6415C35.1271 19.6143 35.0875 19.592 35.0391 19.592C34.9907 19.592 34.919 19.5475 34.8797 19.4931C34.8405 19.4387 34.7688 19.3941 34.7204 19.3941C34.672 19.3941 34.6324 19.3719 34.6324 19.3447C34.6324 19.3174 34.5878 19.2952 34.5334 19.2952C34.479 19.2952 34.4345 19.2729 34.4345 19.2457C34.4345 19.2185 34.3948 19.1962 34.3465 19.1962C34.298 19.1962 34.2263 19.1517 34.1871 19.0973C34.1479 19.0429 34.0762 18.9983 34.0277 18.9983C33.9794 18.9983 33.9397 18.9761 33.9397 18.9489C33.9397 18.9216 33.8952 18.8994 33.8408 18.8994C33.7864 18.8994 33.7418 18.8771 33.7418 18.8499C33.7418 18.8227 33.7022 18.8004 33.6538 18.8004C33.6054 18.8004 33.5337 18.7559 33.4945 18.7015C33.4552 18.6471 33.3835 18.6025 33.3351 18.6025C33.2867 18.6025 33.2471 18.5803 33.2471 18.5531C33.2471 18.5258 33.2026 18.5036 33.1481 18.5036C33.0862 18.5036 33.0492 18.4706 33.0492 18.4156C33.0492 18.3671 33.0937 18.2954 33.1481 18.2562C33.2026 18.217 33.2471 18.1502 33.2471 18.1078C33.2471 18.0654 33.2916 17.9986 33.346 17.9594C33.4005 17.9201 33.445 17.8573 33.445 17.8198C33.445 17.7824 33.5118 17.6893 33.5934 17.613C33.675 17.5368 33.7418 17.4485 33.7418 17.4168C33.7418 17.3852 33.8531 17.2508 33.9892 17.1183C34.1253 16.9857 34.2366 16.8535 34.2366 16.8244C34.2366 16.7547 36.2484 14.7435 36.3181 14.7435C36.3476 14.7435 36.4573 14.6544 36.5619 14.5456C36.6665 14.4368 36.7778 14.3477 36.8093 14.3477C36.8407 14.3477 36.952 14.2586 37.0566 14.1498C37.1612 14.041 37.277 13.9519 37.314 13.9519C37.3509 13.9519 37.4132 13.9074 37.4524 13.853C37.4917 13.7985 37.5545 13.754 37.592 13.754C37.6294 13.754 37.7225 13.6872 37.7988 13.6056C37.9578 13.4353 38.1946 13.3992 38.1946 13.5452C38.1946 13.5936 38.2391 13.6653 38.2935 13.7045C38.3479 13.7438 38.3925 13.8154 38.3925 13.8639C38.3925 13.9123 38.4147 13.9519 38.4419 13.9519C38.4691 13.9519 38.4914 13.9915 38.4914 14.0399C38.4914 14.0884 38.5359 14.16 38.5904 14.1993C38.6448 14.2385 38.6893 14.3102 38.6893 14.3586C38.6893 14.407 38.7116 14.4466 38.7388 14.4466C38.766 14.4466 38.7883 14.4912 38.7883 14.5456C38.7883 14.6 38.8105 14.6445 38.8377 14.6445C38.8649 14.6445 38.8872 14.6842 38.8872 14.7326C38.8872 14.781 38.9317 14.8527 38.9862 14.8919C39.0406 14.9312 39.0851 15.0028 39.0851 15.0513C39.0851 15.0997 39.1074 15.1393 39.1346 15.1393C39.1618 15.1393 39.1841 15.1838 39.1841 15.2382C39.1841 15.2927 39.2063 15.3372 39.2335 15.3372C39.2607 15.3372 39.283 15.3768 39.283 15.4252C39.283 15.4736 39.3275 15.5453 39.382 15.5846C39.4364 15.6238 39.4809 15.6955 39.4809 15.7439C39.4809 15.7923 39.5032 15.8319 39.5304 15.8319C39.5576 15.8319 39.5799 15.8659 39.5799 15.9074C39.5799 15.949 39.6795 16.0826 39.8012 16.2043C39.9229 16.326 40.0565 16.4256 40.0981 16.4256C40.1396 16.4256 40.1736 16.4479 40.1736 16.4751C40.1736 16.5045 40.355 16.5246 40.6188 16.5246C40.8827 16.5246 41.0641 16.5045 41.0641 16.4751C41.0641 16.4479 41.1037 16.4256 41.1521 16.4256C41.2006 16.4256 41.2722 16.3811 41.3115 16.3267C41.3507 16.2723 41.4224 16.2277 41.4708 16.2277C41.5222 16.2277 41.5588 16.1911 41.5588 16.1397C41.5588 16.0913 41.6034 16.0196 41.6578 15.9804C41.7159 15.9385 41.7567 15.8523 41.7567 15.7715C41.7567 15.6959 41.779 15.634 41.8062 15.634C41.8337 15.634 41.8557 15.5021 41.8557 15.3372C41.8557 15.1723 41.8337 15.0403 41.8062 15.0403C41.779 15.0403 41.7567 14.9736 41.7567 14.8919C41.7567 14.8103 41.7345 14.7435 41.7073 14.7435C41.6801 14.7435 41.6578 14.7039 41.6578 14.6555C41.6578 14.607 41.6133 14.5354 41.5588 14.4961C41.5044 14.4569 41.4599 14.3852 41.4599 14.3368C41.4599 14.2884 41.4376 14.2487 41.4104 14.2487C41.3832 14.2487 41.361 14.2042 41.361 14.1498C41.361 14.0954 41.3387 14.0508 41.3115 14.0508C41.2843 14.0508 41.262 14.0112 41.262 13.9628C41.262 13.9144 41.2175 13.8427 41.1631 13.8035C41.1086 13.7642 41.0641 13.6926 41.0641 13.6441C41.0641 13.5957 41.0418 13.5561 41.0146 13.5561C40.9874 13.5561 40.9652 13.5116 40.9652 13.4572C40.9652 13.4027 40.9429 13.3582 40.9157 13.3582C40.8885 13.3582 40.8662 13.3186 40.8662 13.2702C40.8662 13.2218 40.8217 13.1501 40.7673 13.1108C40.7128 13.0716 40.6683 12.9999 40.6683 12.9515C40.6683 12.9031 40.646 12.8635 40.6188 12.8635C40.5916 12.8635 40.5694 12.8189 40.5694 12.7645C40.5694 12.7101 40.5471 12.6656 40.5199 12.6656C40.4927 12.6656 40.4704 12.6259 40.4704 12.5775C40.4704 12.5291 40.4259 12.4574 40.3715 12.4182C40.317 12.3789 40.2725 12.3168 40.2725 12.28C40.2725 12.1895 40.3962 12.0719 40.4916 12.0719C40.5344 12.0719 40.5694 12.0496 40.5694 12.0224C40.5694 11.9952 40.6139 11.9729 40.6683 11.9729C40.7227 11.9729 40.7673 11.9506 40.7673 11.9234C40.7673 11.8962 40.834 11.874 40.9157 11.874C40.9973 11.874 41.0641 11.8517 41.0641 11.8245C41.0641 11.7973 41.1086 11.775 41.1631 11.775C41.2175 11.775 41.262 11.7527 41.262 11.7255C41.262 11.6983 41.3288 11.6761 41.4104 11.6761C41.4921 11.6761 41.5588 11.6538 41.5588 11.6266C41.5588 11.5994 41.6034 11.5771 41.6578 11.5771C41.7122 11.5771 41.7567 11.5548 41.7567 11.5276C41.7567 11.5004 41.8235 11.4782 41.9052 11.4782C41.9868 11.4782 42.0536 11.4559 42.0536 11.4287C42.0536 11.4015 42.1204 11.3792 42.202 11.3792C42.2837 11.3792 42.3504 11.3569 42.3504 11.3297C42.3504 11.3025 42.4172 11.2803 42.4989 11.2803C42.5805 11.2803 42.6473 11.258 42.6473 11.2308C42.6473 11.2036 42.7141 11.1813 42.7957 11.1813C42.8774 11.1813 42.9441 11.159 42.9441 11.1318C42.9441 11.1046 43.0109 11.0824 43.0926 11.0824C43.1742 11.0824 43.241 11.0601 43.241 11.0329C43.241 11.0057 43.33 10.9834 43.4389 10.9834C43.5477 10.9834 43.6368 10.9611 43.6368 10.9339C43.6368 10.9067 43.7258 10.8845 43.8347 10.8845C43.9435 10.8845 44.0326 10.8622 44.0326 10.835C44.0326 10.8078 44.1216 10.7855 44.2305 10.7855C44.3393 10.7855 44.4284 10.7632 44.4284 10.736C44.4284 10.7085 44.5603 10.6866 44.7252 10.6866C44.8901 10.6866 45.0221 10.6646 45.0221 10.6371C45.0221 10.6099 45.1334 10.5876 45.2695 10.5876C45.4055 10.5876 45.5168 10.5653 45.5168 10.5381C45.5168 10.5093 45.6817 10.4887 45.9126 10.4887C46.1435 10.4887 46.3084 10.468 46.3084 10.4392C46.3084 10.4103 46.4733 10.3897 46.7042 10.3897H47.1V13.8035ZM44.4284 19.8394C44.4284 19.8666 44.372 19.8889 44.3031 19.8889C44.1637 19.8889 43.8347 20.1831 43.8347 20.3078C43.8347 20.3495 43.8124 20.3836 43.7852 20.3836C43.758 20.3836 43.7357 20.4282 43.7357 20.4826C43.7357 20.537 43.7135 20.5815 43.6863 20.5815C43.6574 20.5815 43.6368 20.7464 43.6368 20.9773C43.6368 21.2082 43.6574 21.3731 43.6863 21.3731C43.7135 21.3731 43.7357 21.4399 43.7357 21.5215C43.7357 21.6032 43.758 21.67 43.7852 21.67C43.8124 21.67 43.8347 21.7145 43.8347 21.7689C43.8347 21.8233 43.857 21.8679 43.8842 21.8679C43.9114 21.8679 43.9336 21.9124 43.9336 21.9668C43.9336 22.0212 43.9559 22.0658 43.9831 22.0658C44.0103 22.0658 44.0326 22.1103 44.0326 22.1647C44.0326 22.2191 44.0549 22.2637 44.0821 22.2637C44.1093 22.2637 44.1315 22.3082 44.1315 22.3626C44.1315 22.417 44.1538 22.4616 44.181 22.4616C44.2082 22.4616 44.2305 22.5284 44.2305 22.61C44.2305 22.6916 44.2528 22.7584 44.28 22.7584C44.3072 22.7584 44.3294 22.8029 44.3294 22.8574C44.3294 22.9118 44.3517 22.9563 44.3789 22.9563C44.4061 22.9563 44.4284 23.0008 44.4284 23.0553C44.4284 23.1097 44.4507 23.1542 44.4779 23.1542C44.5051 23.1542 44.5273 23.1987 44.5273 23.2532C44.5273 23.3076 44.5496 23.3521 44.5768 23.3521C44.604 23.3521 44.6263 23.3966 44.6263 23.4511C44.6263 23.5055 44.6486 23.55 44.6758 23.55C44.703 23.55 44.7252 23.5945 44.7252 23.649C44.7252 23.7034 44.7475 23.7479 44.7747 23.7479C44.8019 23.7479 44.8242 23.7924 44.8242 23.8469C44.8242 23.9013 44.8465 23.9458 44.8737 23.9458C44.9009 23.9458 44.9231 24.0126 44.9231 24.0942C44.9231 24.1759 44.9454 24.2427 44.9726 24.2427C44.9998 24.2427 45.0221 24.2872 45.0221 24.3416C45.0221 24.396 45.0443 24.4406 45.0716 24.4406C45.0988 24.4406 45.121 24.4851 45.121 24.5395C45.121 24.5939 45.1433 24.6385 45.1705 24.6385C45.1977 24.6385 45.22 24.683 45.22 24.7374C45.22 24.7918 45.2422 24.8364 45.2695 24.8364C45.2967 24.8364 45.3189 24.9032 45.3189 24.9848C45.3189 25.0664 45.3412 25.1332 45.3684 25.1332C45.3956 25.1332 45.4179 25.1777 45.4179 25.2322C45.4179 25.2866 45.4401 25.3311 45.4674 25.3311C45.4946 25.3311 45.5168 25.3756 45.5168 25.4301C45.5168 25.4845 45.5391 25.529 45.5663 25.529C45.5935 25.529 45.6158 25.5735 45.6158 25.628C45.6158 25.6824 45.638 25.7269 45.6653 25.7269C45.6925 25.7269 45.7147 25.7714 45.7147 25.8259C45.7147 25.8803 45.737 25.9248 45.7642 25.9248C45.7914 25.9248 45.8137 25.9693 45.8137 26.0238C45.8137 26.0782 45.8359 26.1227 45.8632 26.1227C45.8904 26.1227 45.9126 26.1895 45.9126 26.2711C45.9126 26.3528 45.9349 26.4196 45.9621 26.4196C45.9893 26.4196 46.0116 26.4641 46.0116 26.5185C46.0116 26.5729 46.0338 26.6175 46.0611 26.6175C46.0883 26.6175 46.1105 26.662 46.1105 26.7164C46.1105 26.7708 46.1328 26.8154 46.16 26.8154C46.1872 26.8154 46.2095 26.8599 46.2095 26.9143C46.2095 26.9687 46.2317 27.0133 46.259 27.0133C46.2862 27.0133 46.3084 27.0578 46.3084 27.1122C46.3084 27.1666 46.3307 27.2112 46.3579 27.2112C46.3851 27.2112 46.4074 27.2779 46.4074 27.3596C46.4074 27.4412 46.4296 27.508 46.4569 27.508C46.4841 27.508 46.5063 27.5525 46.5063 27.607C46.5063 27.6614 46.5286 27.7059 46.5558 27.7059C46.583 27.7059 46.6053 27.7504 46.6053 27.8048C46.6053 27.8593 46.6275 27.9038 46.6548 27.9038C46.682 27.9038 46.7042 27.9483 46.7042 28.0027C46.7042 28.0572 46.7265 28.1017 46.7537 28.1017C46.7809 28.1017 46.8032 28.1685 46.8032 28.2501C46.8032 28.3318 46.8254 28.3985 46.8527 28.3985C46.9627 28.3985 46.8973 28.6602 46.7537 28.7943C46.6721 28.8706 46.6053 28.9596 46.6053 28.9922C46.6053 29.0248 46.5385 29.1139 46.4569 29.1901C46.3752 29.2664 46.3084 29.3595 46.3084 29.3969C46.3084 29.4345 46.2639 29.4972 46.2095 29.5365C46.1551 29.5757 46.1105 29.6385 46.1105 29.676C46.1105 29.7134 46.0437 29.8066 45.9621 29.8828C45.8805 29.959 45.8137 30.0521 45.8137 30.0896C45.8137 30.1271 45.7692 30.1899 45.7147 30.2291C45.6603 30.2683 45.6158 30.3311 45.6158 30.3686C45.6158 30.4061 45.549 30.4992 45.4674 30.5754C45.3857 30.6517 45.3189 30.7448 45.3189 30.7822C45.3189 30.8197 45.2744 30.8825 45.22 30.9218C45.1656 30.961 45.121 31.0238 45.121 31.0613C45.121 31.0987 45.0542 31.1918 44.9726 31.2681C44.891 31.3443 44.8242 31.4374 44.8242 31.4749C44.8242 31.5124 44.7797 31.5752 44.7252 31.6144C44.6708 31.6536 44.6263 31.7164 44.6263 31.7539C44.6263 31.7914 44.5595 31.8845 44.4779 31.9607C44.3962 32.037 44.3294 32.1301 44.3294 32.1675C44.3294 32.205 44.2849 32.2678 44.2305 32.3071C44.1761 32.3463 44.1315 32.4091 44.1315 32.4466C44.1315 32.484 44.0648 32.5771 43.9831 32.6534C43.9015 32.7296 43.8347 32.8187 43.8347 32.8513C43.8347 32.8839 43.7679 32.9729 43.6863 33.0492C43.6046 33.1254 43.5378 33.2185 43.5378 33.256C43.5378 33.2935 43.4933 33.3563 43.4389 33.3955C43.3845 33.4347 43.3399 33.5015 43.3399 33.5439C43.3399 33.5863 43.2954 33.6531 43.241 33.6924C43.1866 33.7316 43.142 33.8033 43.142 33.8517C43.142 33.9001 43.1198 33.9397 43.0926 33.9397C43.0629 33.9397 43.0431 34.1376 43.0431 34.4345C43.0431 34.7313 43.0629 34.9292 43.0926 34.9292C43.1198 34.9292 43.142 34.9634 43.142 35.0051C43.142 35.1036 43.4624 35.424 43.5609 35.424C43.6027 35.424 43.6368 35.4462 43.6368 35.4734C43.6368 35.5007 43.6813 35.5229 43.7357 35.5229C43.7902 35.5229 43.8347 35.5452 43.8347 35.5724C43.8347 35.6006 43.9831 35.6219 44.181 35.6219C44.3789 35.6219 44.5273 35.6006 44.5273 35.5724C44.5273 35.5452 44.5834 35.5229 44.652 35.5229C44.7393 35.5229 44.8724 35.427 45.0972 35.2023C45.2736 35.0259 45.4179 34.8527 45.4179 34.8174C45.4179 34.7821 45.4624 34.7211 45.5168 34.6819C45.5713 34.6426 45.6158 34.5798 45.6158 34.5423C45.6158 34.5049 45.6826 34.4118 45.7642 34.3355C45.8458 34.2593 45.9126 34.1662 45.9126 34.1287C45.9126 34.0912 45.9572 34.0284 46.0116 33.9892C46.066 33.95 46.1105 33.8872 46.1105 33.8497C46.1105 33.8122 46.1773 33.7191 46.259 33.6429C46.3406 33.5666 46.4074 33.4735 46.4074 33.4361C46.4074 33.3986 46.4519 33.3358 46.5063 33.2966C46.5608 33.2573 46.6053 33.1945 46.6053 33.157C46.6053 33.1196 46.6721 33.0265 46.7537 32.9502C46.8353 32.874 46.9021 32.7809 46.9021 32.7434C46.9021 32.7059 46.9467 32.6431 47.0011 32.6039C47.0555 32.5647 47.1 32.5019 47.1 32.4644C47.1 32.4269 47.1668 32.3338 47.2485 32.2576C47.3301 32.1813 47.3969 32.0923 47.3969 32.0597C47.3969 32.0271 47.4637 31.938 47.5453 31.8618C47.6269 31.7855 47.6937 31.6924 47.6937 31.655C47.6937 31.6175 47.7383 31.5547 47.7927 31.5155C47.8471 31.4762 47.8916 31.4134 47.8916 31.3759C47.8916 31.3385 47.9584 31.2454 48.0401 31.1691C48.1217 31.0929 48.1885 30.9998 48.1885 30.9623C48.1885 30.9248 48.233 30.862 48.2874 30.8228C48.3418 30.7836 48.3864 30.7208 48.3864 30.6833C48.3864 30.6458 48.4532 30.5527 48.5348 30.4765C48.6164 30.4002 48.6832 30.3112 48.6832 30.2786C48.6832 30.246 48.75 30.1569 48.8316 30.0807C48.9133 30.0044 48.9801 29.9113 48.9801 29.8739C48.9801 29.8364 49.0246 29.7736 49.079 29.7344C49.1334 29.6951 49.178 29.6283 49.178 29.5859C49.178 29.5435 49.2225 29.4768 49.2769 29.4375C49.3313 29.3983 49.3759 29.3266 49.3759 29.2782C49.3759 29.2298 49.3981 29.1901 49.4253 29.1901C49.4526 29.1901 49.4748 29.1234 49.4748 29.0417C49.4748 28.9601 49.4971 28.8933 49.5243 28.8933C49.5515 28.8933 49.5738 28.782 49.5738 28.6459C49.5738 28.5099 49.5515 28.3985 49.5243 28.3985C49.4971 28.3985 49.4748 28.3318 49.4748 28.2501C49.4748 28.1685 49.4526 28.1017 49.4253 28.1017C49.3981 28.1017 49.3759 28.0572 49.3759 28.0027C49.3759 27.9483 49.3536 27.9038 49.3264 27.9038C49.2992 27.9038 49.2769 27.8593 49.2769 27.8048C49.2769 27.7504 49.2547 27.7059 49.2274 27.7059C49.2002 27.7059 49.178 27.6614 49.178 27.607C49.178 27.5525 49.1557 27.508 49.1285 27.508C49.1013 27.508 49.079 27.4461 49.079 27.3705C49.079 27.2898 49.0382 27.2036 48.9801 27.1617C48.922 27.1198 48.8811 27.0336 48.8811 26.9528C48.8811 26.8772 48.8589 26.8154 48.8316 26.8154C48.8044 26.8154 48.7822 26.7708 48.7822 26.7164C48.7822 26.662 48.7599 26.6175 48.7327 26.6175C48.7055 26.6175 48.6832 26.5507 48.6832 26.469C48.6832 26.3874 48.661 26.3206 48.6337 26.3206C48.6065 26.3206 48.5843 26.2761 48.5843 26.2217C48.5843 26.1672 48.562 26.1227 48.5348 26.1227C48.5076 26.1227 48.4853 26.0782 48.4853 26.0238C48.4853 25.9693 48.4631 25.9248 48.4358 25.9248C48.4086 25.9248 48.3864 25.8803 48.3864 25.8259C48.3864 25.7714 48.3641 25.7269 48.3369 25.7269C48.3097 25.7269 48.2874 25.6824 48.2874 25.628C48.2874 25.5735 48.2652 25.529 48.2379 25.529C48.2107 25.529 48.1885 25.4622 48.1885 25.3806C48.1885 25.299 48.1662 25.2322 48.139 25.2322C48.1118 25.2322 48.0895 25.1876 48.0895 25.1332C48.0895 25.0788 48.0673 25.0343 48.0401 25.0343C48.0128 25.0343 47.9906 24.9897 47.9906 24.9353C47.9906 24.8809 47.9683 24.8364 47.9411 24.8364C47.9139 24.8364 47.8916 24.7918 47.8916 24.7374C47.8916 24.683 47.8694 24.6385 47.8422 24.6385C47.8149 24.6385 47.7927 24.5939 47.7927 24.5395C47.7927 24.4851 47.7704 24.4406 47.7432 24.4406C47.716 24.4406 47.6937 24.396 47.6937 24.3416C47.6937 24.2872 47.6715 24.2427 47.6443 24.2427C47.617 24.2427 47.5948 24.1759 47.5948 24.0942C47.5948 24.0126 47.5725 23.9458 47.5453 23.9458C47.5181 23.9458 47.4958 23.9013 47.4958 23.8469C47.4958 23.7924 47.4736 23.7479 47.4464 23.7479C47.4191 23.7479 47.3969 23.7034 47.3969 23.649C47.3969 23.5945 47.3746 23.55 47.3474 23.55C47.3202 23.55 47.2979 23.5055 47.2979 23.4511C47.2979 23.3966 47.2757 23.3521 47.2485 23.3521C47.2212 23.3521 47.199 23.2853 47.199 23.2037C47.199 23.1221 47.1767 23.0553 47.1495 23.0553C47.1223 23.0553 47.1 23.0107 47.1 22.9563C47.1 22.9019 47.0778 22.8574 47.0506 22.8574C47.0233 22.8574 47.0011 22.8128 47.0011 22.7584C47.0011 22.704 46.9788 22.6595 46.9516 22.6595C46.9244 22.6595 46.9021 22.6149 46.9021 22.5605C46.9021 22.5061 46.8799 22.4616 46.8527 22.4616C46.8254 22.4616 46.8032 22.417 46.8032 22.3626C46.8032 22.3082 46.7809 22.2637 46.7537 22.2637C46.7265 22.2637 46.7042 22.2191 46.7042 22.1647C46.7042 22.1103 46.682 22.0658 46.6548 22.0658C46.6275 22.0658 46.6053 22.0212 46.6053 21.9668C46.6053 21.9124 46.583 21.8679 46.5558 21.8679C46.5286 21.8679 46.5063 21.8011 46.5063 21.7194C46.5063 21.6378 46.4841 21.571 46.4569 21.571C46.4296 21.571 46.4074 21.5265 46.4074 21.4721C46.4074 21.4177 46.3851 21.3731 46.3579 21.3731C46.3307 21.3731 46.3084 21.3286 46.3084 21.2742C46.3084 21.2198 46.2862 21.1752 46.259 21.1752C46.2317 21.1752 46.2095 21.1307 46.2095 21.0763C46.2095 21.0219 46.1872 20.9773 46.16 20.9773C46.1328 20.9773 46.1105 20.9328 46.1105 20.8784C46.1105 20.824 46.0883 20.7794 46.0611 20.7794C46.0338 20.7794 46.0116 20.7126 46.0116 20.631C46.0116 20.5494 45.9893 20.4826 45.9621 20.4826C45.9349 20.4826 45.9126 20.4484 45.9126 20.4067C45.9126 20.3082 45.5922 19.9878 45.4937 19.9878C45.452 19.9878 45.4179 19.9656 45.4179 19.9384C45.4179 19.9111 45.3734 19.8889 45.3189 19.8889C45.2645 19.8889 45.22 19.8666 45.22 19.8394C45.22 19.8106 45.0551 19.7899 44.8242 19.7899C44.5933 19.7899 44.4284 19.8106 44.4284 19.8394ZM0.989496 28.0522C0.989496 28.0794 0.922705 28.1017 0.841072 28.1017C0.759439 28.1017 0.692647 28.124 0.692647 28.1512C0.692647 28.1784 0.65851 28.2006 0.616803 28.2006C0.518298 28.2006 0.197899 28.521 0.197899 28.6196C0.197899 28.6613 0.175636 28.6954 0.148424 28.6954C0.121213 28.6954 0.0989496 28.7622 0.0989496 28.8438C0.0989496 28.9255 0.076686 28.9922 0.0494748 28.9922C0.0222637 28.9922 0 29.1036 0 29.2396C0 29.3757 0.0222637 29.487 0.0494748 29.487C0.076686 29.487 0.0989496 29.5489 0.0989496 29.6245C0.0989496 29.7052 0.139816 29.7914 0.197899 29.8333C0.252322 29.8726 0.296849 29.9341 0.296849 29.9702C0.296849 30.0605 0.522702 30.2786 0.616209 30.2786C0.658263 30.2786 0.692647 30.3009 0.692647 30.3281C0.692647 30.3553 0.781702 30.3775 0.890547 30.3775C0.999391 30.3775 1.08845 30.3998 1.08845 30.427C1.08845 30.4598 4.41973 30.4765 10.9834 30.4765C17.5471 30.4765 20.8784 30.4598 20.8784 30.427C20.8784 30.3998 20.9674 30.3775 21.0763 30.3775C21.1851 30.3775 21.2742 30.3553 21.2742 30.3281C21.2742 30.3009 21.3086 30.2786 21.3506 30.2786C21.4441 30.2786 21.67 30.0605 21.67 29.9702C21.67 29.9341 21.7145 29.8726 21.7689 29.8333C21.827 29.7914 21.8679 29.7052 21.8679 29.6245C21.8679 29.5489 21.8901 29.487 21.9173 29.487C21.9446 29.487 21.9668 29.3757 21.9668 29.2396C21.9668 29.1036 21.9446 28.9922 21.9173 28.9922C21.8901 28.9922 21.8679 28.9255 21.8679 28.8438C21.8679 28.7622 21.8456 28.6954 21.8184 28.6954C21.7912 28.6954 21.7689 28.6613 21.7689 28.6196C21.7689 28.521 21.4485 28.2006 21.35 28.2006C21.3083 28.2006 21.2742 28.1784 21.2742 28.1512C21.2742 28.124 21.2074 28.1017 21.1257 28.1017C21.0441 28.1017 20.9773 28.0794 20.9773 28.0522C20.9773 28.0194 17.613 28.0027 10.9834 28.0027C4.35378 28.0027 0.989496 28.0194 0.989496 28.0522ZM8.11387 34.0882C8.11387 34.1154 8.06934 34.1376 8.01492 34.1376C7.9605 34.1376 7.91597 34.1599 7.91597 34.1871C7.91597 34.2143 7.88183 34.2366 7.84013 34.2366C7.74162 34.2366 7.42122 34.557 7.42122 34.6555C7.42122 34.6972 7.39896 34.7313 7.37175 34.7313C7.34454 34.7313 7.32227 34.8204 7.32227 34.9292C7.32227 35.0381 7.30001 35.1271 7.2728 35.1271C7.24559 35.1271 7.22332 35.1939 7.22332 35.2755C7.22332 35.3572 7.24559 35.424 7.2728 35.424C7.30001 35.424 7.32227 35.4908 7.32227 35.5724C7.32227 35.654 7.34454 35.7208 7.37175 35.7208C7.39896 35.7208 7.42122 35.7548 7.42122 35.7963C7.42122 35.8945 7.84121 36.3145 7.93942 36.3145C7.98093 36.3145 8.01492 36.3368 8.01492 36.364C8.01492 36.3967 10.5711 36.4135 15.5846 36.4135C20.598 36.4135 23.1542 36.3967 23.1542 36.364C23.1542 36.3368 23.1987 36.3145 23.2532 36.3145C23.3076 36.3145 23.3521 36.2923 23.3521 36.265C23.3521 36.2378 23.3966 36.2156 23.4511 36.2156C23.5088 36.2156 23.55 36.1826 23.55 36.1365C23.55 36.093 23.6168 35.995 23.6984 35.9187C23.8102 35.8143 23.8469 35.7361 23.8469 35.602C23.8469 35.5041 23.8691 35.424 23.8963 35.424C23.9235 35.424 23.9458 35.3349 23.9458 35.2261C23.9458 35.1172 23.9235 35.0282 23.8963 35.0282C23.8691 35.0282 23.8469 34.9614 23.8469 34.8797C23.8469 34.7981 23.8246 34.7313 23.7974 34.7313C23.7702 34.7313 23.7479 34.6972 23.7479 34.6555C23.7479 34.557 23.4275 34.2366 23.329 34.2366C23.2873 34.2366 23.2532 34.2143 23.2532 34.1871C23.2532 34.1599 23.2086 34.1376 23.1542 34.1376C23.0998 34.1376 23.0553 34.1154 23.0553 34.0882C23.0553 34.0554 20.5321 34.0387 15.5846 34.0387C10.6371 34.0387 8.11387 34.0554 8.11387 34.0882ZM13.2593 40.1241C13.2593 40.1513 13.2253 40.1736 13.1838 40.1736C13.0855 40.1736 12.6656 40.5935 12.6656 40.6918C12.6656 40.7333 12.6433 40.7673 12.6161 40.7673C12.5889 40.7673 12.5666 40.8118 12.5666 40.8662C12.5666 40.9206 12.5443 40.9652 12.5171 40.9652C12.4896 40.9652 12.4677 41.0971 12.4677 41.262C12.4677 41.4269 12.4896 41.5588 12.5171 41.5588C12.5443 41.5588 12.5666 41.6207 12.5666 41.6963C12.5666 41.7771 12.6075 41.8633 12.6656 41.9052C12.72 41.9444 12.7645 42.0161 12.7645 42.0645C12.7645 42.1159 12.8011 42.1525 12.8525 42.1525C12.901 42.1525 12.9726 42.1971 13.0119 42.2515C13.0511 42.3059 13.1228 42.3504 13.1712 42.3504C13.2196 42.3504 13.2593 42.3727 13.2593 42.3999C13.2593 42.4327 15.5516 42.4494 20.0373 42.4494C24.523 42.4494 26.8154 42.4327 26.8154 42.3999C26.8154 42.3727 26.8599 42.3504 26.9143 42.3504C26.9687 42.3504 27.0133 42.3282 27.0133 42.301C27.0133 42.2738 27.0476 42.2515 27.0897 42.2515C27.1887 42.2515 27.409 42.0311 27.409 41.9321C27.409 41.8901 27.4313 41.8557 27.4585 41.8557C27.4857 41.8557 27.508 41.8112 27.508 41.7567C27.508 41.7023 27.5303 41.6578 27.5575 41.6578C27.5863 41.6578 27.607 41.4929 27.607 41.262C27.607 41.0311 27.5863 40.8662 27.5575 40.8662C27.5303 40.8662 27.508 40.8217 27.508 40.7673C27.508 40.7128 27.4857 40.6683 27.4585 40.6683C27.4313 40.6683 27.409 40.6339 27.409 40.5919C27.409 40.4929 27.1887 40.2725 27.0897 40.2725C27.0476 40.2725 27.0133 40.2502 27.0133 40.223C27.0133 40.1958 26.9687 40.1736 26.9143 40.1736C26.8599 40.1736 26.8154 40.1513 26.8154 40.1241C26.8154 40.0913 24.523 40.0746 20.0373 40.0746C15.5516 40.0746 13.2593 40.0913 13.2593 40.1241Z" fill="#EAAE13"/>
</svg>
