<svg width="51" height="51" viewBox="0 0 51 51" fill="none" xmlns="http://www.w3.org/2000/svg">
<path fill-rule="evenodd" clip-rule="evenodd" d="M2.06995 0.0544724C2.06995 0.0844322 1.9719 0.108945 1.85206 0.108945C1.73222 0.108945 1.63417 0.133457 1.63417 0.163417C1.63417 0.193377 1.58515 0.217889 1.52523 0.217889C1.46531 0.217889 1.41628 0.242402 1.41628 0.272362C1.41628 0.302322 1.37265 0.326834 1.31938 0.326834C1.26605 0.326834 1.18712 0.375859 1.14392 0.435779C1.10072 0.495699 1.03323 0.544724 0.993903 0.544724C0.900973 0.544724 0.544724 0.900973 0.544724 0.993903C0.544724 1.03323 0.495699 1.10072 0.435779 1.14392C0.375859 1.18712 0.326834 1.26605 0.326834 1.31938C0.326834 1.37265 0.302322 1.41628 0.272362 1.41628C0.242402 1.41628 0.217889 1.46531 0.217889 1.52523C0.217889 1.58515 0.193377 1.63417 0.163417 1.63417C0.133457 1.63417 0.108945 1.73222 0.108945 1.85206C0.108945 1.9719 0.0844322 2.06995 0.0544724 2.06995C0.0182482 2.06995 0 9.84136 0 25.2752C0 40.709 0.0182482 48.4804 0.0544724 48.4804C0.0844322 48.4804 0.108945 48.5785 0.108945 48.6983C0.108945 48.8181 0.133457 48.9162 0.163417 48.9162C0.193377 48.9162 0.217889 48.9652 0.217889 49.0251C0.217889 49.0851 0.242402 49.1341 0.272362 49.1341C0.302322 49.1341 0.326834 49.1777 0.326834 49.231C0.326834 49.2843 0.375859 49.3632 0.435779 49.4064C0.495699 49.4496 0.544724 49.5171 0.544724 49.5565C0.544724 49.6494 0.900973 50.0056 0.993903 50.0056C1.03323 50.0056 1.10072 50.0547 1.14392 50.1146C1.18712 50.1745 1.26605 50.2235 1.31938 50.2235C1.37265 50.2235 1.41628 50.248 1.41628 50.278C1.41628 50.308 1.46531 50.3325 1.52523 50.3325C1.58515 50.3325 1.63417 50.357 1.63417 50.3869C1.63417 50.4169 1.73222 50.4414 1.85206 50.4414C1.9719 50.4414 2.06995 50.4659 2.06995 50.4959C2.06995 50.5321 7.80769 50.5504 19.1743 50.5504C30.5409 50.5504 36.2786 50.5321 36.2786 50.4959C36.2786 50.4659 36.3521 50.4414 36.442 50.4414C36.5319 50.4414 36.6054 50.4169 36.6054 50.3869C36.6054 50.357 36.6736 50.3325 36.7568 50.3325C36.8457 50.3325 36.9406 50.2875 36.9867 50.2235C37.0299 50.1636 37.0971 50.1146 37.1359 50.1146C37.2281 50.1146 37.9128 49.4299 37.9128 49.3377C37.9128 49.2989 37.9618 49.2317 38.0217 49.1885C38.0857 49.1424 38.1307 49.0475 38.1307 48.9586C38.1307 48.8754 38.1552 48.8072 38.1851 48.8072C38.2151 48.8072 38.2396 48.7337 38.2396 48.6438C38.2396 48.5539 38.2641 48.4804 38.2941 48.4804C38.3295 48.4804 38.3485 47.7178 38.3485 46.3015C38.3485 44.159 38.3503 44.1226 38.4575 44.1226C38.5174 44.1226 38.5664 44.0981 38.5664 44.0681C38.5664 44.0382 38.6645 44.0137 38.7843 44.0137C38.9042 44.0137 39.0022 43.9892 39.0022 43.9592C39.0022 43.9292 39.0758 43.9047 39.1656 43.9047C39.2555 43.9047 39.329 43.8802 39.329 43.8503C39.329 43.8203 39.4026 43.7958 39.4925 43.7958C39.5823 43.7958 39.6559 43.7713 39.6559 43.7413C39.6559 43.7114 39.7049 43.6868 39.7648 43.6868C39.8247 43.6868 39.8738 43.6623 39.8738 43.6324C39.8738 43.6024 39.9473 43.5779 40.0372 43.5779C40.1271 43.5779 40.2006 43.5534 40.2006 43.5234C40.2006 43.4935 40.2496 43.4689 40.3096 43.4689C40.3695 43.4689 40.4185 43.4444 40.4185 43.4145C40.4185 43.3845 40.4675 43.36 40.5274 43.36C40.5874 43.36 40.6364 43.3355 40.6364 43.3055C40.6364 43.2756 40.6854 43.2511 40.7453 43.2511C40.8053 43.2511 40.8543 43.2265 40.8543 43.1966C40.8543 43.1666 40.9033 43.1421 40.9632 43.1421C41.0231 43.1421 41.0722 43.1176 41.0722 43.0876C41.0722 43.0577 41.1212 43.0332 41.1811 43.0332C41.241 43.0332 41.2901 43.0087 41.2901 42.9787C41.2901 42.9487 41.3516 42.9242 41.4267 42.9242C41.5342 42.9242 42.0743 43.4354 43.9592 45.321C45.2769 46.6392 46.3867 47.7178 46.4252 47.7178C46.4638 47.7178 46.5307 47.7668 46.5739 47.8267C46.62 47.8907 46.7149 47.9357 46.8038 47.9357C46.887 47.9357 46.9552 47.9602 46.9552 47.9902C46.9552 48.0201 47.0042 48.0446 47.0641 48.0446C47.124 48.0446 47.1731 48.0691 47.1731 48.0991C47.1731 48.1326 47.4454 48.1536 47.8812 48.1536C48.317 48.1536 48.5894 48.1326 48.5894 48.0991C48.5894 48.0691 48.6629 48.0446 48.7528 48.0446C48.8426 48.0446 48.9162 48.0201 48.9162 47.9902C48.9162 47.9602 48.9652 47.9357 49.0251 47.9357C49.0851 47.9357 49.1341 47.9112 49.1341 47.8812C49.1341 47.8513 49.1777 47.8267 49.231 47.8267C49.2843 47.8267 49.3632 47.7777 49.4064 47.7178C49.4496 47.6579 49.5171 47.6088 49.5565 47.6088C49.6494 47.6088 50.0056 47.2526 50.0056 47.1597C50.0056 47.1203 50.0547 47.0528 50.1146 47.0097C50.1745 46.9665 50.2235 46.8875 50.2235 46.8342C50.2235 46.7809 50.248 46.7373 50.278 46.7373C50.308 46.7373 50.3325 46.6883 50.3325 46.6283C50.3325 46.5684 50.357 46.5194 50.3869 46.5194C50.4169 46.5194 50.4414 46.4214 50.4414 46.3015C50.4414 46.1817 50.4659 46.0836 50.4959 46.0836C50.5282 46.0836 50.5504 45.8839 50.5504 45.5934C50.5504 45.3029 50.5282 45.1031 50.4959 45.1031C50.4659 45.1031 50.4414 45.0051 50.4414 44.8852C50.4414 44.7654 50.4169 44.6673 50.3869 44.6673C50.357 44.6673 50.3325 44.6183 50.3325 44.5584C50.3325 44.4985 50.308 44.4495 50.278 44.4495C50.248 44.4495 50.2235 44.4004 50.2235 44.3405C50.2235 44.2806 50.199 44.2316 50.1691 44.2316C50.1391 44.2316 50.1146 44.1946 50.1146 44.1494C50.1146 44.1042 49.036 42.9891 47.7178 41.6714C45.231 39.1855 45.1816 39.1267 45.43 38.9477C45.4899 38.9045 45.5389 38.8256 45.5389 38.7723C45.5389 38.719 45.5634 38.6754 45.5934 38.6754C45.6233 38.6754 45.6478 38.6264 45.6478 38.5664C45.6478 38.5065 45.6724 38.4575 45.7023 38.4575C45.7323 38.4575 45.7568 38.4085 45.7568 38.3485C45.7568 38.2886 45.7813 38.2396 45.8113 38.2396C45.8412 38.2396 45.8657 38.1906 45.8657 38.1307C45.8657 38.0707 45.8902 38.0217 45.9202 38.0217C45.9502 38.0217 45.9747 37.9727 45.9747 37.9128C45.9747 37.8528 45.9992 37.8038 46.0292 37.8038C46.0591 37.8038 46.0836 37.7548 46.0836 37.6949C46.0836 37.635 46.1081 37.5859 46.1381 37.5859C46.1681 37.5859 46.1926 37.5369 46.1926 37.477C46.1926 37.4171 46.2171 37.368 46.247 37.368C46.277 37.368 46.3015 37.2945 46.3015 37.2046C46.3015 37.1147 46.326 37.0412 46.356 37.0412C46.3859 37.0412 46.4105 36.9677 46.4105 36.8778C46.4105 36.7879 46.435 36.7144 46.4649 36.7144C46.4949 36.7144 46.5194 36.6408 46.5194 36.551C46.5194 36.4611 46.5439 36.3875 46.5739 36.3875C46.6038 36.3875 46.6283 36.2895 46.6283 36.1697C46.6283 36.0498 46.6529 35.9518 46.6828 35.9518C46.7128 35.9518 46.7373 35.8537 46.7373 35.7339C46.7373 35.614 46.7618 35.516 46.7918 35.516C46.8217 35.516 46.8462 35.3934 46.8462 35.2436C46.8462 35.0938 46.8708 34.9713 46.9007 34.9713C46.9318 34.9713 46.9552 34.8078 46.9552 34.59C46.9552 34.3721 46.9785 34.2086 47.0097 34.2086C47.0441 34.2086 47.0641 33.8092 47.0641 33.1192C47.0641 32.4292 47.0441 32.0298 47.0097 32.0298C46.9779 32.0298 46.9552 31.8482 46.9552 31.594C46.9552 31.3398 46.9325 31.1582 46.9007 31.1582C46.8708 31.1582 46.8462 31.0356 46.8462 30.8858C46.8462 30.736 46.8217 30.6135 46.7918 30.6135C46.7618 30.6135 46.7373 30.5154 46.7373 30.3956C46.7373 30.2757 46.7128 30.1777 46.6828 30.1777C46.6529 30.1777 46.6283 30.1401 46.6283 30.0942C46.6283 29.9857 46.2756 29.633 46.1671 29.633C46.1212 29.633 46.0836 29.6085 46.0836 29.5785C46.0836 29.5485 45.9856 29.524 45.8657 29.524C45.7459 29.524 45.6478 29.5485 45.6478 29.5785C45.6478 29.6085 45.5855 29.633 45.5092 29.633C45.3563 29.633 45.1031 29.8522 45.1031 29.9846C45.1031 30.0309 45.0786 30.0687 45.0486 30.0687C45.0175 30.0687 44.9942 30.2322 44.9942 30.4501C44.9942 30.6679 45.0175 30.8314 45.0486 30.8314C45.0786 30.8314 45.1031 30.9539 45.1031 31.1037C45.1031 31.2535 45.1276 31.3761 45.1576 31.3761C45.1879 31.3761 45.2121 31.5214 45.2121 31.7029C45.2121 31.8845 45.2363 32.0298 45.2665 32.0298C45.3012 32.0298 45.321 32.4655 45.321 33.2281C45.321 33.9908 45.3012 34.4265 45.2665 34.4265C45.2363 34.4265 45.2121 34.5718 45.2121 34.7534C45.2121 34.9349 45.1879 35.0802 45.1576 35.0802C45.1276 35.0802 45.1031 35.2028 45.1031 35.3526C45.1031 35.5024 45.0786 35.6249 45.0486 35.6249C45.0187 35.6249 44.9942 35.6985 44.9942 35.7883C44.9942 35.8782 44.9697 35.9518 44.9397 35.9518C44.9097 35.9518 44.8852 36.0253 44.8852 36.1152C44.8852 36.2051 44.8607 36.2786 44.8308 36.2786C44.8008 36.2786 44.7763 36.3521 44.7763 36.442C44.7763 36.5319 44.7518 36.6054 44.7218 36.6054C44.6919 36.6054 44.6673 36.6545 44.6673 36.7144C44.6673 36.7743 44.6428 36.8233 44.6129 36.8233C44.5829 36.8233 44.5584 36.8723 44.5584 36.9323C44.5584 36.9922 44.5339 37.0412 44.5039 37.0412C44.474 37.0412 44.4495 37.0902 44.4495 37.1502C44.4495 37.2101 44.4249 37.2591 44.395 37.2591C44.365 37.2591 44.3405 37.3081 44.3405 37.368C44.3405 37.428 44.316 37.477 44.286 37.477C44.2561 37.477 44.2316 37.526 44.2316 37.5859C44.2316 37.6459 44.2071 37.6949 44.1771 37.6949C44.1471 37.6949 44.1226 37.7439 44.1226 37.8038C44.1226 37.8637 44.0981 37.9128 44.0681 37.9128C44.0382 37.9128 44.0137 37.9564 44.0137 38.0097C44.0137 38.063 43.9646 38.1419 43.9047 38.1851C43.8448 38.2283 43.7958 38.2975 43.7958 38.3387C43.7958 38.38 43.7222 38.4825 43.6324 38.5664C43.5425 38.6504 43.4689 38.7479 43.4689 38.7832C43.4689 38.8185 43.3709 38.9415 43.2511 39.0567C43.1312 39.1718 43.0332 39.2929 43.0332 39.3257C43.0332 39.403 42.2362 40.2006 42.1589 40.2006C42.1266 40.2006 41.9807 40.3232 41.8348 40.473C41.6888 40.6228 41.5365 40.7453 41.4963 40.7453C41.456 40.7453 41.3877 40.7944 41.3445 40.8543C41.3013 40.9142 41.2278 40.9632 41.1811 40.9632C41.1344 40.9632 41.0609 41.0122 41.0177 41.0722C40.9745 41.1321 40.901 41.1811 40.8543 41.1811C40.8076 41.1811 40.7341 41.2301 40.6909 41.2901C40.6477 41.35 40.5687 41.399 40.5154 41.399C40.4621 41.399 40.4185 41.4235 40.4185 41.4535C40.4185 41.4834 40.3695 41.5079 40.3096 41.5079C40.2496 41.5079 40.2006 41.5325 40.2006 41.5624C40.2006 41.5924 40.1516 41.6169 40.0917 41.6169C40.0317 41.6169 39.9827 41.6414 39.9827 41.6714C39.9827 41.7013 39.9337 41.7258 39.8738 41.7258C39.8139 41.7258 39.7648 41.7503 39.7648 41.7803C39.7648 41.8103 39.7158 41.8348 39.6559 41.8348C39.596 41.8348 39.5469 41.8593 39.5469 41.8893C39.5469 41.9192 39.4734 41.9437 39.3835 41.9437C39.2936 41.9437 39.2201 41.9682 39.2201 41.9982C39.2201 42.0282 39.1711 42.0527 39.1112 42.0527C39.0512 42.0527 39.0022 42.0772 39.0022 42.1071C39.0022 42.1371 38.9287 42.1616 38.8388 42.1616C38.7489 42.1616 38.6754 42.1861 38.6754 42.2161C38.6754 42.246 38.6018 42.2706 38.512 42.2706C38.4221 42.2706 38.3485 42.2951 38.3485 42.325C38.3485 42.355 38.2505 42.3795 38.1307 42.3795C38.0108 42.3795 37.9128 42.404 37.9128 42.434C37.9128 42.4639 37.7902 42.4884 37.6404 42.4884C37.4906 42.4884 37.368 42.513 37.368 42.5429C37.368 42.5732 37.2228 42.5974 37.0412 42.5974C36.8597 42.5974 36.7144 42.6216 36.7144 42.6519C36.7144 42.6865 36.2967 42.7063 35.5705 42.7063C34.8442 42.7063 34.4265 42.6865 34.4265 42.6519C34.4265 42.6219 34.304 42.5974 34.1542 42.5974C34.0044 42.5974 33.8818 42.5729 33.8818 42.5429C33.8818 42.513 33.7593 42.4884 33.6095 42.4884C33.4597 42.4884 33.3371 42.4639 33.3371 42.434C33.3371 42.404 33.2635 42.3795 33.1737 42.3795C33.0838 42.3795 33.0103 42.355 33.0103 42.325C33.0103 42.2951 32.9122 42.2706 32.7924 42.2706C32.6725 42.2706 32.5745 42.246 32.5745 42.2161C32.5745 42.1861 32.5255 42.1616 32.4655 42.1616C32.4056 42.1616 32.3566 42.1371 32.3566 42.1071C32.3566 42.0772 32.2831 42.0527 32.1932 42.0527C32.1033 42.0527 32.0298 42.0282 32.0298 41.9982C32.0298 41.9682 31.9807 41.9437 31.9208 41.9437C31.8609 41.9437 31.8119 41.9192 31.8119 41.8893C31.8119 41.8593 31.7628 41.8348 31.7029 41.8348C31.643 41.8348 31.594 41.8103 31.594 41.7803C31.594 41.7503 31.5449 41.7258 31.485 41.7258C31.4251 41.7258 31.3761 41.7013 31.3761 41.6714C31.3761 41.6414 31.3271 41.6169 31.2671 41.6169C31.2072 41.6169 31.1582 41.5924 31.1582 41.5624C31.1582 41.5325 31.1146 41.5079 31.0613 41.5079C31.008 41.5079 30.929 41.4589 30.8858 41.399C30.8426 41.3391 30.7691 41.2901 30.7224 41.2901C30.6757 41.2901 30.6022 41.241 30.559 41.1811C30.5158 41.1212 30.4423 41.0722 30.3956 41.0722C30.3489 41.0722 30.2754 41.0231 30.2322 40.9632C30.189 40.9033 30.1204 40.8543 30.0797 40.8543C30.039 40.8543 29.9115 40.7562 29.7964 40.6364C29.6812 40.5165 29.5603 40.4185 29.5276 40.4185C29.4949 40.4185 29.2356 40.186 28.9514 39.9017C28.6671 39.6175 28.4346 39.3582 28.4346 39.3255C28.4346 39.2928 28.3365 39.1718 28.2167 39.0567C28.0968 38.9415 27.9988 38.8141 27.9988 38.7734C27.9988 38.7327 27.9498 38.6641 27.8899 38.6209C27.8299 38.5777 27.7809 38.5042 27.7809 38.4575C27.7809 38.4108 27.7319 38.3373 27.672 38.2941C27.612 38.2509 27.563 38.1773 27.563 38.1307C27.563 38.084 27.514 38.0104 27.4541 37.9672C27.3942 37.924 27.3451 37.8451 27.3451 37.7918C27.3451 37.7385 27.3206 37.6949 27.2907 37.6949C27.2607 37.6949 27.2362 37.6459 27.2362 37.5859C27.2362 37.526 27.2117 37.477 27.1817 37.477C27.1518 37.477 27.1272 37.428 27.1272 37.368C27.1272 37.3081 27.1027 37.2591 27.0728 37.2591C27.0428 37.2591 27.0183 37.2101 27.0183 37.1502C27.0183 37.0902 26.9938 37.0412 26.9638 37.0412C26.9339 37.0412 26.9093 36.9677 26.9093 36.8778C26.9093 36.7879 26.8848 36.7144 26.8549 36.7144C26.8249 36.7144 26.8004 36.6654 26.8004 36.6054C26.8004 36.5455 26.7759 36.4965 26.7459 36.4965C26.716 36.4965 26.6915 36.423 26.6915 36.3331C26.6915 36.2432 26.6669 36.1697 26.637 36.1697C26.607 36.1697 26.5825 36.0961 26.5825 36.0062C26.5825 35.9164 26.558 35.8428 26.528 35.8428C26.4981 35.8428 26.4736 35.7448 26.4736 35.6249C26.4736 35.5051 26.4491 35.407 26.4191 35.407C26.3891 35.407 26.3646 35.2845 26.3646 35.1347C26.3646 34.9849 26.3401 34.8623 26.3102 34.8623C26.2799 34.8623 26.2557 34.717 26.2557 34.5355C26.2557 34.3539 26.2315 34.2086 26.2012 34.2086C26.1666 34.2086 26.1467 33.791 26.1467 33.0647C26.1467 32.3384 26.1666 31.9208 26.2012 31.9208C26.2315 31.9208 26.2557 31.7755 26.2557 31.594C26.2557 31.4124 26.2799 31.2671 26.3102 31.2671C26.3401 31.2671 26.3646 31.1691 26.3646 31.0492C26.3646 30.9294 26.3891 30.8314 26.4191 30.8314C26.4491 30.8314 26.4736 30.7333 26.4736 30.6135C26.4736 30.4936 26.4981 30.3956 26.528 30.3956C26.558 30.3956 26.5825 30.322 26.5825 30.2322C26.5825 30.1423 26.607 30.0687 26.637 30.0687C26.6669 30.0687 26.6915 29.9952 26.6915 29.9053C26.6915 29.8155 26.716 29.7419 26.7459 29.7419C26.7759 29.7419 26.8004 29.6684 26.8004 29.5785C26.8004 29.4886 26.8249 29.4151 26.8549 29.4151C26.8848 29.4151 26.9093 29.3661 26.9093 29.3061C26.9093 29.2462 26.9339 29.1972 26.9638 29.1972C26.9938 29.1972 27.0183 29.1482 27.0183 29.0882C27.0183 29.0283 27.0428 28.9793 27.0728 28.9793C27.1027 28.9793 27.1272 28.9303 27.1272 28.8704C27.1272 28.8104 27.1518 28.7614 27.1817 28.7614C27.2117 28.7614 27.2362 28.7124 27.2362 28.6525C27.2362 28.5925 27.2607 28.5435 27.2907 28.5435C27.3206 28.5435 27.3451 28.4945 27.3451 28.4346C27.3451 28.3747 27.3696 28.3256 27.3996 28.3256C27.4296 28.3256 27.4541 28.282 27.4541 28.2287C27.4541 28.1754 27.5031 28.0965 27.563 28.0533C27.6229 28.0101 27.672 27.9365 27.672 27.8899C27.672 27.8432 27.721 27.7696 27.7809 27.7264C27.8408 27.6832 27.8899 27.6141 27.8899 27.5728C27.8899 27.5316 27.9634 27.4291 28.0533 27.3451C28.1431 27.2612 28.2167 27.1653 28.2167 27.1321C28.2167 27.0989 28.5474 26.7411 28.9516 26.3369C29.3558 25.9327 29.7136 25.602 29.7468 25.602C29.78 25.602 29.8759 25.5285 29.9598 25.4386C30.0437 25.3487 30.1463 25.2752 30.1875 25.2752C30.2288 25.2752 30.2979 25.2262 30.3411 25.1662C30.3843 25.1063 30.4578 25.0573 30.5045 25.0573C30.5512 25.0573 30.6247 25.0083 30.6679 24.9483C30.7111 24.8884 30.7901 24.8394 30.8434 24.8394C30.8967 24.8394 30.9403 24.8149 30.9403 24.7849C30.9403 24.755 30.9893 24.7305 31.0492 24.7305C31.1092 24.7305 31.1582 24.7059 31.1582 24.676C31.1582 24.646 31.2072 24.6215 31.2671 24.6215C31.3271 24.6215 31.3761 24.597 31.3761 24.567C31.3761 24.5371 31.4251 24.5126 31.485 24.5126C31.5449 24.5126 31.594 24.4881 31.594 24.4581C31.594 24.4281 31.643 24.4036 31.7029 24.4036C31.7628 24.4036 31.8119 24.3791 31.8119 24.3491C31.8119 24.3192 31.8609 24.2947 31.9208 24.2947C31.9807 24.2947 32.0298 24.2702 32.0298 24.2402C32.0298 24.2102 32.1033 24.1857 32.1932 24.1857C32.2831 24.1857 32.3566 24.1612 32.3566 24.1313C32.3566 24.1013 32.4301 24.0768 32.52 24.0768C32.6099 24.0768 32.6834 24.0523 32.6834 24.0223C32.6834 23.9924 32.757 23.9678 32.8468 23.9678C32.9367 23.9678 33.0103 23.9433 33.0103 23.9134C33.0103 23.8834 33.0838 23.8589 33.1737 23.8589C33.2635 23.8589 33.3371 23.8344 33.3371 23.8044C33.3371 23.7745 33.4597 23.75 33.6095 23.75C33.7593 23.75 33.8818 23.7254 33.8818 23.6955C33.8818 23.6652 34.0271 23.641 34.2086 23.641C34.3902 23.641 34.5355 23.6168 34.5355 23.5865C34.5355 23.5519 34.9713 23.5321 35.7339 23.5321C36.4965 23.5321 36.9323 23.5519 36.9323 23.5865C36.9323 23.6168 37.0775 23.641 37.2591 23.641C37.4407 23.641 37.5859 23.6652 37.5859 23.6955C37.5859 23.7254 37.684 23.75 37.8038 23.75C37.9237 23.75 38.0217 23.7745 38.0217 23.8044C38.0217 23.8344 38.1198 23.8589 38.2396 23.8589C38.3594 23.8589 38.4575 23.8834 38.4575 23.9134C38.4575 23.9433 38.531 23.9678 38.6209 23.9678C38.7108 23.9678 38.7843 23.9924 38.7843 24.0223C38.7843 24.0523 38.8579 24.0768 38.9477 24.0768C39.0376 24.0768 39.1112 24.1013 39.1112 24.1313C39.1112 24.1612 39.1602 24.1857 39.2201 24.1857C39.28 24.1857 39.329 24.2102 39.329 24.2402C39.329 24.2702 39.4026 24.2947 39.4925 24.2947C39.5823 24.2947 39.6559 24.3192 39.6559 24.3491C39.6559 24.3791 39.7049 24.4036 39.7648 24.4036C39.8247 24.4036 39.8738 24.4281 39.8738 24.4581C39.8738 24.4881 39.9228 24.5126 39.9827 24.5126C40.0426 24.5126 40.0917 24.5371 40.0917 24.567C40.0917 24.597 40.1407 24.6215 40.2006 24.6215C40.2605 24.6215 40.3096 24.646 40.3096 24.676C40.3096 24.7059 40.3532 24.7305 40.4065 24.7305C40.4598 24.7305 40.5387 24.7795 40.5819 24.8394C40.6251 24.8993 40.704 24.9483 40.7574 24.9483C40.8106 24.9483 40.8543 24.9729 40.8543 25.0028C40.8543 25.0331 40.9996 25.0573 41.1811 25.0573C41.3627 25.0573 41.5079 25.0331 41.5079 25.0028C41.5079 24.9729 41.5458 24.9483 41.5921 24.9483C41.7011 24.9483 41.9437 24.7057 41.9437 24.5967C41.9437 24.5504 41.9682 24.5126 41.9982 24.5126C42.0285 24.5126 42.0527 24.3673 42.0527 24.1857C42.0527 24.0042 42.0285 23.8589 41.9982 23.8589C41.9682 23.8589 41.9437 23.8204 41.9437 23.7733C41.9437 23.6683 41.8142 23.5321 41.7145 23.5321C41.674 23.5321 41.6056 23.483 41.5624 23.4231C41.5192 23.3632 41.4403 23.3142 41.387 23.3142C41.3337 23.3142 41.2901 23.2897 41.2901 23.2597C41.2901 23.2297 41.241 23.2052 41.1811 23.2052C41.1212 23.2052 41.0722 23.1807 41.0722 23.1508C41.0722 23.1208 41.0231 23.0963 40.9632 23.0963C40.9033 23.0963 40.8543 23.0718 40.8543 23.0418C40.8543 23.0119 40.8053 22.9873 40.7453 22.9873C40.6854 22.9873 40.6364 22.9628 40.6364 22.9329C40.6364 22.9029 40.5874 22.8784 40.5274 22.8784C40.4675 22.8784 40.4185 22.8539 40.4185 22.8239C40.4185 22.794 40.3695 22.7694 40.3096 22.7694C40.2496 22.7694 40.2006 22.7449 40.2006 22.715C40.2006 22.685 40.1516 22.6605 40.0917 22.6605C40.0317 22.6605 39.9827 22.636 39.9827 22.606C39.9827 22.5761 39.9092 22.5516 39.8193 22.5516C39.7294 22.5516 39.6559 22.527 39.6559 22.4971C39.6559 22.4671 39.5823 22.4426 39.4925 22.4426C39.4026 22.4426 39.329 22.4181 39.329 22.3881C39.329 22.3582 39.2555 22.3337 39.1656 22.3337C39.0758 22.3337 39.0022 22.3092 39.0022 22.2792C39.0022 22.2492 38.9287 22.2247 38.8388 22.2247C38.7489 22.2247 38.6754 22.2002 38.6754 22.1703C38.6754 22.1403 38.6018 22.1158 38.512 22.1158H38.3485V15.7425C38.3485 11.53 38.3301 9.36925 38.2941 9.36925C38.2641 9.36925 38.2396 9.29571 38.2396 9.20583C38.2396 9.09612 38.2125 9.04241 38.157 9.04241C38.0658 9.04241 37.2591 8.26008 37.2591 8.17162C37.2591 8.08212 29.2599 0.108945 29.1701 0.108945C29.1251 0.108945 29.0882 0.0844322 29.0882 0.0544724C29.0882 0.0183027 24.5489 0 15.5791 0C6.6093 0 2.06995 0.0183027 2.06995 0.0544724ZM27.8899 5.06593C27.8899 7.24482 27.9086 8.38874 27.9443 8.38874C27.9743 8.38874 27.9988 8.46228 27.9988 8.55216C27.9988 8.64204 28.0233 8.71558 28.0533 8.71558C28.0832 8.71558 28.1077 8.78372 28.1077 8.86696C28.1077 8.95586 28.1527 9.05075 28.2167 9.09689C28.2766 9.14008 28.3256 9.20725 28.3256 9.24609C28.3256 9.3382 29.0103 10.0229 29.1025 10.0229C29.1413 10.0229 29.2085 10.0719 29.2517 10.1319C29.2978 10.1958 29.3927 10.2408 29.4816 10.2408C29.5648 10.2408 29.633 10.2653 29.633 10.2953C29.633 10.3252 29.7065 10.3497 29.7964 10.3497C29.8863 10.3497 29.9598 10.3743 29.9598 10.4042C29.9598 10.44 31.1037 10.4587 33.2826 10.4587H36.6054V16.1238V21.7889H35.4615C34.7352 21.7889 34.3176 21.8088 34.3176 21.8434C34.3176 21.8737 34.1723 21.8979 33.9908 21.8979C33.8092 21.8979 33.6639 21.9221 33.6639 21.9524C33.6639 21.9823 33.5414 22.0068 33.3916 22.0068C33.2418 22.0068 33.1192 22.0313 33.1192 22.0613C33.1192 22.0913 33.0211 22.1158 32.9013 22.1158C32.7815 22.1158 32.6834 22.1403 32.6834 22.1703C32.6834 22.2002 32.6099 22.2247 32.52 22.2247C32.4301 22.2247 32.3566 22.2492 32.3566 22.2792C32.3566 22.3092 32.2831 22.3337 32.1932 22.3337C32.1033 22.3337 32.0298 22.3582 32.0298 22.3881C32.0298 22.4181 31.9562 22.4426 31.8663 22.4426C31.7765 22.4426 31.7029 22.4671 31.7029 22.4971C31.7029 22.527 31.6539 22.5516 31.594 22.5516C31.5341 22.5516 31.485 22.5761 31.485 22.606C31.485 22.636 31.4115 22.6605 31.3216 22.6605C31.2317 22.6605 31.1582 22.685 31.1582 22.715C31.1582 22.7449 31.1092 22.7694 31.0492 22.7694C30.9893 22.7694 30.9403 22.794 30.9403 22.8239C30.9403 22.8539 30.8913 22.8784 30.8314 22.8784C30.7714 22.8784 30.7224 22.9029 30.7224 22.9329C30.7224 22.9628 30.6734 22.9873 30.6135 22.9873C30.5536 22.9873 30.5045 23.0119 30.5045 23.0418C30.5045 23.0718 30.4555 23.0963 30.3956 23.0963C30.3357 23.0963 30.2866 23.1208 30.2866 23.1508C30.2866 23.1807 30.243 23.2052 30.1897 23.2052C30.1364 23.2052 30.0575 23.2543 30.0143 23.3142C29.9711 23.3741 29.8975 23.4231 29.8509 23.4231C29.8042 23.4231 29.7306 23.4721 29.6874 23.5321C29.6442 23.592 29.5707 23.641 29.524 23.641C29.4773 23.641 29.4038 23.69 29.3606 23.75C29.3174 23.8099 29.2439 23.8589 29.1972 23.8589C29.1505 23.8589 29.077 23.9079 29.0338 23.9678C28.9906 24.0278 28.9227 24.0768 28.8829 24.0768C28.8432 24.0768 28.6414 24.2484 28.4346 24.4581C28.2277 24.6678 28.032 24.8394 27.9996 24.8394C27.924 24.8394 27.563 25.1989 27.563 25.2743C27.563 25.3057 27.3796 25.5149 27.1553 25.7391L26.7477 26.1467H17.5682C11.4849 26.1467 8.38874 26.1651 8.38874 26.2012C8.38874 26.2312 8.35089 26.2557 8.30459 26.2557C8.19559 26.2557 7.95297 26.4983 7.95297 26.6073C7.95297 26.6536 7.92845 26.6915 7.89849 26.6915C7.86821 26.6915 7.84402 26.8367 7.84402 27.0183C7.84402 27.1999 7.86821 27.3451 7.89849 27.3451C7.92845 27.3451 7.95297 27.383 7.95297 27.4293C7.95297 27.5383 8.19559 27.7809 8.30459 27.7809C8.35089 27.7809 8.38874 27.8054 8.38874 27.8354C8.38874 27.8714 11.3121 27.8899 17.0499 27.8899C22.7876 27.8899 25.711 27.9083 25.711 27.9443C25.711 27.9743 25.6864 27.9988 25.6565 27.9988C25.6265 27.9988 25.602 28.0478 25.602 28.1077C25.602 28.1677 25.5775 28.2167 25.5475 28.2167C25.5176 28.2167 25.4931 28.2657 25.4931 28.3256C25.4931 28.3856 25.4686 28.4346 25.4386 28.4346C25.4086 28.4346 25.3841 28.4836 25.3841 28.5435C25.3841 28.6034 25.3596 28.6525 25.3297 28.6525C25.2997 28.6525 25.2752 28.726 25.2752 28.8159C25.2752 28.9058 25.2507 28.9793 25.2207 28.9793C25.1907 28.9793 25.1662 29.0283 25.1662 29.0882C25.1662 29.1482 25.1417 29.1972 25.1118 29.1972C25.0818 29.1972 25.0573 29.2707 25.0573 29.3606C25.0573 29.4505 25.0328 29.524 25.0028 29.524C24.9729 29.524 24.9483 29.5976 24.9483 29.6874C24.9483 29.7773 24.9238 29.8509 24.8939 29.8509C24.8639 29.8509 24.8394 29.9489 24.8394 30.0687C24.8394 30.1886 24.8149 30.2866 24.7849 30.2866C24.755 30.2866 24.7305 30.3847 24.7305 30.5045C24.7305 30.6244 24.7059 30.7224 24.676 30.7224C24.646 30.7224 24.6215 30.8345 24.6215 30.9714C24.6215 31.1146 24.5884 31.2535 24.5437 31.2982C24.4769 31.365 23.3214 31.3761 16.4273 31.3761C11.1046 31.3761 8.38874 31.3945 8.38874 31.4306C8.38874 31.4605 8.35089 31.485 8.30459 31.485C8.19559 31.485 7.95297 31.7276 7.95297 31.8366C7.95297 31.8829 7.92845 31.9208 7.89849 31.9208C7.86821 31.9208 7.84402 32.0661 7.84402 32.2476C7.84402 32.4292 7.86821 32.5745 7.89849 32.5745C7.92845 32.5745 7.95297 32.6123 7.95297 32.6586C7.95297 32.7676 8.19559 33.0103 8.30459 33.0103C8.35089 33.0103 8.38874 33.0348 8.38874 33.0647C8.38874 33.1008 11.0942 33.1192 16.3962 33.1192H24.4036V33.6095C24.4036 33.9 24.4258 34.0997 24.4581 34.0997C24.4899 34.0997 24.5126 34.2813 24.5126 34.5355C24.5126 34.7897 24.5353 34.9713 24.567 34.9713C24.597 34.9713 24.6215 35.0938 24.6215 35.2436C24.6215 35.3934 24.646 35.516 24.676 35.516C24.7059 35.516 24.7305 35.614 24.7305 35.7339C24.7305 35.8537 24.755 35.9518 24.7849 35.9518C24.8149 35.9518 24.8394 36.0498 24.8394 36.1697C24.8394 36.2895 24.8639 36.3875 24.8939 36.3875C24.9238 36.3875 24.9483 36.4366 24.9483 36.4965C24.9483 36.6049 24.912 36.6054 16.6685 36.6054C11.185 36.6054 8.38874 36.6238 8.38874 36.6599C8.38874 36.6899 8.35089 36.7144 8.30459 36.7144C8.19559 36.7144 7.95297 36.957 7.95297 37.066C7.95297 37.1123 7.92845 37.1502 7.89849 37.1502C7.86821 37.1502 7.84402 37.2954 7.84402 37.477C7.84402 37.6585 7.86821 37.8038 7.89849 37.8038C7.92845 37.8038 7.95297 37.8417 7.95297 37.888C7.95297 37.997 8.19559 38.2396 8.30459 38.2396C8.35089 38.2396 8.38874 38.2641 8.38874 38.2941C8.38874 38.3301 11.3043 38.3485 17.0265 38.3485C26.2201 38.3485 25.8199 38.3375 25.8199 38.5898C25.8199 38.6369 25.8444 38.6754 25.8744 38.6754C25.9043 38.6754 25.9288 38.7244 25.9288 38.7843C25.9288 38.8442 25.9534 38.8933 25.9833 38.8933C26.0133 38.8933 26.0378 38.9369 26.0378 38.9902C26.0378 39.0435 26.0868 39.1224 26.1467 39.1656C26.2067 39.2088 26.2557 39.2824 26.2557 39.329C26.2557 39.3757 26.3047 39.4493 26.3646 39.4925C26.4245 39.5357 26.4736 39.6048 26.4736 39.6461C26.4736 39.6873 26.5471 39.7898 26.637 39.8738C26.7269 39.9577 26.8004 40.0546 26.8004 40.0889C26.8004 40.1233 26.972 40.3206 27.1817 40.5274C27.3914 40.7343 27.563 40.9303 27.563 40.9631C27.563 41.0398 27.8124 41.2901 27.8888 41.2901C27.9468 41.2901 28.4346 41.7513 28.4346 41.8061C28.4346 41.8219 23.9243 41.8348 18.4117 41.8348C11.766 41.8348 8.38874 41.8531 8.38874 41.8893C8.38874 41.9192 8.35089 41.9437 8.30459 41.9437C8.19559 41.9437 7.95297 42.1863 7.95297 42.2953C7.95297 42.3416 7.92845 42.3795 7.89849 42.3795C7.86821 42.3795 7.84402 42.5248 7.84402 42.7063C7.84402 42.8879 7.86821 43.0332 7.89849 43.0332C7.92845 43.0332 7.95297 43.071 7.95297 43.1173C7.95297 43.2263 8.19559 43.4689 8.30459 43.4689C8.35089 43.4689 8.38874 43.4935 8.38874 43.5234C8.38874 43.5595 11.9839 43.5779 19.0653 43.5779C26.1467 43.5779 29.7419 43.5595 29.7419 43.5234C29.7419 43.4935 29.8301 43.4689 29.938 43.4689C30.0855 43.4689 30.1717 43.4285 30.2866 43.3055C30.4353 43.1464 30.6135 43.087 30.6135 43.1966C30.6135 43.2265 30.6625 43.2511 30.7224 43.2511C30.7823 43.2511 30.8314 43.2756 30.8314 43.3055C30.8314 43.3355 30.8804 43.36 30.9403 43.36C31.0002 43.36 31.0492 43.3845 31.0492 43.4145C31.0492 43.4444 31.0983 43.4689 31.1582 43.4689C31.2181 43.4689 31.2671 43.4935 31.2671 43.5234C31.2671 43.5534 31.3162 43.5779 31.3761 43.5779C31.436 43.5779 31.485 43.6024 31.485 43.6324C31.485 43.6623 31.5586 43.6868 31.6484 43.6868C31.7383 43.6868 31.8119 43.7114 31.8119 43.7413C31.8119 43.7713 31.8854 43.7958 31.9753 43.7958C32.0652 43.7958 32.1387 43.8203 32.1387 43.8503C32.1387 43.8802 32.2122 43.9047 32.3021 43.9047C32.392 43.9047 32.4655 43.9292 32.4655 43.9592C32.4655 43.9892 32.5636 44.0137 32.6834 44.0137C32.8033 44.0137 32.9013 44.0382 32.9013 44.0681C32.9013 44.0981 32.9994 44.1226 33.1192 44.1226C33.239 44.1226 33.3371 44.1471 33.3371 44.1771C33.3371 44.2071 33.4597 44.2316 33.6095 44.2316C33.7593 44.2316 33.8818 44.2561 33.8818 44.286C33.8818 44.3178 34.0634 44.3405 34.3176 44.3405C34.5718 44.3405 34.7534 44.3632 34.7534 44.395C34.7534 44.4291 35.0983 44.4495 35.6794 44.4495H36.6054V46.356C36.6054 47.5907 36.5863 48.2625 36.551 48.2625C36.521 48.2625 36.4965 48.3004 36.4965 48.3467C36.4965 48.393 36.4363 48.491 36.3628 48.5646C36.2892 48.6381 36.1912 48.6983 36.1449 48.6983C36.0986 48.6983 36.0607 48.7228 36.0607 48.7528C36.0607 48.789 30.3956 48.8072 19.1743 48.8072C7.95297 48.8072 2.28784 48.789 2.28784 48.7528C2.28784 48.7228 2.24998 48.6983 2.20368 48.6983C2.09468 48.6983 1.85206 48.4557 1.85206 48.3467C1.85206 48.3004 1.82755 48.2625 1.79759 48.2625C1.76136 48.2625 1.74312 40.5638 1.74312 25.2752C1.74312 9.98658 1.76136 2.28784 1.79759 2.28784C1.82755 2.28784 1.85206 2.24998 1.85206 2.20368C1.85206 2.15738 1.91225 2.05933 1.98579 1.98579C2.05933 1.91225 2.15738 1.85206 2.20368 1.85206C2.24998 1.85206 2.28784 1.82755 2.28784 1.79759C2.28784 1.76142 6.59116 1.74312 15.0888 1.74312H27.8899V5.06593ZM32.4929 5.85567C34.0358 7.39849 35.2981 8.67315 35.2981 8.68823C35.2981 8.70327 34.146 8.71558 32.7379 8.71558C31.0674 8.71558 30.1777 8.69662 30.1777 8.66111C30.1777 8.63115 30.1398 8.60663 30.0935 8.60663C29.9845 8.60663 29.7419 8.36401 29.7419 8.25502C29.7419 8.20871 29.7174 8.17086 29.6874 8.17086C29.6519 8.17086 29.633 7.28116 29.633 5.61065C29.633 4.20254 29.6453 3.05045 29.6603 3.05045C29.6754 3.05045 30.9501 4.3128 32.4929 5.85567ZM11.6571 4.41226C11.6571 4.44222 11.5835 4.46673 11.4937 4.46673C11.4038 4.46673 11.3303 4.49125 11.3303 4.52121C11.3303 4.55117 11.2621 4.57568 11.1789 4.57568C11.09 4.57568 10.9951 4.62067 10.9489 4.68462C10.9057 4.74454 10.8386 4.79357 10.7997 4.79357C10.7609 4.79357 10.5701 4.95246 10.376 5.1466C10.1818 5.3408 10.0229 5.53151 10.0229 5.5704C10.0229 5.60924 9.97389 5.6764 9.91397 5.7196C9.85002 5.76574 9.80503 5.86063 9.80503 5.94953C9.80503 6.03276 9.78051 6.10091 9.75055 6.10091C9.72059 6.10091 9.69608 6.17444 9.69608 6.26432C9.69608 6.3542 9.67157 6.42774 9.64161 6.42774C9.6056 6.42774 9.58714 8.73372 9.58714 13.2368V20.0458H9.42372C9.33384 20.0458 9.2603 20.0703 9.2603 20.1003C9.2603 20.1303 9.22244 20.1548 9.17614 20.1548C9.06714 20.1548 8.82452 20.3974 8.82452 20.5064C8.82452 20.5527 8.80001 20.5906 8.77005 20.5906C8.73976 20.5906 8.71558 20.7358 8.71558 20.9174C8.71558 21.0989 8.73976 21.2442 8.77005 21.2442C8.80001 21.2442 8.82452 21.2821 8.82452 21.3284C8.82452 21.4374 9.06714 21.68 9.17614 21.68C9.22244 21.68 9.2603 21.7045 9.2603 21.7345C9.2603 21.7706 12.6013 21.7889 19.1743 21.7889C25.7473 21.7889 29.0882 21.7706 29.0882 21.7345C29.0882 21.7045 29.1261 21.68 29.1724 21.68C29.2814 21.68 29.524 21.4374 29.524 21.3284C29.524 21.2821 29.5485 21.2442 29.5785 21.2442C29.6088 21.2442 29.633 21.0989 29.633 20.9174C29.633 20.7358 29.6088 20.5906 29.5785 20.5906C29.5485 20.5906 29.524 20.5527 29.524 20.5064C29.524 20.3974 29.2814 20.1548 29.1724 20.1548C29.1261 20.1548 29.0882 20.1303 29.0882 20.1003C29.0882 20.0703 29.0147 20.0458 28.9248 20.0458H28.7614V17.5946C28.7614 15.9967 28.7425 15.1433 28.7069 15.1433C28.677 15.1433 28.6525 15.0698 28.6525 14.9799C28.6525 14.89 28.628 14.8165 28.598 14.8165C28.568 14.8165 28.5435 14.7483 28.5435 14.6651C28.5435 14.5762 28.4985 14.4813 28.4346 14.4352C28.3747 14.392 28.3256 14.3248 28.3256 14.286C28.3256 14.1939 27.6409 13.5091 27.5488 13.5091C27.51 13.5091 27.4428 13.4601 27.3996 13.4002C27.3535 13.3363 27.2586 13.2913 27.1697 13.2913C27.0864 13.2913 27.0183 13.2667 27.0183 13.2368C27.0183 13.2068 26.9448 13.1823 26.8549 13.1823C26.765 13.1823 26.6915 13.1578 26.6915 13.1278C26.6915 13.0952 26.4736 13.0734 26.1467 13.0734C25.8199 13.0734 25.602 13.0952 25.602 13.1278C25.602 13.1578 25.5285 13.1823 25.4386 13.1823C25.3487 13.1823 25.2752 13.2068 25.2752 13.2368C25.2752 13.2667 25.207 13.2913 25.1238 13.2913C25.0349 13.2913 24.94 13.3363 24.8939 13.4002C24.8507 13.4601 24.7835 13.5091 24.7447 13.5091C24.6526 13.5091 23.9678 14.1939 23.9678 14.286C23.9678 14.3248 23.9188 14.392 23.8589 14.4352C23.7949 14.4813 23.75 14.5762 23.75 14.6651C23.75 14.7483 23.7254 14.8165 23.6955 14.8165C23.6655 14.8165 23.641 14.89 23.641 14.9799C23.641 15.0698 23.6165 15.1433 23.5865 15.1433C23.551 15.1433 23.5321 15.9967 23.5321 17.5946V20.0458H22.6605H21.7889V15.4157C21.7889 12.3652 21.7704 10.7855 21.7345 10.7855C21.7045 10.7855 21.68 10.712 21.68 10.6221C21.68 10.5322 21.6555 10.4587 21.6255 10.4587C21.5956 10.4587 21.5711 10.3905 21.5711 10.3073C21.5711 10.2184 21.5261 10.1235 21.4621 10.0774C21.4022 10.0342 21.3532 9.96703 21.3532 9.92819C21.3532 9.83608 20.6685 9.15136 20.5763 9.15136C20.5375 9.15136 20.4703 9.10233 20.4271 9.04241C20.381 8.97846 20.2861 8.93347 20.1972 8.93347C20.114 8.93347 20.0458 8.90896 20.0458 8.879C20.0458 8.84904 19.9723 8.82452 19.8824 8.82452C19.7925 8.82452 19.719 8.80001 19.719 8.77005C19.719 8.73737 19.5011 8.71558 19.1743 8.71558C18.8474 8.71558 18.6295 8.73737 18.6295 8.77005C18.6295 8.80001 18.556 8.82452 18.4661 8.82452C18.3763 8.82452 18.3027 8.84904 18.3027 8.879C18.3027 8.90896 18.2346 8.93347 18.1513 8.93347C18.0624 8.93347 17.9675 8.97846 17.9214 9.04241C17.8782 9.10233 17.811 9.15136 17.7722 9.15136C17.6801 9.15136 16.9954 9.83608 16.9954 9.92819C16.9954 9.96703 16.9464 10.0342 16.8864 10.0774C16.8225 10.1235 16.7775 10.2184 16.7775 10.3073C16.7775 10.3905 16.753 10.4587 16.723 10.4587C16.6931 10.4587 16.6685 10.5322 16.6685 10.6221C16.6685 10.712 16.644 10.7855 16.6141 10.7855C16.5782 10.7855 16.5596 12.3652 16.5596 15.4157V20.0458H15.688H14.8165V13.2368C14.8165 8.73372 14.798 6.42774 14.762 6.42774C14.7321 6.42774 14.7075 6.3542 14.7075 6.26432C14.7075 6.17444 14.683 6.10091 14.6531 6.10091C14.6231 6.10091 14.5986 6.03276 14.5986 5.94953C14.5986 5.86063 14.5536 5.76574 14.4896 5.7196C14.4297 5.6764 14.3807 5.60924 14.3807 5.5704C14.3807 5.47829 13.696 4.79357 13.6039 4.79357C13.565 4.79357 13.4979 4.74454 13.4547 4.68462C13.4085 4.62067 13.3136 4.57568 13.2247 4.57568C13.1415 4.57568 13.0734 4.55117 13.0734 4.52121C13.0734 4.49125 12.9998 4.46673 12.91 4.46673C12.8201 4.46673 12.7465 4.44222 12.7465 4.41226C12.7465 4.37958 12.5286 4.35779 12.2018 4.35779C11.875 4.35779 11.6571 4.37958 11.6571 4.41226ZM12.5286 6.15538C12.5286 6.18534 12.5665 6.20985 12.6128 6.20985C12.7218 6.20985 12.9644 6.45247 12.9644 6.56147C12.9644 6.60777 12.9889 6.64563 13.0189 6.64563C13.0549 6.64563 13.0734 8.91533 13.0734 13.3457V20.0458H12.2018H11.3303V13.3457C11.3303 8.91533 11.3487 6.64563 11.3847 6.64563C11.4147 6.64563 11.4392 6.60777 11.4392 6.56147C11.4392 6.45247 11.6818 6.20985 11.7908 6.20985C11.8371 6.20985 11.875 6.18534 11.875 6.15538C11.875 6.12509 12.0203 6.10091 12.2018 6.10091C12.3834 6.10091 12.5286 6.12509 12.5286 6.15538ZM19.5011 10.5132C19.5011 10.5431 19.539 10.5676 19.5853 10.5676C19.6943 10.5676 19.9369 10.8103 19.9369 10.9193C19.9369 10.9656 19.9614 11.0034 19.9914 11.0034C20.0273 11.0034 20.0458 12.5468 20.0458 15.5246V20.0458H19.1743H18.3027V15.5246C18.3027 12.5468 18.3213 11.0034 18.3572 11.0034C18.3871 11.0034 18.4117 10.9656 18.4117 10.9193C18.4117 10.8103 18.6543 10.5676 18.7633 10.5676C18.8096 10.5676 18.8474 10.5431 18.8474 10.5132C18.8474 10.4829 18.9927 10.4587 19.1743 10.4587C19.3558 10.4587 19.5011 10.4829 19.5011 10.5132ZM26.4736 14.871C26.4736 14.9009 26.5114 14.9254 26.5577 14.9254C26.6667 14.9254 26.9093 15.168 26.9093 15.277C26.9093 15.3233 26.9339 15.3612 26.9638 15.3612C26.9993 15.3612 27.0183 16.1783 27.0183 17.7035V20.0458H26.1467H25.2752V17.7035C25.2752 16.1783 25.2942 15.3612 25.3297 15.3612C25.3596 15.3612 25.3841 15.3233 25.3841 15.277C25.3841 15.168 25.6267 14.9254 25.7357 14.9254C25.782 14.9254 25.8199 14.9009 25.8199 14.871C25.8199 14.8407 25.9652 14.8165 26.1467 14.8165C26.3283 14.8165 26.4736 14.8407 26.4736 14.871ZM43.7958 25.7654C43.7958 25.7954 43.7468 25.8199 43.6868 25.8199C43.6269 25.8199 43.5779 25.8444 43.5779 25.8744C43.5779 25.9043 43.5394 25.9288 43.4923 25.9288C43.4452 25.9288 43.3717 25.9639 43.3289 26.0067C43.2861 26.0494 43.2511 26.123 43.2511 26.1701C43.2511 26.2172 43.2265 26.2557 43.1966 26.2557C43.1655 26.2557 43.1421 26.4191 43.1421 26.637C43.1421 26.8549 43.1655 27.0183 43.1966 27.0183C43.2265 27.0183 43.2511 27.0619 43.2511 27.1152C43.2511 27.1685 43.3001 27.2475 43.36 27.2907C43.4199 27.3339 43.4689 27.4074 43.4689 27.4541C43.4689 27.5008 43.518 27.5743 43.5779 27.6175C43.6378 27.6607 43.6868 27.7285 43.6868 27.7682C43.6868 27.8676 43.9355 28.1077 44.0385 28.1077C44.0848 28.1077 44.1226 28.1323 44.1226 28.1622C44.1226 28.1925 44.2679 28.2167 44.4495 28.2167C44.631 28.2167 44.7763 28.1925 44.7763 28.1622C44.7763 28.1323 44.8141 28.1077 44.8604 28.1077C44.9694 28.1077 45.2121 27.8651 45.2121 27.7561C45.2121 27.7098 45.2366 27.672 45.2665 27.672C45.2968 27.672 45.321 27.5267 45.321 27.3451C45.321 27.1636 45.2968 27.0183 45.2665 27.0183C45.2366 27.0183 45.2121 26.9693 45.2121 26.9093C45.2121 26.8494 45.1876 26.8004 45.1576 26.8004C45.1276 26.8004 45.1031 26.7612 45.1031 26.7133C45.1031 26.6654 45.0296 26.5575 44.9397 26.4736C44.8498 26.3896 44.7763 26.2932 44.7763 26.2592C44.7763 26.1394 44.4013 25.8199 44.2606 25.8199C44.1847 25.8199 44.1226 25.7954 44.1226 25.7654C44.1226 25.7355 44.0491 25.711 43.9592 25.711C43.8693 25.711 43.7958 25.7355 43.7958 25.7654ZM38.6345 27.6477C38.4772 27.8097 38.3485 27.9696 38.3485 28.0031C38.3485 28.0366 38.275 28.1327 38.1851 28.2167C38.0952 28.3006 38.0217 28.4031 38.0217 28.4444C38.0217 28.4857 37.9727 28.5548 37.9128 28.598C37.8528 28.6412 37.8038 28.7103 37.8038 28.7516C37.8038 28.7928 37.7303 28.8954 37.6404 28.9793C37.5505 29.0632 37.477 29.1658 37.477 29.207C37.477 29.2483 37.428 29.3174 37.368 29.3606C37.3081 29.4038 37.2591 29.4729 37.2591 29.5142C37.2591 29.5555 37.1856 29.658 37.0957 29.7419C37.0058 29.8259 36.9323 29.9239 36.9323 29.9598C36.9323 29.9957 36.8587 30.0938 36.7688 30.1777C36.679 30.2616 36.6054 30.3642 36.6054 30.4054C36.6054 30.4467 36.5564 30.5158 36.4965 30.559C36.4366 30.6022 36.3875 30.6713 36.3875 30.7126C36.3875 30.7538 36.314 30.8564 36.2241 30.9403C36.1342 31.0242 36.0607 31.1268 36.0607 31.168C36.0607 31.2093 36.0117 31.2784 35.9518 31.3216C35.8918 31.3648 35.8428 31.4339 35.8428 31.4752C35.8428 31.5165 35.7693 31.619 35.6794 31.7029C35.5895 31.7869 35.516 31.8849 35.516 31.9208C35.516 31.9567 35.4424 32.0548 35.3526 32.1387C35.2627 32.2226 35.1892 32.3252 35.1892 32.3664C35.1892 32.4077 35.1401 32.4768 35.0802 32.52C35.0203 32.5632 34.9713 32.6323 34.9713 32.6736C34.9713 32.7149 34.8977 32.8174 34.8078 32.9013C34.718 32.9853 34.6444 33.0878 34.6444 33.129C34.6444 33.1703 34.5954 33.2394 34.5355 33.2826C34.4756 33.3258 34.4265 33.3949 34.4265 33.4362C34.4265 33.4775 34.353 33.58 34.2631 33.6639C34.1732 33.7479 34.0997 33.8459 34.0997 33.8818C34.0997 33.9177 34.0262 34.0158 33.9363 34.0997C33.8464 34.1836 33.7729 34.2862 33.7729 34.3274C33.7729 34.3687 33.7238 34.4378 33.6639 34.481C33.604 34.5242 33.555 34.5933 33.555 34.6346C33.555 34.6759 33.4814 34.7784 33.3916 34.8623C33.3017 34.9463 33.2281 35.0488 33.2281 35.09C33.2281 35.1313 33.1791 35.2004 33.1192 35.2436C33.0593 35.2868 33.0103 35.3559 33.0103 35.3972C33.0103 35.4385 32.9367 35.541 32.8468 35.6249C32.757 35.7089 32.6834 35.8069 32.6834 35.8428C32.6834 35.8787 32.6099 35.9768 32.52 36.0607C32.4301 36.1446 32.3566 36.2472 32.3566 36.2884C32.3566 36.3297 32.3076 36.3988 32.2476 36.442C32.1877 36.4852 32.1387 36.5543 32.1387 36.5956C32.1387 36.6369 32.0652 36.7394 31.9753 36.8233C31.8854 36.9073 31.8119 37.0098 31.8119 37.051C31.8119 37.0923 31.7628 37.1614 31.7029 37.2046C31.643 37.2478 31.594 37.3214 31.594 37.368C31.594 37.4147 31.5449 37.4883 31.485 37.5315C31.4251 37.5747 31.3761 37.6536 31.3761 37.7069C31.3761 37.7602 31.3516 37.8038 31.3216 37.8038C31.2917 37.8038 31.2671 37.9264 31.2671 38.0762C31.2671 38.226 31.2917 38.3485 31.3216 38.3485C31.3516 38.3485 31.3761 38.3864 31.3761 38.4327C31.3761 38.5417 31.6187 38.7843 31.7277 38.7843C31.774 38.7843 31.8119 38.8088 31.8119 38.8388C31.8119 38.8696 31.9667 38.8933 32.1674 38.8933C32.5158 38.8933 32.5277 38.8884 32.7665 38.6496C32.9006 38.5156 33.0103 38.3788 33.0103 38.3457C33.0103 38.3126 33.1083 38.1913 33.2281 38.0762C33.348 37.961 33.446 37.8336 33.446 37.7929C33.446 37.7522 33.4951 37.6836 33.555 37.6404C33.6149 37.5972 33.6639 37.5281 33.6639 37.4868C33.6639 37.4456 33.7375 37.343 33.8273 37.2591C33.9172 37.1752 33.9908 37.0726 33.9908 37.0314C33.9908 36.9901 34.0398 36.921 34.0997 36.8778C34.1596 36.8346 34.2086 36.7655 34.2086 36.7242C34.2086 36.6829 34.2822 36.5804 34.3721 36.4965C34.4619 36.4125 34.5355 36.3145 34.5355 36.2786C34.5355 36.2427 34.609 36.1446 34.6989 36.0607C34.7888 35.9768 34.8623 35.8742 34.8623 35.833C34.8623 35.7917 34.9113 35.7226 34.9713 35.6794C35.0312 35.6362 35.0802 35.5671 35.0802 35.5258C35.0802 35.4846 35.1537 35.382 35.2436 35.2981C35.3335 35.2142 35.407 35.1116 35.407 35.0704C35.407 35.0291 35.4561 34.96 35.516 34.9168C35.5759 34.8736 35.6249 34.8045 35.6249 34.7632C35.6249 34.7219 35.6985 34.6194 35.7883 34.5355C35.8782 34.4515 35.9518 34.349 35.9518 34.3078C35.9518 34.2665 36.0008 34.1974 36.0607 34.1542C36.1206 34.111 36.1697 34.0419 36.1697 34.0006C36.1697 33.9593 36.2432 33.8568 36.3331 33.7729C36.423 33.6889 36.4965 33.5909 36.4965 33.555C36.4965 33.5191 36.57 33.421 36.6599 33.3371C36.7498 33.2531 36.8233 33.1506 36.8233 33.1094C36.8233 33.0681 36.8723 32.999 36.9323 32.9558C36.9922 32.9126 37.0412 32.8435 37.0412 32.8022C37.0412 32.7609 37.1147 32.6584 37.2046 32.5745C37.2945 32.4905 37.368 32.388 37.368 32.3468C37.368 32.3055 37.4171 32.2364 37.477 32.1932C37.5369 32.15 37.5859 32.0808 37.5859 32.0396C37.5859 31.9983 37.6595 31.8958 37.7494 31.8119C37.8392 31.7279 37.9128 31.6254 37.9128 31.5842C37.9128 31.5429 37.9618 31.4738 38.0217 31.4306C38.0816 31.3874 38.1307 31.3182 38.1307 31.2769C38.1307 31.2357 38.2042 31.1332 38.2941 31.0492C38.384 30.9653 38.4575 30.8673 38.4575 30.8314C38.4575 30.7955 38.531 30.6974 38.6209 30.6135C38.7108 30.5295 38.7843 30.427 38.7843 30.3858C38.7843 30.3445 38.8334 30.2754 38.8933 30.2322C38.9532 30.189 39.0022 30.1198 39.0022 30.0786C39.0022 30.0373 39.0758 29.9348 39.1656 29.8509C39.2555 29.7669 39.329 29.6644 39.329 29.6232C39.329 29.5819 39.3781 29.5127 39.438 29.4696C39.4979 29.4264 39.5469 29.3572 39.5469 29.3159C39.5469 29.2747 39.6205 29.1722 39.7104 29.0882C39.8002 29.0043 39.8738 28.9018 39.8738 28.8605C39.8738 28.8193 39.9228 28.7501 39.9827 28.7069C40.0578 28.6528 40.0917 28.5659 40.0917 28.4271C40.0917 28.3164 40.1223 28.2115 40.1598 28.194C40.2142 28.1686 40.2142 28.1558 40.1598 28.1305C40.1223 28.113 40.0917 28.0388 40.0917 27.9656C40.0917 27.8806 40.0036 27.7444 39.848 27.5888C39.6097 27.3505 39.5967 27.3452 39.2624 27.3492C38.9221 27.3532 38.9191 27.3547 38.6345 27.6477ZM30.8314 27.5085C30.8314 27.5385 30.7578 27.563 30.6679 27.563C30.5781 27.563 30.5045 27.5875 30.5045 27.6175C30.5045 27.6475 30.4555 27.672 30.3956 27.672C30.3357 27.672 30.2866 27.6965 30.2866 27.7264C30.2866 27.7564 30.2376 27.7809 30.1777 27.7809C30.1178 27.7809 30.0687 27.8054 30.0687 27.8354C30.0687 27.8653 30.0314 27.8899 29.9858 27.8899C29.878 27.8899 29.3061 28.4617 29.3061 28.5696C29.3061 28.6152 29.2816 28.6525 29.2517 28.6525C29.2217 28.6525 29.1972 28.7015 29.1972 28.7614C29.1972 28.8213 29.1727 28.8704 29.1427 28.8704C29.1128 28.8704 29.0882 28.9194 29.0882 28.9793C29.0882 29.0392 29.0637 29.0882 29.0338 29.0882C29.0038 29.0882 28.9793 29.1863 28.9793 29.3061C28.9793 29.426 28.9548 29.524 28.9248 29.524C28.8925 29.524 28.8704 29.7238 28.8704 30.0143C28.8704 30.3048 28.8925 30.5045 28.9248 30.5045C28.9548 30.5045 28.9793 30.6026 28.9793 30.7224C28.9793 30.8423 29.0038 30.9403 29.0338 30.9403C29.0637 30.9403 29.0882 31.0084 29.0882 31.0917C29.0882 31.1806 29.1332 31.2755 29.1972 31.3216C29.2571 31.3648 29.3061 31.4383 29.3061 31.485C29.3061 31.5317 29.3552 31.6052 29.4151 31.6484C29.475 31.6916 29.524 31.7595 29.524 31.7991C29.524 31.8926 29.7701 32.1387 29.8636 32.1387C29.9033 32.1387 29.9711 32.1877 30.0143 32.2476C30.0575 32.3076 30.1364 32.3566 30.1897 32.3566C30.243 32.3566 30.2866 32.3811 30.2866 32.4111C30.2866 32.441 30.3357 32.4655 30.3956 32.4655C30.4555 32.4655 30.5045 32.49 30.5045 32.52C30.5045 32.55 30.5781 32.5745 30.6679 32.5745C30.7578 32.5745 30.8314 32.599 30.8314 32.6289C30.8314 32.6616 31.0492 32.6834 31.3761 32.6834C31.7029 32.6834 31.9208 32.6616 31.9208 32.6289C31.9208 32.599 32.0189 32.5745 32.1387 32.5745C32.2585 32.5745 32.3566 32.55 32.3566 32.52C32.3566 32.49 32.4056 32.4655 32.4655 32.4655C32.5255 32.4655 32.5745 32.441 32.5745 32.4111C32.5745 32.3811 32.6235 32.3566 32.6834 32.3566C32.7433 32.3566 32.7924 32.3321 32.7924 32.3021C32.7924 32.2722 32.8296 32.2476 32.8751 32.2476C32.9828 32.2476 33.6639 31.5665 33.6639 31.4588C33.6639 31.4133 33.6884 31.3761 33.7184 31.3761C33.7484 31.3761 33.7729 31.3271 33.7729 31.2671C33.7729 31.2072 33.7974 31.1582 33.8273 31.1582C33.8573 31.1582 33.8818 31.1092 33.8818 31.0492C33.8818 30.9893 33.9063 30.9403 33.9363 30.9403C33.9662 30.9403 33.9908 30.8423 33.9908 30.7224C33.9908 30.6026 34.0153 30.5045 34.0452 30.5045C34.077 30.5045 34.0997 30.323 34.0997 30.0687C34.0997 29.8145 34.077 29.633 34.0452 29.633C34.0153 29.633 33.9908 29.5349 33.9908 29.4151C33.9908 29.2952 33.9662 29.1972 33.9363 29.1972C33.9063 29.1972 33.8818 29.129 33.8818 29.0458C33.8818 28.9569 33.8368 28.862 33.7729 28.8159C33.7129 28.7727 33.6639 28.7056 33.6639 28.6668C33.6639 28.5677 32.8664 27.7809 32.766 27.7809C32.7206 27.7809 32.6834 27.7564 32.6834 27.7264C32.6834 27.6965 32.6344 27.672 32.5745 27.672C32.5146 27.672 32.4655 27.6475 32.4655 27.6175C32.4655 27.5875 32.3675 27.563 32.2476 27.563C32.1278 27.563 32.0298 27.5385 32.0298 27.5085C32.0298 27.4755 31.7937 27.4541 31.4306 27.4541C31.0674 27.4541 30.8314 27.4755 30.8314 27.5085ZM31.8119 29.2517C31.8119 29.2816 31.8497 29.3061 31.896 29.3061C31.9423 29.3061 32.0404 29.3663 32.1139 29.4399C32.1875 29.5134 32.2476 29.6115 32.2476 29.6578C32.2476 29.7041 32.2722 29.7419 32.3021 29.7419C32.3324 29.7419 32.3566 29.8872 32.3566 30.0687C32.3566 30.2503 32.3324 30.3956 32.3021 30.3956C32.2722 30.3956 32.2476 30.4334 32.2476 30.4797C32.2476 30.526 32.1875 30.6241 32.1139 30.6976C32.0404 30.7712 31.9423 30.8314 31.896 30.8314C31.8497 30.8314 31.8119 30.8559 31.8119 30.8858C31.8119 30.9158 31.6893 30.9403 31.5395 30.9403C31.3897 30.9403 31.2671 30.9158 31.2671 30.8858C31.2671 30.8559 31.2181 30.8314 31.1582 30.8314C31.0983 30.8314 31.0492 30.8068 31.0492 30.7769C31.0492 30.7469 31.0002 30.7224 30.9403 30.7224C30.8677 30.7224 30.8314 30.6861 30.8314 30.6135C30.8314 30.5536 30.8068 30.5045 30.7769 30.5045C30.7469 30.5045 30.7224 30.4555 30.7224 30.3956C30.7224 30.3357 30.6979 30.2866 30.6679 30.2866C30.638 30.2866 30.6135 30.1641 30.6135 30.0143C30.6135 29.8645 30.638 29.7419 30.6679 29.7419C30.6979 29.7419 30.7224 29.7041 30.7224 29.6578C30.7224 29.6115 30.7826 29.5134 30.8561 29.4399C30.9297 29.3663 31.0277 29.3061 31.074 29.3061C31.1203 29.3061 31.1582 29.2816 31.1582 29.2517C31.1582 29.2214 31.3035 29.1972 31.485 29.1972C31.6666 29.1972 31.8119 29.2214 31.8119 29.2517ZM39.438 33.6095C39.438 33.6394 39.3645 33.6639 39.2746 33.6639C39.1847 33.6639 39.1112 33.6884 39.1112 33.7184C39.1112 33.7484 39.043 33.7729 38.9598 33.7729C38.8709 33.7729 38.776 33.8179 38.7299 33.8818C38.6867 33.9417 38.6195 33.9908 38.5807 33.9908C38.5418 33.9908 38.3511 34.1497 38.1569 34.3438C37.9627 34.538 37.8038 34.7287 37.8038 34.7676C37.8038 34.8064 37.7548 34.8736 37.6949 34.9168C37.6309 34.9629 37.5859 35.0578 37.5859 35.1467C37.5859 35.2299 37.5614 35.2981 37.5315 35.2981C37.5015 35.2981 37.477 35.3716 37.477 35.4615C37.477 35.5514 37.4525 35.6249 37.4225 35.6249C37.3898 35.6249 37.368 35.8428 37.368 36.1697C37.368 36.4965 37.3898 36.7144 37.4225 36.7144C37.4525 36.7144 37.477 36.7879 37.477 36.8778C37.477 36.9677 37.5015 37.0412 37.5315 37.0412C37.5614 37.0412 37.5859 37.1147 37.5859 37.2046C37.5859 37.2945 37.6104 37.368 37.6404 37.368C37.6704 37.368 37.6949 37.4051 37.6949 37.4505C37.6949 37.558 38.5943 38.4575 38.7019 38.4575C38.7472 38.4575 38.7843 38.482 38.7843 38.512C38.7843 38.5419 38.8579 38.5664 38.9477 38.5664C39.0376 38.5664 39.1112 38.591 39.1112 38.6209C39.1112 38.6509 39.1847 38.6754 39.2746 38.6754C39.3645 38.6754 39.438 38.6999 39.438 38.7299C39.438 38.7625 39.6559 38.7843 39.9827 38.7843C40.3096 38.7843 40.5274 38.7625 40.5274 38.7299C40.5274 38.6999 40.601 38.6754 40.6909 38.6754C40.7807 38.6754 40.8543 38.6509 40.8543 38.6209C40.8543 38.591 40.9224 38.5664 41.0057 38.5664C41.0946 38.5664 41.1894 38.5214 41.2356 38.4575C41.2788 38.3976 41.3459 38.3485 41.3848 38.3485C41.4769 38.3485 42.1616 37.6638 42.1616 37.5717C42.1616 37.5329 42.2106 37.4657 42.2706 37.4225C42.3345 37.3764 42.3795 37.2815 42.3795 37.1926C42.3795 37.1094 42.404 37.0412 42.434 37.0412C42.4639 37.0412 42.4884 36.9677 42.4884 36.8778C42.4884 36.7879 42.513 36.7144 42.5429 36.7144C42.5756 36.7144 42.5974 36.4965 42.5974 36.1697C42.5974 35.8428 42.5756 35.6249 42.5429 35.6249C42.513 35.6249 42.4884 35.5514 42.4884 35.4615C42.4884 35.3716 42.4639 35.2981 42.434 35.2981C42.404 35.2981 42.3795 35.2299 42.3795 35.1467C42.3795 35.0578 42.3345 34.9629 42.2706 34.9168C42.2106 34.8736 42.1616 34.8064 42.1616 34.7676C42.1616 34.6755 41.4769 33.9908 41.3848 33.9908C41.3459 33.9908 41.2788 33.9417 41.2356 33.8818C41.1894 33.8179 41.0946 33.7729 41.0057 33.7729C40.9224 33.7729 40.8543 33.7484 40.8543 33.7184C40.8543 33.6884 40.7807 33.6639 40.6909 33.6639C40.601 33.6639 40.5274 33.6394 40.5274 33.6095C40.5274 33.5768 40.3096 33.555 39.9827 33.555C39.6559 33.555 39.438 33.5768 39.438 33.6095ZM40.0917 35.3526C40.0917 35.3825 40.1538 35.407 40.2296 35.407C40.4137 35.407 40.7453 35.7387 40.7453 35.9227C40.7453 35.9986 40.7698 36.0607 40.7998 36.0607C40.8298 36.0607 40.8543 36.1342 40.8543 36.2241C40.8543 36.314 40.8298 36.3875 40.7998 36.3875C40.7698 36.3875 40.7453 36.4499 40.7453 36.5262C40.7453 36.6024 40.6851 36.725 40.6116 36.7985C40.5381 36.8721 40.4155 36.9323 40.3392 36.9323C40.263 36.9323 40.2006 36.9568 40.2006 36.9867C40.2006 37.0167 40.1026 37.0412 39.9827 37.0412C39.8629 37.0412 39.7648 37.0167 39.7648 36.9867C39.7648 36.9568 39.7158 36.9323 39.6559 36.9323C39.596 36.9323 39.5469 36.9078 39.5469 36.8778C39.5469 36.8478 39.4979 36.8233 39.438 36.8233C39.3654 36.8233 39.329 36.787 39.329 36.7144C39.329 36.6545 39.3045 36.6054 39.2746 36.6054C39.2446 36.6054 39.2201 36.5564 39.2201 36.4965C39.2201 36.4366 39.1956 36.3875 39.1656 36.3875C39.1357 36.3875 39.1112 36.265 39.1112 36.1152C39.1112 35.9654 39.1357 35.8428 39.1656 35.8428C39.1956 35.8428 39.2201 35.8043 39.2201 35.7572C39.2201 35.7101 39.2551 35.6366 39.2979 35.5938C39.3407 35.551 39.4142 35.516 39.4614 35.516C39.5084 35.516 39.5469 35.4915 39.5469 35.4615C39.5469 35.4316 39.596 35.407 39.6559 35.407C39.7158 35.407 39.7648 35.3825 39.7648 35.3526C39.7648 35.3226 39.8384 35.2981 39.9282 35.2981C40.0181 35.2981 40.0917 35.3226 40.0917 35.3526ZM46.4923 42.9513C47.7056 44.1646 48.6983 45.1941 48.6983 45.2391C48.6983 45.2842 48.7228 45.321 48.7528 45.321C48.7827 45.321 48.8072 45.4191 48.8072 45.5389C48.8072 45.6587 48.7827 45.7568 48.7528 45.7568C48.7228 45.7568 48.6983 45.8058 48.6983 45.8657C48.6983 45.9257 48.6738 45.9747 48.6438 45.9747C48.6139 45.9747 48.5894 46.0132 48.5894 46.0603C48.5894 46.1703 48.4582 46.3015 48.3481 46.3015C48.301 46.3015 48.2625 46.326 48.2625 46.356C48.2625 46.3863 48.1172 46.4105 47.9357 46.4105C47.7541 46.4105 47.6088 46.3863 47.6088 46.356C47.6088 46.326 47.572 46.3015 47.527 46.3015C47.4819 46.3015 46.4522 45.3086 45.2388 44.0952L43.0324 41.8888L43.5911 41.3214C43.8984 41.0093 44.1806 40.752 44.2181 40.7496C44.2556 40.7473 45.2791 41.738 46.4923 42.9513Z" fill="#EAAE13"/>
</svg>
