<svg width="32" height="28" viewBox="0 0 32 28" fill="none" xmlns="http://www.w3.org/2000/svg">
<path fill-rule="evenodd" clip-rule="evenodd" d="M1.82766 0.807599C1.82766 0.846261 1.6695 0.877894 1.47619 0.877894C1.28288 0.877894 1.12471 0.909526 1.12471 0.948188C1.12471 0.986851 1.07642 1.01848 1.01744 1.01848C0.877909 1.01848 0.281178 1.61521 0.281178 1.75475C0.281178 1.81373 0.249546 1.86202 0.210884 1.86202C0.172222 1.86202 0.140589 1.95692 0.140589 2.0729C0.140589 2.18889 0.108957 2.28379 0.0702946 2.28379C0.0237596 2.28379 0 5.49393 0 11.7736C0 18.0532 0.0237596 21.2633 0.0702946 21.2633C0.108957 21.2633 0.140589 21.3582 0.140589 21.4742C0.140589 21.5902 0.172222 21.6851 0.210884 21.6851C0.249546 21.6851 0.281178 21.7336 0.281178 21.7929C0.281178 21.9328 0.736406 22.388 0.876363 22.388C0.935621 22.388 0.984124 22.4197 0.984124 22.4583C0.984124 22.497 1.04739 22.5286 1.12471 22.5286C1.20204 22.5286 1.2653 22.5603 1.2653 22.5989C1.2653 22.6452 3.23355 22.6692 7.02946 22.6692H12.7936V23.0207C12.7936 23.214 12.762 23.3722 12.7233 23.3722C12.6832 23.3722 12.653 23.583 12.653 23.8642C12.653 24.1454 12.6229 24.3563 12.5827 24.3563C12.5441 24.3563 12.5124 24.5145 12.5124 24.7078C12.5124 24.9011 12.4808 25.0592 12.4421 25.0592C12.4035 25.0592 12.3718 25.1077 12.3718 25.167C12.3718 25.307 11.9166 25.7622 11.7767 25.7622C11.7174 25.7622 11.6689 25.7938 11.6689 25.8325C11.6689 25.8742 11.4111 25.9028 11.0363 25.9028C10.6614 25.9028 10.4036 25.9314 10.4036 25.9731C10.4036 26.0117 10.3403 26.0434 10.263 26.0434C10.1693 26.0434 10.1224 26.0902 10.1224 26.1839C10.1224 26.2613 10.0908 26.3245 10.0521 26.3245C10.0135 26.3245 9.98183 26.3878 9.98183 26.4651C9.98183 26.5425 10.0135 26.6057 10.0521 26.6057C10.0908 26.6057 10.1224 26.6546 10.1224 26.7143C10.1224 26.7741 10.2001 26.9006 10.295 26.9955L10.4675 27.1681H15.6749H20.8822L21.1258 26.9244C21.3579 26.6923 21.4642 26.3245 21.2993 26.3245C21.2606 26.3245 21.229 26.2613 21.229 26.1839C21.229 26.0902 21.1821 26.0434 21.0884 26.0434C21.0111 26.0434 20.9478 26.0117 20.9478 25.9731C20.9478 25.9314 20.69 25.9028 20.3151 25.9028C19.9403 25.9028 19.6825 25.8742 19.6825 25.8325C19.6825 25.7938 19.634 25.7622 19.5747 25.7622C19.3976 25.7622 18.9795 25.2947 18.9795 25.0967C18.9795 24.9988 18.9479 24.9186 18.9092 24.9186C18.8702 24.9186 18.839 24.7312 18.839 24.4969C18.839 24.2626 18.8077 24.0751 18.7687 24.0751C18.7296 24.0751 18.6984 23.8876 18.6984 23.6533C18.6984 23.4191 18.6672 23.2316 18.6281 23.2316C18.5894 23.2316 18.5578 23.105 18.5578 22.9504V22.6692H24.3922C28.235 22.6692 30.2267 22.6452 30.2267 22.5989C30.2267 22.5603 30.275 22.5286 30.3339 22.5286C30.393 22.5286 30.5828 22.3871 30.7557 22.2141C30.9287 22.0412 31.0702 21.8514 31.0702 21.7924C31.0702 21.7334 31.1018 21.6851 31.1405 21.6851C31.1792 21.6851 31.2108 21.6218 31.2108 21.5445C31.2108 21.4672 31.2424 21.4039 31.2811 21.4039C31.3276 21.4039 31.3514 18.147 31.3514 11.7736C31.3514 5.40016 31.3276 2.1432 31.2811 2.1432C31.2424 2.1432 31.2108 2.06341 31.2108 1.96591C31.2108 1.76712 30.5177 1.01848 30.3337 1.01848C30.2748 1.01848 30.2267 0.986851 30.2267 0.948188C30.2267 0.909526 30.0685 0.877894 29.8752 0.877894C29.6819 0.877894 29.5237 0.846261 29.5237 0.807599C29.5237 0.760994 24.8609 0.737305 15.6757 0.737305C6.49051 0.737305 1.82766 0.760994 1.82766 0.807599ZM29.9135 2.17518L30.0861 2.34768V10.0482V17.7486H15.6757H1.2653V10.0463C1.2653 1.86455 1.25434 2.1432 1.57664 2.1432C1.63737 2.1432 1.68707 2.11156 1.68707 2.0729C1.68707 2.0263 6.4096 2.00261 15.714 2.00261H29.741L29.9135 2.17518ZM30.0861 20.1085C30.0861 21.2436 30.0476 21.4039 29.7748 21.4039C29.714 21.4039 29.6643 21.4355 29.6643 21.4742C29.6643 21.5208 24.9546 21.5445 15.6757 21.5445C6.39681 21.5445 1.68707 21.5208 1.68707 21.4742C1.68707 21.4355 1.63737 21.4039 1.57664 21.4039C1.30382 21.4039 1.2653 21.2436 1.2653 20.1085V19.0139H15.6757H30.0861V20.1085ZM15.2012 19.7537C15.0906 19.8719 15.043 20.009 15.043 20.2096C15.043 20.6046 15.2803 20.8416 15.6757 20.8416C16.0714 20.8416 16.3083 20.6046 16.3083 20.2089C16.3083 19.8045 16.0717 19.5747 15.6613 19.5805C15.4368 19.5838 15.3188 19.6282 15.2012 19.7537ZM17.2925 22.8801C17.2925 22.9961 17.3241 23.091 17.3628 23.091C17.4029 23.091 17.4331 23.3019 17.4331 23.583C17.4331 23.8642 17.4632 24.0751 17.5034 24.0751C17.5424 24.0751 17.5736 24.2626 17.5736 24.4969C17.5736 24.7312 17.6049 24.9186 17.6439 24.9186C17.6826 24.9186 17.7142 25.0452 17.7142 25.1998C17.7142 25.3545 17.7459 25.481 17.7845 25.481C17.8232 25.481 17.8548 25.5443 17.8548 25.6216C17.8548 25.6989 17.8865 25.7622 17.9251 25.7622C17.9638 25.7622 17.9954 25.7938 17.9954 25.8325C17.9954 25.8779 17.1988 25.9028 15.746 25.9028C13.5434 25.9028 13.4966 25.8998 13.4966 25.7622C13.4966 25.6849 13.5282 25.6216 13.5669 25.6216C13.6055 25.6216 13.6372 25.4951 13.6372 25.3404C13.6372 25.1858 13.6688 25.0592 13.7074 25.0592C13.7465 25.0592 13.7777 24.8718 13.7777 24.6375C13.7777 24.4032 13.809 24.2157 13.848 24.2157C13.8871 24.2157 13.9183 24.0282 13.9183 23.7939C13.9183 23.5596 13.9495 23.3722 13.9886 23.3722C14.0273 23.3722 14.0589 23.2601 14.0589 23.1232C14.0589 22.6777 14.0696 22.6748 15.7636 22.6719L17.2925 22.6692V22.8801Z" fill="#69758F"/>
</svg>
