<svg width="51" height="51" viewBox="0 0 51 51" fill="none" xmlns="http://www.w3.org/2000/svg">
<path fill-rule="evenodd" clip-rule="evenodd" d="M24.5841 0.0493656C24.5841 0.0765167 24.473 0.0987312 24.3372 0.0987312C24.2015 0.0987312 24.0904 0.120946 24.0904 0.148097C24.0904 0.175248 24.0015 0.197462 23.8929 0.197462C23.7843 0.197462 23.6955 0.219677 23.6955 0.246828C23.6955 0.273979 23.6288 0.296194 23.5474 0.296194C23.4659 0.296194 23.3993 0.318408 23.3993 0.345559C23.3993 0.37271 23.3326 0.394925 23.2512 0.394925C23.1697 0.394925 23.1031 0.417139 23.1031 0.44429C23.1031 0.471441 23.0587 0.493656 23.0044 0.493656C22.9501 0.493656 22.9056 0.51587 22.9056 0.543021C22.9056 0.570172 22.8612 0.592387 22.8069 0.592387C22.7526 0.592387 22.7082 0.614601 22.7082 0.641753C22.7082 0.668904 22.6686 0.691118 22.6203 0.691118C22.572 0.691118 22.5005 0.735547 22.4613 0.789849C22.4222 0.844151 22.3556 0.888581 22.3132 0.888581C22.2709 0.888581 22.2043 0.93301 22.1651 0.987312C22.126 1.04161 22.0638 1.08604 22.027 1.08604C21.9901 1.08604 21.8746 1.1749 21.7702 1.28351C21.6659 1.39211 21.5561 1.48097 21.5262 1.48097C21.4554 1.48097 20.931 2.00538 20.931 2.07617C20.931 2.10603 20.8421 2.21582 20.7335 2.32018C20.6249 2.42454 20.5361 2.54006 20.5361 2.57693C20.5361 2.61381 20.4917 2.67596 20.4374 2.71511C20.383 2.75425 20.3386 2.82578 20.3386 2.87411C20.3386 2.92239 20.3164 2.96194 20.2893 2.96194C20.2621 2.96194 20.2399 3.00636 20.2399 3.06067C20.2399 3.11497 20.2177 3.1594 20.1905 3.1594C20.1634 3.1594 20.1412 3.20383 20.1412 3.25813C20.1412 3.31243 20.1189 3.35686 20.0918 3.35686C20.0646 3.35686 20.0424 3.40129 20.0424 3.45559C20.0424 3.50989 20.0202 3.55432 19.9931 3.55432C19.9659 3.55432 19.9437 3.59875 19.9437 3.65305C19.9437 3.70736 19.9215 3.75178 19.8943 3.75178C19.8672 3.75178 19.845 3.81843 19.845 3.89988C19.845 3.98133 19.8228 4.04798 19.7956 4.04798C19.7684 4.04798 19.7462 4.11462 19.7462 4.19607C19.7462 4.27753 19.724 4.34417 19.6969 4.34417C19.6697 4.34417 19.6475 4.43303 19.6475 4.54163C19.6475 4.65024 19.6253 4.7391 19.5981 4.7391C19.5707 4.7391 19.5488 4.87075 19.5488 5.03529C19.5488 5.19982 19.5269 5.33148 19.4994 5.33148C19.4701 5.33148 19.45 5.51251 19.45 5.77577C19.45 6.03904 19.4701 6.22006 19.4994 6.22006C19.5276 6.22006 19.5488 6.36816 19.5488 6.56562C19.5488 6.76308 19.5699 6.91118 19.5981 6.91118C19.6253 6.91118 19.6475 7.00004 19.6475 7.10864C19.6475 7.21725 19.6697 7.30611 19.6969 7.30611C19.724 7.30611 19.7462 7.37275 19.7462 7.4542C19.7462 7.53566 19.7684 7.6023 19.7956 7.6023C19.8228 7.6023 19.845 7.64673 19.845 7.70103C19.845 7.75533 19.8672 7.79976 19.8943 7.79976C19.9215 7.79976 19.9437 7.86641 19.9437 7.94786C19.9437 8.02931 19.9659 8.09596 19.9931 8.09596C20.0202 8.09596 20.0424 8.14038 20.0424 8.19469C20.0424 8.24899 20.0646 8.29342 20.0918 8.29342C20.1189 8.29342 20.1412 8.33296 20.1412 8.38124C20.1412 8.42957 20.1856 8.5011 20.2399 8.54025C20.2942 8.57939 20.3386 8.65092 20.3386 8.69925C20.3386 8.74753 20.3608 8.78707 20.388 8.78707C20.4151 8.78707 20.4374 8.82257 20.4374 8.86601C20.4374 8.9094 20.504 9.0072 20.5854 9.08327C20.6669 9.15934 20.7335 9.24632 20.7335 9.27648C20.7335 9.34811 21.6535 10.268 21.7251 10.268C21.7553 10.268 21.8422 10.3347 21.9183 10.4161C21.9944 10.4976 22.0873 10.5642 22.1247 10.5642C22.1621 10.5642 22.2247 10.6087 22.2639 10.663C22.303 10.7173 22.3746 10.7617 22.4229 10.7617C22.4712 10.7617 22.5107 10.7839 22.5107 10.8111C22.5107 10.8382 22.5551 10.8604 22.6094 10.8604C22.6637 10.8604 22.7082 10.8826 22.7082 10.9098C22.7082 10.9369 22.7526 10.9592 22.8069 10.9592C22.8612 10.9592 22.9056 10.9814 22.9056 11.0085C22.9056 11.0357 22.9501 11.0579 23.0044 11.0579C23.0587 11.0579 23.1031 11.0801 23.1031 11.1073C23.1031 11.1344 23.1475 11.1566 23.2018 11.1566C23.2561 11.1566 23.3006 11.1788 23.3006 11.206C23.3006 11.2331 23.3672 11.2554 23.4487 11.2554C23.5301 11.2554 23.5967 11.2776 23.5967 11.3047C23.5967 11.3319 23.6634 11.3541 23.7448 11.3541C23.8263 11.3541 23.8929 11.3763 23.8929 11.4035C23.8929 11.4306 24.004 11.4528 24.1398 11.4528C24.2755 11.4528 24.3866 11.475 24.3866 11.5022C24.3866 11.5293 24.4755 11.5515 24.5841 11.5515C24.6927 11.5515 24.7815 11.5738 24.7815 11.6009C24.7815 11.6305 24.5841 11.6503 24.2879 11.6503C23.9917 11.6503 23.7942 11.67 23.7942 11.6996C23.7942 11.7271 23.6626 11.749 23.498 11.749C23.3335 11.749 23.2018 11.7709 23.2018 11.7984C23.2018 11.8255 23.113 11.8477 23.0044 11.8477C22.8958 11.8477 22.8069 11.87 22.8069 11.8971C22.8069 11.9243 22.718 11.9465 22.6094 11.9465C22.5008 11.9465 22.412 11.9687 22.412 11.9958C22.412 12.023 22.3453 12.0452 22.2639 12.0452C22.1824 12.0452 22.1158 12.0674 22.1158 12.0946C22.1158 12.1217 22.0491 12.1439 21.9677 12.1439C21.8862 12.1439 21.8196 12.1661 21.8196 12.1933C21.8196 12.2205 21.7529 12.2427 21.6715 12.2427C21.59 12.2427 21.5234 12.2649 21.5234 12.292C21.5234 12.3192 21.479 12.3414 21.4247 12.3414C21.3704 12.3414 21.3259 12.3636 21.3259 12.3908C21.3259 12.4179 21.2593 12.4401 21.1778 12.4401C21.0964 12.4401 21.0297 12.4623 21.0297 12.4895C21.0297 12.5166 20.9853 12.5389 20.931 12.5389C20.8767 12.5389 20.8323 12.5611 20.8323 12.5882C20.8323 12.6154 20.7878 12.6376 20.7335 12.6376C20.6792 12.6376 20.6348 12.6598 20.6348 12.687C20.6348 12.7141 20.5904 12.7363 20.5361 12.7363C20.4818 12.7363 20.4374 12.7585 20.4374 12.7857C20.4374 12.8128 20.3929 12.8351 20.3386 12.8351C20.2843 12.8351 20.2399 12.8573 20.2399 12.8844C20.2399 12.9116 20.1955 12.9338 20.1412 12.9338C20.0869 12.9338 20.0424 12.956 20.0424 12.9831C20.0424 13.0103 20.0029 13.0325 19.9546 13.0325C19.9063 13.0325 19.8347 13.0769 19.7956 13.1312C19.7565 13.1855 19.6898 13.23 19.6475 13.23C19.6052 13.23 19.5386 13.2744 19.4994 13.3287C19.4603 13.383 19.3936 13.4274 19.3513 13.4274C19.309 13.4274 19.2424 13.4719 19.2032 13.5262C19.1641 13.5805 19.1014 13.6249 19.064 13.6249C19.0266 13.6249 18.9337 13.6915 18.8577 13.773C18.7816 13.8545 18.6932 13.9211 18.6612 13.9211C18.6292 13.9211 18.5177 14.01 18.4134 14.1186C18.309 14.2272 18.1994 14.316 18.1698 14.316C18.1402 14.316 17.883 14.549 17.5982 14.8338C17.3135 15.1186 17.0805 15.3757 17.0805 15.4054C17.0805 15.4349 16.9916 15.5445 16.883 15.6489C16.7744 15.7532 16.6856 15.8648 16.6856 15.8967C16.6856 15.9287 16.6189 16.0171 16.5375 16.0932C16.456 16.1693 16.3894 16.2622 16.3894 16.2995C16.3894 16.3369 16.3449 16.3996 16.2906 16.4387C16.2363 16.4779 16.1919 16.5445 16.1919 16.5868C16.1919 16.6291 16.1475 16.6958 16.0932 16.7349C16.0389 16.7741 15.9944 16.8456 15.9944 16.8939C15.9944 16.9422 15.9722 16.9818 15.9451 16.9818C15.9179 16.9818 15.8957 17.0213 15.8957 17.0696C15.8957 17.1179 15.8513 17.1894 15.797 17.2286C15.7427 17.2677 15.6983 17.3393 15.6983 17.3876C15.6983 17.4359 15.676 17.4754 15.6489 17.4754C15.6217 17.4754 15.5995 17.5198 15.5995 17.5741C15.5995 17.6285 15.5773 17.6729 15.5502 17.6729C15.523 17.6729 15.5008 17.7173 15.5008 17.7716C15.5008 17.8259 15.4786 17.8703 15.4514 17.8703C15.4243 17.8703 15.4021 17.9148 15.4021 17.9691C15.4021 18.0234 15.3798 18.0678 15.3527 18.0678C15.3255 18.0678 15.3033 18.1344 15.3033 18.2159C15.3033 18.2974 15.2811 18.364 15.254 18.364C15.2268 18.364 15.2046 18.4084 15.2046 18.4627C15.2046 18.517 15.1824 18.5615 15.1552 18.5615C15.1281 18.5615 15.1059 18.6281 15.1059 18.7096C15.1059 18.791 15.0837 18.8577 15.0565 18.8577C15.0294 18.8577 15.0071 18.9243 15.0071 19.0058C15.0071 19.0872 14.9849 19.1538 14.9578 19.1538C14.9306 19.1538 14.9084 19.2205 14.9084 19.3019C14.9084 19.3834 14.8862 19.45 14.859 19.45C14.8319 19.45 14.8097 19.5389 14.8097 19.6475C14.8097 19.7561 14.7875 19.845 14.7603 19.845C14.7332 19.845 14.7109 19.9338 14.7109 20.0424C14.7109 20.151 14.7332 20.2399 14.7603 20.2399C14.7875 20.2399 14.8097 20.296 14.8097 20.3646C14.8097 20.504 15.1994 20.931 15.3267 20.931C15.3681 20.931 15.4021 20.9532 15.4021 20.9804C15.4021 21.0131 18.726 21.0297 25.2752 21.0297C31.8244 21.0297 35.1483 21.0131 35.1483 20.9804C35.1483 20.9532 35.1822 20.931 35.2236 20.931C35.3509 20.931 35.7407 20.504 35.7407 20.3646C35.7407 20.296 35.7629 20.2399 35.79 20.2399C35.8172 20.2399 35.8394 20.151 35.8394 20.0424C35.8394 19.9338 35.8172 19.845 35.79 19.845C35.7629 19.845 35.7407 19.7561 35.7407 19.6475C35.7407 19.5389 35.7185 19.45 35.6913 19.45C35.6642 19.45 35.642 19.3834 35.642 19.3019C35.642 19.2205 35.6197 19.1538 35.5926 19.1538C35.5654 19.1538 35.5432 19.0872 35.5432 19.0058C35.5432 18.9243 35.521 18.8577 35.4939 18.8577C35.4667 18.8577 35.4445 18.791 35.4445 18.7096C35.4445 18.6281 35.4223 18.5615 35.3951 18.5615C35.368 18.5615 35.3458 18.517 35.3458 18.4627C35.3458 18.4084 35.3235 18.364 35.2964 18.364C35.2692 18.364 35.247 18.2974 35.247 18.2159C35.247 18.1344 35.2248 18.0678 35.1977 18.0678C35.1705 18.0678 35.1483 18.0234 35.1483 17.9691C35.1483 17.9148 35.1261 17.8703 35.0989 17.8703C35.0718 17.8703 35.0496 17.8259 35.0496 17.7716C35.0496 17.7173 35.0274 17.6729 35.0002 17.6729C34.973 17.6729 34.9508 17.6285 34.9508 17.5741C34.9508 17.5198 34.9286 17.4754 34.9015 17.4754C34.8743 17.4754 34.8521 17.4359 34.8521 17.3876C34.8521 17.3393 34.8077 17.2677 34.7534 17.2286C34.6991 17.1894 34.6546 17.1179 34.6546 17.0696C34.6546 17.0213 34.6324 16.9818 34.6053 16.9818C34.5781 16.9818 34.5559 16.9422 34.5559 16.8939C34.5559 16.8456 34.5115 16.7741 34.4572 16.7349C34.4029 16.6958 34.3584 16.6291 34.3584 16.5868C34.3584 16.5445 34.314 16.4779 34.2597 16.4387C34.2054 16.3996 34.161 16.3369 34.161 16.2995C34.161 16.2622 34.0943 16.1693 34.0129 16.0932C33.9314 16.0171 33.8648 15.9287 33.8648 15.8967C33.8648 15.8648 33.7759 15.7532 33.6673 15.6489C33.5587 15.5445 33.4699 15.4349 33.4699 15.4054C33.4699 15.3351 32.4508 14.316 32.3805 14.316C32.3509 14.316 32.2414 14.2272 32.137 14.1186C32.0326 14.01 31.9211 13.9211 31.8892 13.9211C31.8572 13.9211 31.7688 13.8545 31.6927 13.773C31.6166 13.6915 31.5237 13.6249 31.4864 13.6249C31.4489 13.6249 31.3863 13.5805 31.3471 13.5262C31.308 13.4719 31.2414 13.4274 31.199 13.4274C31.1567 13.4274 31.0901 13.383 31.051 13.3287C31.0118 13.2744 30.9452 13.23 30.9029 13.23C30.8605 13.23 30.7939 13.1855 30.7548 13.1312C30.7156 13.0769 30.6441 13.0325 30.5958 13.0325C30.5475 13.0325 30.5079 13.0103 30.5079 12.9831C30.5079 12.956 30.4635 12.9338 30.4092 12.9338C30.3549 12.9338 30.3105 12.9116 30.3105 12.8844C30.3105 12.8573 30.266 12.8351 30.2117 12.8351C30.1574 12.8351 30.113 12.8128 30.113 12.7857C30.113 12.7585 30.0686 12.7363 30.0143 12.7363C29.96 12.7363 29.9155 12.7141 29.9155 12.687C29.9155 12.6598 29.8711 12.6376 29.8168 12.6376C29.7625 12.6376 29.7181 12.6154 29.7181 12.5882C29.7181 12.5611 29.6737 12.5389 29.6194 12.5389C29.565 12.5389 29.5206 12.5166 29.5206 12.4895C29.5206 12.4623 29.454 12.4401 29.3725 12.4401C29.2911 12.4401 29.2244 12.4179 29.2244 12.3908C29.2244 12.3636 29.18 12.3414 29.1257 12.3414C29.0714 12.3414 29.027 12.3192 29.027 12.292C29.027 12.2649 28.9603 12.2427 28.8789 12.2427C28.7974 12.2427 28.7308 12.2205 28.7308 12.1933C28.7308 12.1661 28.6641 12.1439 28.5827 12.1439C28.5012 12.1439 28.4346 12.1217 28.4346 12.0946C28.4346 12.0674 28.3679 12.0452 28.2865 12.0452C28.205 12.0452 28.1384 12.023 28.1384 11.9958C28.1384 11.9687 28.0495 11.9465 27.9409 11.9465C27.8323 11.9465 27.7435 11.9243 27.7435 11.8971C27.7435 11.87 27.6546 11.8477 27.546 11.8477C27.4374 11.8477 27.3485 11.8255 27.3485 11.7984C27.3485 11.7709 27.2169 11.749 27.0523 11.749C26.8878 11.749 26.7561 11.7271 26.7561 11.6996C26.7561 11.6704 26.5751 11.6503 26.3119 11.6503C26.0486 11.6503 25.8676 11.6302 25.8676 11.6009C25.8676 11.5738 25.9342 11.5515 26.0157 11.5515C26.0971 11.5515 26.1638 11.5293 26.1638 11.5022C26.1638 11.475 26.2748 11.4528 26.4106 11.4528C26.5463 11.4528 26.6574 11.4306 26.6574 11.4035C26.6574 11.3763 26.7241 11.3541 26.8055 11.3541C26.887 11.3541 26.9536 11.3319 26.9536 11.3047C26.9536 11.2776 27.0203 11.2554 27.1017 11.2554C27.1832 11.2554 27.2498 11.2331 27.2498 11.206C27.2498 11.1788 27.2942 11.1566 27.3485 11.1566C27.4028 11.1566 27.4473 11.1344 27.4473 11.1073C27.4473 11.0801 27.4917 11.0579 27.546 11.0579C27.6003 11.0579 27.6447 11.0357 27.6447 11.0085C27.6447 10.9814 27.6892 10.9592 27.7435 10.9592C27.7978 10.9592 27.8422 10.9369 27.8422 10.9098C27.8422 10.8826 27.8866 10.8604 27.9409 10.8604C27.9952 10.8604 28.0397 10.8382 28.0397 10.8111C28.0397 10.7839 28.0792 10.7617 28.1275 10.7617C28.1758 10.7617 28.2473 10.7173 28.2865 10.663C28.3256 10.6087 28.3883 10.5642 28.4257 10.5642C28.4631 10.5642 28.556 10.4976 28.632 10.4161C28.7081 10.3347 28.7951 10.268 28.8253 10.268C28.9023 10.268 29.8168 9.3453 29.8168 9.2676C29.8168 9.2325 29.8612 9.17178 29.9155 9.13263C29.9698 9.09349 30.0143 9.02684 30.0143 8.98454C30.0143 8.94223 30.0587 8.87559 30.113 8.83644C30.1673 8.79729 30.2117 8.73065 30.2117 8.68834C30.2117 8.64604 30.2562 8.57939 30.3105 8.54025C30.3648 8.5011 30.4092 8.42957 30.4092 8.38124C30.4092 8.33296 30.4314 8.29342 30.4586 8.29342C30.4857 8.29342 30.5079 8.24899 30.5079 8.19469C30.5079 8.14038 30.5301 8.09596 30.5573 8.09596C30.5844 8.09596 30.6067 8.02931 30.6067 7.94786C30.6067 7.86641 30.6289 7.79976 30.656 7.79976C30.6832 7.79976 30.7054 7.75533 30.7054 7.70103C30.7054 7.64673 30.7276 7.6023 30.7548 7.6023C30.7819 7.6023 30.8041 7.53566 30.8041 7.4542C30.8041 7.37275 30.8263 7.30611 30.8535 7.30611C30.8806 7.30611 30.9029 7.21725 30.9029 7.10864C30.9029 7.00004 30.9251 6.91118 30.9522 6.91118C30.9804 6.91118 31.0016 6.76308 31.0016 6.56562C31.0016 6.36816 31.0228 6.22006 31.051 6.22006C31.0802 6.22006 31.1003 6.03904 31.1003 5.77577C31.1003 5.51251 31.0802 5.33148 31.051 5.33148C31.0235 5.33148 31.0016 5.19982 31.0016 5.03529C31.0016 4.87075 30.9797 4.7391 30.9522 4.7391C30.9251 4.7391 30.9029 4.65024 30.9029 4.54163C30.9029 4.43303 30.8806 4.34417 30.8535 4.34417C30.8263 4.34417 30.8041 4.27753 30.8041 4.19607C30.8041 4.11462 30.7819 4.04798 30.7548 4.04798C30.7276 4.04798 30.7054 3.98133 30.7054 3.89988C30.7054 3.81843 30.6832 3.75178 30.656 3.75178C30.6289 3.75178 30.6067 3.70736 30.6067 3.65305C30.6067 3.59875 30.5844 3.55432 30.5573 3.55432C30.5301 3.55432 30.5079 3.50989 30.5079 3.45559C30.5079 3.40129 30.4857 3.35686 30.4586 3.35686C30.4314 3.35686 30.4092 3.31243 30.4092 3.25813C30.4092 3.20383 30.387 3.1594 30.3598 3.1594C30.3327 3.1594 30.3105 3.11497 30.3105 3.06067C30.3105 3.00636 30.2883 2.96194 30.2611 2.96194C30.234 2.96194 30.2117 2.92239 30.2117 2.87411C30.2117 2.82578 30.1673 2.75425 30.113 2.71511C30.0587 2.67596 30.0143 2.61381 30.0143 2.57693C30.0143 2.54006 29.9254 2.42454 29.8168 2.32018C29.7082 2.21582 29.6194 2.10603 29.6194 2.07617C29.6194 2.00538 29.0949 1.48097 29.0241 1.48097C28.9943 1.48097 28.8845 1.39211 28.7801 1.28351C28.6758 1.1749 28.5603 1.08604 28.5234 1.08604C28.4865 1.08604 28.4244 1.04161 28.3852 0.987312C28.3461 0.93301 28.2794 0.888581 28.2371 0.888581C28.1948 0.888581 28.1282 0.844151 28.089 0.789849C28.0499 0.735547 27.9783 0.691118 27.93 0.691118C27.8817 0.691118 27.8422 0.668904 27.8422 0.641753C27.8422 0.614601 27.7978 0.592387 27.7435 0.592387C27.6892 0.592387 27.6447 0.570172 27.6447 0.543021C27.6447 0.51587 27.6003 0.493656 27.546 0.493656C27.4917 0.493656 27.4473 0.471441 27.4473 0.44429C27.4473 0.417139 27.3806 0.394925 27.2992 0.394925C27.2177 0.394925 27.1511 0.37271 27.1511 0.345559C27.1511 0.318408 27.0844 0.296194 27.003 0.296194C26.9215 0.296194 26.8549 0.273979 26.8549 0.246828C26.8549 0.219677 26.766 0.197462 26.6574 0.197462C26.5488 0.197462 26.46 0.175248 26.46 0.148097C26.46 0.120946 26.3489 0.0987312 26.2131 0.0987312C26.0774 0.0987312 25.9663 0.0765167 25.9663 0.0493656C25.9663 0.0188083 25.703 0 25.2752 0C24.8473 0 24.5841 0.0188083 24.5841 0.0493656ZM25.6701 2.12272C25.6701 2.15017 25.8018 2.17209 25.9663 2.17209C26.1308 2.17209 26.2625 2.194 26.2625 2.22145C26.2625 2.2486 26.3513 2.27082 26.46 2.27082C26.5686 2.27082 26.6574 2.29303 26.6574 2.32018C26.6574 2.34733 26.7018 2.36955 26.7561 2.36955C26.8104 2.36955 26.8549 2.39176 26.8549 2.41891C26.8549 2.44606 26.8993 2.46828 26.9536 2.46828C27.0079 2.46828 27.0523 2.49049 27.0523 2.51764C27.0523 2.5448 27.0968 2.56701 27.1511 2.56701C27.2054 2.56701 27.2498 2.58922 27.2498 2.61638C27.2498 2.64353 27.2853 2.66574 27.3287 2.66574C27.3721 2.66574 27.4699 2.73239 27.546 2.81384C27.6221 2.89529 27.7095 2.96194 27.7402 2.96194C27.8129 2.96194 28.1384 3.2874 28.1384 3.36007C28.1384 3.39082 28.205 3.47825 28.2865 3.55432C28.3679 3.63039 28.4346 3.72819 28.4346 3.77158C28.4346 3.81502 28.4568 3.85052 28.4839 3.85052C28.5111 3.85052 28.5333 3.89494 28.5333 3.94925C28.5333 4.00355 28.5555 4.04798 28.5827 4.04798C28.6098 4.04798 28.632 4.09241 28.632 4.14671C28.632 4.20101 28.6543 4.24544 28.6814 4.24544C28.7086 4.24544 28.7308 4.31208 28.7308 4.39354C28.7308 4.47499 28.753 4.54163 28.7801 4.54163C28.8073 4.54163 28.8295 4.63049 28.8295 4.7391C28.8295 4.8477 28.8517 4.93656 28.8789 4.93656C28.9098 4.93656 28.9282 5.24919 28.9282 5.77577C28.9282 6.30236 28.9098 6.61499 28.8789 6.61499C28.8517 6.61499 28.8295 6.70385 28.8295 6.81245C28.8295 6.92105 28.8073 7.00991 28.7801 7.00991C28.753 7.00991 28.7308 7.07656 28.7308 7.15801C28.7308 7.23946 28.7086 7.30611 28.6814 7.30611C28.6543 7.30611 28.632 7.35054 28.632 7.40484C28.632 7.45914 28.6098 7.50357 28.5827 7.50357C28.5555 7.50357 28.5333 7.548 28.5333 7.6023C28.5333 7.6566 28.5111 7.70103 28.4839 7.70103C28.4568 7.70103 28.4346 7.74057 28.4346 7.78885C28.4346 7.83718 28.3901 7.90871 28.3358 7.94786C28.2815 7.98701 28.2371 8.04787 28.2371 8.08307C28.2371 8.16655 27.6166 8.78707 27.5331 8.78707C27.4979 8.78707 27.437 8.8315 27.3979 8.88581C27.3588 8.94011 27.2872 8.98454 27.2389 8.98454C27.1906 8.98454 27.1511 9.00675 27.1511 9.0339C27.1511 9.06105 27.1066 9.08327 27.0523 9.08327C26.998 9.08327 26.9536 9.10548 26.9536 9.13263C26.9536 9.15978 26.9092 9.182 26.8549 9.182C26.8006 9.182 26.7561 9.20421 26.7561 9.23136C26.7561 9.25852 26.6673 9.28073 26.5587 9.28073C26.4501 9.28073 26.3612 9.30294 26.3612 9.3301C26.3612 9.35725 26.2724 9.37946 26.1638 9.37946C26.0552 9.37946 25.9663 9.40168 25.9663 9.42883C25.9663 9.45938 25.703 9.47819 25.2752 9.47819C24.8473 9.47819 24.5841 9.45938 24.5841 9.42883C24.5841 9.40168 24.4952 9.37946 24.3866 9.37946C24.278 9.37946 24.1891 9.35725 24.1891 9.3301C24.1891 9.30294 24.1003 9.28073 23.9917 9.28073C23.8831 9.28073 23.7942 9.25852 23.7942 9.23136C23.7942 9.20421 23.7498 9.182 23.6955 9.182C23.6412 9.182 23.5967 9.15978 23.5967 9.13263C23.5967 9.10548 23.5523 9.08327 23.498 9.08327C23.4437 9.08327 23.3993 9.06105 23.3993 9.0339C23.3993 9.00675 23.3597 8.98454 23.3115 8.98454C23.2631 8.98454 23.1916 8.94011 23.1525 8.88581C23.1133 8.8315 23.0524 8.78707 23.0172 8.78707C22.9338 8.78707 22.3132 8.16655 22.3132 8.08307C22.3132 8.04787 22.2688 7.98701 22.2145 7.94786C22.1602 7.90871 22.1158 7.83718 22.1158 7.78885C22.1158 7.74057 22.0936 7.70103 22.0664 7.70103C22.0393 7.70103 22.017 7.6566 22.017 7.6023C22.017 7.548 21.9948 7.50357 21.9677 7.50357C21.9405 7.50357 21.9183 7.45914 21.9183 7.40484C21.9183 7.35054 21.8961 7.30611 21.869 7.30611C21.8418 7.30611 21.8196 7.23946 21.8196 7.15801C21.8196 7.07656 21.7974 7.00991 21.7702 7.00991C21.7431 7.00991 21.7209 6.92105 21.7209 6.81245C21.7209 6.70385 21.6986 6.61499 21.6715 6.61499C21.6405 6.61499 21.6221 6.30236 21.6221 5.77577C21.6221 5.24919 21.6405 4.93656 21.6715 4.93656C21.6986 4.93656 21.7209 4.8477 21.7209 4.7391C21.7209 4.63049 21.7431 4.54163 21.7702 4.54163C21.7974 4.54163 21.8196 4.47499 21.8196 4.39354C21.8196 4.31208 21.8418 4.24544 21.869 4.24544C21.8961 4.24544 21.9183 4.20101 21.9183 4.14671C21.9183 4.09241 21.9405 4.04798 21.9677 4.04798C21.9948 4.04798 22.017 4.00355 22.017 3.94925C22.017 3.89494 22.0393 3.85052 22.0664 3.85052C22.0936 3.85052 22.1158 3.81502 22.1158 3.77158C22.1158 3.72819 22.1824 3.63039 22.2639 3.55432C22.3453 3.47825 22.412 3.39082 22.412 3.36007C22.412 3.2874 22.7374 2.96194 22.8101 2.96194C22.8409 2.96194 22.9283 2.89529 23.0044 2.81384C23.0804 2.73239 23.1782 2.66574 23.2216 2.66574C23.2651 2.66574 23.3006 2.64353 23.3006 2.61638C23.3006 2.58922 23.345 2.56701 23.3993 2.56701C23.4536 2.56701 23.498 2.5448 23.498 2.51764C23.498 2.49049 23.5424 2.46828 23.5967 2.46828C23.6511 2.46828 23.6955 2.44606 23.6955 2.41891C23.6955 2.39176 23.7399 2.36955 23.7942 2.36955C23.8485 2.36955 23.8929 2.34733 23.8929 2.32018C23.8929 2.29303 23.9818 2.27082 24.0904 2.27082C24.199 2.27082 24.2879 2.2486 24.2879 2.22145C24.2879 2.194 24.4195 2.17209 24.5841 2.17209C24.7486 2.17209 24.8803 2.15017 24.8803 2.12272C24.8803 2.09394 25.0448 2.07335 25.2752 2.07335C25.5056 2.07335 25.6701 2.09394 25.6701 2.12272ZM15.4021 9.3301C15.4021 9.35725 15.3576 9.37946 15.3033 9.37946C15.249 9.37946 15.2046 9.40168 15.2046 9.42883C15.2046 9.45598 15.1691 9.47819 15.1257 9.47819C15.0823 9.47819 14.9845 9.54484 14.9084 9.62629C14.8323 9.70774 14.7435 9.77439 14.7109 9.77439C14.6784 9.77439 14.5896 9.84103 14.5135 9.92248C14.4374 10.0039 14.349 10.0706 14.317 10.0706C14.2851 10.0706 14.1736 10.1594 14.0692 10.268C13.9648 10.3766 13.8554 10.4655 13.826 10.4655C13.756 10.4655 11.6503 12.5712 11.6503 12.6412C11.6503 12.6706 11.5614 12.7801 11.4528 12.8844C11.3442 12.9888 11.2554 13.1003 11.2554 13.1322C11.2554 13.1642 11.1887 13.2526 11.1073 13.3287C11.0258 13.4048 10.9592 13.4936 10.9592 13.5262C10.9592 13.5587 10.8925 13.6476 10.8111 13.7236C10.7296 13.7997 10.663 13.8926 10.663 13.93C10.663 13.9674 10.6185 14.03 10.5642 14.0692C10.5099 14.1083 10.4655 14.175 10.4655 14.2173C10.4655 14.2596 10.4211 14.3262 10.3668 14.3654C10.3125 14.4045 10.268 14.4761 10.268 14.5244C10.268 14.5727 10.2458 14.6122 10.2187 14.6122C10.1915 14.6122 10.1693 14.6518 10.1693 14.7C10.1693 14.7484 10.1249 14.8199 10.0706 14.859C10.0163 14.8982 9.97185 14.9697 9.97185 15.018C9.97185 15.0663 9.94963 15.1059 9.92248 15.1059C9.89533 15.1059 9.87312 15.1454 9.87312 15.1937C9.87312 15.242 9.82869 15.3135 9.77439 15.3527C9.72008 15.3918 9.67565 15.4634 9.67565 15.5117C9.67565 15.56 9.65344 15.5995 9.62629 15.5995C9.59914 15.5995 9.57692 15.644 9.57692 15.6983C9.57692 15.7526 9.55471 15.797 9.52756 15.797C9.50041 15.797 9.47819 15.8414 9.47819 15.8957C9.47819 15.95 9.45598 15.9944 9.42883 15.9944C9.40168 15.9944 9.37946 16.0389 9.37946 16.0932C9.37946 16.1475 9.35725 16.1919 9.3301 16.1919C9.30294 16.1919 9.28073 16.2363 9.28073 16.2906C9.28073 16.3449 9.25852 16.3894 9.23136 16.3894C9.20421 16.3894 9.182 16.4338 9.182 16.4881C9.182 16.5424 9.15978 16.5868 9.13263 16.5868C9.10548 16.5868 9.08327 16.6313 9.08327 16.6856C9.08327 16.7399 9.06105 16.7843 9.0339 16.7843C9.00675 16.7843 8.98454 16.8287 8.98454 16.883C8.98454 16.9373 8.96232 16.9818 8.93517 16.9818C8.90802 16.9818 8.88581 17.0484 8.88581 17.1299C8.88581 17.2113 8.86359 17.278 8.83644 17.278C8.80929 17.278 8.78707 17.3224 8.78707 17.3767C8.78707 17.431 8.76486 17.4754 8.73771 17.4754C8.71056 17.4754 8.68834 17.5198 8.68834 17.5741C8.68834 17.6285 8.66613 17.6729 8.63898 17.6729C8.61183 17.6729 8.58961 17.7395 8.58961 17.821C8.58961 17.9024 8.5674 17.9691 8.54025 17.9691C8.51309 17.9691 8.49088 18.0357 8.49088 18.1172C8.49088 18.1986 8.46867 18.2653 8.44151 18.2653C8.41436 18.2653 8.39215 18.3319 8.39215 18.4134C8.39215 18.4948 8.36994 18.5615 8.34278 18.5615C8.31563 18.5615 8.29342 18.6281 8.29342 18.7096C8.29342 18.791 8.2712 18.8577 8.24405 18.8577C8.2169 18.8577 8.19469 18.9243 8.19469 19.0058C8.19469 19.0872 8.17247 19.1538 8.14532 19.1538C8.11817 19.1538 8.09596 19.2205 8.09596 19.3019C8.09596 19.3834 8.07374 19.45 8.04659 19.45C8.01944 19.45 7.99722 19.5389 7.99722 19.6475C7.99722 19.7561 7.97501 19.845 7.94786 19.845C7.92071 19.845 7.89849 19.9338 7.89849 20.0424C7.89849 20.151 7.87628 20.2399 7.84913 20.2399C7.82198 20.2399 7.79976 20.351 7.79976 20.4867C7.79976 20.6225 7.77755 20.7335 7.7504 20.7335C7.72325 20.7335 7.70103 20.8446 7.70103 20.9804C7.70103 21.1161 7.67882 21.2272 7.65167 21.2272C7.62422 21.2272 7.6023 21.3589 7.6023 21.5234C7.6023 21.6879 7.58038 21.8196 7.55293 21.8196C7.52366 21.8196 7.50357 22.0006 7.50357 22.2639C7.50357 22.5271 7.48348 22.7082 7.4542 22.7082C7.42231 22.7082 7.40484 23.2841 7.40484 24.3372C7.40484 25.3903 7.42231 25.9663 7.4542 25.9663C7.48239 25.9663 7.50357 26.1144 7.50357 26.3119C7.50357 26.5093 7.52475 26.6574 7.55293 26.6574C7.58009 26.6574 7.6023 26.7018 7.6023 26.7561C7.6023 26.8104 7.62451 26.8549 7.65167 26.8549C7.67882 26.8549 7.70103 26.8898 7.70103 26.9324C7.70103 27.0276 7.81837 27.1511 7.90876 27.1511C7.94544 27.1511 8.00744 27.1955 8.04659 27.2498C8.10845 27.3356 8.1744 27.3485 8.55116 27.3485C8.80717 27.3485 8.98454 27.3283 8.98454 27.2992C8.98454 27.272 9.0186 27.2498 9.06021 27.2498C9.1585 27.2498 9.47819 26.9301 9.47819 26.8318C9.47819 26.7902 9.50041 26.7561 9.52756 26.7561C9.55792 26.7561 9.57692 26.5093 9.57692 26.1144C9.57692 25.7195 9.55792 25.4726 9.52756 25.4726C9.49586 25.4726 9.47819 24.9954 9.47819 24.1398C9.47819 23.2841 9.49586 22.8069 9.52756 22.8069C9.55683 22.8069 9.57692 22.6259 9.57692 22.3626C9.57692 22.0993 9.59702 21.9183 9.62629 21.9183C9.65374 21.9183 9.67565 21.7867 9.67565 21.6221C9.67565 21.4576 9.69757 21.3259 9.72502 21.3259C9.75217 21.3259 9.77439 21.2149 9.77439 21.0791C9.77439 20.9433 9.7966 20.8323 9.82375 20.8323C9.8509 20.8323 9.87312 20.7212 9.87312 20.5854C9.87312 20.4497 9.89533 20.3386 9.92248 20.3386C9.94963 20.3386 9.97185 20.272 9.97185 20.1905C9.97185 20.1091 9.99406 20.0424 10.0212 20.0424C10.0484 20.0424 10.0706 19.9536 10.0706 19.845C10.0706 19.7364 10.0928 19.6475 10.1199 19.6475C10.1471 19.6475 10.1693 19.5809 10.1693 19.4994C10.1693 19.418 10.1915 19.3513 10.2187 19.3513C10.2458 19.3513 10.268 19.2847 10.268 19.2032C10.268 19.1218 10.2903 19.0551 10.3174 19.0551C10.3446 19.0551 10.3668 18.9885 10.3668 18.907C10.3668 18.8256 10.389 18.7589 10.4161 18.7589C10.4433 18.7589 10.4655 18.6923 10.4655 18.6108C10.4655 18.5294 10.4877 18.4627 10.5149 18.4627C10.542 18.4627 10.5642 18.4183 10.5642 18.364C10.5642 18.3097 10.5864 18.2653 10.6136 18.2653C10.6408 18.2653 10.663 18.1986 10.663 18.1172C10.663 18.0357 10.6852 17.9691 10.7123 17.9691C10.7395 17.9691 10.7617 17.9246 10.7617 17.8703C10.7617 17.816 10.7839 17.7716 10.8111 17.7716C10.8382 17.7716 10.8604 17.7272 10.8604 17.6729C10.8604 17.6186 10.8826 17.5741 10.9098 17.5741C10.9369 17.5741 10.9592 17.5297 10.9592 17.4754C10.9592 17.4211 10.9814 17.3767 11.0085 17.3767C11.0357 17.3767 11.0579 17.3323 11.0579 17.278C11.0579 17.2237 11.0801 17.1792 11.1073 17.1792C11.1344 17.1792 11.1566 17.1348 11.1566 17.0805C11.1566 17.0262 11.1788 16.9818 11.206 16.9818C11.2331 16.9818 11.2554 16.9373 11.2554 16.883C11.2554 16.8287 11.2776 16.7843 11.3047 16.7843C11.3319 16.7843 11.3541 16.7399 11.3541 16.6856C11.3541 16.6313 11.3763 16.5868 11.4035 16.5868C11.4306 16.5868 11.4528 16.5473 11.4528 16.499C11.4528 16.4507 11.4972 16.3792 11.5515 16.34C11.6058 16.3009 11.6503 16.2293 11.6503 16.181C11.6503 16.1327 11.6725 16.0932 11.6996 16.0932C11.7268 16.0932 11.749 16.0536 11.749 16.0054C11.749 15.957 11.7934 15.8855 11.8477 15.8464C11.902 15.8072 11.9465 15.7406 11.9465 15.6983C11.9465 15.6559 11.9909 15.5893 12.0452 15.5502C12.0995 15.511 12.1439 15.4444 12.1439 15.4021C12.1439 15.3598 12.1884 15.2931 12.2427 15.254C12.297 15.2148 12.3414 15.1522 12.3414 15.1148C12.3414 15.0774 12.408 14.9845 12.4895 14.9084C12.5709 14.8323 12.6376 14.7439 12.6376 14.7119C12.6376 14.68 12.7264 14.5685 12.8351 14.4641C12.9437 14.3598 13.0325 14.2494 13.0325 14.2188C13.0325 14.1882 13.188 14.0098 13.3781 13.8224C13.5681 13.6349 13.7236 13.4578 13.7236 13.4288C13.7236 13.3601 14.2484 12.8351 14.3171 12.8351C14.346 12.8351 14.5454 12.6573 14.7603 12.4401C14.9752 12.2229 15.1759 12.0452 15.2064 12.0452C15.2368 12.0452 15.3471 11.9563 15.4514 11.8477C15.5558 11.7391 15.6713 11.6503 15.7082 11.6503C15.7451 11.6503 15.8072 11.6058 15.8464 11.5515C15.8855 11.4972 15.9481 11.4528 15.9856 11.4528C16.0229 11.4528 16.1158 11.3862 16.1919 11.3047C16.268 11.2233 16.3557 11.1566 16.3868 11.1566C16.4698 11.1566 16.6856 10.9266 16.6856 10.838C16.6856 10.796 16.7078 10.7617 16.7349 10.7617C16.7621 10.7617 16.7843 10.6951 16.7843 10.6136C16.7843 10.5321 16.8065 10.4655 16.8337 10.4655C16.8608 10.4655 16.883 10.3766 16.883 10.268C16.883 10.1594 16.8608 10.0706 16.8337 10.0706C16.8065 10.0706 16.7843 10.0145 16.7843 9.94588C16.7843 9.80642 16.3946 9.37946 16.2672 9.37946C16.2258 9.37946 16.1919 9.35725 16.1919 9.3301C16.1919 9.30132 16.0274 9.28073 15.797 9.28073C15.5666 9.28073 15.4021 9.30132 15.4021 9.3301ZM34.3584 9.3301C34.3584 9.35725 34.3245 9.37946 34.2831 9.37946C34.1558 9.37946 33.7661 9.80642 33.7661 9.94588C33.7661 10.0145 33.7438 10.0706 33.7167 10.0706C33.6895 10.0706 33.6673 10.1594 33.6673 10.268C33.6673 10.3766 33.6895 10.4655 33.7167 10.4655C33.7438 10.4655 33.7661 10.5321 33.7661 10.6136C33.7661 10.6951 33.7883 10.7617 33.8154 10.7617C33.8426 10.7617 33.8648 10.796 33.8648 10.838C33.8648 10.9266 34.0805 11.1566 34.1636 11.1566C34.1947 11.1566 34.2824 11.2233 34.3584 11.3047C34.4345 11.3862 34.5274 11.4528 34.5648 11.4528C34.6022 11.4528 34.6649 11.4972 34.704 11.5515C34.7432 11.6058 34.8053 11.6503 34.8422 11.6503C34.8791 11.6503 34.9946 11.7391 35.0989 11.8477C35.2033 11.9563 35.3136 12.0452 35.344 12.0452C35.3744 12.0452 35.5752 12.2229 35.79 12.4401C36.0049 12.6573 36.2044 12.8351 36.2333 12.8351C36.302 12.8351 36.8267 13.3601 36.8267 13.4288C36.8267 13.4578 36.9822 13.6349 37.1723 13.8224C37.3623 14.0098 37.5178 14.1882 37.5178 14.2188C37.5178 14.2494 37.6067 14.3598 37.7153 14.4641C37.8239 14.5685 37.9128 14.68 37.9128 14.7119C37.9128 14.7439 37.9794 14.8323 38.0609 14.9084C38.1423 14.9845 38.209 15.0774 38.209 15.1148C38.209 15.1522 38.2534 15.2148 38.3077 15.254C38.362 15.2931 38.4064 15.3598 38.4064 15.4021C38.4064 15.4444 38.4509 15.511 38.5052 15.5502C38.5595 15.5893 38.6039 15.6559 38.6039 15.6983C38.6039 15.7406 38.6483 15.8072 38.7026 15.8464C38.7569 15.8855 38.8013 15.957 38.8013 16.0054C38.8013 16.0536 38.8236 16.0932 38.8507 16.0932C38.8779 16.0932 38.9001 16.1327 38.9001 16.181C38.9001 16.2293 38.9445 16.3009 38.9988 16.34C39.0531 16.3792 39.0975 16.4507 39.0975 16.499C39.0975 16.5473 39.1198 16.5868 39.1469 16.5868C39.1741 16.5868 39.1963 16.6313 39.1963 16.6856C39.1963 16.7399 39.2185 16.7843 39.2456 16.7843C39.2728 16.7843 39.295 16.8287 39.295 16.883C39.295 16.9373 39.3172 16.9818 39.3444 16.9818C39.3715 16.9818 39.3937 17.0262 39.3937 17.0805C39.3937 17.1348 39.416 17.1792 39.4431 17.1792C39.4703 17.1792 39.4925 17.2237 39.4925 17.278C39.4925 17.3323 39.5147 17.3767 39.5418 17.3767C39.569 17.3767 39.5912 17.4211 39.5912 17.4754C39.5912 17.5297 39.6134 17.5741 39.6406 17.5741C39.6677 17.5741 39.6899 17.6186 39.6899 17.6729C39.6899 17.7272 39.7121 17.7716 39.7393 17.7716C39.7664 17.7716 39.7887 17.816 39.7887 17.8703C39.7887 17.9246 39.8109 17.9691 39.838 17.9691C39.8652 17.9691 39.8874 18.0357 39.8874 18.1172C39.8874 18.1986 39.9096 18.2653 39.9368 18.2653C39.9639 18.2653 39.9861 18.3097 39.9861 18.364C39.9861 18.4183 40.0083 18.4627 40.0355 18.4627C40.0626 18.4627 40.0849 18.5294 40.0849 18.6108C40.0849 18.6923 40.1071 18.7589 40.1342 18.7589C40.1614 18.7589 40.1836 18.8256 40.1836 18.907C40.1836 18.9885 40.2058 19.0551 40.233 19.0551C40.2601 19.0551 40.2823 19.1218 40.2823 19.2032C40.2823 19.2847 40.3045 19.3513 40.3317 19.3513C40.3588 19.3513 40.381 19.418 40.381 19.4994C40.381 19.5809 40.4033 19.6475 40.4304 19.6475C40.4576 19.6475 40.4798 19.7364 40.4798 19.845C40.4798 19.9536 40.502 20.0424 40.5291 20.0424C40.5563 20.0424 40.5785 20.1313 40.5785 20.2399C40.5785 20.3485 40.6007 20.4374 40.6279 20.4374C40.655 20.4374 40.6772 20.5262 40.6772 20.6348C40.6772 20.7434 40.6995 20.8323 40.7266 20.8323C40.7538 20.8323 40.776 20.9433 40.776 21.0791C40.776 21.2149 40.7982 21.3259 40.8253 21.3259C40.8528 21.3259 40.8747 21.4576 40.8747 21.6221C40.8747 21.7867 40.8966 21.9183 40.9241 21.9183C40.9533 21.9183 40.9734 22.0993 40.9734 22.3626C40.9734 22.6259 40.9935 22.8069 41.0228 22.8069C41.0545 22.8069 41.0722 23.2841 41.0722 24.1398C41.0722 24.9954 41.0545 25.4726 41.0228 25.4726C40.9924 25.4726 40.9734 25.7195 40.9734 26.1144C40.9734 26.5093 40.9924 26.7561 41.0228 26.7561C41.0499 26.7561 41.0722 26.7902 41.0722 26.8318C41.0722 26.9301 41.3919 27.2498 41.4901 27.2498C41.5318 27.2498 41.5658 27.272 41.5658 27.2992C41.5658 27.3279 41.7304 27.3485 41.9607 27.3485C42.1911 27.3485 42.3557 27.3279 42.3557 27.2992C42.3557 27.272 42.4001 27.2498 42.4544 27.2498C42.5087 27.2498 42.5531 27.2276 42.5531 27.2004C42.5531 27.1733 42.588 27.1511 42.6307 27.1511C42.7305 27.1511 42.8493 27.0322 42.8493 26.9324C42.8493 26.8898 42.8715 26.8549 42.8987 26.8549C42.9258 26.8549 42.9481 26.8104 42.9481 26.7561C42.9481 26.7018 42.9703 26.6574 42.9974 26.6574C43.0256 26.6574 43.0468 26.5093 43.0468 26.3119C43.0468 26.1144 43.068 25.9663 43.0962 25.9663C43.128 25.9663 43.1455 25.3903 43.1455 24.3372C43.1455 23.2841 43.128 22.7082 43.0962 22.7082C43.0669 22.7082 43.0468 22.5271 43.0468 22.2639C43.0468 22.0006 43.0267 21.8196 42.9974 21.8196C42.97 21.8196 42.9481 21.6879 42.9481 21.5234C42.9481 21.3589 42.9261 21.2272 42.8987 21.2272C42.8715 21.2272 42.8493 21.1161 42.8493 20.9804C42.8493 20.8446 42.8271 20.7335 42.8 20.7335C42.7728 20.7335 42.7506 20.6225 42.7506 20.4867C42.7506 20.351 42.7284 20.2399 42.7012 20.2399C42.6741 20.2399 42.6519 20.151 42.6519 20.0424C42.6519 19.9338 42.6297 19.845 42.6025 19.845C42.5753 19.845 42.5531 19.7561 42.5531 19.6475C42.5531 19.5389 42.5309 19.45 42.5038 19.45C42.4766 19.45 42.4544 19.3834 42.4544 19.3019C42.4544 19.2205 42.4322 19.1538 42.405 19.1538C42.3779 19.1538 42.3557 19.0872 42.3557 19.0058C42.3557 18.9243 42.3335 18.8577 42.3063 18.8577C42.2792 18.8577 42.2569 18.791 42.2569 18.7096C42.2569 18.6281 42.2347 18.5615 42.2076 18.5615C42.1804 18.5615 42.1582 18.4948 42.1582 18.4134C42.1582 18.3319 42.136 18.2653 42.1088 18.2653C42.0817 18.2653 42.0595 18.1986 42.0595 18.1172C42.0595 18.0357 42.0373 17.9691 42.0101 17.9691C41.983 17.9691 41.9607 17.9024 41.9607 17.821C41.9607 17.7395 41.9385 17.6729 41.9114 17.6729C41.8842 17.6729 41.862 17.6285 41.862 17.5741C41.862 17.5198 41.8398 17.4754 41.8126 17.4754C41.7855 17.4754 41.7633 17.431 41.7633 17.3767C41.7633 17.3224 41.7411 17.278 41.7139 17.278C41.6868 17.278 41.6646 17.2113 41.6646 17.1299C41.6646 17.0484 41.6423 16.9818 41.6152 16.9818C41.588 16.9818 41.5658 16.9373 41.5658 16.883C41.5658 16.8287 41.5436 16.7843 41.5165 16.7843C41.4893 16.7843 41.4671 16.7399 41.4671 16.6856C41.4671 16.6313 41.4449 16.5868 41.4177 16.5868C41.3906 16.5868 41.3684 16.5424 41.3684 16.4881C41.3684 16.4338 41.3461 16.3894 41.319 16.3894C41.2918 16.3894 41.2696 16.3449 41.2696 16.2906C41.2696 16.2363 41.2474 16.1919 41.2203 16.1919C41.1931 16.1919 41.1709 16.1475 41.1709 16.0932C41.1709 16.0389 41.1487 15.9944 41.1215 15.9944C41.0944 15.9944 41.0722 15.95 41.0722 15.8957C41.0722 15.8414 41.0499 15.797 41.0228 15.797C40.9956 15.797 40.9734 15.7526 40.9734 15.6983C40.9734 15.644 40.9512 15.5995 40.9241 15.5995C40.8969 15.5995 40.8747 15.56 40.8747 15.5117C40.8747 15.4634 40.8303 15.3918 40.776 15.3527C40.7217 15.3135 40.6772 15.242 40.6772 15.1937C40.6772 15.1454 40.655 15.1059 40.6279 15.1059C40.6007 15.1059 40.5785 15.0614 40.5785 15.0071C40.5785 14.9528 40.5563 14.9084 40.5291 14.9084C40.502 14.9084 40.4798 14.8689 40.4798 14.8206C40.4798 14.7723 40.4353 14.7007 40.381 14.6616C40.3267 14.6224 40.2823 14.5558 40.2823 14.5135C40.2823 14.4712 40.2379 14.4045 40.1836 14.3654C40.1293 14.3262 40.0849 14.2596 40.0849 14.2173C40.0849 14.175 40.0404 14.1083 39.9861 14.0692C39.9318 14.03 39.8874 13.9674 39.8874 13.93C39.8874 13.8926 39.8207 13.7997 39.7393 13.7236C39.6578 13.6476 39.5912 13.5587 39.5912 13.5262C39.5912 13.4936 39.5246 13.4048 39.4431 13.3287C39.3616 13.2526 39.295 13.1642 39.295 13.1322C39.295 13.1003 39.2061 12.9888 39.0975 12.8844C38.9889 12.7801 38.9001 12.6706 38.9001 12.6412C38.9001 12.5712 36.7943 10.4655 36.7244 10.4655C36.695 10.4655 36.5855 10.3766 36.4812 10.268C36.3768 10.1594 36.2653 10.0706 36.2333 10.0706C36.2014 10.0706 36.1129 10.0039 36.0369 9.92248C35.9608 9.84103 35.8719 9.77439 35.8394 9.77439C35.8069 9.77439 35.718 9.70774 35.642 9.62629C35.5659 9.54484 35.4681 9.47819 35.4247 9.47819C35.3813 9.47819 35.3458 9.45598 35.3458 9.42883C35.3458 9.40168 35.3013 9.37946 35.247 9.37946C35.1927 9.37946 35.1483 9.35725 35.1483 9.3301C35.1483 9.30132 34.9838 9.28073 34.7534 9.28073C34.523 9.28073 34.3584 9.30132 34.3584 9.3301ZM26.46 13.773C26.46 13.8004 26.5916 13.8224 26.7561 13.8224C26.9207 13.8224 27.0523 13.8443 27.0523 13.8717C27.0523 13.8989 27.1634 13.9211 27.2992 13.9211C27.4349 13.9211 27.546 13.9433 27.546 13.9705C27.546 13.9976 27.6126 14.0198 27.6941 14.0198C27.7755 14.0198 27.8422 14.042 27.8422 14.0692C27.8422 14.0963 27.931 14.1186 28.0397 14.1186C28.1483 14.1186 28.2371 14.1408 28.2371 14.1679C28.2371 14.1951 28.2815 14.2173 28.3358 14.2173C28.3901 14.2173 28.4346 14.2395 28.4346 14.2667C28.4346 14.2938 28.5012 14.316 28.5827 14.316C28.6641 14.316 28.7308 14.3382 28.7308 14.3654C28.7308 14.3925 28.7752 14.4148 28.8295 14.4148C28.8838 14.4148 28.9282 14.437 28.9282 14.4641C28.9282 14.4913 28.9727 14.5135 29.027 14.5135C29.0813 14.5135 29.1257 14.5357 29.1257 14.5628C29.1257 14.59 29.1701 14.6122 29.2244 14.6122C29.2787 14.6122 29.3232 14.6344 29.3232 14.6616C29.3232 14.6887 29.3676 14.7109 29.4219 14.7109C29.4762 14.7109 29.5206 14.7332 29.5206 14.7603C29.5206 14.7875 29.565 14.8097 29.6194 14.8097C29.6737 14.8097 29.7181 14.8319 29.7181 14.859C29.7181 14.8862 29.7576 14.9084 29.8059 14.9084C29.8542 14.9084 29.9258 14.9528 29.9649 15.0071C30.0041 15.0614 30.0707 15.1059 30.113 15.1059C30.1553 15.1059 30.222 15.1503 30.2611 15.2046C30.3002 15.2589 30.3629 15.3033 30.4003 15.3033C30.4377 15.3033 30.5306 15.37 30.6067 15.4514C30.6827 15.5329 30.7697 15.5995 30.7998 15.5995C30.8713 15.5995 31.9889 16.7172 31.9889 16.7886C31.9889 16.8188 32.0555 16.9057 32.137 16.9818C32.2184 17.0578 32.2851 17.1467 32.2851 17.1792C32.2851 17.2118 32.3517 17.3006 32.4332 17.3767C32.5146 17.4528 32.5813 17.5506 32.5813 17.5939C32.5813 17.6374 32.6035 17.6729 32.6306 17.6729C32.6578 17.6729 32.68 17.7124 32.68 17.7607C32.68 17.809 32.7244 17.8806 32.7787 17.9197C32.833 17.9589 32.8775 18.0304 32.8775 18.0787C32.8775 18.127 32.8997 18.1665 32.9268 18.1665C32.954 18.1665 32.9762 18.211 32.9762 18.2653C32.9762 18.3196 32.9984 18.364 33.0256 18.364C33.0527 18.364 33.0749 18.4084 33.0749 18.4627C33.0749 18.517 33.0972 18.5615 33.1243 18.5615C33.1515 18.5615 33.1737 18.6059 33.1737 18.6602C33.1737 18.7145 33.1959 18.7589 33.223 18.7589C33.2502 18.7589 33.2724 18.8034 33.2724 18.8577C33.2724 18.956 33.2395 18.9564 25.2752 18.9564C17.3109 18.9564 17.278 18.956 17.278 18.8577C17.278 18.8034 17.3002 18.7589 17.3273 18.7589C17.3545 18.7589 17.3767 18.7145 17.3767 18.6602C17.3767 18.6059 17.3989 18.5615 17.4261 18.5615C17.4532 18.5615 17.4754 18.517 17.4754 18.4627C17.4754 18.4084 17.4976 18.364 17.5248 18.364C17.5519 18.364 17.5741 18.3196 17.5741 18.2653C17.5741 18.211 17.5964 18.1665 17.6235 18.1665C17.6507 18.1665 17.6729 18.127 17.6729 18.0787C17.6729 18.0304 17.7173 17.9589 17.7716 17.9197C17.8259 17.8806 17.8703 17.809 17.8703 17.7607C17.8703 17.7124 17.8926 17.6729 17.9197 17.6729C17.9469 17.6729 17.9691 17.6374 17.9691 17.5939C17.9691 17.5506 18.0357 17.4528 18.1172 17.3767C18.1986 17.3006 18.2653 17.2118 18.2653 17.1792C18.2653 17.1467 18.3319 17.0578 18.4134 16.9818C18.4948 16.9057 18.5615 16.8188 18.5615 16.7886C18.5615 16.7585 18.8167 16.4787 19.1286 16.1667C19.4406 15.8547 19.7205 15.5995 19.7506 15.5995C19.7807 15.5995 19.8676 15.5329 19.9437 15.4514C20.0198 15.37 20.1127 15.3033 20.15 15.3033C20.1875 15.3033 20.2501 15.2589 20.2893 15.2046C20.3284 15.1503 20.395 15.1059 20.4374 15.1059C20.4797 15.1059 20.5463 15.0614 20.5854 15.0071C20.6246 14.9528 20.6961 14.9084 20.7445 14.9084C20.7927 14.9084 20.8323 14.8862 20.8323 14.859C20.8323 14.8319 20.8767 14.8097 20.931 14.8097C20.9853 14.8097 21.0297 14.7875 21.0297 14.7603C21.0297 14.7332 21.0742 14.7109 21.1285 14.7109C21.1828 14.7109 21.2272 14.6887 21.2272 14.6616C21.2272 14.6344 21.2716 14.6122 21.3259 14.6122C21.3802 14.6122 21.4247 14.59 21.4247 14.5628C21.4247 14.5357 21.4691 14.5135 21.5234 14.5135C21.5777 14.5135 21.6221 14.4913 21.6221 14.4641C21.6221 14.437 21.6666 14.4148 21.7209 14.4148C21.7752 14.4148 21.8196 14.3925 21.8196 14.3654C21.8196 14.3382 21.8862 14.316 21.9677 14.316C22.0491 14.316 22.1158 14.2938 22.1158 14.2667C22.1158 14.2395 22.1602 14.2173 22.2145 14.2173C22.2688 14.2173 22.3132 14.1951 22.3132 14.1679C22.3132 14.1408 22.4021 14.1186 22.5107 14.1186C22.6193 14.1186 22.7082 14.0963 22.7082 14.0692C22.7082 14.042 22.7748 14.0198 22.8563 14.0198C22.9377 14.0198 23.0044 13.9976 23.0044 13.9705C23.0044 13.9433 23.1154 13.9211 23.2512 13.9211C23.3869 13.9211 23.498 13.8989 23.498 13.8717C23.498 13.8443 23.6297 13.8224 23.7942 13.8224C23.9587 13.8224 24.0904 13.8004 24.0904 13.773C24.0904 13.7415 24.5183 13.7236 25.2752 13.7236C26.0321 13.7236 26.46 13.7415 26.46 13.773ZM9.57692 29.57C9.57692 29.5971 9.48806 29.6194 9.37946 29.6194C9.27086 29.6194 9.182 29.6416 9.182 29.6687C9.182 29.6959 9.11536 29.7181 9.0339 29.7181C8.95245 29.7181 8.88581 29.7403 8.88581 29.7674C8.88581 29.7946 8.81916 29.8168 8.73771 29.8168C8.65625 29.8168 8.58961 29.839 8.58961 29.8662C8.58961 29.8933 8.52297 29.9155 8.44151 29.9155C8.36006 29.9155 8.29342 29.9378 8.29342 29.9649C8.29342 29.9921 8.24899 30.0143 8.19469 30.0143C8.14038 30.0143 8.09596 30.0365 8.09596 30.0636C8.09596 30.0908 8.05641 30.113 8.00813 30.113C7.95981 30.113 7.88827 30.1574 7.84913 30.2117C7.80998 30.266 7.73845 30.3105 7.69012 30.3105C7.64184 30.3105 7.6023 30.3327 7.6023 30.3598C7.6023 30.387 7.56681 30.4092 7.52336 30.4092C7.47997 30.4092 7.38218 30.4758 7.30611 30.5573C7.23003 30.6388 7.1431 30.7054 7.11299 30.7054C7.03598 30.7054 5.92387 31.8258 5.92387 31.9034C5.92387 31.9384 5.87944 31.9991 5.82514 32.0383C5.77084 32.0774 5.72641 32.1441 5.72641 32.1864C5.72641 32.2287 5.68198 32.2953 5.62768 32.3345C5.57337 32.3736 5.52895 32.4451 5.52895 32.4935C5.52895 32.5417 5.50673 32.5813 5.47958 32.5813C5.45243 32.5813 5.43021 32.6257 5.43021 32.68C5.43021 32.7343 5.408 32.7787 5.38085 32.7787C5.3537 32.7787 5.33148 32.8232 5.33148 32.8775C5.33148 32.9318 5.30927 32.9762 5.28212 32.9762C5.25497 32.9762 5.23275 33.0206 5.23275 33.0749C5.23275 33.1292 5.21054 33.1737 5.18339 33.1737C5.15624 33.1737 5.13402 33.2181 5.13402 33.2724C5.13402 33.3267 5.11181 33.3711 5.08466 33.3711C5.0575 33.3711 5.03529 33.4378 5.03529 33.5192C5.03529 33.6007 5.01307 33.6673 4.98592 33.6673C4.95877 33.6673 4.93656 33.7562 4.93656 33.8648C4.93656 33.9734 4.91434 34.0623 4.88719 34.0623C4.86004 34.0623 4.83783 34.1733 4.83783 34.3091C4.83783 34.4448 4.81561 34.5559 4.78846 34.5559C4.75776 34.5559 4.7391 34.8357 4.7391 35.2964C4.7391 35.7571 4.75776 36.0369 4.78846 36.0369C4.81561 36.0369 4.83783 36.1479 4.83783 36.2837C4.83783 36.4195 4.86004 36.5305 4.88719 36.5305C4.91434 36.5305 4.93656 36.5972 4.93656 36.6786C4.93656 36.7601 4.95877 36.8267 4.98592 36.8267C5.01307 36.8267 5.03529 36.8934 5.03529 36.9748C5.03529 37.0563 5.0575 37.1229 5.08466 37.1229C5.11181 37.1229 5.13402 37.1896 5.13402 37.271C5.13402 37.3525 5.15624 37.4191 5.18339 37.4191C5.21054 37.4191 5.23275 37.4635 5.23275 37.5178C5.23275 37.5721 5.25497 37.6166 5.28212 37.6166C5.30927 37.6166 5.33148 37.661 5.33148 37.7153C5.33148 37.7696 5.3537 37.814 5.38085 37.814C5.408 37.814 5.43021 37.8585 5.43021 37.9128C5.43021 37.9671 5.45243 38.0115 5.47958 38.0115C5.50673 38.0115 5.52895 38.051 5.52895 38.0993C5.52895 38.1476 5.57337 38.2192 5.62768 38.2583C5.68198 38.2975 5.72641 38.3601 5.72641 38.3975C5.72641 38.4349 5.79305 38.5278 5.8745 38.6039C5.95596 38.68 6.0226 38.7669 6.0226 38.7971C6.0226 38.8687 6.94253 39.7887 7.01416 39.7887C7.04432 39.7887 7.1313 39.8553 7.20738 39.9368C7.28345 40.0182 7.37635 40.0849 7.41372 40.0849C7.45114 40.0849 7.51379 40.1293 7.55293 40.1836C7.59208 40.2379 7.66361 40.2823 7.71194 40.2823C7.76022 40.2823 7.79976 40.3045 7.79976 40.3317C7.79976 40.3588 7.84419 40.381 7.89849 40.381C7.9528 40.381 7.99722 40.4033 7.99722 40.4304C7.99722 40.4576 8.04165 40.4798 8.09596 40.4798C8.15026 40.4798 8.19469 40.502 8.19469 40.5291C8.19469 40.5563 8.23912 40.5785 8.29342 40.5785C8.34772 40.5785 8.39215 40.6007 8.39215 40.6279C8.39215 40.655 8.45879 40.6772 8.54025 40.6772C8.6217 40.6772 8.68834 40.6995 8.68834 40.7266C8.68834 40.7538 8.75499 40.776 8.83644 40.776C8.91789 40.776 8.98454 40.7982 8.98454 40.8253C8.98454 40.8525 9.05118 40.8747 9.13263 40.8747C9.21409 40.8747 9.28073 40.8969 9.28073 40.9241C9.28073 40.9512 9.3918 40.9734 9.52756 40.9734C9.66331 40.9734 9.77439 40.9956 9.77439 41.0228C9.77439 41.0499 9.72996 41.0722 9.67565 41.0722C9.62135 41.0722 9.57692 41.0944 9.57692 41.1215C9.57692 41.1497 9.42883 41.1709 9.23136 41.1709C9.0339 41.1709 8.88581 41.1921 8.88581 41.2203C8.88581 41.2477 8.75415 41.2696 8.58961 41.2696C8.42508 41.2696 8.29342 41.2915 8.29342 41.319C8.29342 41.3461 8.20456 41.3684 8.09596 41.3684C7.98735 41.3684 7.89849 41.3906 7.89849 41.4177C7.89849 41.4449 7.83185 41.4671 7.7504 41.4671C7.66894 41.4671 7.6023 41.4893 7.6023 41.5165C7.6023 41.5436 7.51344 41.5658 7.40484 41.5658C7.29623 41.5658 7.20738 41.588 7.20738 41.6152C7.20738 41.6423 7.16295 41.6646 7.10864 41.6646C7.05434 41.6646 7.00991 41.6868 7.00991 41.7139C7.00991 41.7411 6.94327 41.7633 6.86182 41.7633C6.78036 41.7633 6.71372 41.7855 6.71372 41.8126C6.71372 41.8398 6.64708 41.862 6.56562 41.862C6.48417 41.862 6.41753 41.8842 6.41753 41.9114C6.41753 41.9385 6.3731 41.9607 6.31879 41.9607C6.26449 41.9607 6.22006 41.983 6.22006 42.0101C6.22006 42.0373 6.17563 42.0595 6.12133 42.0595C6.06703 42.0595 6.0226 42.0817 6.0226 42.1088C6.0226 42.136 5.97817 42.1582 5.92387 42.1582C5.86957 42.1582 5.82514 42.1804 5.82514 42.2076C5.82514 42.2347 5.78071 42.2569 5.72641 42.2569C5.67211 42.2569 5.62768 42.2792 5.62768 42.3063C5.62768 42.3335 5.58325 42.3557 5.52895 42.3557C5.47464 42.3557 5.43021 42.3779 5.43021 42.405C5.43021 42.4322 5.39067 42.4544 5.34239 42.4544C5.29406 42.4544 5.22253 42.4988 5.18339 42.5531C5.14424 42.6074 5.07271 42.6519 5.02438 42.6519C4.9761 42.6519 4.93656 42.6741 4.93656 42.7012C4.93656 42.7284 4.89702 42.7506 4.84874 42.7506C4.80041 42.7506 4.72888 42.795 4.68973 42.8493C4.65058 42.9036 4.58394 42.9481 4.54163 42.9481C4.49933 42.9481 4.43268 42.9925 4.39354 43.0468C4.35439 43.1011 4.29224 43.1455 4.25536 43.1455C4.21849 43.1455 4.10297 43.2344 3.99861 43.343C3.89425 43.4516 3.78387 43.5404 3.75327 43.5404C3.72266 43.5404 3.5443 43.6959 3.35686 43.886C3.16942 44.0761 2.99121 44.2316 2.9608 44.2316C2.88952 44.2316 2.76447 44.3565 2.76447 44.4276C2.76447 44.4579 2.58676 44.6584 2.36955 44.8733C2.15234 45.0882 1.97462 45.2894 1.97462 45.3204C1.97462 45.3514 1.90798 45.439 1.82653 45.5151C1.74507 45.5911 1.67843 45.684 1.67843 45.7214C1.67843 45.7588 1.634 45.8215 1.5797 45.8606C1.5254 45.8998 1.48097 45.9664 1.48097 46.0087C1.48097 46.051 1.43654 46.1177 1.38224 46.1568C1.32793 46.196 1.28351 46.2675 1.28351 46.3158C1.28351 46.3641 1.26129 46.4036 1.23414 46.4036C1.20699 46.4036 1.18477 46.4432 1.18477 46.4915C1.18477 46.5398 1.14034 46.6113 1.08604 46.6505C1.03174 46.6896 0.987312 46.7612 0.987312 46.8095C0.987312 46.8578 0.965097 46.8973 0.937946 46.8973C0.910795 46.8973 0.888581 46.9417 0.888581 46.996C0.888581 47.0503 0.866366 47.0948 0.839215 47.0948C0.812064 47.0948 0.789849 47.1392 0.789849 47.1935C0.789849 47.2478 0.767635 47.2922 0.740484 47.2922C0.713333 47.2922 0.691118 47.3367 0.691118 47.391C0.691118 47.4453 0.668904 47.4897 0.641753 47.4897C0.614601 47.4897 0.592387 47.5341 0.592387 47.5884C0.592387 47.6427 0.570172 47.6872 0.543021 47.6872C0.51587 47.6872 0.493656 47.7538 0.493656 47.8353C0.493656 47.9167 0.471441 47.9833 0.44429 47.9833C0.417139 47.9833 0.394925 48.05 0.394925 48.1314C0.394925 48.2129 0.37271 48.2795 0.345559 48.2795C0.318408 48.2795 0.296194 48.324 0.296194 48.3783C0.296194 48.4326 0.273979 48.477 0.246828 48.477C0.219677 48.477 0.197462 48.5436 0.197462 48.6251C0.197462 48.7066 0.175248 48.7732 0.148097 48.7732C0.120946 48.7732 0.0987312 48.8621 0.0987312 48.9707C0.0987312 49.0793 0.0765167 49.1681 0.0493656 49.1681C0.0211778 49.1681 0 49.3162 0 49.5137C0 49.7111 0.0211778 49.8592 0.0493656 49.8592C0.0765167 49.8592 0.0987312 49.8932 0.0987312 49.9346C0.0987312 50.0326 0.517796 50.4516 0.615786 50.4516C0.657204 50.4516 0.691118 50.4738 0.691118 50.501C0.691118 50.5337 3.99861 50.5504 10.5149 50.5504C17.0311 50.5504 20.3386 50.5337 20.3386 50.501C20.3386 50.4738 20.383 50.4516 20.4374 50.4516C20.4917 50.4516 20.5361 50.4294 20.5361 50.4023C20.5361 50.3751 20.571 50.3529 20.6136 50.3529C20.7088 50.3529 20.8323 50.2356 20.8323 50.1452C20.8323 50.1085 20.8767 50.0465 20.931 50.0073C21.0169 49.9455 21.0297 49.8795 21.0297 49.5028C21.0297 49.2468 21.0095 49.0694 20.9804 49.0694C20.9532 49.0694 20.931 48.9805 20.931 48.8719C20.931 48.7633 20.9088 48.6745 20.8816 48.6745C20.8545 48.6745 20.8323 48.6078 20.8323 48.5264C20.8323 48.4449 20.8101 48.3783 20.7829 48.3783C20.7558 48.3783 20.7335 48.3338 20.7335 48.2795C20.7335 48.2252 20.7113 48.1808 20.6842 48.1808C20.657 48.1808 20.6348 48.1142 20.6348 48.0327C20.6348 47.9513 20.6126 47.8846 20.5854 47.8846C20.5583 47.8846 20.5361 47.8402 20.5361 47.7859C20.5361 47.7316 20.5139 47.6872 20.4867 47.6872C20.4596 47.6872 20.4374 47.6427 20.4374 47.5884C20.4374 47.5341 20.4151 47.4897 20.388 47.4897C20.3608 47.4897 20.3386 47.423 20.3386 47.3416C20.3386 47.2601 20.3164 47.1935 20.2893 47.1935C20.2621 47.1935 20.2399 47.154 20.2399 47.1057C20.2399 47.0573 20.1955 46.9858 20.1412 46.9467C20.0869 46.9075 20.0424 46.836 20.0424 46.7877C20.0424 46.7394 20.0202 46.6998 19.9931 46.6998C19.9659 46.6998 19.9437 46.6554 19.9437 46.6011C19.9437 46.5468 19.9215 46.5024 19.8943 46.5024C19.8672 46.5024 19.845 46.4628 19.845 46.4146C19.845 46.3662 19.8005 46.2947 19.7462 46.2556C19.6919 46.2164 19.6475 46.1498 19.6475 46.1075C19.6475 46.0651 19.6031 45.9985 19.5488 45.9594C19.4945 45.9202 19.45 45.8576 19.45 45.8201C19.45 45.7828 19.3834 45.6899 19.3019 45.6138C19.2205 45.5377 19.1538 45.4496 19.1538 45.418C19.1538 45.3864 19.0428 45.2524 18.907 45.1201C18.7713 44.9879 18.6602 44.8558 18.6602 44.8265C18.6602 44.7571 17.7397 43.8366 17.6703 43.8366C17.641 43.8366 17.5089 43.7256 17.3767 43.5898C17.2444 43.4541 17.1064 43.343 17.0699 43.343C17.0334 43.343 16.9715 43.2986 16.9324 43.2443C16.8932 43.1899 16.8306 43.1455 16.7932 43.1455C16.7558 43.1455 16.6629 43.0789 16.5868 42.9974C16.5108 42.916 16.413 42.8493 16.3696 42.8493C16.3261 42.8493 16.2906 42.8271 16.2906 42.8C16.2906 42.7728 16.2511 42.7506 16.2028 42.7506C16.1545 42.7506 16.083 42.7062 16.0438 42.6519C16.0047 42.5976 15.9331 42.5531 15.8848 42.5531C15.8365 42.5531 15.797 42.5309 15.797 42.5038C15.797 42.4766 15.7526 42.4544 15.6983 42.4544C15.644 42.4544 15.5995 42.4322 15.5995 42.405C15.5995 42.3779 15.5551 42.3557 15.5008 42.3557C15.4465 42.3557 15.4021 42.3335 15.4021 42.3063C15.4021 42.2792 15.3576 42.2569 15.3033 42.2569C15.249 42.2569 15.2046 42.2347 15.2046 42.2076C15.2046 42.1804 15.1602 42.1582 15.1059 42.1582C15.0516 42.1582 15.0071 42.136 15.0071 42.1088C15.0071 42.0817 14.9627 42.0595 14.9084 42.0595C14.8541 42.0595 14.8097 42.0373 14.8097 42.0101C14.8097 41.983 14.7652 41.9607 14.7109 41.9607C14.6566 41.9607 14.6122 41.9385 14.6122 41.9114C14.6122 41.8842 14.5456 41.862 14.4641 41.862C14.3827 41.862 14.316 41.8398 14.316 41.8126C14.316 41.7855 14.2716 41.7633 14.2173 41.7633C14.163 41.7633 14.1186 41.7411 14.1186 41.7139C14.1186 41.6868 14.0519 41.6646 13.9705 41.6646C13.889 41.6646 13.8224 41.6423 13.8224 41.6152C13.8224 41.588 13.7557 41.5658 13.6743 41.5658C13.5928 41.5658 13.5262 41.5436 13.5262 41.5165C13.5262 41.4893 13.4373 41.4671 13.3287 41.4671C13.2201 41.4671 13.1312 41.4449 13.1312 41.4177C13.1312 41.3906 13.0424 41.3684 12.9338 41.3684C12.8252 41.3684 12.7363 41.3461 12.7363 41.319C12.7363 41.2918 12.6252 41.2696 12.4895 41.2696C12.3537 41.2696 12.2427 41.2474 12.2427 41.2203C12.2427 41.1915 12.0781 41.1709 11.8477 41.1709C11.6174 41.1709 11.4528 41.1503 11.4528 41.1215C11.4528 41.0944 11.4084 41.0722 11.3541 41.0722C11.2998 41.0722 11.2554 41.0499 11.2554 41.0228C11.2554 40.9956 11.3664 40.9734 11.5022 40.9734C11.6379 40.9734 11.749 40.9512 11.749 40.9241C11.749 40.8969 11.8379 40.8747 11.9465 40.8747C12.0551 40.8747 12.1439 40.8525 12.1439 40.8253C12.1439 40.7982 12.2106 40.776 12.292 40.776C12.3735 40.776 12.4401 40.7538 12.4401 40.7266C12.4401 40.6995 12.4846 40.6772 12.5389 40.6772C12.5932 40.6772 12.6376 40.655 12.6376 40.6279C12.6376 40.6007 12.682 40.5785 12.7363 40.5785C12.7906 40.5785 12.8351 40.5563 12.8351 40.5291C12.8351 40.502 12.8795 40.4798 12.9338 40.4798C12.9881 40.4798 13.0325 40.4576 13.0325 40.4304C13.0325 40.4033 13.0769 40.381 13.1312 40.381C13.1855 40.381 13.23 40.3588 13.23 40.3317C13.23 40.3045 13.2695 40.2823 13.3178 40.2823C13.3661 40.2823 13.4377 40.2379 13.4768 40.1836C13.516 40.1293 13.5826 40.0849 13.6249 40.0849C13.6672 40.0849 13.7339 40.0404 13.773 39.9861C13.8121 39.9318 13.8728 39.8874 13.9078 39.8874C13.9854 39.8874 15.1059 38.7753 15.1059 38.6983C15.1059 38.6682 15.1725 38.5812 15.254 38.5052C15.3354 38.4291 15.4021 38.3313 15.4021 38.2879C15.4021 38.2445 15.4243 38.209 15.4514 38.209C15.4786 38.209 15.5008 38.1694 15.5008 38.1211C15.5008 38.0728 15.5452 38.0013 15.5995 37.9621C15.6538 37.923 15.6983 37.8515 15.6983 37.8031C15.6983 37.7548 15.7205 37.7153 15.7476 37.7153C15.7748 37.7153 15.797 37.6709 15.797 37.6166C15.797 37.5623 15.8192 37.5178 15.8464 37.5178C15.8735 37.5178 15.8957 37.4512 15.8957 37.3697C15.8957 37.2883 15.9179 37.2216 15.9451 37.2216C15.9722 37.2216 15.9944 37.155 15.9944 37.0736C15.9944 36.9921 16.0167 36.9255 16.0438 36.9255C16.071 36.9255 16.0932 36.8588 16.0932 36.7774C16.0932 36.6959 16.1154 36.6293 16.1425 36.6293C16.1697 36.6293 16.1919 36.5404 16.1919 36.4318C16.1919 36.3232 16.2141 36.2343 16.2413 36.2343C16.2725 36.2343 16.2906 35.8888 16.2906 35.2964C16.2906 34.704 16.2725 34.3584 16.2413 34.3584C16.2141 34.3584 16.1919 34.2696 16.1919 34.161C16.1919 34.0524 16.1697 33.9635 16.1425 33.9635C16.1154 33.9635 16.0932 33.8747 16.0932 33.7661C16.0932 33.6575 16.071 33.5686 16.0438 33.5686C16.0167 33.5686 15.9944 33.502 15.9944 33.4205C15.9944 33.339 15.9722 33.2724 15.9451 33.2724C15.9179 33.2724 15.8957 33.228 15.8957 33.1737C15.8957 33.1194 15.8735 33.0749 15.8464 33.0749C15.8192 33.0749 15.797 33.0305 15.797 32.9762C15.797 32.9219 15.7748 32.8775 15.7476 32.8775C15.7205 32.8775 15.6983 32.833 15.6983 32.7787C15.6983 32.7244 15.676 32.68 15.6489 32.68C15.6217 32.68 15.5995 32.6405 15.5995 32.5922C15.5995 32.5439 15.5551 32.4723 15.5008 32.4332C15.4465 32.394 15.4021 32.3274 15.4021 32.2851C15.4021 32.2428 15.3576 32.1761 15.3033 32.137C15.249 32.0978 15.2046 32.0357 15.2046 31.9988C15.2046 31.9619 15.1157 31.8464 15.0071 31.7421C14.8985 31.6377 14.8097 31.5279 14.8097 31.4981C14.8097 31.4267 14.285 30.9029 14.2135 30.9029C14.1831 30.9029 14.0959 30.8362 14.0198 30.7548C13.9438 30.6733 13.8508 30.6067 13.8135 30.6067C13.7761 30.6067 13.7134 30.5622 13.6743 30.5079C13.6351 30.4536 13.5685 30.4092 13.5262 30.4092C13.4839 30.4092 13.4172 30.3648 13.3781 30.3105C13.3389 30.2562 13.2674 30.2117 13.2191 30.2117C13.1708 30.2117 13.1312 30.1895 13.1312 30.1624C13.1312 30.1352 13.0868 30.113 13.0325 30.113C12.9782 30.113 12.9338 30.0908 12.9338 30.0636C12.9338 30.0365 12.8894 30.0143 12.8351 30.0143C12.7807 30.0143 12.7363 29.9921 12.7363 29.9649C12.7363 29.9378 12.6919 29.9155 12.6376 29.9155C12.5833 29.9155 12.5389 29.8933 12.5389 29.8662C12.5389 29.839 12.4722 29.8168 12.3908 29.8168C12.3093 29.8168 12.2427 29.7946 12.2427 29.7674C12.2427 29.7403 12.176 29.7181 12.0946 29.7181C12.0131 29.7181 11.9465 29.6959 11.9465 29.6687C11.9465 29.6416 11.8354 29.6194 11.6996 29.6194C11.5639 29.6194 11.4528 29.5971 11.4528 29.57C11.4528 29.5388 11.1073 29.5206 10.5149 29.5206C9.92248 29.5206 9.57692 29.5388 9.57692 29.57ZM39.0975 29.57C39.0975 29.5971 39.0087 29.6194 38.9001 29.6194C38.7915 29.6194 38.7026 29.6416 38.7026 29.6687C38.7026 29.6959 38.6138 29.7181 38.5052 29.7181C38.3965 29.7181 38.3077 29.7403 38.3077 29.7674C38.3077 29.7946 38.2411 29.8168 38.1596 29.8168C38.0781 29.8168 38.0115 29.839 38.0115 29.8662C38.0115 29.8933 37.9671 29.9155 37.9128 29.9155C37.8585 29.9155 37.814 29.9378 37.814 29.9649C37.814 29.9921 37.7696 30.0143 37.7153 30.0143C37.661 30.0143 37.6166 30.0365 37.6166 30.0636C37.6166 30.0908 37.5721 30.113 37.5178 30.113C37.4635 30.113 37.4191 30.1352 37.4191 30.1624C37.4191 30.1895 37.3796 30.2117 37.3313 30.2117C37.283 30.2117 37.2114 30.2562 37.1723 30.3105C37.1331 30.3648 37.0665 30.4092 37.0242 30.4092C36.9819 30.4092 36.9152 30.4536 36.8761 30.5079C36.8369 30.5622 36.7743 30.6067 36.7369 30.6067C36.6995 30.6067 36.6066 30.6733 36.5305 30.7548C36.4545 30.8362 36.3674 30.9029 36.337 30.9029C36.3067 30.9029 36.1379 31.0469 35.9619 31.2228C35.786 31.3988 35.642 31.5676 35.642 31.5979C35.642 31.6283 35.5753 31.7154 35.4939 31.7914C35.4124 31.8675 35.3458 31.9604 35.3458 31.9978C35.3458 32.0352 35.3013 32.0978 35.247 32.137C35.1927 32.1761 35.1483 32.2428 35.1483 32.2851C35.1483 32.3274 35.1039 32.394 35.0496 32.4332C34.9953 32.4723 34.9508 32.5439 34.9508 32.5922C34.9508 32.6405 34.9286 32.68 34.9015 32.68C34.8743 32.68 34.8521 32.7244 34.8521 32.7787C34.8521 32.833 34.8299 32.8775 34.8027 32.8775C34.7756 32.8775 34.7534 32.9219 34.7534 32.9762C34.7534 33.0305 34.7312 33.0749 34.704 33.0749C34.6769 33.0749 34.6546 33.1194 34.6546 33.1737C34.6546 33.228 34.6324 33.2724 34.6053 33.2724C34.5781 33.2724 34.5559 33.339 34.5559 33.4205C34.5559 33.502 34.5337 33.5686 34.5065 33.5686C34.4794 33.5686 34.4572 33.6575 34.4572 33.7661C34.4572 33.8747 34.435 33.9635 34.4078 33.9635C34.3807 33.9635 34.3584 34.0524 34.3584 34.161C34.3584 34.2696 34.3362 34.3584 34.3091 34.3584C34.2779 34.3584 34.2597 34.704 34.2597 35.2964C34.2597 35.8888 34.2779 36.2343 34.3091 36.2343C34.3362 36.2343 34.3584 36.3232 34.3584 36.4318C34.3584 36.5404 34.3807 36.6293 34.4078 36.6293C34.435 36.6293 34.4572 36.6959 34.4572 36.7774C34.4572 36.8588 34.4794 36.9255 34.5065 36.9255C34.5337 36.9255 34.5559 36.9921 34.5559 37.0736C34.5559 37.155 34.5781 37.2216 34.6053 37.2216C34.6324 37.2216 34.6546 37.2883 34.6546 37.3697C34.6546 37.4512 34.6769 37.5178 34.704 37.5178C34.7312 37.5178 34.7534 37.5623 34.7534 37.6166C34.7534 37.6709 34.7756 37.7153 34.8027 37.7153C34.8299 37.7153 34.8521 37.7548 34.8521 37.8031C34.8521 37.8515 34.8965 37.923 34.9508 37.9621C35.0051 38.0013 35.0496 38.0728 35.0496 38.1211C35.0496 38.1694 35.0718 38.209 35.0989 38.209C35.1261 38.209 35.1483 38.2445 35.1483 38.2879C35.1483 38.3313 35.2149 38.4291 35.2964 38.5052C35.3778 38.5812 35.4445 38.6682 35.4445 38.6983C35.4445 38.7698 36.5621 39.8874 36.6336 39.8874C36.6637 39.8874 36.7507 39.954 36.8267 40.0355C36.9028 40.1169 37.0006 40.1836 37.044 40.1836C37.0874 40.1836 37.1229 40.2058 37.1229 40.233C37.1229 40.2601 37.1673 40.2823 37.2216 40.2823C37.276 40.2823 37.3204 40.3045 37.3204 40.3317C37.3204 40.3588 37.3648 40.381 37.4191 40.381C37.4734 40.381 37.5178 40.4033 37.5178 40.4304C37.5178 40.4576 37.5623 40.4798 37.6166 40.4798C37.6709 40.4798 37.7153 40.502 37.7153 40.5291C37.7153 40.5563 37.7597 40.5785 37.814 40.5785C37.8683 40.5785 37.9128 40.6007 37.9128 40.6279C37.9128 40.655 37.9572 40.6772 38.0115 40.6772C38.0658 40.6772 38.1102 40.6995 38.1102 40.7266C38.1102 40.7538 38.1769 40.776 38.2583 40.776C38.3398 40.776 38.4064 40.7982 38.4064 40.8253C38.4064 40.8525 38.4953 40.8747 38.6039 40.8747C38.7125 40.8747 38.8013 40.8969 38.8013 40.9241C38.8013 40.9512 38.9124 40.9734 39.0482 40.9734C39.1839 40.9734 39.295 40.9956 39.295 41.0228C39.295 41.0499 39.2506 41.0722 39.1963 41.0722C39.142 41.0722 39.0975 41.0944 39.0975 41.1215C39.0975 41.1503 38.933 41.1709 38.7026 41.1709C38.4722 41.1709 38.3077 41.1915 38.3077 41.2203C38.3077 41.2474 38.1966 41.2696 38.0609 41.2696C37.9251 41.2696 37.814 41.2918 37.814 41.319C37.814 41.3461 37.7252 41.3684 37.6166 41.3684C37.508 41.3684 37.4191 41.3906 37.4191 41.4177C37.4191 41.4449 37.3303 41.4671 37.2216 41.4671C37.113 41.4671 37.0242 41.4893 37.0242 41.5165C37.0242 41.5436 36.9575 41.5658 36.8761 41.5658C36.7946 41.5658 36.728 41.588 36.728 41.6152C36.728 41.6423 36.6614 41.6646 36.5799 41.6646C36.4984 41.6646 36.4318 41.6868 36.4318 41.7139C36.4318 41.7411 36.3874 41.7633 36.3331 41.7633C36.2788 41.7633 36.2343 41.7855 36.2343 41.8126C36.2343 41.8398 36.1677 41.862 36.0862 41.862C36.0048 41.862 35.9381 41.8842 35.9381 41.9114C35.9381 41.9385 35.8937 41.9607 35.8394 41.9607C35.7851 41.9607 35.7407 41.983 35.7407 42.0101C35.7407 42.0373 35.6963 42.0595 35.642 42.0595C35.5877 42.0595 35.5432 42.0817 35.5432 42.1088C35.5432 42.136 35.4988 42.1582 35.4445 42.1582C35.3902 42.1582 35.3458 42.1804 35.3458 42.2076C35.3458 42.2347 35.3013 42.2569 35.247 42.2569C35.1927 42.2569 35.1483 42.2792 35.1483 42.3063C35.1483 42.3335 35.1039 42.3557 35.0496 42.3557C34.9953 42.3557 34.9508 42.3779 34.9508 42.405C34.9508 42.4322 34.9064 42.4544 34.8521 42.4544C34.7978 42.4544 34.7534 42.4766 34.7534 42.5038C34.7534 42.5309 34.7138 42.5531 34.6656 42.5531C34.6172 42.5531 34.5457 42.5976 34.5065 42.6519C34.4674 42.7062 34.3959 42.7506 34.3475 42.7506C34.2993 42.7506 34.2597 42.7728 34.2597 42.8C34.2597 42.8271 34.2202 42.8493 34.1719 42.8493C34.1236 42.8493 34.052 42.8938 34.0129 42.9481C33.9737 43.0024 33.9111 43.0468 33.8737 43.0468C33.8363 43.0468 33.7434 43.1134 33.6673 43.1949C33.5913 43.2763 33.5031 43.343 33.4715 43.343C33.4399 43.343 33.3059 43.4541 33.1737 43.5898C33.0414 43.7256 32.9093 43.8366 32.88 43.8366C32.8106 43.8366 31.8902 44.7571 31.8902 44.8265C31.8902 44.8558 31.7791 44.9879 31.6433 45.1201C31.5076 45.2524 31.3965 45.3864 31.3965 45.418C31.3965 45.4496 31.3299 45.5377 31.2484 45.6138C31.167 45.6899 31.1003 45.7828 31.1003 45.8201C31.1003 45.8576 31.0559 45.9202 31.0016 45.9594C30.9473 45.9985 30.9029 46.0651 30.9029 46.1075C30.9029 46.1498 30.8584 46.2164 30.8041 46.2556C30.7498 46.2947 30.7054 46.3662 30.7054 46.4146C30.7054 46.4628 30.6832 46.5024 30.656 46.5024C30.6289 46.5024 30.6067 46.5468 30.6067 46.6011C30.6067 46.6554 30.5844 46.6998 30.5573 46.6998C30.5301 46.6998 30.5079 46.7394 30.5079 46.7877C30.5079 46.836 30.4635 46.9075 30.4092 46.9467C30.3549 46.9858 30.3105 47.0573 30.3105 47.1057C30.3105 47.154 30.2883 47.1935 30.2611 47.1935C30.234 47.1935 30.2117 47.2601 30.2117 47.3416C30.2117 47.423 30.1895 47.4897 30.1624 47.4897C30.1352 47.4897 30.113 47.5341 30.113 47.5884C30.113 47.6427 30.0908 47.6872 30.0636 47.6872C30.0365 47.6872 30.0143 47.7316 30.0143 47.7859C30.0143 47.8402 29.9921 47.8846 29.9649 47.8846C29.9378 47.8846 29.9155 47.9513 29.9155 48.0327C29.9155 48.1142 29.8933 48.1808 29.8662 48.1808C29.839 48.1808 29.8168 48.2252 29.8168 48.2795C29.8168 48.3338 29.7946 48.3783 29.7674 48.3783C29.7403 48.3783 29.7181 48.4449 29.7181 48.5264C29.7181 48.6078 29.6959 48.6745 29.6687 48.6745C29.6416 48.6745 29.6194 48.7633 29.6194 48.8719C29.6194 48.9805 29.5971 49.0694 29.57 49.0694C29.5412 49.0694 29.5206 49.2339 29.5206 49.4643C29.5206 49.6947 29.5412 49.8592 29.57 49.8592C29.5971 49.8592 29.6194 49.9037 29.6194 49.958C29.6194 50.0123 29.6416 50.0567 29.6687 50.0567C29.6959 50.0567 29.7181 50.0916 29.7181 50.1343C29.7181 50.234 29.837 50.3529 29.9367 50.3529C29.9794 50.3529 30.0143 50.3751 30.0143 50.4023C30.0143 50.4294 30.0587 50.4516 30.113 50.4516C30.1673 50.4516 30.2117 50.4738 30.2117 50.501C30.2117 50.5337 33.5192 50.5504 40.0355 50.5504C46.5517 50.5504 49.8592 50.5337 49.8592 50.501C49.8592 50.4738 49.8932 50.4516 49.9346 50.4516C50.0326 50.4516 50.4516 50.0326 50.4516 49.9346C50.4516 49.8932 50.4738 49.8592 50.501 49.8592C50.5292 49.8592 50.5504 49.7111 50.5504 49.5137C50.5504 49.3162 50.5292 49.1681 50.501 49.1681C50.4738 49.1681 50.4516 49.0793 50.4516 48.9707C50.4516 48.8621 50.4294 48.7732 50.4023 48.7732C50.3751 48.7732 50.3529 48.7066 50.3529 48.6251C50.3529 48.5436 50.3307 48.477 50.3035 48.477C50.2764 48.477 50.2542 48.4326 50.2542 48.3783C50.2542 48.324 50.2319 48.2795 50.2048 48.2795C50.1776 48.2795 50.1554 48.2129 50.1554 48.1314C50.1554 48.05 50.1332 47.9833 50.1061 47.9833C50.0789 47.9833 50.0567 47.9167 50.0567 47.8353C50.0567 47.7538 50.0345 47.6872 50.0073 47.6872C49.9802 47.6872 49.958 47.6427 49.958 47.5884C49.958 47.5341 49.9358 47.4897 49.9086 47.4897C49.8815 47.4897 49.8592 47.4453 49.8592 47.391C49.8592 47.3367 49.837 47.2922 49.8099 47.2922C49.7827 47.2922 49.7605 47.2478 49.7605 47.1935C49.7605 47.1392 49.7383 47.0948 49.7111 47.0948C49.684 47.0948 49.6618 47.0503 49.6618 46.996C49.6618 46.9417 49.6396 46.8973 49.6124 46.8973C49.5853 46.8973 49.563 46.8578 49.563 46.8095C49.563 46.7612 49.5186 46.6896 49.4643 46.6505C49.41 46.6113 49.3656 46.5398 49.3656 46.4915C49.3656 46.4432 49.3434 46.4036 49.3162 46.4036C49.2891 46.4036 49.2669 46.3641 49.2669 46.3158C49.2669 46.2675 49.2224 46.196 49.1681 46.1568C49.1138 46.1177 49.0694 46.051 49.0694 46.0087C49.0694 45.9664 49.025 45.8998 48.9707 45.8606C48.9164 45.8215 48.8719 45.7593 48.8719 45.7225C48.8719 45.6856 48.7831 45.5701 48.6745 45.4657C48.5659 45.3613 48.477 45.2519 48.477 45.2224C48.477 45.1524 46.8651 43.5404 46.7951 43.5404C46.7656 43.5404 46.6561 43.4516 46.5517 43.343C46.4474 43.2344 46.3319 43.1455 46.295 43.1455C46.2581 43.1455 46.196 43.1011 46.1568 43.0468C46.1177 42.9925 46.051 42.9481 46.0087 42.9481C45.9664 42.9481 45.8998 42.9036 45.8606 42.8493C45.8215 42.795 45.75 42.7506 45.7016 42.7506C45.6533 42.7506 45.6138 42.7284 45.6138 42.7012C45.6138 42.6741 45.5743 42.6519 45.526 42.6519C45.4776 42.6519 45.4061 42.6074 45.367 42.5531C45.3278 42.4988 45.2563 42.4544 45.208 42.4544C45.1597 42.4544 45.1201 42.4322 45.1201 42.405C45.1201 42.3779 45.0757 42.3557 45.0214 42.3557C44.9671 42.3557 44.9227 42.3335 44.9227 42.3063C44.9227 42.2792 44.8783 42.2569 44.824 42.2569C44.7696 42.2569 44.7252 42.2347 44.7252 42.2076C44.7252 42.1804 44.6808 42.1582 44.6265 42.1582C44.5722 42.1582 44.5278 42.136 44.5278 42.1088C44.5278 42.0817 44.4833 42.0595 44.429 42.0595C44.3747 42.0595 44.3303 42.0373 44.3303 42.0101C44.3303 41.983 44.2859 41.9607 44.2316 41.9607C44.1773 41.9607 44.1328 41.9385 44.1328 41.9114C44.1328 41.8842 44.0662 41.862 43.9847 41.862C43.9033 41.862 43.8366 41.8398 43.8366 41.8126C43.8366 41.7855 43.77 41.7633 43.6885 41.7633C43.6071 41.7633 43.5404 41.7411 43.5404 41.7139C43.5404 41.6868 43.496 41.6646 43.4417 41.6646C43.3874 41.6646 43.343 41.6423 43.343 41.6152C43.343 41.588 43.2541 41.5658 43.1455 41.5658C43.0369 41.5658 42.9481 41.5436 42.9481 41.5165C42.9481 41.4893 42.8814 41.4671 42.8 41.4671C42.7185 41.4671 42.6519 41.4449 42.6519 41.4177C42.6519 41.3906 42.563 41.3684 42.4544 41.3684C42.3458 41.3684 42.2569 41.3461 42.2569 41.319C42.2569 41.2918 42.1459 41.2696 42.0101 41.2696C41.8744 41.2696 41.7633 41.2474 41.7633 41.2203C41.7633 41.1915 41.5987 41.1709 41.3684 41.1709C41.138 41.1709 40.9734 41.1503 40.9734 41.1215C40.9734 41.0944 40.929 41.0722 40.8747 41.0722C40.8204 41.0722 40.776 41.0499 40.776 41.0228C40.776 40.9956 40.887 40.9734 41.0228 40.9734C41.1586 40.9734 41.2696 40.9512 41.2696 40.9241C41.2696 40.8969 41.3363 40.8747 41.4177 40.8747C41.4992 40.8747 41.5658 40.8525 41.5658 40.8253C41.5658 40.7982 41.6325 40.776 41.7139 40.776C41.7954 40.776 41.862 40.7538 41.862 40.7266C41.862 40.6995 41.9287 40.6772 42.0101 40.6772C42.0916 40.6772 42.1582 40.655 42.1582 40.6279C42.1582 40.6007 42.2026 40.5785 42.2569 40.5785C42.3112 40.5785 42.3557 40.5563 42.3557 40.5291C42.3557 40.502 42.4001 40.4798 42.4544 40.4798C42.5087 40.4798 42.5531 40.4576 42.5531 40.4304C42.5531 40.4033 42.5976 40.381 42.6519 40.381C42.7062 40.381 42.7506 40.3588 42.7506 40.3317C42.7506 40.3045 42.7901 40.2823 42.8384 40.2823C42.8867 40.2823 42.9583 40.2379 42.9974 40.1836C43.0366 40.1293 43.0992 40.0849 43.1366 40.0849C43.174 40.0849 43.2669 40.0182 43.343 39.9368C43.4191 39.8553 43.506 39.7887 43.5362 39.7887C43.6078 39.7887 44.5278 38.8687 44.5278 38.7971C44.5278 38.7669 44.5944 38.68 44.6759 38.6039C44.7573 38.5278 44.824 38.4349 44.824 38.3975C44.824 38.3601 44.8684 38.2975 44.9227 38.2583C44.977 38.2192 45.0214 38.1476 45.0214 38.0993C45.0214 38.051 45.0436 38.0115 45.0708 38.0115C45.0979 38.0115 45.1201 37.9671 45.1201 37.9128C45.1201 37.8585 45.1424 37.814 45.1695 37.814C45.1967 37.814 45.2189 37.7696 45.2189 37.7153C45.2189 37.661 45.2411 37.6166 45.2682 37.6166C45.2954 37.6166 45.3176 37.5721 45.3176 37.5178C45.3176 37.4635 45.3398 37.4191 45.367 37.4191C45.3941 37.4191 45.4163 37.3525 45.4163 37.271C45.4163 37.1896 45.4386 37.1229 45.4657 37.1229C45.4929 37.1229 45.5151 37.0563 45.5151 36.9748C45.5151 36.8934 45.5373 36.8267 45.5644 36.8267C45.5916 36.8267 45.6138 36.7601 45.6138 36.6786C45.6138 36.5972 45.636 36.5305 45.6632 36.5305C45.6903 36.5305 45.7125 36.4195 45.7125 36.2837C45.7125 36.1479 45.7347 36.0369 45.7619 36.0369C45.7926 36.0369 45.8113 35.7571 45.8113 35.2964C45.8113 34.8357 45.7926 34.5559 45.7619 34.5559C45.7347 34.5559 45.7125 34.4448 45.7125 34.3091C45.7125 34.1733 45.6903 34.0623 45.6632 34.0623C45.636 34.0623 45.6138 33.9734 45.6138 33.8648C45.6138 33.7562 45.5916 33.6673 45.5644 33.6673C45.5373 33.6673 45.5151 33.6007 45.5151 33.5192C45.5151 33.4378 45.4929 33.3711 45.4657 33.3711C45.4386 33.3711 45.4163 33.3267 45.4163 33.2724C45.4163 33.2181 45.3941 33.1737 45.367 33.1737C45.3398 33.1737 45.3176 33.1292 45.3176 33.0749C45.3176 33.0206 45.2954 32.9762 45.2682 32.9762C45.2411 32.9762 45.2189 32.9318 45.2189 32.8775C45.2189 32.8232 45.1967 32.7787 45.1695 32.7787C45.1424 32.7787 45.1201 32.7343 45.1201 32.68C45.1201 32.6257 45.0979 32.5813 45.0708 32.5813C45.0436 32.5813 45.0214 32.5369 45.0214 32.4826C45.0214 32.4283 44.9992 32.3838 44.972 32.3838C44.9449 32.3838 44.9227 32.3483 44.9227 32.3049C44.9227 32.2615 44.856 32.1637 44.7746 32.0876C44.6931 32.0116 44.6265 31.9246 44.6265 31.8945C44.6265 31.8644 44.3713 31.5845 44.0593 31.2726C43.7473 30.9606 43.4675 30.7054 43.4374 30.7054C43.4073 30.7054 43.3203 30.6388 43.2443 30.5573C43.1682 30.4758 43.0704 30.4092 43.027 30.4092C42.9836 30.4092 42.9481 30.387 42.9481 30.3598C42.9481 30.3327 42.9085 30.3105 42.8602 30.3105C42.8119 30.3105 42.7404 30.266 42.7012 30.2117C42.6621 30.1574 42.5906 30.113 42.5422 30.113C42.4939 30.113 42.4544 30.0908 42.4544 30.0636C42.4544 30.0365 42.41 30.0143 42.3557 30.0143C42.3014 30.0143 42.2569 29.9921 42.2569 29.9649C42.2569 29.9378 42.1903 29.9155 42.1088 29.9155C42.0274 29.9155 41.9607 29.8933 41.9607 29.8662C41.9607 29.839 41.8941 29.8168 41.8126 29.8168C41.7312 29.8168 41.6646 29.7946 41.6646 29.7674C41.6646 29.7403 41.5979 29.7181 41.5165 29.7181C41.435 29.7181 41.3684 29.6959 41.3684 29.6687C41.3684 29.6416 41.2795 29.6194 41.1709 29.6194C41.0623 29.6194 40.9734 29.5971 40.9734 29.57C40.9734 29.5388 40.6279 29.5206 40.0355 29.5206C39.4431 29.5206 39.0975 29.5388 39.0975 29.57ZM11.1566 31.6433C11.1566 31.6705 11.2677 31.6927 11.4035 31.6927C11.5392 31.6927 11.6503 31.7149 11.6503 31.7421C11.6503 31.7692 11.7169 31.7914 11.7984 31.7914C11.8798 31.7914 11.9465 31.8137 11.9465 31.8408C11.9465 31.868 12.0131 31.8902 12.0946 31.8902C12.176 31.8902 12.2427 31.9124 12.2427 31.9395C12.2427 31.9667 12.2822 31.9889 12.3305 31.9889C12.3788 31.9889 12.4503 32.0333 12.4895 32.0876C12.5286 32.1419 12.5953 32.1864 12.6376 32.1864C12.6799 32.1864 12.7465 32.2308 12.7857 32.2851C12.8248 32.3394 12.8858 32.3838 12.9213 32.3838C13.0052 32.3838 13.4274 32.8061 13.4274 32.89C13.4274 32.9254 13.4719 32.9864 13.5262 33.0256C13.5805 33.0647 13.6249 33.1314 13.6249 33.1737C13.6249 33.216 13.6693 33.2826 13.7236 33.3218C13.7779 33.3609 13.8224 33.4324 13.8224 33.4808C13.8224 33.5291 13.8446 33.5686 13.8717 33.5686C13.8989 33.5686 13.9211 33.6352 13.9211 33.7167C13.9211 33.7981 13.9433 33.8648 13.9705 33.8648C13.9976 33.8648 14.0198 33.9314 14.0198 34.0129C14.0198 34.0943 14.042 34.161 14.0692 34.161C14.0963 34.161 14.1186 34.2721 14.1186 34.4078C14.1186 34.5436 14.1408 34.6546 14.1679 34.6546C14.1983 34.6546 14.2173 34.9015 14.2173 35.2964C14.2173 35.6913 14.1983 35.9381 14.1679 35.9381C14.1408 35.9381 14.1186 36.0492 14.1186 36.185C14.1186 36.3207 14.0963 36.4318 14.0692 36.4318C14.042 36.4318 14.0198 36.4984 14.0198 36.5799C14.0198 36.6614 13.9976 36.728 13.9705 36.728C13.9433 36.728 13.9211 36.7724 13.9211 36.8267C13.9211 36.881 13.8989 36.9255 13.8717 36.9255C13.8446 36.9255 13.8224 36.9699 13.8224 37.0242C13.8224 37.0785 13.8001 37.1229 13.773 37.1229C13.7458 37.1229 13.7236 37.1673 13.7236 37.2216C13.7236 37.276 13.7014 37.3204 13.6743 37.3204C13.6471 37.3204 13.6249 37.354 13.6249 37.3951C13.6249 37.486 12.813 38.3077 12.7232 38.3077C12.6881 38.3077 12.6274 38.3521 12.5882 38.4064C12.5491 38.4607 12.4775 38.5052 12.4292 38.5052C12.3809 38.5052 12.3414 38.5274 12.3414 38.5545C12.3414 38.5817 12.297 38.6039 12.2427 38.6039C12.1884 38.6039 12.1439 38.6261 12.1439 38.6533C12.1439 38.6804 12.0773 38.7026 11.9958 38.7026C11.9144 38.7026 11.8477 38.7248 11.8477 38.752C11.8477 38.7791 11.7811 38.8013 11.6996 38.8013C11.6182 38.8013 11.5515 38.8236 11.5515 38.8507C11.5515 38.8782 11.4199 38.9001 11.2554 38.9001C11.0908 38.9001 10.9592 38.922 10.9592 38.9494C10.9592 38.9782 10.7946 38.9988 10.5642 38.9988C10.3338 38.9988 10.1693 38.9782 10.1693 38.9494C10.1693 38.922 10.0377 38.9001 9.87312 38.9001C9.70858 38.9001 9.57692 38.8782 9.57692 38.8507C9.57692 38.8236 9.48806 38.8013 9.37946 38.8013C9.27086 38.8013 9.182 38.7791 9.182 38.752C9.182 38.7248 9.11536 38.7026 9.0339 38.7026C8.95245 38.7026 8.88581 38.6804 8.88581 38.6533C8.88581 38.6261 8.84138 38.6039 8.78707 38.6039C8.73277 38.6039 8.68834 38.5817 8.68834 38.5545C8.68834 38.5274 8.6488 38.5052 8.60052 38.5052C8.55219 38.5052 8.48066 38.4607 8.44151 38.4064C8.40237 38.3521 8.3416 38.3077 8.3064 38.3077C8.22302 38.3077 7.50357 37.5882 7.50357 37.5049C7.50357 37.4697 7.45914 37.4089 7.40484 37.3697C7.35054 37.3306 7.30611 37.2591 7.30611 37.2107C7.30611 37.1625 7.28389 37.1229 7.25674 37.1229C7.22959 37.1229 7.20738 37.0785 7.20738 37.0242C7.20738 36.9699 7.18516 36.9255 7.15801 36.9255C7.13086 36.9255 7.10864 36.8588 7.10864 36.7774C7.10864 36.6959 7.08643 36.6293 7.05928 36.6293C7.03213 36.6293 7.00991 36.5404 7.00991 36.4318C7.00991 36.3232 6.9877 36.2343 6.96055 36.2343C6.9331 36.2343 6.91118 36.1027 6.91118 35.9381C6.91118 35.7736 6.88926 35.642 6.86182 35.642C6.83304 35.642 6.81245 35.4774 6.81245 35.247C6.81245 35.0166 6.83304 34.8521 6.86182 34.8521C6.88926 34.8521 6.91118 34.7204 6.91118 34.5559C6.91118 34.3914 6.9331 34.2597 6.96055 34.2597C6.9877 34.2597 7.00991 34.1931 7.00991 34.1116C7.00991 34.0302 7.03213 33.9635 7.05928 33.9635C7.08643 33.9635 7.10864 33.8969 7.10864 33.8154C7.10864 33.734 7.13086 33.6673 7.15801 33.6673C7.18516 33.6673 7.20738 33.6229 7.20738 33.5686C7.20738 33.5143 7.22959 33.4699 7.25674 33.4699C7.28389 33.4699 7.30611 33.4303 7.30611 33.382C7.30611 33.3337 7.35054 33.2622 7.40484 33.223C7.45914 33.1839 7.50357 33.1231 7.50357 33.088C7.50357 32.9982 8.32526 32.1864 8.41614 32.1864C8.45726 32.1864 8.49088 32.1641 8.49088 32.137C8.49088 32.1098 8.53531 32.0876 8.58961 32.0876C8.64391 32.0876 8.68834 32.0654 8.68834 32.0383C8.68834 32.0111 8.73277 31.9889 8.78707 31.9889C8.84138 31.9889 8.88581 31.9667 8.88581 31.9395C8.88581 31.9124 8.93023 31.8902 8.98454 31.8902C9.03884 31.8902 9.08327 31.868 9.08327 31.8408C9.08327 31.8137 9.14991 31.7914 9.23136 31.7914C9.31282 31.7914 9.37946 31.7692 9.37946 31.7421C9.37946 31.7149 9.49053 31.6927 9.62629 31.6927C9.76204 31.6927 9.87312 31.6705 9.87312 31.6433C9.87312 31.613 10.1199 31.594 10.5149 31.594C10.9098 31.594 11.1566 31.613 11.1566 31.6433ZM40.6772 31.6433C40.6772 31.6705 40.7883 31.6927 40.9241 31.6927C41.0598 31.6927 41.1709 31.7149 41.1709 31.7421C41.1709 31.7692 41.2375 31.7914 41.319 31.7914C41.4004 31.7914 41.4671 31.8137 41.4671 31.8408C41.4671 31.868 41.5115 31.8902 41.5658 31.8902C41.6201 31.8902 41.6646 31.9124 41.6646 31.9395C41.6646 31.9667 41.709 31.9889 41.7633 31.9889C41.8176 31.9889 41.862 32.0111 41.862 32.0383C41.862 32.0654 41.9064 32.0876 41.9607 32.0876C42.015 32.0876 42.0595 32.1098 42.0595 32.137C42.0595 32.1641 42.0931 32.1864 42.1342 32.1864C42.2251 32.1864 43.0468 32.9982 43.0468 33.088C43.0468 33.1231 43.0912 33.1839 43.1455 33.223C43.1998 33.2622 43.2443 33.3337 43.2443 33.382C43.2443 33.4303 43.2665 33.4699 43.2936 33.4699C43.3208 33.4699 43.343 33.5143 43.343 33.5686C43.343 33.6229 43.3652 33.6673 43.3923 33.6673C43.4195 33.6673 43.4417 33.734 43.4417 33.8154C43.4417 33.8969 43.4639 33.9635 43.4911 33.9635C43.5182 33.9635 43.5404 34.0302 43.5404 34.1116C43.5404 34.1931 43.5627 34.2597 43.5898 34.2597C43.6173 34.2597 43.6392 34.3914 43.6392 34.5559C43.6392 34.7204 43.6611 34.8521 43.6885 34.8521C43.7173 34.8521 43.7379 35.0166 43.7379 35.247C43.7379 35.4774 43.7173 35.642 43.6885 35.642C43.6611 35.642 43.6392 35.7736 43.6392 35.9381C43.6392 36.1027 43.6173 36.2343 43.5898 36.2343C43.5627 36.2343 43.5404 36.3232 43.5404 36.4318C43.5404 36.5404 43.5182 36.6293 43.4911 36.6293C43.4639 36.6293 43.4417 36.6959 43.4417 36.7774C43.4417 36.8588 43.4195 36.9255 43.3923 36.9255C43.3652 36.9255 43.343 36.9699 43.343 37.0242C43.343 37.0785 43.3208 37.1229 43.2936 37.1229C43.2665 37.1229 43.2443 37.1625 43.2443 37.2107C43.2443 37.2591 43.1998 37.3306 43.1455 37.3697C43.0912 37.4089 43.0468 37.4697 43.0468 37.5049C43.0468 37.54 42.8805 37.7351 42.6773 37.9382C42.4741 38.1414 42.2791 38.3077 42.244 38.3077C42.2088 38.3077 42.148 38.3521 42.1088 38.4064C42.0697 38.4607 41.9982 38.5052 41.9498 38.5052C41.9016 38.5052 41.862 38.5274 41.862 38.5545C41.862 38.5817 41.8176 38.6039 41.7633 38.6039C41.709 38.6039 41.6646 38.6261 41.6646 38.6533C41.6646 38.6804 41.5979 38.7026 41.5165 38.7026C41.435 38.7026 41.3684 38.7248 41.3684 38.752C41.3684 38.7791 41.2795 38.8013 41.1709 38.8013C41.0623 38.8013 40.9734 38.8236 40.9734 38.8507C40.9734 38.8782 40.8418 38.9001 40.6772 38.9001C40.5127 38.9001 40.381 38.922 40.381 38.9494C40.381 38.9782 40.2165 38.9988 39.9861 38.9988C39.7557 38.9988 39.5912 38.9782 39.5912 38.9494C39.5912 38.922 39.4595 38.9001 39.295 38.9001C39.1305 38.9001 38.9988 38.8782 38.9988 38.8507C38.9988 38.8236 38.9322 38.8013 38.8507 38.8013C38.7693 38.8013 38.7026 38.7791 38.7026 38.752C38.7026 38.7248 38.636 38.7026 38.5545 38.7026C38.4731 38.7026 38.4064 38.6804 38.4064 38.6533C38.4064 38.6261 38.362 38.6039 38.3077 38.6039C38.2534 38.6039 38.209 38.5817 38.209 38.5545C38.209 38.5274 38.1694 38.5052 38.1211 38.5052C38.0728 38.5052 38.0013 38.4607 37.9621 38.4064C37.923 38.3521 37.8622 38.3077 37.8271 38.3077C37.7373 38.3077 36.9255 37.486 36.9255 37.3951C36.9255 37.354 36.9032 37.3204 36.8761 37.3204C36.8489 37.3204 36.8267 37.276 36.8267 37.2216C36.8267 37.1673 36.8045 37.1229 36.7774 37.1229C36.7502 37.1229 36.728 37.0785 36.728 37.0242C36.728 36.9699 36.7058 36.9255 36.6786 36.9255C36.6515 36.9255 36.6293 36.881 36.6293 36.8267C36.6293 36.7724 36.607 36.728 36.5799 36.728C36.5527 36.728 36.5305 36.6614 36.5305 36.5799C36.5305 36.4984 36.5083 36.4318 36.4812 36.4318C36.454 36.4318 36.4318 36.3207 36.4318 36.185C36.4318 36.0492 36.4096 35.9381 36.3824 35.9381C36.3521 35.9381 36.3331 35.6913 36.3331 35.2964C36.3331 34.9015 36.3521 34.6546 36.3824 34.6546C36.4096 34.6546 36.4318 34.5436 36.4318 34.4078C36.4318 34.2721 36.454 34.161 36.4812 34.161C36.5083 34.161 36.5305 34.0943 36.5305 34.0129C36.5305 33.9314 36.5527 33.8648 36.5799 33.8648C36.607 33.8648 36.6293 33.7981 36.6293 33.7167C36.6293 33.6352 36.6515 33.5686 36.6786 33.5686C36.7058 33.5686 36.728 33.5291 36.728 33.4808C36.728 33.4324 36.7724 33.3609 36.8267 33.3218C36.881 33.2826 36.9255 33.216 36.9255 33.1737C36.9255 33.1314 36.9699 33.0647 37.0242 33.0256C37.0785 32.9864 37.1229 32.9254 37.1229 32.89C37.1229 32.8545 37.2223 32.7261 37.3438 32.6047C37.4652 32.4832 37.5936 32.3838 37.6291 32.3838C37.6645 32.3838 37.7255 32.3394 37.7647 32.2851C37.8038 32.2308 37.8705 32.1864 37.9128 32.1864C37.9551 32.1864 38.0217 32.1419 38.0609 32.0876C38.1 32.0333 38.1715 31.9889 38.2199 31.9889C38.2682 31.9889 38.3077 31.9667 38.3077 31.9395C38.3077 31.9124 38.3743 31.8902 38.4558 31.8902C38.5372 31.8902 38.6039 31.868 38.6039 31.8408C38.6039 31.8137 38.6705 31.7914 38.752 31.7914C38.8334 31.7914 38.9001 31.7692 38.9001 31.7421C38.9001 31.7149 39.0112 31.6927 39.1469 31.6927C39.2827 31.6927 39.3937 31.6705 39.3937 31.6433C39.3937 31.613 39.6406 31.594 40.0355 31.594C40.4304 31.594 40.6772 31.613 40.6772 31.6433ZM18.5615 38.8507C18.5615 38.8779 18.5274 38.9001 18.4858 38.9001C18.3875 38.9001 18.0678 39.2198 18.0678 39.3181C18.0678 39.3597 18.0456 39.3937 18.0184 39.3937C17.9913 39.3937 17.9691 39.4604 17.9691 39.5418C17.9691 39.6233 17.9469 39.6899 17.9197 39.6899C17.8926 39.6899 17.8703 39.7566 17.8703 39.838C17.8703 39.9195 17.8926 39.9861 17.9197 39.9861C17.9469 39.9861 17.9691 40.0528 17.9691 40.1342C17.9691 40.2157 17.9913 40.2823 18.0184 40.2823C18.0456 40.2823 18.0678 40.3164 18.0678 40.358C18.0678 40.4563 18.3875 40.776 18.4858 40.776C18.5274 40.776 18.5615 40.7982 18.5615 40.8253C18.5615 40.8525 18.6281 40.8747 18.7096 40.8747C18.791 40.8747 18.8577 40.8969 18.8577 40.9241C18.8577 40.9512 18.9021 40.9734 18.9564 40.9734C19.0107 40.9734 19.0551 40.9956 19.0551 41.0228C19.0551 41.0499 19.1218 41.0722 19.2032 41.0722C19.2847 41.0722 19.3513 41.0944 19.3513 41.1215C19.3513 41.1487 19.418 41.1709 19.4994 41.1709C19.5809 41.1709 19.6475 41.1931 19.6475 41.2203C19.6475 41.2474 19.7141 41.2696 19.7956 41.2696C19.8771 41.2696 19.9437 41.2918 19.9437 41.319C19.9437 41.3461 20.0326 41.3684 20.1412 41.3684C20.2498 41.3684 20.3386 41.3906 20.3386 41.4177C20.3386 41.4449 20.4053 41.4671 20.4867 41.4671C20.5682 41.4671 20.6348 41.4893 20.6348 41.5165C20.6348 41.5436 20.7237 41.5658 20.8323 41.5658C20.9409 41.5658 21.0297 41.588 21.0297 41.6152C21.0297 41.6423 21.1408 41.6646 21.2766 41.6646C21.4123 41.6646 21.5234 41.6868 21.5234 41.7139C21.5234 41.7411 21.6345 41.7633 21.7702 41.7633C21.906 41.7633 22.017 41.7855 22.017 41.8126C22.017 41.8401 22.1487 41.862 22.3132 41.862C22.4778 41.862 22.6094 41.8839 22.6094 41.9114C22.6094 41.9402 22.774 41.9607 23.0044 41.9607C23.2348 41.9607 23.3993 41.9813 23.3993 42.0101C23.3993 42.0421 24.0575 42.0595 25.2752 42.0595C26.4929 42.0595 27.1511 42.0421 27.1511 42.0101C27.1511 41.9813 27.3156 41.9607 27.546 41.9607C27.7764 41.9607 27.9409 41.9402 27.9409 41.9114C27.9409 41.8839 28.0726 41.862 28.2371 41.862C28.4016 41.862 28.5333 41.8401 28.5333 41.8126C28.5333 41.7855 28.6444 41.7633 28.7801 41.7633C28.9159 41.7633 29.027 41.7411 29.027 41.7139C29.027 41.6868 29.138 41.6646 29.2738 41.6646C29.4095 41.6646 29.5206 41.6423 29.5206 41.6152C29.5206 41.588 29.6095 41.5658 29.7181 41.5658C29.8267 41.5658 29.9155 41.5436 29.9155 41.5165C29.9155 41.4893 29.9822 41.4671 30.0636 41.4671C30.1451 41.4671 30.2117 41.4449 30.2117 41.4177C30.2117 41.3906 30.3006 41.3684 30.4092 41.3684C30.5178 41.3684 30.6067 41.3461 30.6067 41.319C30.6067 41.2918 30.6733 41.2696 30.7548 41.2696C30.8362 41.2696 30.9029 41.2474 30.9029 41.2203C30.9029 41.1931 30.9695 41.1709 31.051 41.1709C31.1324 41.1709 31.199 41.1487 31.199 41.1215C31.199 41.0944 31.2657 41.0722 31.3471 41.0722C31.4286 41.0722 31.4952 41.0499 31.4952 41.0228C31.4952 40.9956 31.5397 40.9734 31.594 40.9734C31.6483 40.9734 31.6927 40.9512 31.6927 40.9241C31.6927 40.8969 31.7593 40.8747 31.8408 40.8747C31.9223 40.8747 31.9889 40.8525 31.9889 40.8253C31.9889 40.7982 32.023 40.776 32.0646 40.776C32.1629 40.776 32.4826 40.4563 32.4826 40.358C32.4826 40.3164 32.5048 40.2823 32.5319 40.2823C32.5591 40.2823 32.5813 40.2157 32.5813 40.1342C32.5813 40.0528 32.6035 39.9861 32.6306 39.9861C32.6578 39.9861 32.68 39.9195 32.68 39.838C32.68 39.7566 32.6578 39.6899 32.6306 39.6899C32.6035 39.6899 32.5813 39.6233 32.5813 39.5418C32.5813 39.4604 32.5591 39.3937 32.5319 39.3937C32.5048 39.3937 32.4826 39.3597 32.4826 39.3181C32.4826 39.1937 32.1543 38.9001 32.0152 38.9001C31.9464 38.9001 31.8902 38.8779 31.8902 38.8507C31.8902 38.8233 31.7585 38.8013 31.594 38.8013C31.4294 38.8013 31.2978 38.8233 31.2978 38.8507C31.2978 38.8779 31.2311 38.9001 31.1497 38.9001C31.0682 38.9001 31.0016 38.9223 31.0016 38.9494C31.0016 38.9766 30.9349 38.9988 30.8535 38.9988C30.772 38.9988 30.7054 39.021 30.7054 39.0482C30.7054 39.0753 30.661 39.0975 30.6067 39.0975C30.5524 39.0975 30.5079 39.1198 30.5079 39.1469C30.5079 39.1741 30.4413 39.1963 30.3598 39.1963C30.2784 39.1963 30.2117 39.2185 30.2117 39.2456C30.2117 39.2728 30.1229 39.295 30.0143 39.295C29.9057 39.295 29.8168 39.3172 29.8168 39.3444C29.8168 39.3715 29.7502 39.3937 29.6687 39.3937C29.5873 39.3937 29.5206 39.416 29.5206 39.4431C29.5206 39.4703 29.4318 39.4925 29.3232 39.4925C29.2146 39.4925 29.1257 39.5147 29.1257 39.5418C29.1257 39.569 29.0368 39.5912 28.9282 39.5912C28.8196 39.5912 28.7308 39.6134 28.7308 39.6406C28.7308 39.6677 28.6419 39.6899 28.5333 39.6899C28.4247 39.6899 28.3358 39.7121 28.3358 39.7393C28.3358 39.7667 28.2042 39.7887 28.0397 39.7887C27.8751 39.7887 27.7435 39.8106 27.7435 39.838C27.7435 39.8662 27.5954 39.8874 27.3979 39.8874C27.2004 39.8874 27.0523 39.9086 27.0523 39.9368C27.0523 39.9676 26.7575 39.9861 26.2666 39.9861C25.6863 39.9861 25.4733 40.0023 25.4521 40.0478C25.4291 40.0972 25.4175 40.0972 25.3945 40.0478C25.3729 40.0017 25.1306 39.9861 24.4319 39.9861C23.8422 39.9861 23.498 39.9679 23.498 39.9368C23.498 39.9086 23.3499 39.8874 23.1525 39.8874C22.955 39.8874 22.8069 39.8662 22.8069 39.838C22.8069 39.8106 22.6752 39.7887 22.5107 39.7887C22.3462 39.7887 22.2145 39.7667 22.2145 39.7393C22.2145 39.7121 22.1257 39.6899 22.017 39.6899C21.9084 39.6899 21.8196 39.6677 21.8196 39.6406C21.8196 39.6134 21.7307 39.5912 21.6221 39.5912C21.5135 39.5912 21.4247 39.569 21.4247 39.5418C21.4247 39.5147 21.3358 39.4925 21.2272 39.4925C21.1186 39.4925 21.0297 39.4703 21.0297 39.4431C21.0297 39.416 20.9631 39.3937 20.8816 39.3937C20.8002 39.3937 20.7335 39.3715 20.7335 39.3444C20.7335 39.3172 20.6447 39.295 20.5361 39.295C20.4275 39.295 20.3386 39.2728 20.3386 39.2456C20.3386 39.2185 20.2942 39.1963 20.2399 39.1963C20.1856 39.1963 20.1412 39.1741 20.1412 39.1469C20.1412 39.1198 20.0745 39.0975 19.9931 39.0975C19.9116 39.0975 19.845 39.0753 19.845 39.0482C19.845 39.021 19.7783 38.9988 19.6969 38.9988C19.6154 38.9988 19.5488 38.9766 19.5488 38.9494C19.5488 38.9223 19.4821 38.9001 19.4007 38.9001C19.3192 38.9001 19.2526 38.8779 19.2526 38.8507C19.2526 38.8225 19.1045 38.8013 18.907 38.8013C18.7096 38.8013 18.5615 38.8225 18.5615 38.8507ZM10.9592 43.1949C10.9592 43.2245 11.1566 43.2443 11.4528 43.2443C11.749 43.2443 11.9465 43.264 11.9465 43.2936C11.9465 43.3211 12.0781 43.343 12.2427 43.343C12.4072 43.343 12.5389 43.3649 12.5389 43.3923C12.5389 43.4195 12.6277 43.4417 12.7363 43.4417C12.8449 43.4417 12.9338 43.4639 12.9338 43.4911C12.9338 43.5182 13.0004 43.5404 13.0819 43.5404C13.1633 43.5404 13.23 43.5627 13.23 43.5898C13.23 43.617 13.2966 43.6392 13.3781 43.6392C13.4595 43.6392 13.5262 43.6614 13.5262 43.6885C13.5262 43.7157 13.5928 43.7379 13.6743 43.7379C13.7557 43.7379 13.8224 43.7601 13.8224 43.7873C13.8224 43.8144 13.8668 43.8366 13.9211 43.8366C13.9754 43.8366 14.0198 43.8589 14.0198 43.886C14.0198 43.9132 14.0865 43.9354 14.1679 43.9354C14.2494 43.9354 14.316 43.9576 14.316 43.9847C14.316 44.0119 14.3604 44.0341 14.4148 44.0341C14.4691 44.0341 14.5135 44.0563 14.5135 44.0835C14.5135 44.1106 14.5579 44.1328 14.6122 44.1328C14.6665 44.1328 14.7109 44.155 14.7109 44.1822C14.7109 44.2093 14.7505 44.2316 14.7988 44.2316C14.8471 44.2316 14.9186 44.276 14.9578 44.3303C14.9969 44.3846 15.0684 44.429 15.1168 44.429C15.1651 44.429 15.2046 44.4512 15.2046 44.4784C15.2046 44.5055 15.2401 44.5278 15.2835 44.5278C15.3269 44.5278 15.4247 44.5944 15.5008 44.6759C15.5769 44.7573 15.6657 44.824 15.6983 44.824C15.7308 44.824 15.8196 44.8906 15.8957 44.972C15.9718 45.0535 16.0587 45.1201 16.0888 45.1201C16.1603 45.1201 17.278 46.2378 17.278 46.3093C17.278 46.3394 17.3446 46.4263 17.4261 46.5024C17.5075 46.5785 17.5741 46.6714 17.5741 46.7087C17.5741 46.7461 17.6186 46.8088 17.6729 46.8479C17.7272 46.8871 17.7716 46.9537 17.7716 46.996C17.7716 47.0383 17.816 47.105 17.8703 47.1441C17.9246 47.1833 17.9691 47.2548 17.9691 47.3031C17.9691 47.3514 17.9913 47.391 18.0184 47.391C18.0456 47.391 18.0678 47.4305 18.0678 47.4788C18.0678 47.5271 18.1122 47.5986 18.1665 47.6378C18.2208 47.6769 18.2653 47.7485 18.2653 47.7968C18.2653 47.8451 18.2875 47.8846 18.3146 47.8846C18.3418 47.8846 18.364 47.9513 18.364 48.0327C18.364 48.1142 18.3862 48.1808 18.4134 48.1808C18.4405 48.1808 18.4627 48.2475 18.4627 48.3289V48.477H10.5149H2.56701V48.3289C2.56701 48.2475 2.58922 48.1808 2.61638 48.1808C2.64353 48.1808 2.66574 48.1364 2.66574 48.0821C2.66574 48.0278 2.68796 47.9833 2.71511 47.9833C2.74226 47.9833 2.76447 47.9389 2.76447 47.8846C2.76447 47.8303 2.78669 47.7859 2.81384 47.7859C2.84099 47.7859 2.8632 47.7415 2.8632 47.6872C2.8632 47.6329 2.88542 47.5884 2.91257 47.5884C2.93972 47.5884 2.96194 47.5489 2.96194 47.5006C2.96194 47.4523 3.00636 47.3807 3.06067 47.3416C3.11497 47.3024 3.1594 47.2358 3.1594 47.1935C3.1594 47.1512 3.20383 47.0845 3.25813 47.0454C3.31243 47.0063 3.35686 46.9396 3.35686 46.8973C3.35686 46.855 3.40129 46.7884 3.45559 46.7492C3.50989 46.7101 3.55432 46.6479 3.55432 46.611C3.55432 46.5742 3.64318 46.4586 3.75178 46.3543C3.86039 46.2499 3.94925 46.1402 3.94925 46.1105C3.94925 46.0405 4.67147 45.3176 4.74152 45.3176C4.77084 45.3176 4.90304 45.2065 5.03529 45.0708C5.16754 44.935 5.30557 44.824 5.34205 44.824C5.37858 44.824 5.44043 44.7795 5.47958 44.7252C5.51873 44.6709 5.58537 44.6265 5.62768 44.6265C5.66998 44.6265 5.73663 44.5821 5.77577 44.5278C5.81492 44.4735 5.88645 44.429 5.93478 44.429C5.98306 44.429 6.0226 44.4068 6.0226 44.3797C6.0226 44.3525 6.06703 44.3303 6.12133 44.3303C6.17563 44.3303 6.22006 44.3081 6.22006 44.2809C6.22006 44.2538 6.26449 44.2316 6.31879 44.2316C6.3731 44.2316 6.41753 44.2093 6.41753 44.1822C6.41753 44.155 6.46196 44.1328 6.51626 44.1328C6.57056 44.1328 6.61499 44.1106 6.61499 44.0835C6.61499 44.0563 6.65942 44.0341 6.71372 44.0341C6.76802 44.0341 6.81245 44.0119 6.81245 43.9847C6.81245 43.9576 6.85688 43.9354 6.91118 43.9354C6.96548 43.9354 7.00991 43.9132 7.00991 43.886C7.00991 43.8589 7.05434 43.8366 7.10864 43.8366C7.16295 43.8366 7.20738 43.8144 7.20738 43.7873C7.20738 43.7601 7.27402 43.7379 7.35547 43.7379C7.43693 43.7379 7.50357 43.7157 7.50357 43.6885C7.50357 43.6614 7.57021 43.6392 7.65167 43.6392C7.73312 43.6392 7.79976 43.617 7.79976 43.5898C7.79976 43.5627 7.88862 43.5404 7.99722 43.5404C8.10583 43.5404 8.19469 43.5182 8.19469 43.4911C8.19469 43.4639 8.28354 43.4417 8.39215 43.4417C8.50075 43.4417 8.58961 43.4195 8.58961 43.3923C8.58961 43.3652 8.70068 43.343 8.83644 43.343C8.97219 43.343 9.08327 43.3208 9.08327 43.2936C9.08327 43.2637 9.29717 43.2443 9.62629 43.2443C9.95541 43.2443 10.1693 43.2248 10.1693 43.1949C10.1693 43.1661 10.3338 43.1455 10.5642 43.1455C10.7946 43.1455 10.9592 43.1661 10.9592 43.1949ZM40.4798 43.1949C40.4798 43.2245 40.6772 43.2443 40.9734 43.2443C41.2696 43.2443 41.4671 43.264 41.4671 43.2936C41.4671 43.3208 41.5782 43.343 41.7139 43.343C41.8497 43.343 41.9607 43.3652 41.9607 43.3923C41.9607 43.4195 42.0496 43.4417 42.1582 43.4417C42.2668 43.4417 42.3557 43.4639 42.3557 43.4911C42.3557 43.5182 42.4445 43.5404 42.5531 43.5404C42.6617 43.5404 42.7506 43.5627 42.7506 43.5898C42.7506 43.617 42.8172 43.6392 42.8987 43.6392C42.9801 43.6392 43.0468 43.6614 43.0468 43.6885C43.0468 43.7157 43.1134 43.7379 43.1949 43.7379C43.2763 43.7379 43.343 43.7601 43.343 43.7873C43.343 43.8144 43.3874 43.8366 43.4417 43.8366C43.496 43.8366 43.5404 43.8589 43.5404 43.886C43.5404 43.9132 43.5849 43.9354 43.6392 43.9354C43.6935 43.9354 43.7379 43.9576 43.7379 43.9847C43.7379 44.0119 43.7823 44.0341 43.8366 44.0341C43.8909 44.0341 43.9354 44.0563 43.9354 44.0835C43.9354 44.1106 43.9798 44.1328 44.0341 44.1328C44.0884 44.1328 44.1328 44.155 44.1328 44.1822C44.1328 44.2093 44.1773 44.2316 44.2316 44.2316C44.2859 44.2316 44.3303 44.2538 44.3303 44.2809C44.3303 44.3081 44.3747 44.3303 44.429 44.3303C44.4833 44.3303 44.5278 44.3525 44.5278 44.3797C44.5278 44.4068 44.5673 44.429 44.6156 44.429C44.6639 44.429 44.7354 44.4735 44.7746 44.5278C44.8137 44.5821 44.8804 44.6265 44.9227 44.6265C44.965 44.6265 45.0316 44.6709 45.0708 44.7252C45.1099 44.7795 45.1718 44.824 45.2083 44.824C45.2448 44.824 45.3828 44.935 45.5151 45.0708C45.6473 45.2065 45.7795 45.3176 45.8088 45.3176C45.8789 45.3176 46.6011 46.0405 46.6011 46.1105C46.6011 46.1402 46.69 46.2499 46.7986 46.3543C46.9072 46.4586 46.996 46.5742 46.996 46.611C46.996 46.6479 47.0405 46.7101 47.0948 46.7492C47.1491 46.7884 47.1935 46.855 47.1935 46.8973C47.1935 46.9396 47.2379 47.0063 47.2922 47.0454C47.3465 47.0845 47.391 47.1512 47.391 47.1935C47.391 47.2358 47.4354 47.3024 47.4897 47.3416C47.544 47.3807 47.5884 47.4523 47.5884 47.5006C47.5884 47.5489 47.6106 47.5884 47.6378 47.5884C47.6649 47.5884 47.6872 47.6329 47.6872 47.6872C47.6872 47.7415 47.7094 47.7859 47.7365 47.7859C47.7637 47.7859 47.7859 47.8303 47.7859 47.8846C47.7859 47.9389 47.8081 47.9833 47.8353 47.9833C47.8624 47.9833 47.8846 48.0278 47.8846 48.0821C47.8846 48.1364 47.9068 48.1808 47.934 48.1808C47.9611 48.1808 47.9833 48.2475 47.9833 48.3289V48.477H40.0355H32.0876V48.3289C32.0876 48.2475 32.1098 48.1808 32.137 48.1808C32.1641 48.1808 32.1864 48.1142 32.1864 48.0327C32.1864 47.9513 32.2086 47.8846 32.2357 47.8846C32.2629 47.8846 32.2851 47.8451 32.2851 47.7968C32.2851 47.7485 32.3295 47.6769 32.3838 47.6378C32.4381 47.5986 32.4826 47.5271 32.4826 47.4788C32.4826 47.4305 32.5048 47.391 32.5319 47.391C32.5591 47.391 32.5813 47.3514 32.5813 47.3031C32.5813 47.2548 32.6257 47.1833 32.68 47.1441C32.7343 47.105 32.7787 47.0383 32.7787 46.996C32.7787 46.9537 32.8232 46.8871 32.8775 46.8479C32.9318 46.8088 32.9762 46.7461 32.9762 46.7087C32.9762 46.6714 33.0429 46.5785 33.1243 46.5024C33.2058 46.4263 33.2724 46.3394 33.2724 46.3093C33.2724 46.2378 34.39 45.1201 34.4615 45.1201C34.4916 45.1201 34.5786 45.0535 34.6546 44.972C34.7307 44.8906 34.8196 44.824 34.8521 44.824C34.8846 44.824 34.9735 44.7573 35.0496 44.6759C35.1256 44.5944 35.2234 44.5278 35.2668 44.5278C35.3103 44.5278 35.3458 44.5055 35.3458 44.4784C35.3458 44.4512 35.3853 44.429 35.4336 44.429C35.4819 44.429 35.5534 44.3846 35.5926 44.3303C35.6317 44.276 35.7033 44.2316 35.7516 44.2316C35.7999 44.2316 35.8394 44.2093 35.8394 44.1822C35.8394 44.155 35.8838 44.1328 35.9381 44.1328C35.9924 44.1328 36.0369 44.1106 36.0369 44.0835C36.0369 44.0563 36.0813 44.0341 36.1356 44.0341C36.1899 44.0341 36.2343 44.0119 36.2343 43.9847C36.2343 43.9576 36.301 43.9354 36.3824 43.9354C36.4639 43.9354 36.5305 43.9132 36.5305 43.886C36.5305 43.8589 36.575 43.8366 36.6293 43.8366C36.6836 43.8366 36.728 43.8144 36.728 43.7873C36.728 43.7601 36.7946 43.7379 36.8761 43.7379C36.9575 43.7379 37.0242 43.7157 37.0242 43.6885C37.0242 43.6614 37.0908 43.6392 37.1723 43.6392C37.2537 43.6392 37.3204 43.617 37.3204 43.5898C37.3204 43.5627 37.387 43.5404 37.4685 43.5404C37.5499 43.5404 37.6166 43.5182 37.6166 43.4911C37.6166 43.4639 37.7054 43.4417 37.814 43.4417C37.9226 43.4417 38.0115 43.4195 38.0115 43.3923C38.0115 43.3649 38.1432 43.343 38.3077 43.343C38.4722 43.343 38.6039 43.3211 38.6039 43.2936C38.6039 43.2637 38.8178 43.2443 39.1469 43.2443C39.476 43.2443 39.6899 43.2248 39.6899 43.1949C39.6899 43.1661 39.8545 43.1455 40.0849 43.1455C40.3152 43.1455 40.4798 43.1661 40.4798 43.1949Z" fill="#EAAE13"/>
</svg>
