<svg width="48" height="51" viewBox="0 0 48 51" fill="none" xmlns="http://www.w3.org/2000/svg">
<path fill-rule="evenodd" clip-rule="evenodd" d="M6.48792 0.0415483C6.48792 0.0624827 6.45357 0.0796108 6.41159 0.0796108C6.36961 0.0796108 6.33526 0.0967388 6.33526 0.117673C6.33526 0.138607 6.30469 0.155736 6.26737 0.155736C6.23001 0.155736 6.17471 0.189992 6.14444 0.23186C6.11418 0.273729 6.05888 0.307985 6.02151 0.307985C5.97908 0.307985 5.95362 0.336494 5.95362 0.38411C5.95362 0.425979 5.93645 0.460235 5.91546 0.460235C5.89447 0.460235 5.87729 0.494491 5.87729 0.53636C5.87729 0.578228 5.86012 0.612484 5.83913 0.612484C5.81382 0.612484 5.80096 2.94122 5.80096 7.52252V14.4326L5.70727 14.526C5.65575 14.5774 5.59087 14.6194 5.56305 14.6194C5.53526 14.6194 5.48775 14.6537 5.45749 14.6956C5.42722 14.7374 5.3794 14.7717 5.35116 14.7717C5.32296 14.7717 5.21625 14.8573 5.11401 14.962C5.01177 15.0667 4.90815 15.1523 4.88372 15.1523C4.8593 15.1523 4.79118 15.2037 4.73236 15.2665C4.67355 15.3293 4.6052 15.3807 4.58047 15.3807C4.55578 15.3807 4.46957 15.4492 4.38889 15.5329C4.30821 15.6167 4.22199 15.6852 4.1973 15.6852C4.17257 15.6852 4.10422 15.7366 4.04541 15.7994C3.9866 15.8622 3.91825 15.9136 3.89352 15.9136C3.86882 15.9136 3.78261 15.9821 3.70193 16.0658C3.62125 16.1496 3.53538 16.2181 3.51111 16.2181C3.48684 16.2181 3.40097 16.2866 3.32029 16.3703C3.23961 16.4541 3.1534 16.5226 3.1287 16.5226C3.10397 16.5226 3.03562 16.574 2.97681 16.6368C2.918 16.6996 2.84965 16.7509 2.82492 16.7509C2.80023 16.7509 2.71401 16.8195 2.63333 16.9032C2.55265 16.9869 2.46678 17.0554 2.44251 17.0554C2.41824 17.0554 2.33237 17.124 2.25169 17.2077C2.17101 17.2914 2.08514 17.3599 2.06087 17.3599C2.0366 17.3599 1.95073 17.4285 1.87005 17.5122C1.78937 17.5959 1.70315 17.6644 1.67846 17.6644C1.65373 17.6644 1.58538 17.7158 1.52657 17.7786C1.46776 17.8414 1.39941 17.8928 1.37468 17.8928C1.34998 17.8928 1.26377 17.9613 1.18309 18.0451C1.10241 18.1288 1.01654 18.1973 0.99227 18.1973C0.967998 18.1973 0.882128 18.2658 0.801449 18.3496C0.72077 18.4333 0.635893 18.5018 0.612803 18.5018C0.54884 18.5018 0.152657 18.9108 0.152657 18.9768C0.152657 19.0086 0.135483 19.0347 0.114493 19.0347C0.0935024 19.0347 0.0763285 19.0689 0.0763285 19.1108C0.0763285 19.1527 0.0591546 19.1869 0.0381642 19.1869C0.0132812 19.1869 0 19.7705 0 20.8617C0 21.7828 0.00969381 22.5364 0.0215629 22.5364C0.033432 22.5364 0.128728 22.4488 0.233337 22.3417C0.337983 22.2345 0.433241 22.1565 0.445034 22.1683C0.456864 22.1801 0.361568 22.2925 0.23326 22.4181L0 22.6464V26.7249V30.8035L0.119722 30.915C0.185594 30.9764 0.228641 31.0374 0.215398 31.0506C0.202155 31.0638 0.159144 31.0376 0.119797 30.9924C0.0804875 30.9472 0.0374389 30.9102 0.0241578 30.9102C0.0108766 30.9102 0 35.175 0 40.3877C0 46.6807 0.0128232 49.8652 0.0381642 49.8652C0.0591546 49.8652 0.0763285 49.8995 0.0763285 49.9414C0.0763285 49.9832 0.0935024 50.0175 0.114493 50.0175C0.135483 50.0175 0.152657 50.0436 0.152657 50.0756C0.152657 50.1737 0.482739 50.4742 0.590553 50.4742C0.643563 50.4742 0.686956 50.4914 0.686956 50.5123C0.686956 50.5376 8.37068 50.5504 23.6618 50.5504C38.953 50.5504 46.6367 50.5376 46.6367 50.5123C46.6367 50.4914 46.6801 50.4742 46.7331 50.4742C46.8409 50.4742 47.171 50.1737 47.171 50.0756C47.171 50.0436 47.1882 50.0175 47.2092 50.0175C47.2301 50.0175 47.2473 49.9832 47.2473 49.9414C47.2473 49.8995 47.2645 49.8652 47.2855 49.8652C47.3536 49.8652 47.3259 49.7429 47.2412 49.6696C47.1958 49.6304 47.1724 49.5856 47.1892 49.57C47.2059 49.5545 47.2273 49.5631 47.2366 49.5893C47.246 49.6155 47.2694 49.6369 47.2887 49.6369C47.3098 49.6369 47.3236 45.9379 47.3236 40.3116C47.3236 35.1827 47.314 30.9863 47.3021 30.9863C47.2902 30.9863 47.1949 31.0739 47.0903 31.181C46.9857 31.2882 46.8904 31.3662 46.8786 31.3544C46.8668 31.3426 46.9621 31.2303 47.0904 31.1047L47.3236 30.8763V26.571V22.2658L47.0904 22.0374C46.9621 21.9118 46.8668 21.7995 46.8786 21.7877C46.8904 21.7759 46.9857 21.8539 47.0903 21.961C47.1949 22.0682 47.2902 22.1558 47.3021 22.1558C47.314 22.1558 47.3236 21.4878 47.3236 20.6714C47.3236 19.7071 47.3103 19.1869 47.2855 19.1869C47.2645 19.1869 47.2473 19.1437 47.2473 19.0909C47.2473 19.0254 47.181 18.9288 47.0383 18.7864C46.9233 18.6718 46.8105 18.5779 46.7877 18.5779C46.7649 18.5779 46.6626 18.4923 46.5604 18.3876C46.4581 18.283 46.3549 18.1973 46.3309 18.1973C46.3069 18.1973 46.2212 18.1288 46.1406 18.0451C46.0599 17.9613 45.9737 17.8928 45.949 17.8928C45.9242 17.8928 45.8559 17.8414 45.7971 17.7786C45.7383 17.7158 45.6699 17.6644 45.6452 17.6644C45.6205 17.6644 45.5343 17.5959 45.4536 17.5122C45.3729 17.4285 45.2871 17.3599 45.2628 17.3599C45.2385 17.3599 45.1526 17.2914 45.072 17.2077C44.9913 17.124 44.9054 17.0554 44.8811 17.0554C44.8569 17.0554 44.771 16.9869 44.6903 16.9032C44.6096 16.8195 44.5234 16.7509 44.4987 16.7509C44.474 16.7509 44.4056 16.6996 44.3468 16.6368C44.288 16.574 44.2197 16.5226 44.1949 16.5226C44.1703 16.5226 44.084 16.4541 44.0034 16.3703C43.9227 16.2866 43.8368 16.2181 43.8125 16.2181C43.7883 16.2181 43.7024 16.1496 43.6217 16.0658C43.541 15.9821 43.4548 15.9136 43.4301 15.9136C43.4054 15.9136 43.3371 15.8622 43.2782 15.7994C43.2194 15.7366 43.1511 15.6852 43.1263 15.6852C43.1017 15.6852 43.0154 15.6167 42.9348 15.5329C42.8541 15.4492 42.7682 15.3807 42.7439 15.3807C42.7197 15.3807 42.6338 15.3122 42.5531 15.2284C42.4724 15.1447 42.3862 15.0762 42.3615 15.0762C42.3368 15.0762 42.2685 15.0248 42.2096 14.962C42.1508 14.8992 42.0821 14.8478 42.057 14.8478C42.0318 14.8478 41.9631 14.7964 41.9043 14.7336C41.8455 14.6708 41.7777 14.6194 41.7537 14.6194C41.7297 14.6194 41.6679 14.5774 41.6164 14.526L41.5227 14.4326V7.52252C41.5227 2.94122 41.5098 0.612484 41.4845 0.612484C41.4635 0.612484 41.4464 0.586336 41.4464 0.554401C41.4464 0.478847 41.1224 0.155736 41.0466 0.155736C41.0146 0.155736 40.9884 0.138607 40.9884 0.117673C40.9884 0.0967388 40.954 0.0796108 40.9121 0.0796108C40.8701 0.0796108 40.8357 0.0624827 40.8357 0.0415483C40.8357 -0.0198082 24.9722 -0.0103307 24.9435 0.0510639C24.9257 0.0891264 24.9168 0.0891264 24.899 0.0510639C24.8819 0.014524 24.6041 0.00348594 23.7 0.00348594C22.7959 0.00348594 22.5181 0.014524 22.501 0.0510639C22.4832 0.0891264 22.4743 0.0891264 22.4565 0.0510639C22.4277 -0.0103307 6.48792 -0.0198082 6.48792 0.0415483ZM25.1884 0.269923C25.1884 0.290857 25.1712 0.307985 25.1502 0.307985C25.1292 0.307985 25.1121 0.290857 25.1121 0.269923C25.1121 0.248988 25.1292 0.23186 25.1502 0.23186C25.1712 0.23186 25.1884 0.248988 25.1884 0.269923ZM22.0589 0.480978C22.0589 0.520182 21.8635 0.696678 21.8429 0.676125C21.8315 0.66482 21.8626 0.612675 21.912 0.560225C21.9975 0.469294 22.0589 0.436217 22.0589 0.480978ZM25.632 0.710305C25.7279 0.805994 25.7973 0.89327 25.7863 0.904309C25.7664 0.924139 25.4174 0.594976 25.4174 0.556381C25.4174 0.510211 25.467 0.545837 25.632 0.710305ZM21.4483 1.08998C21.4483 1.12918 21.2529 1.30568 21.2323 1.28512C21.2209 1.27382 21.252 1.22167 21.3013 1.16922C21.3869 1.07829 21.4483 1.04522 21.4483 1.08998ZM26.2426 1.3193C26.3385 1.41499 26.408 1.50227 26.3969 1.51331C26.3771 1.53314 26.028 1.20397 26.028 1.16538C26.028 1.11921 26.0777 1.15484 26.2426 1.3193ZM20.8377 1.71629C20.8377 1.73723 20.8205 1.75436 20.7995 1.75436C20.7785 1.75436 20.7613 1.77148 20.7613 1.79242C20.7613 1.81769 23.9417 1.83048 30.2261 1.83048H39.6908V5.40835C39.6908 7.76822 39.7038 8.98621 39.729 8.98621C39.75 8.98621 39.7671 9.07185 39.7671 9.17653C39.7671 9.2812 39.75 9.36684 39.729 9.36684C39.704 9.36684 39.6908 10.0012 39.6908 11.1938C39.6908 12.3864 39.704 13.0208 39.729 13.0208C39.7532 13.0208 39.7671 13.3253 39.7671 13.8582C39.7671 14.3911 39.7532 14.6956 39.729 14.6956C39.7037 14.6956 39.6908 16.1868 39.6908 19.093V23.4905L39.5585 23.6225C39.4857 23.695 39.4071 23.7544 39.3838 23.7544C39.3604 23.7544 39.2753 23.8229 39.1947 23.9067C39.114 23.9904 39.0278 24.0589 39.0031 24.0589C38.9784 24.0589 38.91 24.1103 38.8512 24.1731C38.7924 24.2359 38.724 24.2873 38.6993 24.2873C38.6746 24.2873 38.5884 24.3558 38.5077 24.4396C38.427 24.5233 38.3412 24.5918 38.3169 24.5918C38.2926 24.5918 38.2067 24.6603 38.1261 24.7441C38.0454 24.8278 37.9595 24.8963 37.9352 24.8963C37.911 24.8963 37.8251 24.9648 37.7444 25.0485C37.6637 25.1323 37.5779 25.2008 37.5536 25.2008C37.5293 25.2008 37.4435 25.2693 37.3628 25.353C37.2821 25.4368 37.1959 25.5053 37.1712 25.5053C37.1465 25.5053 37.0781 25.5567 37.0193 25.6195C36.9605 25.6823 36.8921 25.7337 36.8674 25.7337C36.8427 25.7337 36.7565 25.8022 36.6758 25.8859C36.5951 25.9697 36.5089 26.0382 36.4842 26.0382C36.4595 26.0382 36.3912 26.0896 36.3323 26.1524C36.2735 26.2152 36.2052 26.2665 36.1805 26.2665C36.1558 26.2665 36.0695 26.3351 35.9889 26.4188C35.9082 26.5025 35.8223 26.571 35.798 26.571C35.7738 26.571 35.6879 26.6396 35.6072 26.7233C35.5266 26.807 35.4407 26.8755 35.4164 26.8755C35.3921 26.8755 35.3063 26.9441 35.2256 27.0278C35.1449 27.1115 35.0587 27.18 35.034 27.18C35.0093 27.18 34.9409 27.2314 34.8821 27.2942C34.8233 27.357 34.7549 27.4084 34.7302 27.4084C34.7055 27.4084 34.6193 27.4769 34.5386 27.5607C34.458 27.6444 34.3717 27.7129 34.347 27.7129C34.3223 27.7129 34.254 27.7643 34.1952 27.8271C34.1363 27.8899 34.068 27.9413 34.0433 27.9413C34.0186 27.9413 33.9324 28.0098 33.8517 28.0935C33.771 28.1773 33.6851 28.2458 33.6609 28.2458C33.6366 28.2458 33.5507 28.3143 33.47 28.398C33.3894 28.4818 33.3035 28.5503 33.2792 28.5503C33.2549 28.5503 33.1691 28.6188 33.0884 28.7025C33.0077 28.7863 32.9215 28.8548 32.8968 28.8548C32.8721 28.8548 32.8037 28.9062 32.7449 28.969C32.6861 29.0318 32.6177 29.0832 32.593 29.0832C32.5683 29.0832 32.4821 29.1517 32.4014 29.2354C32.3208 29.3192 32.2345 29.3877 32.2098 29.3877C32.1851 29.3877 32.1168 29.439 32.058 29.5019C31.9991 29.5647 31.931 29.616 31.9066 29.616C31.8822 29.616 31.7786 29.7017 31.6763 29.8064C31.5741 29.911 31.4705 29.9967 31.446 29.9967C31.4216 29.9967 31.3535 30.048 31.2947 30.1108C31.2359 30.1737 31.1672 30.225 31.142 30.225C31.1169 30.225 31.0482 30.2764 30.9894 30.3392C30.9305 30.402 30.8624 30.4534 30.838 30.4534C30.8136 30.4534 30.71 30.5391 30.6077 30.6437C30.5055 30.7484 30.4019 30.834 30.3774 30.834C30.353 30.834 30.2849 30.8854 30.2261 30.9482C30.1673 31.011 30.0986 31.0624 30.0734 31.0624C30.0483 31.0624 29.9796 31.1138 29.9208 31.1766C29.8619 31.2394 29.7945 31.2908 29.7708 31.2908C29.7473 31.2908 29.65 31.3685 29.5547 31.4635L29.3815 31.6363L29.5037 31.7501C29.5709 31.8127 29.6155 31.8744 29.6027 31.8871C29.59 31.8998 29.5292 31.8565 29.4677 31.7908C29.4062 31.7252 29.3356 31.6714 29.3109 31.6714C29.2862 31.6714 29.2 31.7399 29.1193 31.8237C29.0386 31.9074 28.9524 31.9759 28.9277 31.9759C28.903 31.9759 28.8346 32.0273 28.7758 32.0901C28.717 32.1529 28.6487 32.2043 28.6239 32.2043C28.5992 32.2043 28.513 32.2728 28.4324 32.3565C28.3517 32.4403 28.2655 32.5088 28.2408 32.5088C28.216 32.5088 28.1477 32.5602 28.0889 32.623C28.0301 32.6858 27.9617 32.7372 27.937 32.7372C27.9123 32.7372 27.8261 32.8057 27.7454 32.8894C27.6647 32.9731 27.5754 33.0417 27.5469 33.0417C27.5184 33.0417 27.4703 33.0759 27.4401 33.1178C27.4098 33.1596 27.362 33.1939 27.3338 33.1939C27.3056 33.1939 27.1988 33.2795 27.0966 33.3842C26.9944 33.4889 26.8839 33.5745 26.851 33.5745C26.8182 33.5745 26.7913 33.5917 26.7913 33.6126C26.7913 33.6376 25.7354 33.6507 23.7 33.6507C21.6646 33.6507 20.6087 33.6376 20.6087 33.6126C20.6087 33.5917 20.5646 33.5745 20.5108 33.5745C20.4436 33.5745 20.3547 33.515 20.227 33.3842C20.1248 33.2795 20.0181 33.1939 19.9899 33.1939C19.9616 33.1939 19.9138 33.1596 19.8836 33.1178C19.8533 33.0759 19.8053 33.0417 19.7767 33.0417C19.7482 33.0417 19.6589 32.9731 19.5783 32.8894C19.4976 32.8057 19.4117 32.7372 19.3874 32.7372C19.3632 32.7372 19.2773 32.6686 19.1966 32.5849C19.1159 32.5012 19.0301 32.4327 19.0058 32.4327C18.9815 32.4327 18.8956 32.3641 18.815 32.2804C18.7343 32.1967 18.645 32.1282 18.6165 32.1282C18.588 32.1282 18.5399 32.0939 18.5097 32.052C18.4794 32.0102 18.4313 31.9759 18.4028 31.9759C18.3743 31.9759 18.285 31.9074 18.2043 31.8237C18.1237 31.7399 18.038 31.6714 18.014 31.6714C17.99 31.6714 17.8868 31.5858 17.7845 31.4811C17.6823 31.3764 17.5787 31.2908 17.5542 31.2908C17.5298 31.2908 17.4617 31.2394 17.4029 31.1766C17.3441 31.1138 17.2754 31.0624 17.2502 31.0624C17.2251 31.0624 17.1564 31.011 17.0976 30.9482C17.0388 30.8854 16.9706 30.834 16.9462 30.834C16.9218 30.834 16.8182 30.7484 16.7159 30.6437C16.6137 30.5391 16.5101 30.4534 16.4856 30.4534C16.4612 30.4534 16.3931 30.402 16.3343 30.3392C16.2755 30.2764 16.2071 30.225 16.1824 30.225C16.1577 30.225 16.0715 30.1565 15.9908 30.0728C15.9101 29.989 15.8243 29.9205 15.8 29.9205C15.7757 29.9205 15.6898 29.852 15.6092 29.7683C15.5285 29.6846 15.4423 29.616 15.4176 29.616C15.3929 29.616 15.3245 29.5647 15.2657 29.5019C15.2069 29.439 15.1385 29.3877 15.1138 29.3877C15.0891 29.3877 15.0029 29.3192 14.9222 29.2354C14.8415 29.1517 14.7553 29.0832 14.7306 29.0832C14.7059 29.0832 14.6375 29.0318 14.5787 28.969C14.5199 28.9062 14.4516 28.8548 14.4268 28.8548C14.4022 28.8548 14.3159 28.7863 14.2353 28.7025C14.1546 28.6188 14.0689 28.5503 14.0449 28.5503C14.021 28.5503 13.9177 28.4647 13.8155 28.36C13.7132 28.2553 13.6065 28.1697 13.5783 28.1697C13.5501 28.1697 13.5022 28.1354 13.472 28.0935C13.4417 28.0517 13.3937 28.0174 13.3652 28.0174C13.3366 28.0174 13.2473 27.9489 13.1667 27.8652C13.086 27.7814 13.0003 27.7129 12.9763 27.7129C12.9524 27.7129 12.8491 27.6273 12.7469 27.5226C12.6446 27.4179 12.541 27.3323 12.5166 27.3323C12.4921 27.3323 12.424 27.2809 12.3652 27.2181C12.3064 27.1553 12.2346 27.1039 12.2057 27.1039C12.1768 27.1039 12.1283 27.0697 12.0981 27.0278C12.0678 26.9859 12.02 26.9517 11.9917 26.9517C11.9635 26.9517 11.8568 26.866 11.7546 26.7614C11.6523 26.6567 11.5491 26.571 11.5251 26.571C11.5011 26.571 11.4155 26.5025 11.3348 26.4188C11.2541 26.3351 11.1679 26.2665 11.1432 26.2665C11.1185 26.2665 11.0501 26.2152 10.9913 26.1524C10.9325 26.0896 10.8641 26.0382 10.8394 26.0382C10.8147 26.0382 10.7285 25.9697 10.6478 25.8859C10.5671 25.8022 10.4813 25.7337 10.457 25.7337C10.4327 25.7337 10.3469 25.6652 10.2662 25.5814C10.1855 25.4977 10.0993 25.4292 10.0746 25.4292C10.0499 25.4292 9.98151 25.3778 9.9227 25.315C9.86389 25.2522 9.79519 25.2008 9.77004 25.2008C9.74489 25.2008 9.6762 25.1494 9.61739 25.0866C9.55858 25.0238 9.49045 24.9724 9.46603 24.9724C9.4416 24.9724 9.33799 24.8868 9.23574 24.7821C9.1335 24.6774 9.03023 24.5918 9.00626 24.5918C8.98226 24.5918 8.89662 24.5233 8.81594 24.4396C8.73526 24.3558 8.64595 24.2873 8.61745 24.2873C8.58894 24.2873 8.54089 24.253 8.51062 24.2112C8.48036 24.1693 8.43254 24.1351 8.4043 24.1351C8.37609 24.1351 8.26939 24.0494 8.16715 23.9447C8.0649 23.8401 7.96243 23.7544 7.93938 23.7544C7.91633 23.7544 7.8379 23.695 7.76516 23.6225L7.63285 23.4905V19.8543C7.63285 17.4555 7.61987 16.2181 7.59468 16.2181C7.57369 16.2181 7.55652 16.1667 7.55652 16.1039C7.55652 16.0411 7.57369 15.9897 7.59468 15.9897C7.61731 15.9897 7.63285 15.8501 7.63285 15.6471C7.63285 15.4441 7.61731 15.3046 7.59468 15.3046C7.57369 15.3046 7.55652 15.2532 7.55652 15.1904C7.55652 15.1276 7.57369 15.0762 7.59468 15.0762C7.61842 15.0762 7.63285 14.8605 7.63285 14.5053C7.63285 14.15 7.61842 13.9343 7.59468 13.9343C7.57243 13.9343 7.55652 13.8075 7.55652 13.6298C7.55652 13.4522 7.57243 13.3253 7.59468 13.3253C7.61995 13.3253 7.63285 11.3841 7.63285 7.5779V1.83048H14.1505C20.6244 1.83048 20.6685 1.82999 20.7232 1.75436C20.7822 1.67271 20.8377 1.65429 20.8377 1.71629ZM26.6386 1.71629C26.6386 1.73723 26.6215 1.75436 26.6005 1.75436C26.5795 1.75436 26.5623 1.73723 26.5623 1.71629C26.5623 1.69536 26.5795 1.67823 26.6005 1.67823C26.6215 1.67823 26.6386 1.69536 26.6386 1.71629ZM14.2734 9.63327C14.2734 9.65421 14.2391 9.67134 14.1971 9.67134C14.1551 9.67134 14.1208 9.68847 14.1208 9.7094C14.1208 9.73033 14.0942 9.74746 14.0618 9.74746C13.9854 9.74746 13.8155 9.91699 13.8155 9.99315C13.8155 10.0255 13.7983 10.052 13.7773 10.052C13.7563 10.052 13.7391 10.0862 13.7391 10.1281C13.7391 10.17 13.7219 10.2042 13.701 10.2042C13.6792 10.2042 13.6628 10.3184 13.6628 10.4706C13.6628 10.6229 13.6792 10.7371 13.701 10.7371C13.7219 10.7371 13.7391 10.7713 13.7391 10.8132C13.7391 10.8551 13.7563 10.8893 13.7773 10.8893C13.7983 10.8893 13.8155 10.9156 13.8155 10.9477C13.8155 10.9798 13.875 11.0654 13.9478 11.138C14.0205 11.2106 14.1064 11.27 14.1386 11.27C14.1708 11.27 14.1971 11.2871 14.1971 11.308C14.1971 11.329 14.2658 11.3461 14.3498 11.3461C14.4337 11.3461 14.5024 11.3632 14.5024 11.3841C14.5024 11.4394 14.7209 11.4309 14.7473 11.3746C14.7651 11.3366 14.774 11.3366 14.7918 11.3746C14.8205 11.436 32.8212 11.4455 32.8212 11.3841C32.8212 11.3632 32.8899 11.3461 32.9739 11.3461C33.0579 11.3461 33.1266 11.329 33.1266 11.308C33.1266 11.2871 33.1528 11.27 33.1848 11.27C33.2832 11.27 33.5845 10.9408 33.5845 10.8332C33.5845 10.7804 33.6017 10.7371 33.6227 10.7371C33.6445 10.7371 33.6609 10.6229 33.6609 10.4706C33.6609 10.3184 33.6445 10.2042 33.6227 10.2042C33.6017 10.2042 33.5845 10.17 33.5845 10.1281C33.5845 10.0862 33.5673 10.052 33.5464 10.052C33.5254 10.052 33.5082 10.0255 33.5082 9.99315C33.5082 9.91699 33.3382 9.74746 33.2618 9.74746C33.2294 9.74746 33.2029 9.73033 33.2029 9.7094C33.2029 9.68847 33.1685 9.67134 33.1266 9.67134C33.0846 9.67134 33.0502 9.65421 33.0502 9.63327C33.0502 9.608 29.8953 9.59521 23.6618 9.59521C17.4283 9.59521 14.2734 9.608 14.2734 9.63327ZM14.3498 15.1904C14.3498 15.2113 14.3154 15.2284 14.2734 15.2284C14.2314 15.2284 14.1971 15.2456 14.1971 15.2665C14.1971 15.2874 14.1627 15.3046 14.1208 15.3046C14.0788 15.3046 14.0444 15.3217 14.0444 15.3426C14.0444 15.3636 14.0101 15.3807 13.9681 15.3807C13.9204 15.3807 13.8918 15.4061 13.8918 15.4484C13.8918 15.4857 13.8574 15.5408 13.8155 15.571C13.7706 15.6032 13.7391 15.6696 13.7391 15.7317C13.7391 15.7898 13.7219 15.8374 13.701 15.8374C13.6792 15.8374 13.6628 15.9516 13.6628 16.1039C13.6628 16.2561 13.6792 16.3703 13.701 16.3703C13.7219 16.3703 13.7391 16.4046 13.7391 16.4464C13.7391 16.4883 13.7563 16.5226 13.7773 16.5226C13.7983 16.5226 13.8155 16.549 13.8155 16.5814C13.8155 16.6137 13.8576 16.6822 13.9091 16.7336C13.9607 16.785 14.0294 16.8271 14.0618 16.8271C14.0942 16.8271 14.1208 16.8442 14.1208 16.8651C14.1208 16.8861 14.1551 16.9032 14.1971 16.9032C14.2391 16.9032 14.2734 16.9203 14.2734 16.9413C14.2734 16.9665 17.4283 16.9793 23.6618 16.9793C29.8953 16.9793 33.0502 16.9665 33.0502 16.9413C33.0502 16.9203 33.0808 16.9032 33.1181 16.9032C33.1555 16.9032 33.2108 16.8689 33.241 16.8271C33.2713 16.7852 33.3192 16.7509 33.3476 16.7509C33.4175 16.7509 33.5082 16.6558 33.5082 16.5824C33.5082 16.5495 33.5254 16.5226 33.5464 16.5226C33.5673 16.5226 33.5845 16.4883 33.5845 16.4464C33.5845 16.4046 33.6017 16.3703 33.6227 16.3703C33.6449 16.3703 33.6609 16.2435 33.6609 16.0658C33.6609 15.8882 33.6449 15.7613 33.6227 15.7613C33.6017 15.7613 33.5845 15.7308 33.5845 15.6936C33.5845 15.6563 33.5502 15.6012 33.5082 15.571C33.4662 15.5408 33.4319 15.4857 33.4319 15.4484C33.4319 15.4061 33.4033 15.3807 33.3555 15.3807C33.3136 15.3807 33.2792 15.3636 33.2792 15.3426C33.2792 15.3217 33.2449 15.3046 33.2029 15.3046C33.1609 15.3046 33.1266 15.2874 33.1266 15.2665C33.1266 15.2456 33.075 15.2284 33.0121 15.2284C32.9491 15.2284 32.8976 15.2113 32.8976 15.1904C32.8976 15.1651 29.7808 15.1523 23.6237 15.1523C17.4665 15.1523 14.3498 15.1651 14.3498 15.1904ZM5.80096 19.4153C5.80096 21.8711 5.79749 22.0036 5.73307 22.0036C5.69571 22.0036 5.64041 21.9693 5.61014 21.9274C5.57988 21.8856 5.53183 21.8513 5.50332 21.8513C5.47481 21.8513 5.38551 21.7828 5.30483 21.6991C5.22415 21.6153 5.13851 21.5468 5.1145 21.5468C5.09054 21.5468 4.98726 21.4612 4.88502 21.3565C4.78278 21.2518 4.67607 21.1662 4.64787 21.1662C4.61963 21.1662 4.57181 21.1319 4.54154 21.0901C4.51128 21.0482 4.46323 21.0139 4.43472 21.0139C4.40621 21.0139 4.31691 20.9454 4.23623 20.8617C4.15555 20.7779 4.06991 20.7094 4.0459 20.7094C4.02194 20.7094 3.91867 20.6238 3.81642 20.5191C3.71418 20.4145 3.61057 20.3288 3.58614 20.3288C3.56172 20.3288 3.49359 20.2774 3.43478 20.2146C3.37597 20.1518 3.30762 20.1004 3.28289 20.1004C3.2582 20.1004 3.17198 20.0319 3.0913 19.9482C3.01062 19.8645 2.92441 19.7959 2.89972 19.7959C2.87499 19.7959 2.80446 19.8497 2.74294 19.9153C2.68142 19.981 2.62066 20.0243 2.60788 20.0116C2.59513 19.9989 2.63986 19.9371 2.70726 19.8743L2.82984 19.7601L2.73332 19.6638C2.68024 19.6109 2.61761 19.5676 2.59418 19.5676C2.57074 19.5676 2.52701 19.5431 2.49705 19.5132C2.46705 19.4833 2.44251 19.4397 2.44251 19.4163C2.44251 19.361 2.61723 19.1869 2.67276 19.1869C2.69634 19.1869 2.78164 19.1184 2.86232 19.0347C2.943 18.951 3.02921 18.8824 3.0539 18.8824C3.07863 18.8824 3.14698 18.8311 3.2058 18.7683C3.26461 18.7054 3.33296 18.6541 3.35769 18.6541C3.38238 18.6541 3.46859 18.5856 3.54927 18.5018C3.62995 18.4181 3.71582 18.3496 3.74009 18.3496C3.76437 18.3496 3.85024 18.2811 3.93092 18.1973C4.0116 18.1136 4.09746 18.0451 4.12174 18.0451C4.14601 18.0451 4.23188 17.9766 4.31256 17.8928C4.39324 17.8091 4.47945 17.7406 4.50414 17.7406C4.52887 17.7406 4.59723 17.6892 4.65604 17.6264C4.71485 17.5636 4.78354 17.5122 4.80869 17.5122C4.83384 17.5122 4.90254 17.4608 4.96135 17.398C5.02016 17.3352 5.08828 17.2838 5.11271 17.2838C5.13713 17.2838 5.24075 17.1982 5.34299 17.0935C5.44523 16.9888 5.55572 16.9032 5.58858 16.9032C5.62144 16.9032 5.64831 16.8861 5.64831 16.8651C5.64831 16.8442 5.68265 16.8271 5.72463 16.8271C5.8002 16.8271 5.80096 16.8525 5.80096 19.4153ZM41.6753 16.8651C41.6753 16.8861 41.7024 16.9032 41.7356 16.9032C41.7687 16.9032 41.8618 16.9717 41.9425 17.0554C42.0232 17.1392 42.1088 17.2077 42.1328 17.2077C42.1568 17.2077 42.2601 17.2933 42.3623 17.398C42.4645 17.5027 42.5712 17.5883 42.5994 17.5883C42.6277 17.5883 42.6755 17.6226 42.7058 17.6644C42.736 17.7063 42.7839 17.7406 42.8121 17.7406C42.8403 17.7406 42.947 17.8262 43.0493 17.9309C43.1515 18.0356 43.2551 18.1212 43.2795 18.1212C43.304 18.1212 43.3721 18.1726 43.4309 18.2354C43.4897 18.2982 43.5581 18.3496 43.5828 18.3496C43.6075 18.3496 43.6937 18.4181 43.7744 18.5018C43.8551 18.5856 43.9413 18.6541 43.966 18.6541C43.9907 18.6541 44.059 18.7054 44.1179 18.7683C44.1767 18.8311 44.245 18.8824 44.2697 18.8824C44.2944 18.8824 44.3806 18.951 44.4613 19.0347C44.542 19.1184 44.6273 19.1869 44.6509 19.1869C44.7059 19.1869 44.8811 19.3608 44.8811 19.4153C44.8811 19.4737 44.7041 19.6437 44.6432 19.6437C44.6154 19.6437 44.5679 19.6779 44.5377 19.7198C44.5074 19.7617 44.4593 19.7959 44.4308 19.7959C44.4023 19.7959 44.313 19.8645 44.2323 19.9482C44.1517 20.0319 44.0655 20.1004 44.0408 20.1004C44.016 20.1004 43.9477 20.1518 43.8889 20.2146C43.8301 20.2774 43.7619 20.3288 43.7375 20.3288C43.7131 20.3288 43.6095 20.4145 43.5072 20.5191C43.405 20.6238 43.3017 20.7094 43.2777 20.7094C43.2537 20.7094 43.1681 20.7779 43.0874 20.8617C43.0067 20.9454 42.9205 21.0139 42.8958 21.0139C42.8711 21.0139 42.8027 21.0653 42.7439 21.1281C42.6851 21.1909 42.6168 21.2423 42.592 21.2423C42.5674 21.2423 42.4811 21.3108 42.4005 21.3946C42.3198 21.4783 42.2336 21.5468 42.2089 21.5468C42.1841 21.5468 42.1158 21.5982 42.057 21.661C41.9982 21.7238 41.9295 21.7752 41.9043 21.7752C41.8792 21.7752 41.8105 21.8266 41.7517 21.8894C41.6929 21.9522 41.6173 22.0036 41.5837 22.0036C41.5284 22.0036 41.5227 21.7617 41.5227 19.4153C41.5227 16.8525 41.5234 16.8271 41.599 16.8271C41.641 16.8271 41.6753 16.8442 41.6753 16.8651ZM45.2484 20.1221C45.3443 20.2178 45.4138 20.3051 45.4027 20.3161C45.3828 20.336 45.0338 20.0068 45.0338 19.9682C45.0338 19.922 45.0834 19.9577 45.2484 20.1221ZM2.51884 20.1222C2.51884 20.1342 2.49228 20.1704 2.45976 20.2028C2.38527 20.2772 2.3405 20.2399 2.41003 20.1615C2.46216 20.1027 2.51884 20.0822 2.51884 20.1222ZM2.28985 20.3491C2.28985 20.3879 2.01751 20.6408 1.99736 20.6207C1.98622 20.6096 2.03461 20.5406 2.10487 20.4673C2.22394 20.3431 2.28985 20.301 2.28985 20.3491ZM45.859 20.7311C45.9549 20.8268 46.0244 20.9141 46.0134 20.9251C45.9935 20.945 45.6444 20.6158 45.6444 20.5772C45.6444 20.531 45.6941 20.5667 45.859 20.7311ZM1.90821 20.7312C1.90821 20.7432 1.88165 20.7794 1.84913 20.8118C1.77464 20.8862 1.72987 20.8489 1.7994 20.7705C1.85154 20.7117 1.90821 20.6912 1.90821 20.7312ZM14.2734 20.8236C14.2734 20.8446 14.2391 20.8617 14.1971 20.8617C14.1551 20.8617 14.1208 20.8788 14.1208 20.8997C14.1208 20.9207 14.0942 20.9378 14.0618 20.9378C14.0294 20.9378 13.9607 20.9799 13.9091 21.0313C13.8576 21.0826 13.8155 21.1511 13.8155 21.1835C13.8155 21.2159 13.7983 21.2423 13.7773 21.2423C13.7563 21.2423 13.7391 21.2766 13.7391 21.3184C13.7391 21.3603 13.7219 21.3946 13.701 21.3946C13.6792 21.3946 13.6628 21.5087 13.6628 21.661C13.6628 21.8132 13.6792 21.9274 13.701 21.9274C13.7219 21.9274 13.7391 21.9707 13.7391 22.0236C13.7391 22.1311 14.0404 22.4603 14.1389 22.4603C14.1709 22.4603 14.1971 22.4774 14.1971 22.4984C14.1971 22.5193 14.2486 22.5364 14.3116 22.5364C14.3746 22.5364 14.4261 22.5536 14.4261 22.5745C14.4261 22.6356 20.2143 22.6262 20.243 22.565C20.2607 22.5269 20.2697 22.5269 20.2875 22.565C20.3051 22.6025 21.0404 22.6126 23.7763 22.6126C26.5123 22.6126 27.2476 22.6025 27.2652 22.565C27.283 22.5269 27.2919 22.5269 27.3097 22.565C27.3383 22.6261 32.8976 22.6356 32.8976 22.5745C32.8976 22.5536 32.9491 22.5364 33.0121 22.5364C33.075 22.5364 33.1266 22.5193 33.1266 22.4984C33.1266 22.4774 33.1528 22.4603 33.1848 22.4603C33.2605 22.4603 33.5845 22.1372 33.5845 22.0616C33.5845 22.0297 33.6017 22.0036 33.6227 22.0036C33.6449 22.0036 33.6609 21.8767 33.6609 21.6991C33.6609 21.5214 33.6449 21.3946 33.6227 21.3946C33.6017 21.3946 33.5845 21.3603 33.5845 21.3184C33.5845 21.2766 33.5673 21.2423 33.5464 21.2423C33.5254 21.2423 33.5082 21.2154 33.5082 21.1825C33.5082 21.1056 33.4163 21.0139 33.3392 21.0139C33.3047 21.0139 33.2792 20.9817 33.2792 20.9378C33.2792 20.8871 33.2538 20.8617 33.2029 20.8617C33.1609 20.8617 33.1266 20.8446 33.1266 20.8236C33.1266 20.7983 29.9589 20.7856 23.7 20.7856C17.4411 20.7856 14.2734 20.7983 14.2734 20.8236ZM1.67923 20.9581C1.67923 20.9969 1.40689 21.2498 1.38674 21.2297C1.37559 21.2186 1.42398 21.1495 1.49424 21.0763C1.61332 20.9521 1.67923 20.91 1.67923 20.9581ZM18.9925 21.2637C19.0462 21.3173 19.0809 21.3705 19.0694 21.3819C19.0486 21.4026 18.8531 21.2264 18.8531 21.1869C18.8531 21.1445 18.8975 21.1689 18.9925 21.2637ZM46.4696 21.3401C46.5656 21.4358 46.635 21.5231 46.624 21.5341C46.6041 21.554 46.2551 21.2248 46.2551 21.1862C46.2551 21.14 46.3047 21.1757 46.4696 21.3401ZM1.29758 21.3402C1.29758 21.3522 1.27102 21.3884 1.23851 21.4208C1.16401 21.4952 1.11924 21.4579 1.18878 21.3795C1.24091 21.3207 1.29758 21.3002 1.29758 21.3402ZM1.90821 21.3565C1.90821 21.3774 1.93565 21.3946 1.96924 21.3946C2.00278 21.3946 2.07839 21.4459 2.1372 21.5087C2.19601 21.5715 2.2647 21.6229 2.28985 21.6229C2.315 21.6229 2.3837 21.6743 2.44251 21.7371C2.50132 21.7999 2.56945 21.8513 2.59387 21.8513C2.6183 21.8513 2.72191 21.9369 2.82415 22.0416C2.9264 22.1463 3.02967 22.2319 3.05363 22.2319C3.07764 22.2319 3.16328 22.3004 3.24396 22.3842C3.32464 22.4679 3.41085 22.5364 3.43554 22.5364C3.46028 22.5364 3.52863 22.5878 3.58744 22.6506C3.64625 22.7134 3.7146 22.7648 3.73933 22.7648C3.76402 22.7648 3.85024 22.8333 3.93092 22.9171C4.0116 23.0008 4.09781 23.0693 4.1225 23.0693C4.14723 23.0693 4.21558 23.1207 4.27439 23.1835C4.33321 23.2463 4.40156 23.2977 4.42629 23.2977C4.45098 23.2977 4.53719 23.3662 4.61787 23.4499C4.69855 23.5337 4.78442 23.6022 4.80869 23.6022C4.83297 23.6022 4.91884 23.6707 4.99951 23.7544C5.08019 23.8382 5.16641 23.9067 5.1911 23.9067C5.21583 23.9067 5.28418 23.9581 5.34299 24.0209C5.4018 24.0837 5.46993 24.1351 5.49435 24.1351C5.51878 24.1351 5.62239 24.2207 5.72463 24.3254C5.82688 24.43 5.93049 24.5157 5.95492 24.5157C5.97934 24.5157 6.04747 24.5671 6.10628 24.6299C6.16509 24.6927 6.23344 24.7441 6.25817 24.7441C6.28286 24.7441 6.36908 24.8126 6.44976 24.8963C6.53043 24.98 6.61665 25.0485 6.64134 25.0485C6.66607 25.0485 6.73442 25.0999 6.79323 25.1627C6.85204 25.2255 6.92017 25.2769 6.94459 25.2769C6.96902 25.2769 7.07263 25.3626 7.17488 25.4672C7.27712 25.5719 7.38073 25.6575 7.40516 25.6575C7.42958 25.6575 7.49771 25.7089 7.55652 25.7717C7.61533 25.8345 7.68402 25.8859 7.70917 25.8859C7.73432 25.8859 7.80302 25.9373 7.86183 26.0001C7.92064 26.0629 7.98877 26.1143 8.01319 26.1143C8.03762 26.1143 8.14123 26.1999 8.24347 26.3046C8.34572 26.4093 8.45242 26.4949 8.48063 26.4949C8.50887 26.4949 8.55669 26.5292 8.58695 26.571C8.61722 26.6129 8.66504 26.6472 8.69328 26.6472C8.72148 26.6472 8.82819 26.7328 8.93043 26.8375C9.03267 26.9422 9.13629 27.0278 9.16071 27.0278C9.18514 27.0278 9.25326 27.0792 9.31207 27.142C9.37088 27.2048 9.43923 27.2562 9.46397 27.2562C9.48866 27.2562 9.57487 27.3247 9.65555 27.4084C9.73623 27.4922 9.8221 27.5607 9.84637 27.5607C9.87064 27.5607 9.95651 27.6292 10.0372 27.7129C10.1179 27.7967 10.2041 27.8652 10.2288 27.8652C10.2535 27.8652 10.3219 27.9166 10.3807 27.9794C10.4395 28.0422 10.5076 28.0935 10.532 28.0935C10.5565 28.0935 10.6601 28.1792 10.7623 28.2839C10.8646 28.3885 10.9713 28.4742 10.9995 28.4742C11.0277 28.4742 11.0755 28.5084 11.1058 28.5503C11.1361 28.5922 11.1841 28.6264 11.2126 28.6264C11.2411 28.6264 11.3304 28.6949 11.4111 28.7787C11.4918 28.8624 11.5777 28.9309 11.6019 28.9309C11.6262 28.9309 11.7121 28.9994 11.7927 29.0832C11.8734 29.1669 11.9593 29.2354 11.9836 29.2354C12.0078 29.2354 12.0937 29.3039 12.1744 29.3877C12.2551 29.4714 12.3409 29.5399 12.3652 29.5399C12.3895 29.5399 12.4754 29.6084 12.556 29.6922C12.6367 29.7759 12.7229 29.8444 12.7476 29.8444C12.7723 29.8444 12.8407 29.8958 12.8995 29.9586C12.9583 30.0214 13.0267 30.0728 13.0514 30.0728C13.0761 30.0728 13.1623 30.1413 13.243 30.225C13.3237 30.3088 13.4095 30.3773 13.4338 30.3773C13.4581 30.3773 13.544 30.4458 13.6246 30.5295C13.7053 30.6133 13.7912 30.6818 13.8155 30.6818C13.8397 30.6818 13.9256 30.7503 14.0063 30.834C14.087 30.9178 14.1732 30.9863 14.1979 30.9863C14.2226 30.9863 14.2909 31.0377 14.3498 31.1005C14.4086 31.1633 14.4773 31.2147 14.5024 31.2147C14.5276 31.2147 14.5963 31.266 14.6551 31.3288C14.7139 31.3916 14.782 31.443 14.8064 31.443C14.8308 31.443 14.9345 31.5287 15.0367 31.6333C15.1389 31.738 15.2426 31.8237 15.267 31.8237C15.2914 31.8237 15.3595 31.875 15.4183 31.9378C15.4772 32.0006 15.5455 32.052 15.5702 32.052C15.5949 32.052 15.6811 32.1205 15.7618 32.2043C15.8425 32.288 15.9287 32.3565 15.9534 32.3565C15.9781 32.3565 16.0465 32.4079 16.1053 32.4707C16.1641 32.5335 16.2325 32.5849 16.2572 32.5849C16.2819 32.5849 16.3681 32.6534 16.4488 32.7372C16.5295 32.8209 16.6225 32.8894 16.6557 32.8894C16.6888 32.8894 16.7159 32.9065 16.7159 32.9275C16.7159 33.0128 16.8454 32.9562 16.9877 32.8085C17.0709 32.7222 17.1489 32.6615 17.1612 32.6737C17.1734 32.6859 17.1126 32.7638 17.026 32.8468C16.8556 33.0101 16.8394 33.056 16.9231 33.1395C16.9531 33.1694 16.9974 33.1939 17.0215 33.1939C17.0456 33.1939 17.1314 33.2624 17.2121 33.3462C17.2927 33.4299 17.379 33.4984 17.4037 33.4984C17.4284 33.4984 17.4967 33.5498 17.5555 33.6126C17.6144 33.6754 17.6827 33.7268 17.7074 33.7268C17.7321 33.7268 17.8183 33.7953 17.899 33.879C17.9797 33.9628 18.0656 34.0313 18.0898 34.0313C18.1141 34.0313 18.2 34.0998 18.2807 34.1835C18.3613 34.2673 18.4466 34.3358 18.4702 34.3358C18.4938 34.3358 18.5561 34.3786 18.6085 34.4309L18.7039 34.5261L18.6085 34.6212C18.5561 34.6736 18.4938 34.7164 18.4702 34.7164C18.4466 34.7164 18.3613 34.7849 18.2807 34.8686C18.2 34.9524 18.1138 35.0209 18.0891 35.0209C18.0644 35.0209 17.996 35.0723 17.9372 35.1351C17.8784 35.1979 17.8103 35.2493 17.7858 35.2493C17.7614 35.2493 17.6578 35.3349 17.5555 35.4396C17.4533 35.5443 17.3497 35.6299 17.3253 35.6299C17.3008 35.6299 17.2327 35.6813 17.1739 35.7441C17.1151 35.8069 17.0467 35.8583 17.022 35.8583C16.9973 35.8583 16.9111 35.9268 16.8304 36.0105C16.7497 36.0943 16.6635 36.1628 16.6388 36.1628C16.6141 36.1628 16.5458 36.2142 16.4869 36.277C16.4281 36.3398 16.3598 36.3911 16.3351 36.3911C16.3104 36.3911 16.2241 36.4597 16.1435 36.5434C16.0628 36.6271 15.9769 36.6956 15.9526 36.6956C15.9284 36.6956 15.8425 36.7642 15.7618 36.8479C15.6811 36.9316 15.5949 37.0001 15.5702 37.0001C15.5455 37.0001 15.4772 37.0515 15.4183 37.1143C15.3595 37.1771 15.2912 37.2285 15.2665 37.2285C15.2418 37.2285 15.1556 37.297 15.0749 37.3808C14.9942 37.4645 14.9083 37.533 14.8841 37.533C14.8598 37.533 14.7739 37.6015 14.6932 37.6853C14.6125 37.769 14.5263 37.8375 14.5016 37.8375C14.4769 37.8375 14.4086 37.8889 14.3498 37.9517C14.2909 38.0145 14.2228 38.0659 14.1984 38.0659C14.174 38.0659 14.0704 38.1515 13.9681 38.2562C13.8659 38.3609 13.7628 38.4465 13.7391 38.4465C13.7154 38.4465 13.6124 38.5322 13.5101 38.6368C13.4079 38.7415 13.3012 38.8271 13.273 38.8271C13.2447 38.8271 13.1969 38.8614 13.1667 38.9033C13.1364 38.9451 13.088 38.9794 13.059 38.9794C13.0301 38.9794 12.9583 39.0308 12.8995 39.0936C12.8407 39.1564 12.772 39.2078 12.7469 39.2078C12.7217 39.2078 12.653 39.2591 12.5942 39.3219C12.5354 39.3848 12.4673 39.4361 12.4428 39.4361C12.4184 39.4361 12.3148 39.5218 12.2126 39.6264C12.1103 39.7311 12.0067 39.8168 11.9823 39.8168C11.9578 39.8168 11.8897 39.8681 11.8309 39.9309C11.7721 39.9938 11.7037 40.0451 11.679 40.0451C11.6543 40.0451 11.5681 40.1136 11.4874 40.1974C11.4068 40.2811 11.3213 40.3496 11.2975 40.3496C11.2737 40.3496 11.1531 40.4524 11.0295 40.578C10.9058 40.7036 10.7849 40.8064 10.7607 40.8064C10.7364 40.8064 10.6685 40.8578 10.6097 40.9206C10.5508 40.9834 10.4825 41.0348 10.4578 41.0348C10.4331 41.0348 10.3469 41.1033 10.2662 41.187C10.1855 41.2707 10.0962 41.3393 10.0677 41.3393C10.0392 41.3393 9.99113 41.3735 9.96086 41.4154C9.9306 41.4572 9.88255 41.4915 9.85404 41.4915C9.82553 41.4915 9.73623 41.56 9.65555 41.6438C9.57487 41.7275 9.48866 41.796 9.46397 41.796C9.43923 41.796 9.37088 41.8474 9.31207 41.9102C9.25326 41.973 9.18514 42.0244 9.16071 42.0244C9.13629 42.0244 9.03267 42.11 8.93043 42.2147C8.82819 42.3194 8.72148 42.405 8.69328 42.405C8.66504 42.405 8.61722 42.4393 8.58695 42.4811C8.55669 42.523 8.50864 42.5573 8.48013 42.5573C8.45162 42.5573 8.36232 42.6258 8.28164 42.7095C8.20096 42.7932 8.11532 42.8618 8.09131 42.8618C8.06735 42.8618 7.96407 42.9474 7.86183 43.0521C7.75959 43.1567 7.65597 43.2424 7.63155 43.2424C7.60712 43.2424 7.539 43.2938 7.48019 43.3566C7.42138 43.4194 7.35268 43.4708 7.32753 43.4708C7.30238 43.4708 7.23369 43.5221 7.17488 43.5849C7.11606 43.6477 7.04771 43.6991 7.02298 43.6991C6.99829 43.6991 6.91208 43.7676 6.8314 43.8514C6.75072 43.9351 6.66485 44.0036 6.64058 44.0036C6.6163 44.0036 6.53043 44.0721 6.44976 44.1559C6.36908 44.2396 6.28286 44.3081 6.25817 44.3081C6.23344 44.3081 6.16509 44.3595 6.10628 44.4223C6.04747 44.4851 5.97934 44.5365 5.95492 44.5365C5.93049 44.5365 5.82688 44.6221 5.72463 44.7268C5.62239 44.8315 5.51569 44.9171 5.48748 44.9171C5.45924 44.9171 5.41142 44.9514 5.38116 44.9932C5.35089 45.0351 5.30307 45.0694 5.27483 45.0694C5.24663 45.0694 5.13992 45.155 5.03768 45.2597C4.93544 45.3644 4.83182 45.45 4.8074 45.45C4.78297 45.45 4.71485 45.5014 4.65604 45.5642C4.59723 45.627 4.52887 45.6784 4.50414 45.6784C4.47945 45.6784 4.39324 45.7469 4.31256 45.8306C4.23188 45.9144 4.14601 45.9829 4.12174 45.9829C4.09746 45.9829 4.0116 46.0514 3.93092 46.1351C3.85024 46.2189 3.76505 46.2874 3.74162 46.2874C3.71819 46.2874 3.54401 46.4433 3.35456 46.6339C3.16511 46.8244 2.99883 46.9691 2.98502 46.9553C2.97124 46.9415 2.98471 46.915 3.01497 46.8964C3.04524 46.8777 3.05867 46.8512 3.04482 46.8373C3.03093 46.8235 2.97311 46.8585 2.91628 46.9152C2.83484 46.9965 2.82404 47.025 2.86518 47.0504C2.89388 47.0681 2.90262 47.0963 2.8846 47.1132C2.86659 47.13 2.84419 47.1224 2.83484 47.0962C2.80381 47.0096 2.70558 47.0466 2.557 47.2009C2.47632 47.2846 2.39045 47.3531 2.36618 47.3531C2.34191 47.3531 2.25604 47.4216 2.17536 47.5054C2.09468 47.5891 2.0016 47.6576 1.96843 47.6576C1.93531 47.6576 1.90821 47.6747 1.90821 47.6957C1.90821 47.7166 1.89104 47.7337 1.87005 47.7337C1.84467 47.7337 1.83188 43.3058 1.83188 34.5261C1.83188 25.7463 1.84467 21.3184 1.87005 21.3184C1.89104 21.3184 1.90821 21.3356 1.90821 21.3565ZM28.5468 21.3565C28.5468 21.3774 28.5297 21.3946 28.5087 21.3946C28.4877 21.3946 28.4705 21.3774 28.4705 21.3565C28.4705 21.3356 28.4877 21.3184 28.5087 21.3184C28.5297 21.3184 28.5468 21.3356 28.5468 21.3565ZM45.4918 34.5229C45.4918 45.0524 45.4821 47.7307 45.4441 47.7437C45.4141 47.7539 45.4445 47.8051 45.5256 47.8812C45.5967 47.9479 45.6451 48.0121 45.6332 48.024C45.6214 48.0359 45.5315 47.9657 45.4335 47.8679C45.3356 47.7703 45.2666 47.6792 45.2803 47.6656C45.2939 47.6519 45.3204 47.6655 45.3391 47.6957C45.3578 47.7259 45.3847 47.739 45.3988 47.7249C45.4394 47.6845 45.3149 47.5815 45.2255 47.5815C45.1759 47.5815 45.0428 47.4785 44.8811 47.3151C44.7362 47.1685 44.598 47.0486 44.5739 47.0486C44.5498 47.0486 44.482 46.9972 44.4232 46.9344C44.3644 46.8716 44.296 46.8202 44.2713 46.8202C44.2466 46.8202 44.1604 46.7517 44.0797 46.668C43.999 46.5843 43.9131 46.5157 43.8889 46.5157C43.8646 46.5157 43.7787 46.4472 43.698 46.3635C43.6174 46.2798 43.5312 46.2112 43.5065 46.2112C43.4817 46.2112 43.4134 46.1599 43.3546 46.0971C43.2958 46.0343 43.2274 45.9829 43.2027 45.9829C43.178 45.9829 43.0918 45.9144 43.0111 45.8306C42.9304 45.7469 42.8442 45.6784 42.8195 45.6784C42.7948 45.6784 42.7264 45.627 42.6676 45.5642C42.6088 45.5014 42.5404 45.45 42.5157 45.45C42.491 45.45 42.4048 45.3815 42.3241 45.2977C42.2435 45.214 42.1576 45.1455 42.1333 45.1455C42.109 45.1455 42.0232 45.077 41.9425 44.9932C41.8618 44.9095 41.7759 44.841 41.7517 44.841C41.7274 44.841 41.6415 44.7725 41.5608 44.6887C41.4802 44.605 41.394 44.5365 41.3693 44.5365C41.3445 44.5365 41.2762 44.4851 41.2174 44.4223C41.1586 44.3595 41.0899 44.3081 41.0647 44.3081C41.0396 44.3081 40.9709 44.2567 40.9121 44.1939C40.8532 44.1311 40.7849 44.0798 40.7602 44.0798C40.7355 44.0798 40.6493 44.0112 40.5686 43.9275C40.4879 43.8438 40.402 43.7752 40.3778 43.7752C40.3535 43.7752 40.2676 43.7067 40.1869 43.623C40.1063 43.5393 40.0204 43.4708 39.9961 43.4708C39.9718 43.4708 39.886 43.4022 39.8053 43.3185C39.7246 43.2348 39.6384 43.1663 39.6137 43.1663C39.589 43.1663 39.5206 43.1149 39.4618 43.0521C39.403 42.9893 39.3347 42.9379 39.3099 42.9379C39.2852 42.9379 39.199 42.8694 39.1183 42.7856C39.0377 42.7019 38.9518 42.6334 38.9275 42.6334C38.9032 42.6334 38.8174 42.5649 38.7367 42.4811C38.656 42.3974 38.5701 42.3289 38.5459 42.3289C38.5216 42.3289 38.4357 42.2604 38.3551 42.1766C38.2744 42.0929 38.1851 42.0244 38.1566 42.0244C38.1281 42.0244 38.08 41.9901 38.0497 41.9483C38.0195 41.9064 37.9717 41.8721 37.9434 41.8721C37.9152 41.8721 37.8085 41.7865 37.7063 41.6818C37.604 41.5771 37.4973 41.4915 37.4691 41.4915C37.4409 41.4915 37.393 41.4572 37.3628 41.4154C37.3325 41.3735 37.2847 41.3393 37.2565 41.3393C37.2283 41.3393 37.1215 41.2536 37.0193 41.1489C36.9171 41.0443 36.8134 40.9586 36.789 40.9586C36.7646 40.9586 36.6965 40.9072 36.6377 40.8444C36.5788 40.7816 36.5107 40.7303 36.4863 40.7303C36.4619 40.7303 36.3583 40.6446 36.256 40.5399C36.1538 40.4353 36.0505 40.3496 36.0265 40.3496C36.0025 40.3496 35.9169 40.2811 35.8362 40.1974C35.7555 40.1136 35.6693 40.0451 35.6446 40.0451C35.6199 40.0451 35.5515 39.9938 35.4927 39.9309C35.4339 39.8681 35.3656 39.8168 35.3408 39.8168C35.3162 39.8168 35.2299 39.7482 35.1493 39.6645C35.0686 39.5808 34.9824 39.5123 34.9577 39.5123C34.9329 39.5123 34.8646 39.4609 34.8058 39.3981C34.747 39.3353 34.6786 39.2839 34.6539 39.2839C34.6292 39.2839 34.543 39.2154 34.4623 39.1316C34.3816 39.0479 34.2958 38.9794 34.2715 38.9794C34.2472 38.9794 34.1613 38.9109 34.0807 38.8271C34 38.7434 33.9138 38.6749 33.8891 38.6749C33.8643 38.6749 33.796 38.6235 33.7372 38.5607C33.6784 38.4979 33.6102 38.4465 33.5858 38.4465C33.5614 38.4465 33.4578 38.3609 33.3555 38.2562C33.2533 38.1515 33.1497 38.0659 33.1253 38.0659C33.1008 38.0659 33.0327 38.0145 32.9739 37.9517C32.9151 37.8889 32.8467 37.8375 32.822 37.8375C32.7973 37.8375 32.7111 37.769 32.6304 37.6853C32.5497 37.6015 32.4604 37.533 32.4319 37.533C32.4034 37.533 32.3554 37.4988 32.3251 37.4569C32.2948 37.415 32.2468 37.3808 32.2183 37.3808C32.1898 37.3808 32.1005 37.3123 32.0198 37.2285C31.9391 37.1448 31.8535 37.0763 31.8295 37.0763C31.8055 37.0763 31.7022 36.9906 31.6 36.886C31.4977 36.7813 31.3945 36.6956 31.3705 36.6956C31.3465 36.6956 31.2609 36.6271 31.1802 36.5434C31.0995 36.4597 31.0136 36.3911 30.9894 36.3911C30.9651 36.3911 30.8792 36.3226 30.7985 36.2389C30.7179 36.1552 30.6316 36.0866 30.607 36.0866C30.5822 36.0866 30.5139 36.0353 30.4551 35.9725C30.3962 35.9097 30.3279 35.8583 30.3032 35.8583C30.2785 35.8583 30.1923 35.7898 30.1116 35.706C30.0309 35.6223 29.945 35.5538 29.9208 35.5538C29.8965 35.5538 29.8106 35.4853 29.7299 35.4015C29.6493 35.3178 29.563 35.2493 29.5384 35.2493C29.5136 35.2493 29.4453 35.1979 29.3865 35.1351C29.3276 35.0723 29.2593 35.0209 29.2346 35.0209C29.2099 35.0209 29.1237 34.9524 29.043 34.8686C28.9623 34.7849 28.877 34.7164 28.8534 34.7164C28.8298 34.7164 28.7676 34.6736 28.7151 34.6212L28.6197 34.5261L28.7151 34.4309C28.7676 34.3786 28.8298 34.3358 28.8534 34.3358C28.877 34.3358 28.9623 34.2673 29.043 34.1835C29.1237 34.0998 29.2099 34.0313 29.2346 34.0313C29.2593 34.0313 29.3276 33.9799 29.3865 33.9171C29.4453 33.8543 29.5136 33.8029 29.5384 33.8029C29.563 33.8029 29.6493 33.7344 29.7299 33.6507C29.8106 33.5669 29.8963 33.4984 29.9203 33.4984C29.9442 33.4984 30.0475 33.4128 30.1497 33.3081C30.252 33.2034 30.3547 33.1178 30.378 33.1178C30.4013 33.1178 30.4641 33.0741 30.5177 33.0207L30.615 32.9237L30.5289 32.8492C30.4815 32.8083 30.4541 32.7635 30.4678 32.7498C30.4815 32.7362 30.5249 32.7619 30.5642 32.8072C30.6635 32.9214 30.7068 32.9116 30.8749 32.7372C30.9555 32.6534 31.0418 32.5849 31.0664 32.5849C31.0912 32.5849 31.1595 32.5335 31.2183 32.4707C31.2772 32.4079 31.3455 32.3565 31.3702 32.3565C31.3949 32.3565 31.4811 32.288 31.5618 32.2043C31.6425 32.1205 31.7287 32.052 31.7534 32.052C31.7781 32.052 31.8465 32.0006 31.9053 31.9378C31.9641 31.875 32.0325 31.8237 32.0572 31.8237C32.0819 31.8237 32.1681 31.7551 32.2488 31.6714C32.3295 31.5877 32.4151 31.5192 32.4391 31.5192C32.4631 31.5192 32.5663 31.4335 32.6686 31.3288C32.7708 31.2242 32.8775 31.1385 32.9057 31.1385C32.934 31.1385 32.9818 31.1043 33.0121 31.0624C33.0423 31.0205 33.0904 30.9863 33.1189 30.9863C33.1474 30.9863 33.2367 30.9178 33.3174 30.834C33.3981 30.7503 33.4837 30.6818 33.5077 30.6818C33.5317 30.6818 33.6349 30.5961 33.7372 30.4915C33.8394 30.3868 33.943 30.3012 33.9675 30.3012C33.9919 30.3012 34.06 30.2498 34.1188 30.187C34.1776 30.1242 34.246 30.0728 34.2707 30.0728C34.2954 30.0728 34.3816 30.0043 34.4623 29.9205C34.543 29.8368 34.6292 29.7683 34.6539 29.7683C34.6786 29.7683 34.747 29.7169 34.8058 29.6541C34.8646 29.5913 34.9329 29.5399 34.9577 29.5399C34.9824 29.5399 35.0686 29.4714 35.1493 29.3877C35.2299 29.3039 35.3162 29.2354 35.3408 29.2354C35.3656 29.2354 35.4339 29.184 35.4927 29.1212C35.5515 29.0584 35.6199 29.007 35.6446 29.007C35.6693 29.007 35.7555 28.9385 35.8362 28.8548C35.9169 28.7711 36.0028 28.7025 36.027 28.7025C36.0513 28.7025 36.1372 28.634 36.2179 28.5503C36.2985 28.4666 36.3844 28.398 36.4087 28.398C36.4329 28.398 36.5188 28.3295 36.5995 28.2458C36.6802 28.1621 36.7664 28.0935 36.7911 28.0935C36.8158 28.0935 36.8842 28.0422 36.943 27.9794C37.0018 27.9166 37.0701 27.8652 37.0949 27.8652C37.1196 27.8652 37.2058 27.7967 37.2865 27.7129C37.3671 27.6292 37.453 27.5607 37.4773 27.5607C37.5015 27.5607 37.5874 27.4922 37.6681 27.4084C37.7488 27.3247 37.835 27.2562 37.8597 27.2562C37.8844 27.2562 37.9528 27.2048 38.0116 27.142C38.0704 27.0792 38.1387 27.0278 38.1635 27.0278C38.1882 27.0278 38.2744 26.9593 38.3551 26.8755C38.4357 26.7918 38.5219 26.7233 38.5466 26.7233C38.5714 26.7233 38.6397 26.6719 38.6985 26.6091C38.7573 26.5463 38.8255 26.4949 38.8499 26.4949C38.8743 26.4949 38.9779 26.4093 39.0802 26.3046C39.1824 26.1999 39.286 26.1143 39.3105 26.1143C39.3349 26.1143 39.403 26.0629 39.4618 26.0001C39.5206 25.9373 39.589 25.8859 39.6137 25.8859C39.6384 25.8859 39.7246 25.8174 39.8053 25.7337C39.886 25.6499 39.9722 25.5814 39.9969 25.5814C40.0216 25.5814 40.09 25.53 40.1488 25.4672C40.2076 25.4044 40.2759 25.353 40.3007 25.353C40.3254 25.353 40.4116 25.2845 40.4922 25.2008C40.5729 25.1171 40.6588 25.0485 40.6831 25.0485C40.7073 25.0485 40.7932 24.98 40.8739 24.8963C40.9546 24.8126 41.0408 24.7441 41.0655 24.7441C41.0902 24.7441 41.1586 24.6927 41.2174 24.6299C41.2762 24.5671 41.3445 24.5157 41.3693 24.5157C41.394 24.5157 41.4802 24.4472 41.5608 24.3634C41.6415 24.2797 41.7277 24.2112 41.7524 24.2112C41.7772 24.2112 41.8455 24.1598 41.9043 24.097C41.9631 24.0342 42.0313 23.9828 42.0557 23.9828C42.0801 23.9828 42.1837 23.8972 42.286 23.7925C42.3882 23.6878 42.4915 23.6022 42.5154 23.6022C42.5395 23.6022 42.6251 23.5337 42.7058 23.4499C42.7865 23.3662 42.8727 23.2977 42.8974 23.2977C42.9221 23.2977 42.9904 23.2463 43.0493 23.1835C43.1081 23.1207 43.1764 23.0693 43.2011 23.0693C43.2258 23.0693 43.3121 23.0008 43.3927 22.9171C43.4734 22.8333 43.5596 22.7648 43.5843 22.7648C43.609 22.7648 43.6774 22.7134 43.7362 22.6506C43.795 22.5878 43.8634 22.5364 43.8881 22.5364C43.9128 22.5364 43.999 22.4679 44.0797 22.3842C44.1604 22.3004 44.2466 22.2319 44.2713 22.2319C44.296 22.2319 44.3644 22.1805 44.4232 22.1177C44.482 22.0549 44.5501 22.0036 44.5745 22.0036C44.5989 22.0036 44.7026 21.9179 44.8048 21.8132C44.9071 21.7086 45.0107 21.6229 45.0351 21.6229C45.0595 21.6229 45.1276 21.5715 45.1865 21.5087C45.2453 21.4459 45.3209 21.3946 45.3544 21.3946C45.388 21.3946 45.4154 21.3774 45.4154 21.3565C45.4154 21.3356 45.4326 21.3184 45.4536 21.3184C45.479 21.3184 45.4918 25.7453 45.4918 34.5229ZM1.0686 21.5671C1.0686 21.6059 0.796258 21.8588 0.776108 21.8387C0.764964 21.8276 0.813357 21.7585 0.883617 21.6853C1.00269 21.5611 1.0686 21.519 1.0686 21.5671ZM19.6031 21.8727C19.6569 21.9263 19.6915 21.9795 19.68 21.9909C19.6593 22.0116 19.4638 21.8354 19.4638 21.7959C19.4638 21.7535 19.5081 21.7779 19.6031 21.8727ZM0.686956 21.9492C0.686956 21.9612 0.660395 21.9974 0.627879 22.0298C0.553382 22.1042 0.508614 22.0669 0.578149 21.9885C0.630282 21.9297 0.686956 21.9092 0.686956 21.9492ZM27.9362 21.9655C27.9362 21.9864 27.919 22.0036 27.8981 22.0036C27.8771 22.0036 27.8599 21.9864 27.8599 21.9655C27.8599 21.9446 27.8771 21.9274 27.8981 21.9274C27.919 21.9274 27.9362 21.9446 27.9362 21.9655ZM20.1507 22.4222C20.1507 22.4432 20.1335 22.4603 20.1126 22.4603C20.0916 22.4603 20.0744 22.4432 20.0744 22.4222C20.0744 22.4013 20.0916 22.3842 20.1126 22.3842C20.1335 22.3842 20.1507 22.4013 20.1507 22.4222ZM27.4782 22.4222C27.4782 22.4432 27.4611 22.4603 27.4401 22.4603C27.4191 22.4603 27.4019 22.4432 27.4019 22.4222C27.4019 22.4013 27.4191 22.3842 27.4401 22.3842C27.4611 22.3842 27.4782 22.4013 27.4782 22.4222ZM0.484304 31.2736C0.51682 31.306 0.533574 31.3422 0.52159 31.3542C0.499608 31.3762 0.381642 31.2769 0.381642 31.2364C0.381642 31.1979 0.423738 31.2131 0.484304 31.2736ZM0.789618 31.5781C0.822134 31.6105 0.838888 31.6467 0.826904 31.6587C0.804922 31.6807 0.686956 31.5814 0.686956 31.5409C0.686956 31.5024 0.729051 31.5176 0.789618 31.5781ZM46.6367 31.6153C46.6367 31.6538 46.2877 31.9831 46.2678 31.9633C46.2568 31.9523 46.3224 31.8663 46.4136 31.772C46.5665 31.6141 46.6367 31.5648 46.6367 31.6153ZM1.09493 31.8826C1.12745 31.915 1.1442 31.9512 1.13222 31.9632C1.11024 31.9852 0.99227 31.8859 0.99227 31.8454C0.99227 31.8069 1.03437 31.8221 1.09493 31.8826ZM17.9372 31.9378C17.9372 31.9588 17.92 31.9759 17.899 31.9759C17.878 31.9759 17.8609 31.9588 17.8609 31.9378C17.8609 31.9169 17.878 31.8998 17.899 31.8998C17.92 31.8998 17.9372 31.9169 17.9372 31.9378ZM1.40025 32.1871C1.43276 32.2195 1.44952 32.2557 1.43753 32.2677C1.41555 32.2897 1.29758 32.1904 1.29758 32.1499C1.29758 32.1114 1.33968 32.1266 1.40025 32.1871ZM29.9838 32.2256C30.0375 32.2792 30.0722 32.3324 30.0607 32.3439C30.0399 32.3646 29.8444 32.1883 29.8444 32.1489C29.8444 32.1065 29.8888 32.1309 29.9838 32.2256ZM46.0261 32.2243C46.0261 32.2628 45.6771 32.5921 45.6572 32.5723C45.6462 32.5613 45.7118 32.4753 45.803 32.381C45.9559 32.2231 46.0261 32.1738 46.0261 32.2243ZM17.5555 32.3185C17.5555 32.3394 17.5384 32.3565 17.5174 32.3565C17.4964 32.3565 17.4792 32.3394 17.4792 32.3185C17.4792 32.2975 17.4964 32.2804 17.5174 32.2804C17.5384 32.2804 17.5555 32.2975 17.5555 32.3185ZM1.70556 32.4916C1.73808 32.524 1.75483 32.5602 1.74285 32.5722C1.72086 32.5942 1.6029 32.4949 1.6029 32.4544C1.6029 32.4159 1.64499 32.4311 1.70556 32.4916ZM26.7913 35.4396C26.7913 35.4605 26.8184 35.4776 26.8515 35.4776C26.8847 35.4776 26.9778 35.5462 27.0584 35.6299C27.1391 35.7136 27.2253 35.7821 27.25 35.7821C27.2748 35.7821 27.3431 35.8335 27.4019 35.8963C27.4607 35.9591 27.5291 36.0105 27.5538 36.0105C27.5785 36.0105 27.6647 36.079 27.7454 36.1628C27.8261 36.2465 27.9123 36.315 27.937 36.315C27.9617 36.315 28.0301 36.3664 28.0889 36.4292C28.1477 36.492 28.2158 36.5434 28.2402 36.5434C28.2647 36.5434 28.3683 36.629 28.4705 36.7337C28.5728 36.8384 28.6795 36.924 28.7077 36.924C28.7359 36.924 28.7837 36.9583 28.814 37.0001C28.8443 37.042 28.8923 37.0763 28.9208 37.0763C28.9493 37.0763 29.0386 37.1448 29.1193 37.2285C29.2 37.3123 29.2856 37.3808 29.3096 37.3808C29.3336 37.3808 29.4369 37.4664 29.5391 37.5711C29.6414 37.6758 29.745 37.7614 29.7694 37.7614C29.7938 37.7614 29.8619 37.8128 29.9208 37.8756C29.9796 37.9384 30.0483 37.9898 30.0734 37.9898C30.0986 37.9898 30.1673 38.0412 30.2261 38.104C30.2849 38.1668 30.353 38.2181 30.3774 38.2181C30.4019 38.2181 30.5055 38.3038 30.6077 38.4085C30.71 38.5131 30.8132 38.5988 30.8372 38.5988C30.8612 38.5988 30.9468 38.6673 31.0275 38.751C31.1082 38.8348 31.1975 38.9033 31.226 38.9033C31.2545 38.9033 31.3026 38.9375 31.3328 38.9794C31.3631 39.0213 31.4109 39.0555 31.4392 39.0555C31.4674 39.0555 31.5741 39.1412 31.6763 39.2458C31.7786 39.3505 31.8822 39.4361 31.9066 39.4361C31.931 39.4361 31.9991 39.4875 32.058 39.5503C32.1168 39.6131 32.1855 39.6645 32.2106 39.6645C32.2358 39.6645 32.3045 39.7159 32.3633 39.7787C32.4221 39.8415 32.4904 39.8929 32.5152 39.8929C32.5399 39.8929 32.6261 39.9614 32.7067 40.0451C32.7874 40.1289 32.8733 40.1974 32.8976 40.1974C32.9218 40.1974 33.0077 40.2659 33.0884 40.3496C33.1691 40.4334 33.2549 40.5019 33.2792 40.5019C33.3035 40.5019 33.3894 40.5704 33.47 40.6541C33.5507 40.7379 33.6369 40.8064 33.6616 40.8064C33.6863 40.8064 33.7547 40.8578 33.8135 40.9206C33.8723 40.9834 33.9407 41.0348 33.9654 41.0348C33.9901 41.0348 34.0763 41.1033 34.157 41.187C34.2377 41.2707 34.3239 41.3393 34.3486 41.3393C34.3733 41.3393 34.4417 41.3906 34.5005 41.4534C34.5593 41.5162 34.6276 41.5676 34.6524 41.5676C34.6771 41.5676 34.7633 41.6361 34.8439 41.7199C34.9246 41.8036 35.0108 41.8721 35.0355 41.8721C35.0603 41.8721 35.1286 41.9235 35.1874 41.9863C35.2462 42.0491 35.3144 42.1005 35.3388 42.1005C35.3632 42.1005 35.4668 42.1861 35.5691 42.2908C35.6713 42.3955 35.7746 42.4811 35.7985 42.4811C35.8225 42.4811 35.9082 42.5496 35.9889 42.6334C36.0695 42.7171 36.1558 42.7856 36.1805 42.7856C36.2052 42.7856 36.2735 42.837 36.3323 42.8998C36.3912 42.9626 36.4595 43.014 36.4842 43.014C36.5089 43.014 36.5951 43.0825 36.6758 43.1663C36.7565 43.25 36.8424 43.3185 36.8666 43.3185C36.8909 43.3185 36.9768 43.387 37.0575 43.4708C37.1381 43.5545 37.2244 43.623 37.2491 43.623C37.2738 43.623 37.3421 43.6744 37.4009 43.7372C37.4598 43.8 37.5285 43.8514 37.5536 43.8514C37.5788 43.8514 37.6474 43.9028 37.7063 43.9656C37.7651 44.0284 37.8332 44.0798 37.8576 44.0798C37.882 44.0798 37.9857 44.1654 38.0879 44.2701C38.1901 44.3747 38.2934 44.4604 38.3174 44.4604C38.3414 44.4604 38.427 44.5289 38.5077 44.6126C38.5884 44.6964 38.6746 44.7649 38.6993 44.7649C38.724 44.7649 38.7924 44.8163 38.8512 44.8791C38.91 44.9419 38.9784 44.9932 39.0031 44.9932C39.0278 44.9932 39.114 45.0618 39.1947 45.1455C39.2753 45.2292 39.3612 45.2977 39.3855 45.2977C39.4098 45.2977 39.4956 45.3663 39.5763 45.45C39.657 45.5337 39.7432 45.6022 39.7679 45.6022C39.7926 45.6022 39.861 45.6536 39.9198 45.7164C39.9786 45.7792 40.0473 45.8306 40.0724 45.8306C40.0976 45.8306 40.1663 45.882 40.2251 45.9448C40.2839 46.0076 40.352 46.059 40.3765 46.059C40.4009 46.059 40.5045 46.1446 40.6067 46.2493C40.709 46.354 40.8123 46.4396 40.8362 46.4396C40.8602 46.4396 40.9459 46.5081 41.0266 46.5919C41.1072 46.6756 41.1934 46.7441 41.2181 46.7441C41.2429 46.7441 41.3112 46.7955 41.37 46.8583C41.4288 46.9211 41.4972 46.9725 41.5219 46.9725C41.5466 46.9725 41.6328 47.041 41.7135 47.1247C41.7942 47.2085 41.8804 47.277 41.9051 47.277C41.9298 47.277 41.9982 47.3284 42.057 47.3912C42.1158 47.454 42.1841 47.5054 42.2089 47.5054C42.2336 47.5054 42.3198 47.5739 42.4005 47.6576C42.4811 47.7414 42.5674 47.8099 42.592 47.8099C42.6168 47.8099 42.6851 47.8612 42.7439 47.9241C42.8027 47.9869 42.8711 48.0382 42.8958 48.0382C42.9205 48.0382 43.0067 48.1068 43.0874 48.1905C43.1681 48.2742 43.2531 48.3427 43.2763 48.3427C43.3178 48.3427 43.6599 48.6643 43.6599 48.7033C43.6599 48.7143 40.5013 48.7234 36.6408 48.7234C31.0629 48.7234 29.6172 48.7331 29.5995 48.7709C29.5817 48.809 29.5728 48.809 29.555 48.7709C29.5374 48.7332 28.3588 48.7234 23.8495 48.7234C20.7237 48.7234 18.1662 48.7336 18.1662 48.7462C18.1662 48.7587 18.2201 48.8191 18.2859 48.8805C18.3518 48.9418 18.3954 49.0022 18.3829 49.0147C18.3704 49.0272 18.2921 48.9667 18.2089 48.8804L18.0577 48.7234H10.8607C6.90238 48.7234 3.66377 48.7143 3.66377 48.7033C3.66377 48.6643 4.00587 48.3427 4.04739 48.3427C4.0706 48.3427 4.15555 48.2742 4.23623 48.1905C4.31691 48.1068 4.40312 48.0382 4.42781 48.0382C4.45255 48.0382 4.5209 47.9869 4.57971 47.9241C4.63852 47.8612 4.70687 47.8099 4.7316 47.8099C4.75629 47.8099 4.84251 47.7414 4.92319 47.6576C5.00387 47.5739 5.09008 47.5054 5.11477 47.5054C5.1395 47.5054 5.20785 47.454 5.26666 47.3912C5.32548 47.3284 5.39383 47.277 5.41856 47.277C5.44325 47.277 5.52946 47.2085 5.61014 47.1247C5.69082 47.041 5.77704 46.9725 5.80173 46.9725C5.82646 46.9725 5.89481 46.9211 5.95362 46.8583C6.01243 46.7955 6.08078 46.7441 6.10551 46.7441C6.13021 46.7441 6.21642 46.6756 6.2971 46.5919C6.37778 46.5081 6.46342 46.4396 6.48742 46.4396C6.51139 46.4396 6.61466 46.354 6.7169 46.2493C6.81915 46.1446 6.92585 46.059 6.95406 46.059C6.9823 46.059 7.03012 46.0247 7.06038 45.9829C7.09065 45.941 7.1387 45.9067 7.1672 45.9067C7.19571 45.9067 7.28502 45.8382 7.3657 45.7545C7.44638 45.6708 7.53225 45.6022 7.55652 45.6022C7.58079 45.6022 7.66666 45.5337 7.74734 45.45C7.82802 45.3663 7.91366 45.2977 7.93766 45.2977C7.96163 45.2977 8.0649 45.2121 8.16715 45.1074C8.26939 45.0028 8.37609 44.9171 8.4043 44.9171C8.43254 44.9171 8.48036 44.8829 8.51062 44.841C8.54089 44.7991 8.58856 44.7649 8.61657 44.7649C8.64458 44.7649 8.76865 44.6621 8.89227 44.5365C9.01588 44.4109 9.13995 44.3081 9.16796 44.3081C9.19598 44.3081 9.24364 44.2739 9.27391 44.232C9.30417 44.1901 9.3526 44.1559 9.38153 44.1559C9.41042 44.1559 9.48225 44.1045 9.54106 44.0417C9.59987 43.9789 9.66784 43.9275 9.69207 43.9275C9.71627 43.9275 9.83725 43.8247 9.96086 43.6991C10.0845 43.5735 10.2055 43.4708 10.2297 43.4708C10.2539 43.4708 10.3219 43.4194 10.3807 43.3566C10.4395 43.2938 10.5076 43.2424 10.532 43.2424C10.5565 43.2424 10.6601 43.1567 10.7623 43.0521C10.8646 42.9474 10.9713 42.8618 10.9995 42.8618C11.0277 42.8618 11.0755 42.8275 11.1058 42.7856C11.1361 42.7438 11.1914 42.7095 11.2287 42.7095C11.2712 42.7095 11.2966 42.681 11.2966 42.6334C11.2966 42.5858 11.3221 42.5573 11.3645 42.5573C11.4019 42.5573 11.4572 42.523 11.4874 42.4811C11.5177 42.4393 11.5657 42.405 11.5943 42.405C11.6228 42.405 11.7121 42.3365 11.7927 42.2528C11.8734 42.169 11.9593 42.1005 11.9836 42.1005C12.0078 42.1005 12.0937 42.032 12.1744 41.9483C12.2551 41.8645 12.3413 41.796 12.366 41.796C12.3907 41.796 12.4591 41.7446 12.5179 41.6818C12.5767 41.619 12.6454 41.5676 12.6705 41.5676C12.6957 41.5676 12.7644 41.5162 12.8232 41.4534C12.882 41.3906 12.9503 41.3393 12.9751 41.3393C12.9998 41.3393 13.086 41.2707 13.1667 41.187C13.2473 41.1033 13.3366 41.0348 13.3652 41.0348C13.3937 41.0348 13.4417 41.0005 13.472 40.9586C13.5022 40.9168 13.5501 40.8825 13.5783 40.8825C13.6065 40.8825 13.7132 40.7969 13.8155 40.6922C13.9177 40.5875 14.0207 40.5019 14.0444 40.5019C14.0681 40.5019 14.1712 40.4162 14.2734 40.3116C14.3757 40.2069 14.4793 40.1213 14.5037 40.1213C14.5281 40.1213 14.5963 40.0699 14.6551 40.0071C14.7139 39.9443 14.7826 39.8929 14.8077 39.8929C14.8329 39.8929 14.9016 39.8415 14.9604 39.7787C15.0192 39.7159 15.0879 39.6645 15.113 39.6645C15.1382 39.6645 15.2069 39.6131 15.2657 39.5503C15.3245 39.4875 15.3926 39.4361 15.4171 39.4361C15.4415 39.4361 15.5451 39.3505 15.6473 39.2458C15.7496 39.1412 15.8532 39.0555 15.8776 39.0555C15.902 39.0555 15.9702 39.0041 16.029 38.9413C16.0878 38.8785 16.1565 38.8271 16.1816 38.8271C16.2068 38.8271 16.2755 38.7758 16.3343 38.713C16.3931 38.6502 16.4612 38.5988 16.4856 38.5988C16.5101 38.5988 16.6137 38.5131 16.7159 38.4085C16.8182 38.3038 16.9218 38.2181 16.9462 38.2181C16.9706 38.2181 17.0388 38.1668 17.0976 38.104C17.1564 38.0412 17.2247 37.9898 17.2495 37.9898C17.2742 37.9898 17.3604 37.9213 17.4411 37.8375C17.5217 37.7538 17.6079 37.6853 17.6326 37.6853C17.6574 37.6853 17.7257 37.6339 17.7845 37.5711C17.8433 37.5083 17.9115 37.4569 17.9359 37.4569C17.9603 37.4569 18.0639 37.3713 18.1662 37.2666C18.2684 37.1619 18.372 37.0763 18.3965 37.0763C18.4209 37.0763 18.489 37.0249 18.5478 36.9621C18.6066 36.8993 18.6753 36.8479 18.7005 36.8479C18.7256 36.8479 18.7943 36.7965 18.8531 36.7337C18.9119 36.6709 18.9803 36.6195 19.005 36.6195C19.0297 36.6195 19.1159 36.551 19.1966 36.4673C19.2773 36.3835 19.3632 36.315 19.3874 36.315C19.4117 36.315 19.4976 36.2465 19.5783 36.1628C19.6589 36.079 19.7448 36.0105 19.7691 36.0105C19.7933 36.0105 19.8792 35.942 19.9599 35.8583C20.0406 35.7745 20.1268 35.706 20.1515 35.706C20.1762 35.706 20.2446 35.6546 20.3034 35.5918C20.3691 35.5216 20.4485 35.4776 20.5095 35.4776C20.5641 35.4776 20.6087 35.4605 20.6087 35.4396C20.6087 35.4145 21.6646 35.4015 23.7 35.4015C25.7354 35.4015 26.7913 35.4145 26.7913 35.4396ZM2.59517 47.3731C2.59517 47.4117 2.24616 47.7409 2.22631 47.7211C2.21528 47.7101 2.28089 47.6241 2.3721 47.5299C2.52502 47.372 2.59517 47.3227 2.59517 47.3731ZM1.98454 47.9821C1.98454 48.0207 1.63553 48.3499 1.61568 48.3301C1.60465 48.3191 1.67026 48.2331 1.76147 48.1389C1.9144 47.981 1.98454 47.9317 1.98454 47.9821ZM45.8234 48.1733C45.8559 48.2057 45.8727 48.242 45.8607 48.2539C45.8387 48.2759 45.7207 48.1766 45.7207 48.1361C45.7207 48.0976 45.7628 48.1128 45.8234 48.1733ZM46.1266 48.4785C46.2014 48.5532 46.2535 48.6234 46.2423 48.6346C46.2221 48.6547 45.9497 48.4019 45.9497 48.363C45.9497 48.3183 45.9967 48.349 46.1266 48.4785ZM1.37391 48.5911C1.37391 48.6297 1.0249 48.9589 1.00506 48.9391C0.994026 48.9281 1.05963 48.8421 1.15084 48.7479C1.30377 48.59 1.37391 48.5407 1.37391 48.5911ZM46.434 48.7823C46.4666 48.8147 46.4833 48.8509 46.4713 48.8629C46.4493 48.8849 46.3314 48.7856 46.3314 48.7451C46.3314 48.7066 46.3735 48.7218 46.434 48.7823ZM29.3865 48.9898C29.3865 49.0107 29.3693 49.0279 29.3483 49.0279C29.3273 49.0279 29.3101 49.0107 29.3101 48.9898C29.3101 48.9689 29.3273 48.9517 29.3483 48.9517C29.3693 48.9517 29.3865 48.9689 29.3865 48.9898ZM46.7372 49.0875C46.8121 49.1621 46.8642 49.2324 46.853 49.2436C46.8327 49.2637 46.5604 49.0109 46.5604 48.972C46.5604 48.9273 46.6073 48.958 46.7372 49.0875ZM0.763285 49.2001C0.763285 49.2387 0.414274 49.5679 0.394428 49.5481C0.383399 49.5371 0.449003 49.4511 0.540216 49.3569C0.69314 49.199 0.763285 49.1497 0.763285 49.2001ZM47.0447 49.3913C47.0772 49.4237 47.0939 49.4599 47.082 49.4719C47.06 49.4939 46.942 49.3946 46.942 49.3541C46.942 49.3156 46.9841 49.3308 47.0447 49.3913ZM18.9162 49.506C18.9699 49.5596 19.0045 49.6128 18.9931 49.6242C18.9723 49.6449 18.7768 49.4687 18.7768 49.4292C18.7768 49.3868 18.8211 49.4112 18.9162 49.506ZM28.9285 49.4465C28.9285 49.4675 28.9113 49.4846 28.8903 49.4846C28.8693 49.4846 28.8522 49.4675 28.8522 49.4465C28.8522 49.4256 28.8693 49.4085 28.8903 49.4085C28.9113 49.4085 28.9285 49.4256 28.9285 49.4465ZM19.5268 50.115C19.5805 50.1686 19.6152 50.2218 19.6037 50.2332C19.5829 50.2539 19.3874 50.0777 19.3874 50.0382C19.3874 49.9958 19.4318 50.0202 19.5268 50.115ZM28.3179 50.0555C28.3179 50.0765 28.3007 50.0936 28.2797 50.0936C28.2587 50.0936 28.2415 50.0765 28.2415 50.0555C28.2415 50.0346 28.2587 50.0175 28.2797 50.0175C28.3007 50.0175 28.3179 50.0346 28.3179 50.0555Z" fill="#EAAE13"/>
</svg>
