<svg width="42" height="52" viewBox="0 0 42 52" fill="none" xmlns="http://www.w3.org/2000/svg">
<path fill-rule="evenodd" clip-rule="evenodd" d="M20.3651 0.0504159C20.3651 0.0781447 20.2511 0.100832 20.1118 0.100832C19.9725 0.100832 19.8585 0.123519 19.8585 0.151248C19.8585 0.178977 19.7673 0.201664 19.6559 0.201664C19.5444 0.201664 19.4532 0.224351 19.4532 0.25208C19.4532 0.279808 19.3848 0.302496 19.3013 0.302496C19.2177 0.302496 19.1493 0.325183 19.1493 0.352911C19.1493 0.38064 19.1037 0.403327 19.048 0.403327C18.9922 0.403327 18.9466 0.426015 18.9466 0.453743C18.9466 0.481472 18.9011 0.504159 18.8453 0.504159C18.7896 0.504159 18.744 0.526846 18.744 0.554575C18.744 0.582304 18.6848 0.604991 18.6123 0.604991C18.5314 0.604991 18.426 0.663221 18.3387 0.756239C18.2607 0.839425 18.1653 0.907487 18.127 0.907487C18.0886 0.907487 18.0243 0.952861 17.9841 1.00832C17.9439 1.06378 17.8816 1.10915 17.8455 1.10915C17.7599 1.10915 17.0216 1.84391 17.0216 1.92906C17.0216 1.96501 16.976 2.02707 16.9203 2.06705C16.8645 2.10703 16.8189 2.17509 16.8189 2.2183C16.8189 2.26151 16.7734 2.32957 16.7176 2.36955C16.6619 2.40953 16.6163 2.48258 16.6163 2.53194C16.6163 2.58124 16.5935 2.62163 16.5656 2.62163C16.5378 2.62163 16.515 2.667 16.515 2.72246C16.515 2.77792 16.4922 2.82329 16.4643 2.82329C16.4365 2.82329 16.4137 2.86867 16.4137 2.92412C16.4137 2.97958 16.3909 3.02496 16.363 3.02496C16.3351 3.02496 16.3124 3.07033 16.3124 3.12579C16.3124 3.18124 16.2896 3.22662 16.2617 3.22662C16.2338 3.22662 16.211 3.29468 16.211 3.37787C16.211 3.46105 16.1882 3.52911 16.1604 3.52911C16.1325 3.52911 16.1097 3.61013 16.1097 3.70915C16.1097 4.05954 16.6821 4.03327 9.04631 4.03327C4.46766 4.03327 2.1277 4.05031 2.1277 4.08369C2.1277 4.11142 2.05931 4.13411 1.97572 4.13411C1.89213 4.13411 1.82374 4.15679 1.82374 4.18452C1.82374 4.21225 1.75535 4.23494 1.67176 4.23494C1.58817 4.23494 1.51978 4.25762 1.51978 4.28535C1.51978 4.31308 1.47921 4.33577 1.42966 4.33577C1.38007 4.33577 1.30666 4.38114 1.26649 4.4366C1.22631 4.49206 1.1638 4.53743 1.12758 4.53743C1.03533 4.53743 0.506595 5.0731 0.506595 5.16652C0.506595 5.20872 0.483798 5.24326 0.455935 5.24326C0.428073 5.24326 0.405276 5.28364 0.405276 5.33295C0.405276 5.3823 0.359682 5.45536 0.303957 5.49534C0.244483 5.53804 0.202638 5.62586 0.202638 5.70814C0.202638 5.78518 0.179841 5.84825 0.151978 5.84825C0.124116 5.84825 0.101319 5.91631 0.101319 5.99949C0.101319 6.08268 0.0785222 6.15074 0.0506595 6.15074C0.0170216 6.15074 0 11.1587 0 21.0739C0 30.989 0.0170216 35.997 0.0506595 35.997C0.0785222 35.997 0.101319 36.065 0.101319 36.1482C0.101319 36.2314 0.124116 36.2995 0.151978 36.2995C0.179841 36.2995 0.202638 36.3448 0.202638 36.4003C0.202638 36.4557 0.225435 36.5011 0.253297 36.5011C0.28116 36.5011 0.303957 36.5465 0.303957 36.602C0.303957 36.6574 0.326754 36.7028 0.354616 36.7028C0.382479 36.7028 0.405276 36.7432 0.405276 36.7925C0.405276 36.8418 0.450869 36.9149 0.506595 36.9549C0.56232 36.9948 0.607914 37.0573 0.607914 37.0937C0.607914 37.1797 0.939227 37.5094 1.02565 37.5094C1.06223 37.5094 1.12499 37.5548 1.16517 37.6103C1.20534 37.6657 1.27875 37.7111 1.32834 37.7111C1.37789 37.7111 1.41847 37.7338 1.41847 37.7615C1.41847 37.7893 1.46406 37.8119 1.51978 37.8119C1.57551 37.8119 1.6211 37.8346 1.6211 37.8624C1.6211 37.8901 1.6667 37.9128 1.72242 37.9128C1.77815 37.9128 1.82374 37.9355 1.82374 37.9632C1.82374 37.9909 1.91493 38.0136 2.02638 38.0136C2.13783 38.0136 2.22902 38.0363 2.22902 38.064C2.22902 38.0973 4.44116 38.1144 8.76409 38.1144H15.2992V38.2657C15.2992 38.3489 15.2764 38.4169 15.2485 38.4169C15.2206 38.4169 15.1978 38.485 15.1978 38.5682C15.1978 38.6514 15.175 38.7194 15.1472 38.7194C15.1193 38.7194 15.0965 38.7875 15.0965 38.8707C15.0965 38.9539 15.0737 39.0219 15.0459 39.0219C15.018 39.0219 14.9952 39.09 14.9952 39.1732C14.9952 39.2564 14.9724 39.3244 14.9445 39.3244C14.9167 39.3244 14.8939 39.3925 14.8939 39.4757C14.8939 39.5588 14.8711 39.6269 14.8432 39.6269C14.8154 39.6269 14.7926 39.695 14.7926 39.7782C14.7926 39.8613 14.7698 39.9294 14.7419 39.9294C14.714 39.9294 14.6912 39.9975 14.6912 40.0807C14.6912 40.1638 14.6685 40.2319 14.6406 40.2319C14.6127 40.2319 14.5899 40.3 14.5899 40.3832C14.5899 40.4663 14.5671 40.5344 14.5393 40.5344C14.5114 40.5344 14.4886 40.6025 14.4886 40.6856C14.4886 40.7688 14.4658 40.8369 14.438 40.8369C14.4101 40.8369 14.3873 40.905 14.3873 40.9881C14.3873 41.0713 14.3645 41.1394 14.3366 41.1394C14.3088 41.1394 14.286 41.2075 14.286 41.2906C14.286 41.3738 14.2632 41.4419 14.2353 41.4419C14.2074 41.4419 14.1847 41.5099 14.1847 41.5931C14.1847 41.6763 14.1619 41.7444 14.134 41.7444C14.1061 41.7444 14.0833 41.8124 14.0833 41.8956C14.0833 41.9788 14.0605 42.0469 14.0327 42.0469C14.0048 42.0469 13.982 42.1149 13.982 42.1981C13.982 42.2813 13.9592 42.3494 13.9314 42.3494C13.9035 42.3494 13.8807 42.4174 13.8807 42.5006C13.8807 42.5838 13.8579 42.6519 13.83 42.6519C13.8022 42.6519 13.7794 42.7199 13.7794 42.8031C13.7794 42.8863 13.7566 42.9544 13.7287 42.9544C13.7009 42.9544 13.6781 43.0224 13.6781 43.1056C13.6781 43.1888 13.6553 43.2569 13.6274 43.2569C13.5995 43.2569 13.5767 43.3249 13.5767 43.4081C13.5767 43.4913 13.5539 43.5594 13.5261 43.5594C13.4982 43.5594 13.4754 43.6274 13.4754 43.7106C13.4754 43.7938 13.4526 43.8619 13.4248 43.8619C13.3969 43.8619 13.3741 43.9299 13.3741 44.0131C13.3741 44.0963 13.3513 44.1643 13.3234 44.1643C13.2956 44.1643 13.2728 44.2324 13.2728 44.3156C13.2728 44.3988 13.25 44.4668 13.2221 44.4668C13.1943 44.4668 13.1715 44.5349 13.1715 44.6181C13.1715 44.7013 13.1487 44.7693 13.1208 44.7693C13.0929 44.7693 13.0701 44.8374 13.0701 44.9206C13.0701 45.0038 13.0473 45.0718 13.0195 45.0718C12.9916 45.0718 12.9688 45.1399 12.9688 45.2231C12.9688 45.3063 12.946 45.3743 12.9182 45.3743C12.8903 45.3743 12.8675 45.4424 12.8675 45.5256C12.8675 45.6088 12.8447 45.6768 12.8168 45.6768C12.789 45.6768 12.7662 45.7449 12.7662 45.8281C12.7662 45.9113 12.7434 45.9793 12.7155 45.9793C12.6877 45.9793 12.6649 46.0474 12.6649 46.1306C12.6649 46.2138 12.6421 46.2818 12.6142 46.2818C12.5863 46.2818 12.5635 46.3499 12.5635 46.4331C12.5635 46.5162 12.5408 46.5843 12.5129 46.5843C12.485 46.5843 12.4622 46.6524 12.4622 46.7356C12.4622 46.8187 12.4394 46.8868 12.4116 46.8868C12.3837 46.8868 12.3609 46.9549 12.3609 47.0381C12.3609 47.1212 12.3381 47.1893 12.3103 47.1893C12.2824 47.1893 12.2596 47.2574 12.2596 47.3405C12.2596 47.4237 12.2368 47.4918 12.2089 47.4918C12.1811 47.4918 12.1583 47.5599 12.1583 47.643C12.1583 47.7262 12.1355 47.7943 12.1076 47.7943C12.0798 47.7943 12.057 47.8624 12.057 47.9455C12.057 48.0287 12.0342 48.0968 12.0063 48.0968C11.9784 48.0968 11.9556 48.1648 11.9556 48.248C11.9556 48.3312 11.9328 48.3993 11.905 48.3993C11.8771 48.3993 11.8543 48.4673 11.8543 48.5505C11.8543 48.6337 11.8315 48.7018 11.8037 48.7018C11.7758 48.7018 11.753 48.7698 11.753 48.853C11.753 48.9362 11.7302 49.0043 11.7023 49.0043C11.6745 49.0043 11.6517 49.0723 11.6517 49.1555C11.6517 49.2387 11.6289 49.3068 11.601 49.3068C11.5732 49.3068 11.5504 49.3748 11.5504 49.458C11.5504 49.5412 11.5276 49.6093 11.4997 49.6093C11.4718 49.6093 11.449 49.6773 11.449 49.7605C11.449 49.8437 11.4262 49.9118 11.3984 49.9118C11.3705 49.9118 11.3477 49.9798 11.3477 50.063C11.3477 50.1462 11.3249 50.2143 11.2971 50.2143C11.2675 50.2143 11.2464 50.3823 11.2464 50.6176C11.2464 50.8529 11.2675 51.0209 11.2971 51.0209C11.3249 51.0209 11.3477 51.0559 11.3477 51.0988C11.3477 51.1997 11.5734 51.4242 11.6747 51.4242C11.7178 51.4242 11.753 51.4469 11.753 51.4747C11.753 51.5024 11.7986 51.5251 11.8543 51.5251C11.91 51.5251 11.9556 51.5478 11.9556 51.5755C11.9556 51.6035 12.0907 51.6259 12.2596 51.6259C12.4284 51.6259 12.5635 51.6035 12.5635 51.5755C12.5635 51.5478 12.5985 51.5251 12.6412 51.5251C12.7421 51.5251 13.0701 51.1986 13.0701 51.0982C13.0701 51.0557 13.0929 51.0209 13.1208 51.0209C13.1487 51.0209 13.1715 50.9755 13.1715 50.9201C13.1715 50.8646 13.1943 50.8192 13.2221 50.8192C13.25 50.8192 13.2728 50.7512 13.2728 50.668C13.2728 50.5848 13.2956 50.5168 13.3234 50.5168C13.3513 50.5168 13.3741 50.4487 13.3741 50.3655C13.3741 50.2823 13.3969 50.2143 13.4248 50.2143C13.4526 50.2143 13.4754 50.1462 13.4754 50.063C13.4754 49.9798 13.4982 49.9118 13.5261 49.9118C13.5539 49.9118 13.5767 49.8437 13.5767 49.7605C13.5767 49.6773 13.5995 49.6093 13.6274 49.6093C13.6553 49.6093 13.6781 49.5412 13.6781 49.458C13.6781 49.3748 13.7009 49.3068 13.7287 49.3068C13.7566 49.3068 13.7794 49.2387 13.7794 49.1555C13.7794 49.0723 13.8022 49.0043 13.83 49.0043C13.8579 49.0043 13.8807 48.9362 13.8807 48.853C13.8807 48.7698 13.9035 48.7018 13.9314 48.7018C13.9592 48.7018 13.982 48.6337 13.982 48.5505C13.982 48.4673 14.0048 48.3993 14.0327 48.3993C14.0605 48.3993 14.0833 48.3312 14.0833 48.248C14.0833 48.1648 14.1061 48.0968 14.134 48.0968C14.1619 48.0968 14.1847 48.0287 14.1847 47.9455C14.1847 47.8624 14.2074 47.7943 14.2353 47.7943C14.2632 47.7943 14.286 47.7262 14.286 47.643C14.286 47.5599 14.3088 47.4918 14.3366 47.4918C14.3645 47.4918 14.3873 47.4237 14.3873 47.3405C14.3873 47.2574 14.4101 47.1893 14.438 47.1893C14.4658 47.1893 14.4886 47.1212 14.4886 47.0381C14.4886 46.9549 14.5114 46.8868 14.5393 46.8868C14.5671 46.8868 14.5899 46.8187 14.5899 46.7356C14.5899 46.6524 14.6127 46.5843 14.6406 46.5843C14.6685 46.5843 14.6912 46.5162 14.6912 46.4331C14.6912 46.3499 14.714 46.2818 14.7419 46.2818C14.7698 46.2818 14.7926 46.2138 14.7926 46.1306C14.7926 46.0474 14.8154 45.9793 14.8432 45.9793C14.8711 45.9793 14.8939 45.9113 14.8939 45.8281C14.8939 45.7449 14.9167 45.6768 14.9445 45.6768C14.9724 45.6768 14.9952 45.6088 14.9952 45.5256C14.9952 45.4424 15.018 45.3743 15.0459 45.3743C15.0737 45.3743 15.0965 45.3063 15.0965 45.2231C15.0965 45.1399 15.1193 45.0718 15.1472 45.0718C15.175 45.0718 15.1978 45.0038 15.1978 44.9206C15.1978 44.8374 15.2206 44.7693 15.2485 44.7693C15.2764 44.7693 15.2992 44.7013 15.2992 44.6181C15.2992 44.5349 15.322 44.4668 15.3498 44.4668C15.3777 44.4668 15.4005 44.3988 15.4005 44.3156C15.4005 44.2324 15.4233 44.1643 15.4511 44.1643C15.479 44.1643 15.5018 44.0963 15.5018 44.0131C15.5018 43.9299 15.5246 43.8619 15.5525 43.8619C15.5803 43.8619 15.6031 43.7938 15.6031 43.7106C15.6031 43.6274 15.6259 43.5594 15.6538 43.5594C15.6816 43.5594 15.7044 43.4913 15.7044 43.4081C15.7044 43.3249 15.7272 43.2569 15.7551 43.2569C15.783 43.2569 15.8058 43.1888 15.8058 43.1056C15.8058 43.0224 15.8286 42.9544 15.8564 42.9544C15.8843 42.9544 15.9071 42.8863 15.9071 42.8031C15.9071 42.7199 15.9299 42.6519 15.9577 42.6519C15.9856 42.6519 16.0084 42.5838 16.0084 42.5006C16.0084 42.4174 16.0312 42.3494 16.0591 42.3494C16.0869 42.3494 16.1097 42.2813 16.1097 42.1981C16.1097 42.1149 16.1325 42.0469 16.1604 42.0469C16.1882 42.0469 16.211 41.9788 16.211 41.8956C16.211 41.8124 16.2338 41.7444 16.2617 41.7444C16.2896 41.7444 16.3124 41.6763 16.3124 41.5931C16.3124 41.5099 16.3351 41.4419 16.363 41.4419C16.3909 41.4419 16.4137 41.3738 16.4137 41.2906C16.4137 41.2075 16.4365 41.1394 16.4643 41.1394C16.4922 41.1394 16.515 41.0713 16.515 40.9881C16.515 40.905 16.5378 40.8369 16.5656 40.8369C16.5935 40.8369 16.6163 40.7688 16.6163 40.6856C16.6163 40.6025 16.6391 40.5344 16.667 40.5344C16.6948 40.5344 16.7176 40.4663 16.7176 40.3832C16.7176 40.3 16.7404 40.2319 16.7683 40.2319C16.7961 40.2319 16.8189 40.1638 16.8189 40.0807C16.8189 39.9975 16.8417 39.9294 16.8696 39.9294C16.8975 39.9294 16.9203 39.8613 16.9203 39.7782C16.9203 39.695 16.9431 39.6269 16.9709 39.6269C16.9988 39.6269 17.0216 39.5815 17.0216 39.5261C17.0216 39.4706 17.0444 39.4252 17.0722 39.4252C17.1001 39.4252 17.1229 39.3572 17.1229 39.274C17.1229 39.1908 17.1457 39.1228 17.1736 39.1228C17.2014 39.1228 17.2242 39.0547 17.2242 38.9715C17.2242 38.8883 17.247 38.8203 17.2749 38.8203C17.3027 38.8203 17.3255 38.7522 17.3255 38.669C17.3255 38.5858 17.3483 38.5178 17.3762 38.5178C17.4041 38.5178 17.4269 38.4594 17.4269 38.3881C17.4269 38.1032 17.2812 38.1144 20.973 38.1144C24.6648 38.1144 24.5192 38.1032 24.5192 38.3881C24.5192 38.4594 24.542 38.5178 24.5698 38.5178C24.5977 38.5178 24.6205 38.5858 24.6205 38.669C24.6205 38.7522 24.6433 38.8203 24.6712 38.8203C24.699 38.8203 24.7218 38.8883 24.7218 38.9715C24.7218 39.0547 24.7446 39.1228 24.7725 39.1228C24.8003 39.1228 24.8231 39.1908 24.8231 39.274C24.8231 39.3572 24.8459 39.4252 24.8738 39.4252C24.9017 39.4252 24.9245 39.4706 24.9245 39.5261C24.9245 39.5815 24.9473 39.6269 24.9751 39.6269C25.003 39.6269 25.0258 39.695 25.0258 39.7782C25.0258 39.8613 25.0486 39.9294 25.0764 39.9294C25.1043 39.9294 25.1271 39.9975 25.1271 40.0807C25.1271 40.1638 25.1499 40.2319 25.1778 40.2319C25.2056 40.2319 25.2284 40.3 25.2284 40.3832C25.2284 40.4663 25.2512 40.5344 25.2791 40.5344C25.3069 40.5344 25.3297 40.6025 25.3297 40.6856C25.3297 40.7688 25.3525 40.8369 25.3804 40.8369C25.4083 40.8369 25.4311 40.905 25.4311 40.9881C25.4311 41.0713 25.4539 41.1394 25.4817 41.1394C25.5096 41.1394 25.5324 41.2075 25.5324 41.2906C25.5324 41.3738 25.5552 41.4419 25.583 41.4419C25.6109 41.4419 25.6337 41.5099 25.6337 41.5931C25.6337 41.6763 25.6565 41.7444 25.6844 41.7444C25.7122 41.7444 25.735 41.8124 25.735 41.8956C25.735 41.9788 25.7578 42.0469 25.7857 42.0469C25.8135 42.0469 25.8363 42.1149 25.8363 42.1981C25.8363 42.2813 25.8591 42.3494 25.887 42.3494C25.9149 42.3494 25.9377 42.4174 25.9377 42.5006C25.9377 42.5838 25.9604 42.6519 25.9883 42.6519C26.0162 42.6519 26.039 42.7199 26.039 42.8031C26.039 42.8863 26.0618 42.9544 26.0896 42.9544C26.1175 42.9544 26.1403 43.0224 26.1403 43.1056C26.1403 43.1888 26.1631 43.2569 26.1909 43.2569C26.2188 43.2569 26.2416 43.3249 26.2416 43.4081C26.2416 43.4913 26.2644 43.5594 26.2923 43.5594C26.3201 43.5594 26.3429 43.6274 26.3429 43.7106C26.3429 43.7938 26.3657 43.8619 26.3936 43.8619C26.4214 43.8619 26.4442 43.9299 26.4442 44.0131C26.4442 44.0963 26.467 44.1643 26.4949 44.1643C26.5228 44.1643 26.5456 44.2324 26.5456 44.3156C26.5456 44.3988 26.5684 44.4668 26.5962 44.4668C26.6241 44.4668 26.6469 44.5349 26.6469 44.6181C26.6469 44.7013 26.6697 44.7693 26.6975 44.7693C26.7254 44.7693 26.7482 44.8374 26.7482 44.9206C26.7482 45.0038 26.771 45.0718 26.7989 45.0718C26.8267 45.0718 26.8495 45.1399 26.8495 45.2231C26.8495 45.3063 26.8723 45.3743 26.9002 45.3743C26.928 45.3743 26.9508 45.4424 26.9508 45.5256C26.9508 45.6088 26.9736 45.6768 27.0015 45.6768C27.0294 45.6768 27.0522 45.7449 27.0522 45.8281C27.0522 45.9113 27.075 45.9793 27.1028 45.9793C27.1307 45.9793 27.1535 46.0474 27.1535 46.1306C27.1535 46.2138 27.1763 46.2818 27.2041 46.2818C27.232 46.2818 27.2548 46.3499 27.2548 46.4331C27.2548 46.5162 27.2776 46.5843 27.3055 46.5843C27.3333 46.5843 27.3561 46.6524 27.3561 46.7356C27.3561 46.8187 27.3789 46.8868 27.4068 46.8868C27.4346 46.8868 27.4574 46.9549 27.4574 47.0381C27.4574 47.1212 27.4802 47.1893 27.5081 47.1893C27.536 47.1893 27.5588 47.2574 27.5588 47.3405C27.5588 47.4237 27.5816 47.4918 27.6094 47.4918C27.6373 47.4918 27.6601 47.5599 27.6601 47.643C27.6601 47.7262 27.6829 47.7943 27.7107 47.7943C27.7386 47.7943 27.7614 47.8624 27.7614 47.9455C27.7614 48.0287 27.7842 48.0968 27.8121 48.0968C27.8399 48.0968 27.8627 48.1648 27.8627 48.248C27.8627 48.3312 27.8855 48.3993 27.9134 48.3993C27.9412 48.3993 27.964 48.4673 27.964 48.5505C27.964 48.6337 27.9868 48.7018 28.0147 48.7018C28.0426 48.7018 28.0653 48.7698 28.0653 48.853C28.0653 48.9362 28.0881 49.0043 28.116 49.0043C28.1439 49.0043 28.1667 49.0723 28.1667 49.1555C28.1667 49.2387 28.1895 49.3068 28.2173 49.3068C28.2452 49.3068 28.268 49.3748 28.268 49.458C28.268 49.5412 28.2908 49.6093 28.3186 49.6093C28.3465 49.6093 28.3693 49.6773 28.3693 49.7605C28.3693 49.8437 28.3921 49.9118 28.42 49.9118C28.4478 49.9118 28.4706 49.9798 28.4706 50.063C28.4706 50.1462 28.4934 50.2143 28.5213 50.2143C28.5491 50.2143 28.5719 50.2823 28.5719 50.3655C28.5719 50.4487 28.5947 50.5168 28.6226 50.5168C28.6505 50.5168 28.6733 50.5848 28.6733 50.668C28.6733 50.7512 28.6961 50.8192 28.7239 50.8192C28.7518 50.8192 28.7746 50.8646 28.7746 50.9201C28.7746 50.9755 28.7974 51.0209 28.8252 51.0209C28.8531 51.0209 28.8759 51.0557 28.8759 51.0982C28.8759 51.1986 29.204 51.5251 29.3048 51.5251C29.3475 51.5251 29.3825 51.5478 29.3825 51.5755C29.3825 51.6035 29.5176 51.6259 29.6865 51.6259C29.8553 51.6259 29.9904 51.6035 29.9904 51.5755C29.9904 51.5478 30.036 51.5251 30.0917 51.5251C30.1475 51.5251 30.193 51.5024 30.193 51.4747C30.193 51.4469 30.2283 51.4242 30.2713 51.4242C30.3727 51.4242 30.5983 51.1997 30.5983 51.0988C30.5983 51.0559 30.6211 51.0209 30.649 51.0209C30.6785 51.0209 30.6996 50.8529 30.6996 50.6176C30.6996 50.3823 30.6785 50.2143 30.649 50.2143C30.6211 50.2143 30.5983 50.1462 30.5983 50.063C30.5983 49.9798 30.5755 49.9118 30.5477 49.9118C30.5198 49.9118 30.497 49.8437 30.497 49.7605C30.497 49.6773 30.4742 49.6093 30.4463 49.6093C30.4185 49.6093 30.3957 49.5412 30.3957 49.458C30.3957 49.3748 30.3729 49.3068 30.345 49.3068C30.3172 49.3068 30.2944 49.2387 30.2944 49.1555C30.2944 49.0723 30.2716 49.0043 30.2437 49.0043C30.2158 49.0043 30.193 48.9362 30.193 48.853C30.193 48.7698 30.1702 48.7018 30.1424 48.7018C30.1145 48.7018 30.0917 48.6337 30.0917 48.5505C30.0917 48.4673 30.0689 48.3993 30.0411 48.3993C30.0132 48.3993 29.9904 48.3312 29.9904 48.248C29.9904 48.1648 29.9676 48.0968 29.9397 48.0968C29.9119 48.0968 29.8891 48.0287 29.8891 47.9455C29.8891 47.8624 29.8663 47.7943 29.8384 47.7943C29.8106 47.7943 29.7878 47.7262 29.7878 47.643C29.7878 47.5599 29.765 47.4918 29.7371 47.4918C29.7092 47.4918 29.6865 47.4237 29.6865 47.3405C29.6865 47.2574 29.6637 47.1893 29.6358 47.1893C29.6079 47.1893 29.5851 47.1212 29.5851 47.0381C29.5851 46.9549 29.5623 46.8868 29.5345 46.8868C29.5066 46.8868 29.4838 46.8187 29.4838 46.7356C29.4838 46.6524 29.461 46.5843 29.4332 46.5843C29.4053 46.5843 29.3825 46.5162 29.3825 46.4331C29.3825 46.3499 29.3597 46.2818 29.3318 46.2818C29.304 46.2818 29.2812 46.2138 29.2812 46.1306C29.2812 46.0474 29.2584 45.9793 29.2305 45.9793C29.2027 45.9793 29.1799 45.9113 29.1799 45.8281C29.1799 45.7449 29.1571 45.6768 29.1292 45.6768C29.1013 45.6768 29.0785 45.6088 29.0785 45.5256C29.0785 45.4424 29.0557 45.3743 29.0279 45.3743C29 45.3743 28.9772 45.3063 28.9772 45.2231C28.9772 45.1399 28.9544 45.0718 28.9266 45.0718C28.8987 45.0718 28.8759 45.0038 28.8759 44.9206C28.8759 44.8374 28.8531 44.7693 28.8252 44.7693C28.7974 44.7693 28.7746 44.7013 28.7746 44.6181C28.7746 44.5349 28.7518 44.4668 28.7239 44.4668C28.6961 44.4668 28.6733 44.3988 28.6733 44.3156C28.6733 44.2324 28.6505 44.1643 28.6226 44.1643C28.5947 44.1643 28.5719 44.0963 28.5719 44.0131C28.5719 43.9299 28.5491 43.8619 28.5213 43.8619C28.4934 43.8619 28.4706 43.7938 28.4706 43.7106C28.4706 43.6274 28.4478 43.5594 28.42 43.5594C28.3921 43.5594 28.3693 43.4913 28.3693 43.4081C28.3693 43.3249 28.3465 43.2569 28.3186 43.2569C28.2908 43.2569 28.268 43.1888 28.268 43.1056C28.268 43.0224 28.2452 42.9544 28.2173 42.9544C28.1895 42.9544 28.1667 42.8863 28.1667 42.8031C28.1667 42.7199 28.1439 42.6519 28.116 42.6519C28.0881 42.6519 28.0653 42.5838 28.0653 42.5006C28.0653 42.4174 28.0426 42.3494 28.0147 42.3494C27.9868 42.3494 27.964 42.2813 27.964 42.1981C27.964 42.1149 27.9412 42.0469 27.9134 42.0469C27.8855 42.0469 27.8627 41.9788 27.8627 41.8956C27.8627 41.8124 27.8399 41.7444 27.8121 41.7444C27.7842 41.7444 27.7614 41.6763 27.7614 41.5931C27.7614 41.5099 27.7386 41.4419 27.7107 41.4419C27.6829 41.4419 27.6601 41.3738 27.6601 41.2906C27.6601 41.2075 27.6373 41.1394 27.6094 41.1394C27.5816 41.1394 27.5588 41.0713 27.5588 40.9881C27.5588 40.905 27.536 40.8369 27.5081 40.8369C27.4802 40.8369 27.4574 40.7688 27.4574 40.6856C27.4574 40.6025 27.4346 40.5344 27.4068 40.5344C27.3789 40.5344 27.3561 40.4663 27.3561 40.3832C27.3561 40.3 27.3333 40.2319 27.3055 40.2319C27.2776 40.2319 27.2548 40.1638 27.2548 40.0807C27.2548 39.9975 27.232 39.9294 27.2041 39.9294C27.1763 39.9294 27.1535 39.8613 27.1535 39.7782C27.1535 39.695 27.1307 39.6269 27.1028 39.6269C27.075 39.6269 27.0522 39.5588 27.0522 39.4757C27.0522 39.3925 27.0294 39.3244 27.0015 39.3244C26.9736 39.3244 26.9508 39.2564 26.9508 39.1732C26.9508 39.09 26.928 39.0219 26.9002 39.0219C26.8723 39.0219 26.8495 38.9539 26.8495 38.8707C26.8495 38.7875 26.8267 38.7194 26.7989 38.7194C26.771 38.7194 26.7482 38.6514 26.7482 38.5682C26.7482 38.485 26.7254 38.4169 26.6975 38.4169C26.6697 38.4169 26.6469 38.3489 26.6469 38.2657V38.1144H33.182C37.5049 38.1144 39.717 38.0973 39.717 38.064C39.717 38.0363 39.8082 38.0136 39.9197 38.0136C40.0311 38.0136 40.1223 37.9909 40.1223 37.9632C40.1223 37.9355 40.1679 37.9128 40.2236 37.9128C40.2793 37.9128 40.3249 37.8901 40.3249 37.8624C40.3249 37.8346 40.3705 37.8119 40.4263 37.8119C40.482 37.8119 40.5276 37.7893 40.5276 37.7615C40.5276 37.7338 40.5682 37.7111 40.6177 37.7111C40.6673 37.7111 40.7407 37.6657 40.7809 37.6103C40.821 37.5548 40.8838 37.5094 40.9204 37.5094C40.957 37.5094 41.0659 37.4308 41.1625 37.3347C41.2591 37.2386 41.3381 37.1301 41.3381 37.0937C41.3381 37.0573 41.3837 36.9948 41.4394 36.9549C41.4952 36.9149 41.5408 36.8418 41.5408 36.7925C41.5408 36.7432 41.5636 36.7028 41.5914 36.7028C41.6193 36.7028 41.6421 36.6574 41.6421 36.602C41.6421 36.5465 41.6649 36.5011 41.6927 36.5011C41.7206 36.5011 41.7434 36.4557 41.7434 36.4003C41.7434 36.3448 41.7662 36.2995 41.7941 36.2995C41.8219 36.2995 41.8447 36.2314 41.8447 36.1482C41.8447 36.065 41.8675 35.997 41.8954 35.997C41.929 35.997 41.946 30.989 41.946 21.0739C41.946 11.1587 41.929 6.15074 41.8954 6.15074C41.8675 6.15074 41.8447 6.08268 41.8447 5.99949C41.8447 5.91631 41.8219 5.84825 41.7941 5.84825C41.7662 5.84825 41.7434 5.78518 41.7434 5.70814C41.7434 5.62586 41.7016 5.53804 41.6421 5.49534C41.5864 5.45536 41.5408 5.3823 41.5408 5.33295C41.5408 5.28364 41.518 5.24326 41.4901 5.24326C41.4622 5.24326 41.4394 5.20872 41.4394 5.16652C41.4394 5.0731 40.9107 4.53743 40.8185 4.53743C40.7822 4.53743 40.7197 4.49206 40.6796 4.4366C40.6394 4.38114 40.566 4.33577 40.5164 4.33577C40.4668 4.33577 40.4263 4.31308 40.4263 4.28535C40.4263 4.25762 40.3579 4.23494 40.2743 4.23494C40.1907 4.23494 40.1223 4.21225 40.1223 4.18452C40.1223 4.15679 40.0539 4.13411 39.9703 4.13411C39.8867 4.13411 39.8183 4.11142 39.8183 4.08369C39.8183 4.05031 37.4784 4.03327 32.8997 4.03327C25.264 4.03327 25.8363 4.05954 25.8363 3.70915C25.8363 3.61013 25.8135 3.52911 25.7857 3.52911C25.7578 3.52911 25.735 3.46105 25.735 3.37787C25.735 3.29468 25.7122 3.22662 25.6844 3.22662C25.6565 3.22662 25.6337 3.18124 25.6337 3.12579C25.6337 3.07033 25.6109 3.02496 25.583 3.02496C25.5552 3.02496 25.5324 2.97958 25.5324 2.92412C25.5324 2.86867 25.5096 2.82329 25.4817 2.82329C25.4539 2.82329 25.4311 2.77792 25.4311 2.72246C25.4311 2.667 25.4083 2.62163 25.3804 2.62163C25.3525 2.62163 25.3297 2.58124 25.3297 2.53194C25.3297 2.48258 25.2841 2.40953 25.2284 2.36955C25.1727 2.32957 25.1271 2.26151 25.1271 2.2183C25.1271 2.17509 25.0815 2.10703 25.0258 2.06705C24.9701 2.02707 24.9245 1.96501 24.9245 1.92906C24.9245 1.84391 24.1861 1.10915 24.1006 1.10915C24.0645 1.10915 24.0021 1.06378 23.9619 1.00832C23.9218 0.952861 23.8575 0.907487 23.8191 0.907487C23.7807 0.907487 23.6854 0.839425 23.6073 0.756239C23.52 0.663221 23.4147 0.604991 23.3337 0.604991C23.2613 0.604991 23.202 0.582304 23.202 0.554575C23.202 0.526846 23.1564 0.504159 23.1007 0.504159C23.045 0.504159 22.9994 0.481472 22.9994 0.453743C22.9994 0.426015 22.9538 0.403327 22.8981 0.403327C22.8424 0.403327 22.7968 0.38064 22.7968 0.352911C22.7968 0.325183 22.7284 0.302496 22.6448 0.302496C22.5612 0.302496 22.4928 0.279808 22.4928 0.25208C22.4928 0.224351 22.4016 0.201664 22.2902 0.201664C22.1787 0.201664 22.0875 0.178977 22.0875 0.151248C22.0875 0.123519 21.9735 0.100832 21.8342 0.100832C21.6949 0.100832 21.5809 0.0781447 21.5809 0.0504159C21.5809 0.0196118 21.3445 0 20.973 0C20.6015 0 20.3651 0.0196118 20.3651 0.0504159ZM21.4796 2.06705C21.4796 2.09478 21.5708 2.11747 21.6823 2.11747C21.7937 2.11747 21.8849 2.14016 21.8849 2.16788C21.8849 2.19561 21.9533 2.2183 22.0369 2.2183C22.1205 2.2183 22.1889 2.24099 22.1889 2.26872C22.1889 2.29645 22.2344 2.31913 22.2902 2.31913C22.3459 2.31913 22.3915 2.34182 22.3915 2.36955C22.3915 2.39728 22.4279 2.41996 22.4725 2.41996C22.517 2.41996 22.6174 2.48803 22.6954 2.57121C22.7735 2.6544 22.8632 2.72246 22.8948 2.72246C22.9743 2.72246 23.3034 3.05722 23.3034 3.13819C23.3034 3.17459 23.349 3.23705 23.4047 3.27703C23.4604 3.31701 23.506 3.38508 23.506 3.42828C23.506 3.47149 23.5516 3.53955 23.6073 3.57953C23.663 3.61951 23.7086 3.69256 23.7086 3.74192C23.7086 3.79123 23.7314 3.83161 23.7593 3.83161C23.7872 3.83161 23.81 3.87698 23.81 3.93244C23.81 4.03206 23.7762 4.03327 20.973 4.03327C18.1699 4.03327 18.1361 4.03206 18.1361 3.93244C18.1361 3.87698 18.1589 3.83161 18.1868 3.83161C18.2146 3.83161 18.2374 3.79123 18.2374 3.74192C18.2374 3.69256 18.283 3.61951 18.3387 3.57953C18.3945 3.53955 18.44 3.47149 18.44 3.42828C18.44 3.38508 18.4856 3.31701 18.5414 3.27703C18.5971 3.23705 18.6427 3.17459 18.6427 3.13819C18.6427 3.05722 18.9717 2.72246 19.0513 2.72246C19.0828 2.72246 19.1725 2.6544 19.2506 2.57121C19.3287 2.48803 19.429 2.41996 19.4736 2.41996C19.5181 2.41996 19.5546 2.39728 19.5546 2.36955C19.5546 2.34182 19.6002 2.31913 19.6559 2.31913C19.7116 2.31913 19.7572 2.29645 19.7572 2.26872C19.7572 2.24099 19.8256 2.2183 19.9092 2.2183C19.9928 2.2183 20.0612 2.19561 20.0612 2.16788C20.0612 2.14016 20.1523 2.11747 20.2638 2.11747C20.3752 2.11747 20.4664 2.09478 20.4664 2.06705C20.4664 2.0368 20.6691 2.01664 20.973 2.01664C21.277 2.01664 21.4796 2.0368 21.4796 2.06705ZM39.5144 6.10033C39.5144 6.12806 39.5502 6.15074 39.594 6.15074C39.6964 6.15074 39.8183 6.27214 39.8183 6.37403C39.8183 6.41759 39.8411 6.45324 39.869 6.45324C39.9026 6.45324 39.9197 11.3526 39.9197 21.0503V35.6474L39.744 35.8222C39.6475 35.9183 39.5335 35.997 39.4907 35.997C39.448 35.997 39.4131 36.0197 39.4131 36.0474C39.4131 36.0798 38.9065 36.0978 37.9946 36.0978H36.5761V28.7371C36.5761 23.8635 36.559 21.3763 36.5255 21.3763C36.4976 21.3763 36.4748 21.3416 36.4748 21.2991C36.4748 21.1987 36.1468 20.8722 36.0459 20.8722C36.0032 20.8722 35.9682 20.8495 35.9682 20.8218C35.9682 20.794 35.9018 20.7714 35.8205 20.7714C35.7392 20.7714 35.6594 20.743 35.6431 20.7083C35.6195 20.6579 35.6077 20.6579 35.5841 20.7083C35.5678 20.743 35.4653 20.7714 35.3561 20.7714C35.2469 20.7714 35.1577 20.794 35.1577 20.8218C35.1577 20.8495 35.1225 20.8722 35.0794 20.8722C34.978 20.8722 34.7524 21.0967 34.7524 21.1976C34.7524 21.2405 34.7296 21.2755 34.7017 21.2755C34.6739 21.2755 34.6511 21.3436 34.6511 21.4268C34.6511 21.51 34.6283 21.578 34.6004 21.578C34.5669 21.578 34.5498 24.0316 34.5498 28.8379V36.0978H32.9793H31.4089V30.2496C31.4089 26.3843 31.3917 24.4013 31.3582 24.4013C31.3304 24.4013 31.3076 24.3663 31.3076 24.3234C31.3076 24.2225 31.0819 23.998 30.9805 23.998C30.9375 23.998 30.9023 23.9753 30.9023 23.9476C30.9023 23.9198 30.8567 23.8971 30.801 23.8971C30.7452 23.8971 30.6996 23.8745 30.6996 23.8467C30.6996 23.819 30.5857 23.7963 30.4463 23.7963C30.307 23.7963 30.193 23.819 30.193 23.8467C30.193 23.8745 30.1353 23.8971 30.0647 23.8971C29.922 23.8971 29.5851 24.197 29.5851 24.324C29.5851 24.3665 29.5623 24.4013 29.5345 24.4013C29.5066 24.4013 29.4838 24.4694 29.4838 24.5526C29.4838 24.6357 29.461 24.7038 29.4332 24.7038C29.3997 24.7038 29.3825 26.6364 29.3825 30.4008V36.0978H27.964H26.5456V31.9133C26.5456 29.1572 26.5283 27.7288 26.4949 27.7288C26.467 27.7288 26.4442 27.694 26.4442 27.6515C26.4442 27.6089 26.3652 27.4955 26.2686 27.3994C26.1721 27.3032 26.0581 27.2246 26.0153 27.2246C25.9726 27.2246 25.9377 27.2019 25.9377 27.1742C25.9377 27.1449 25.7725 27.1238 25.5436 27.1238C25.2076 27.1238 25.1387 27.1386 25.0764 27.2246C25.0363 27.2801 24.9629 27.3254 24.9133 27.3254C24.8606 27.3254 24.8231 27.3627 24.8231 27.4151C24.8231 27.4645 24.7775 27.5375 24.7218 27.5775C24.6513 27.6281 24.6205 27.708 24.6205 27.8407C24.6205 27.9455 24.5977 28.0312 24.5698 28.0312C24.5365 28.0312 24.5192 29.4093 24.5192 32.0645V36.0978H23.2527H21.9862V30.7033C21.9862 27.1406 21.969 25.3088 21.9356 25.3088C21.9077 25.3088 21.8849 25.2515 21.8849 25.1814C21.8849 25.0978 21.807 24.9766 21.6582 24.8285C21.4756 24.6467 21.397 24.603 21.253 24.603C21.1547 24.603 21.0743 24.5803 21.0743 24.5526C21.0743 24.5248 21.0287 24.5021 20.973 24.5021C20.9173 24.5021 20.8717 24.5248 20.8717 24.5526C20.8717 24.5803 20.7913 24.603 20.6931 24.603C20.5491 24.603 20.4705 24.6467 20.2878 24.8285C20.139 24.9766 20.0612 25.0978 20.0612 25.1814C20.0612 25.2515 20.0384 25.3088 20.0105 25.3088C19.9771 25.3088 19.9598 27.1406 19.9598 30.7033V36.0978H18.4907H17.0216V33.2241C17.0216 31.3419 17.0041 30.3504 16.9709 30.3504C16.9431 30.3504 16.9203 30.2873 16.9203 30.2103C16.9203 30.128 16.8784 30.0402 16.8189 29.9975C16.7632 29.9575 16.7176 29.8844 16.7176 29.8351C16.7176 29.779 16.6797 29.7454 16.6163 29.7454C16.5606 29.7454 16.515 29.7227 16.515 29.695C16.515 29.6672 16.4694 29.6446 16.4137 29.6446C16.3579 29.6446 16.3124 29.6219 16.3124 29.5941C16.3124 29.5661 16.1772 29.5437 16.0084 29.5437C15.8395 29.5437 15.7044 29.5661 15.7044 29.5941C15.7044 29.6219 15.6588 29.6446 15.6031 29.6446C15.5474 29.6446 15.5018 29.6672 15.5018 29.695C15.5018 29.7227 15.466 29.7454 15.4222 29.7454C15.3198 29.7454 15.1978 29.8668 15.1978 29.9687C15.1978 30.0122 15.175 30.0479 15.1472 30.0479C15.1193 30.0479 15.0965 30.0933 15.0965 30.1487C15.0965 30.2042 15.0737 30.2496 15.0459 30.2496C15.0127 30.2496 14.9952 31.2579 14.9952 33.1737V36.0978H13.83H12.6649V33.4762C12.6649 31.762 12.6473 30.8545 12.6142 30.8545C12.5863 30.8545 12.5635 30.7745 12.5635 30.6768C12.5635 30.5334 12.5196 30.4552 12.3369 30.2734C12.1881 30.1254 12.0663 30.0479 11.9823 30.0479C11.9119 30.0479 11.8543 30.0252 11.8543 29.9975C11.8543 29.9697 11.7403 29.9471 11.601 29.9471C11.4617 29.9471 11.3477 29.9697 11.3477 29.9975C11.3477 30.0252 11.3021 30.0479 11.2464 30.0479C11.1907 30.0479 11.1451 30.0706 11.1451 30.0983C11.1451 30.126 11.1093 30.1487 11.0655 30.1487C10.9678 30.1487 10.8411 30.2686 10.8411 30.3609C10.8411 30.3983 10.7955 30.4617 10.7398 30.5016C10.6406 30.5728 10.6385 30.6322 10.6385 33.3361V36.0978H9.27068H7.90288V33.9803C7.90288 32.6023 7.8852 31.8629 7.85222 31.8629C7.82436 31.8629 7.80156 31.8175 7.80156 31.762C7.80156 31.7066 7.77876 31.6612 7.7509 31.6612C7.72304 31.6612 7.70024 31.6256 7.70024 31.582C7.70024 31.4848 7.57982 31.3587 7.48707 31.3587C7.44943 31.3587 7.3858 31.3133 7.34562 31.2579C7.28336 31.1719 7.21447 31.157 6.87849 31.157C6.64956 31.157 6.48441 31.1782 6.48441 31.2075C6.48441 31.2352 6.4492 31.2579 6.40614 31.2579C6.30477 31.2579 6.07914 31.4824 6.07914 31.5833C6.07914 31.6262 6.05634 31.6612 6.02848 31.6612C6.00061 31.6612 5.97782 31.7066 5.97782 31.762C5.97782 31.8175 5.95502 31.8629 5.92716 31.8629C5.89418 31.8629 5.8765 32.6023 5.8765 33.9803V36.0978H4.20474C3.12402 36.0978 2.53297 36.0799 2.53297 36.0474C2.53297 36.0197 2.49802 35.997 2.45531 35.997C2.41256 35.997 2.29857 35.9183 2.20202 35.8222L2.02638 35.6474V21.0503C2.02638 11.3526 2.0434 6.45324 2.07704 6.45324C2.1049 6.45324 2.1277 6.41759 2.1277 6.37403C2.1277 6.27214 2.24969 6.15074 2.35207 6.15074C2.39584 6.15074 2.43165 6.12806 2.43165 6.10033C2.43165 6.0668 8.6459 6.04991 20.973 6.04991C33.3001 6.04991 39.5144 6.0668 39.5144 6.10033ZM6.88969 9.93194C6.88969 9.95966 6.84409 9.98235 6.78837 9.98235C6.73264 9.98235 6.68705 10.005 6.68705 10.0328C6.68705 10.0605 6.65123 10.0832 6.60746 10.0832C6.50979 10.0832 6.38309 10.203 6.38309 10.2953C6.38309 10.3328 6.3375 10.3961 6.28177 10.4361C6.19758 10.4965 6.18046 10.5666 6.18046 10.8506C6.18046 11.0448 6.20234 11.1923 6.23112 11.1923C6.25898 11.1923 6.28177 11.2377 6.28177 11.2932C6.28177 11.3486 6.30457 11.394 6.33243 11.394C6.3603 11.394 6.38309 11.4394 6.38309 11.4948C6.38309 11.5579 6.41688 11.5957 6.47322 11.5957C6.52281 11.5957 6.59622 11.641 6.63639 11.6965C6.6793 11.7557 6.76755 11.7973 6.85022 11.7973C6.92763 11.7973 6.99101 11.82 6.99101 11.8477C6.99101 11.8755 7.08219 11.8982 7.19365 11.8982C7.3051 11.8982 7.39628 11.8755 7.39628 11.8477C7.39628 11.82 7.45404 11.7973 7.5246 11.7973C7.66731 11.7973 8.0042 11.4975 8.0042 11.3705C8.0042 11.328 8.02699 11.2932 8.05486 11.2932C8.08272 11.2932 8.10552 11.2251 8.10552 11.1419C8.10552 11.0587 8.12831 10.9907 8.15618 10.9907C8.18404 10.9907 8.20683 10.9226 8.20683 10.8394C8.20683 10.7562 8.18404 10.6882 8.15618 10.6882C8.12831 10.6882 8.10552 10.6309 8.10552 10.5608C8.10552 10.4184 7.70556 9.98235 7.57491 9.98235C7.53241 9.98235 7.4976 9.95966 7.4976 9.93194C7.4976 9.9039 7.36249 9.88152 7.19365 9.88152C7.0248 9.88152 6.88969 9.9039 6.88969 9.93194ZM30.9023 9.93194C30.9023 9.95966 30.8567 9.98235 30.801 9.98235C30.7452 9.98235 30.6996 10.005 30.6996 10.0328C30.6996 10.0605 30.6638 10.0832 30.6201 10.0832C30.5177 10.0832 30.3957 10.2046 30.3957 10.3065C30.3957 10.35 30.3729 10.3857 30.345 10.3857C30.3172 10.3857 30.2944 10.4311 30.2944 10.4865C30.2944 10.542 30.2716 10.5873 30.2437 10.5873C30.2155 10.5873 30.193 10.7218 30.193 10.8898C30.193 11.0579 30.2155 11.1923 30.2437 11.1923C30.2716 11.1923 30.2944 11.227 30.2944 11.2693C30.2944 11.3993 30.7325 11.7973 30.8756 11.7973C30.946 11.7973 31.0036 11.82 31.0036 11.8477C31.0036 11.8797 31.3751 11.8982 32.0168 11.8982C32.574 11.8982 33.03 11.9096 33.03 11.9235C33.03 11.9735 24.7714 20.1664 24.721 20.1664C24.6926 20.1664 24.1915 19.6899 23.6073 19.1076C23.0232 18.5253 22.5157 18.0489 22.4795 18.0489C22.4434 18.0489 22.381 18.0035 22.3408 17.9481C22.2979 17.8889 22.2097 17.8472 22.127 17.8472C22.0496 17.8472 21.9862 17.8245 21.9862 17.7968C21.9862 17.7691 21.9178 17.7464 21.8342 17.7464C21.7506 17.7464 21.6823 17.7691 21.6823 17.7968C21.6823 17.8245 21.6024 17.8472 21.5047 17.8472C21.3371 17.8472 21.117 18.0564 17.5788 21.578C15.5173 23.6299 13.8072 25.3088 13.7788 25.3088C13.7503 25.3088 13.2263 24.8097 12.6142 24.1996C12.0021 23.5896 11.4718 23.0905 11.4357 23.0905C11.3996 23.0905 11.3372 23.0451 11.2971 22.9897C11.2364 22.9059 11.1659 22.8888 10.8806 22.8888C10.6854 22.8888 10.5372 22.9106 10.5372 22.9392C10.5372 22.967 10.4966 22.9897 10.447 22.9897C10.3975 22.9897 10.324 23.035 10.2839 23.0905C10.2437 23.1459 10.1816 23.1913 10.1459 23.1913C10.0609 23.1913 6.48441 26.7506 6.48441 26.8352C6.48441 26.8707 6.43882 26.9325 6.38309 26.9725C6.32737 27.0125 6.28177 27.0855 6.28177 27.1349C6.28177 27.1842 6.25898 27.2246 6.23112 27.2246C6.20219 27.2246 6.18046 27.3758 6.18046 27.5775C6.18046 27.7792 6.20219 27.9304 6.23112 27.9304C6.25898 27.9304 6.28177 27.9652 6.28177 28.0077C6.28177 28.1081 6.60985 28.4346 6.71071 28.4346C6.75341 28.4346 6.78837 28.4573 6.78837 28.485C6.78837 28.5143 6.95352 28.5354 7.18245 28.5354C7.51842 28.5354 7.58732 28.5205 7.64958 28.4346C7.68975 28.3791 7.75206 28.3337 7.78803 28.3337C7.824 28.3337 8.53714 27.6528 9.37271 26.8206L10.892 25.3074L12.0562 26.4677C12.6966 27.1058 13.2551 27.6279 13.2973 27.6279C13.3396 27.6279 13.3741 27.6506 13.3741 27.6783C13.3741 27.7076 13.5393 27.7288 13.7682 27.7288C14.1042 27.7288 14.1731 27.7139 14.2353 27.6279C14.2755 27.5725 14.3376 27.5271 14.3734 27.5271C14.4092 27.5271 16.0796 25.8936 18.0854 23.8971C20.0912 21.9007 21.7557 20.2672 21.7841 20.2672C21.8126 20.2672 22.3367 20.7663 22.9487 21.3763C23.5608 21.9864 24.0961 22.4855 24.1384 22.4855C24.1807 22.4855 24.2152 22.5082 24.2152 22.5359C24.2152 22.5636 24.2608 22.5863 24.3165 22.5863C24.3723 22.5863 24.4179 22.609 24.4179 22.6367C24.4179 22.6648 24.553 22.6872 24.7218 22.6872C24.8907 22.6872 25.0258 22.6648 25.0258 22.6367C25.0258 22.609 25.0664 22.5863 25.1159 22.5863C25.1655 22.5863 25.2389 22.541 25.2791 22.4855C25.3193 22.43 25.3814 22.3847 25.4171 22.3847C25.4529 22.3847 27.5109 20.3655 29.9904 17.8977C32.4699 15.4298 34.5102 13.4106 34.5242 13.4106C34.5383 13.4106 34.5498 13.8644 34.5498 14.419C34.5498 15.0576 34.5684 15.4273 34.6004 15.4273C34.6283 15.4273 34.6511 15.4846 34.6511 15.5546C34.6511 15.697 35.051 16.1331 35.1817 16.1331C35.2242 16.1331 35.259 16.1558 35.259 16.1835C35.259 16.2115 35.3941 16.2339 35.563 16.2339C35.7318 16.2339 35.8669 16.2115 35.8669 16.1835C35.8669 16.1558 35.9125 16.1331 35.9682 16.1331C36.024 16.1331 36.0695 16.1104 36.0695 16.0827C36.0695 16.0549 36.1054 16.0323 36.1491 16.0323C36.193 16.0323 36.2613 15.9998 36.3011 15.9602C36.3409 15.9206 36.3735 15.8526 36.3735 15.809C36.3735 15.7654 36.3963 15.7298 36.4242 15.7298C36.452 15.7298 36.4748 15.6844 36.4748 15.6289C36.4748 15.5735 36.4976 15.5281 36.5255 15.5281C36.5586 15.5281 36.5761 14.6542 36.5761 13.0073C36.5761 11.3604 36.5586 10.4865 36.5255 10.4865C36.4976 10.4865 36.4748 10.4517 36.4748 10.4092C36.4748 10.3088 36.1468 9.98235 36.0459 9.98235C36.0032 9.98235 35.9682 9.95966 35.9682 9.93194C35.9682 9.89901 35.0901 9.88152 33.4353 9.88152C31.7804 9.88152 30.9023 9.89901 30.9023 9.93194ZM6.78837 14.066C6.78837 14.0938 6.75341 14.1165 6.71071 14.1165C6.60985 14.1165 6.28177 14.443 6.28177 14.5433C6.28177 14.5858 6.25898 14.6206 6.23112 14.6206C6.20219 14.6206 6.18046 14.7719 6.18046 14.9735C6.18046 15.1752 6.20219 15.3264 6.23112 15.3264C6.25898 15.3264 6.28177 15.3611 6.28177 15.4034C6.28177 15.4457 6.38375 15.5818 6.50843 15.7059C6.68903 15.8857 6.77044 15.9314 6.90945 15.9314C7.00539 15.9314 7.09719 15.9598 7.11345 15.9944C7.13706 16.0449 7.14891 16.0449 7.17252 15.9944C7.18878 15.9598 7.29132 15.9314 7.40049 15.9314C7.50966 15.9314 7.59892 15.9087 7.59892 15.881C7.59892 15.8533 7.63413 15.8306 7.67719 15.8306C7.77856 15.8306 8.0042 15.606 8.0042 15.5052C8.0042 15.4623 8.02699 15.4273 8.05486 15.4273C8.08272 15.4273 8.10552 15.3592 8.10552 15.276C8.10552 15.1928 8.12831 15.1248 8.15618 15.1248C8.18404 15.1248 8.20683 15.0567 8.20683 14.9735C8.20683 14.8903 8.18404 14.8223 8.15618 14.8223C8.12831 14.8223 8.10552 14.7592 8.10552 14.6822C8.10552 14.5999 8.06367 14.5121 8.0042 14.4694C7.94847 14.4294 7.90288 14.3563 7.90288 14.307C7.90288 14.2546 7.86539 14.2173 7.81275 14.2173C7.76316 14.2173 7.68975 14.1719 7.64958 14.1165C7.58732 14.0305 7.51842 14.0156 7.18245 14.0156C6.95352 14.0156 6.78837 14.0367 6.78837 14.066ZM7.09233 18.0993C7.09233 18.127 7.01193 18.1497 6.9137 18.1497C6.76968 18.1497 6.6911 18.1934 6.50843 18.3753C6.38375 18.4993 6.28177 18.6354 6.28177 18.6778C6.28177 18.7201 6.25898 18.7547 6.23112 18.7547C6.20219 18.7547 6.18046 18.906 6.18046 19.1076C6.18046 19.3093 6.20219 19.4605 6.23112 19.4605C6.25898 19.4605 6.28177 19.4953 6.28177 19.5378C6.28177 19.6382 6.60985 19.9647 6.71071 19.9647C6.75341 19.9647 6.78837 19.9874 6.78837 20.0151C6.78837 20.0444 6.95352 20.0655 7.18245 20.0655C7.51842 20.0655 7.58732 20.0507 7.64958 19.9647C7.68975 19.9092 7.75338 19.8639 7.79102 19.8639C7.88378 19.8639 8.0042 19.7378 8.0042 19.6406C8.0042 19.597 8.02699 19.5614 8.05486 19.5614C8.08272 19.5614 8.10552 19.4933 8.10552 19.4101C8.10552 19.3269 8.12831 19.2589 8.15618 19.2589C8.18404 19.2589 8.20683 19.1908 8.20683 19.1076C8.20683 19.0244 8.18404 18.9564 8.15618 18.9564C8.12831 18.9564 8.10552 18.8883 8.10552 18.8051C8.10552 18.722 8.08272 18.6539 8.05486 18.6539C8.02699 18.6539 8.0042 18.6189 8.0042 18.576C8.0042 18.4751 7.77856 18.2506 7.67719 18.2506C7.63413 18.2506 7.59892 18.2279 7.59892 18.2001C7.59892 18.1724 7.50773 18.1497 7.39628 18.1497C7.28483 18.1497 7.19365 18.127 7.19365 18.0993C7.19365 18.0716 7.17085 18.0489 7.14299 18.0489C7.11512 18.0489 7.09233 18.0716 7.09233 18.0993Z" fill="#EAAE13"/>
</svg>
